M48
METRIC,0000.00
T01F00S00C0.020
T03F00S00C0.038
T05F00S00C0.040
%
T01
X+020954Y+015239
Y+033019
X+023367Y+024891
X+024383Y+033527
X+024891Y+021843
X+026923Y+030987
Y+014071
X+028447Y+045211
X+029971Y+026415
X+031495Y+027431
X+033019Y+038099
Y+017779
X+036067Y+028447
Y+016763
Y+044703
Y+034035
X+038099Y+036194
X+040131Y+026415
Y+019811
X+041274Y+040639
Y+036194
X+041909Y+043179
X+042544Y+040639
X+043179Y+022859
X+043814Y+040639
X+045719Y+044195
X+047243Y+036575
X+053339Y+034035
X+055879Y+042163
Y+046227
X+056895Y+019811
Y+024891
X+058419Y+020827
Y+014223
X+062483Y+019811
X+067563Y+030987
X+070484Y+052069
Y+053974
X+075183Y+033019
X+076707
Y+029463
X+078562Y+043230
X+080263Y+021335
X+084327Y+046227
X+089915Y+051307
Y+033019
X+090804Y+022859
X+093344Y+052704
X+093979Y+042163
X+095503Y+035559
X+095884Y+052704
X+098424
X+098551Y+027939
Y+033019
X+099059Y+024383
X+099567Y+037591
X+100964Y+052704
X+101091Y+026923
Y+038607
X+102107Y+040131
X+103504Y+052704
X+103631Y+041147
X+104647Y+042671
X+106044Y+052704
Y+045084
X+106171Y+020319
X+107187Y+024383
Y+029971
X+107949Y+043179
X+109219Y+019049
Y+031114
X+110743Y+025399
X+114299Y+051815
X+114807Y+035051
Y+045211
Y+040131
Y+032511
Y+027431
Y+029971
Y+047751
X+115265Y+043738
X+116331Y+028447
Y+038607
X+116662Y+042646
T03
X+022834Y+027965
X+022859Y+050799
Y+048259
Y+045719
Y+015239
Y+035559
Y+038099
Y+040639
Y+020319
X+025349Y+029641
X+025399Y+015239
X+027914Y+027965
X+029209Y+038099
Y+040639
Y+020319
X+030479Y+050799
Y+048259
Y+045719
Y+035559
X+033019Y+033019
Y+040639
Y+050799
Y+043179
Y+030479
X+035559
X+038099Y+050799
Y+043179
Y+017779
Y+020319
Y+022859
X+040639Y+030479
X+043179
X+045719Y+040639
Y+038099
X+046989Y+015239
Y+022859
X+050799Y+040639
Y+038099
X+053339Y+015874
Y+018414
Y+020954
Y+023494
Y+026034
Y+028574
Y+031114
X+054609Y+036829
Y+044449
X+055879Y+048259
Y+050799
X+057149Y+044449
Y+036829
X+059689Y+044449
Y+036829
X+060959Y+015874
Y+018414
Y+020954
Y+023494
Y+026034
Y+028574
Y+031114
X+063499Y+033654
Y+036194
X+065608Y+038049
X+066674Y+019049
Y+016509
X+067284Y+035534
Y+040614
X+068579Y+025399
Y+033019
X+072389Y+040004
Y+016509
Y+035559
X+073659Y+048259
Y+050799
X+074294Y+027889
Y+022656
X+075336Y+043129
Y+045669
X+077444Y+048920
X+077469Y+016509
Y+035559
X+078739Y+026034
Y+028574
X+079959Y+050596
X+080009Y+040004
X+081914Y+016509
Y+019049
Y+021589
Y+024129
Y+026669
Y+029209
Y+031749
Y+034289
Y+036829
Y+039369
Y+041909
Y+044449
X+082524Y+048920
X+084200Y+050393
Y+052933
X+091439Y+047624
X+093979
X+097154Y+019049
Y+016509
Y+024129
Y+021589
Y+044449
Y+041909
Y+039369
Y+036829
Y+034289
Y+031749
Y+029209
Y+026669
X+107949Y+016509
X+112394Y+052704
Y+045084
X+114299Y+016509
T05
X+042875Y+045719
Y+050799
X+053035Y+048259
X+063499Y+042875
X+066039Y+053035
X+068579Y+042875
T00
M30
