*%FSLAX53Y53*
SFA1.0B1.0*%
G71*
G90*
G01*
D02*
G54D11*
X117144Y50800D02*
X121615Y50800D01*
X121615Y51435D01*
X117144Y51435D01*
X117119Y52070D02*
X121615Y52070D01*
X70866Y52705D02*
X109372Y52705D01*
X116916Y52705D02*
X121615Y52705D01*
X70205Y53340D02*
X109626Y53340D01*
X116078Y53340D02*
X121615Y53340D01*
X69519Y53975D02*
X110032Y53975D01*
X115239Y53975D02*
X121615Y53975D01*
X68681Y54610D02*
X69291Y54610D01*
X110464Y54610D02*
X114096Y54610D01*
X121920Y51435D02*
X121920Y50800D01*
X116840Y50800D01*
X116840Y52222D01*
X116713Y52476D01*
X113969Y54533D01*
X113766Y54610D01*
X110972Y54610D01*
X110693Y54457D01*
X109524Y52705D01*
X70739Y52705D01*
X69164Y54229D01*
X69037Y54152D01*
X121920Y53975D01*
X121920Y51435D01*
X38735Y43815D02*
X38735Y43815D01*
X38735Y47625D01*
X39674Y47625D01*
X39674Y43815D01*
X40640Y43815D01*
X40640Y47625D01*
X41579Y47625D01*
X41579Y43815D01*
X42545Y43815D01*
X42545Y47625D01*
X38100Y43180D01*
X43180Y48260D01*
X43180Y43180D01*
X38100Y43180D01*
X38100Y48260D01*
X43180Y48260D01*
X40640Y45720D01*
X30861Y35915D02*
X38354Y35915D01*
X38862Y36271D02*
X45339Y36271D01*
X44780Y36626D02*
X45389Y36626D01*
X44780Y36982D02*
X45389Y36982D01*
X45389Y37338D01*
X44856Y37338D01*
X45110Y37693D01*
X45389Y37693D01*
X30734Y36195D02*
X44704Y36195D01*
X45085Y36576D01*
X45085Y38100D01*
X45796Y38100D01*
X45135Y37109D01*
X45085Y36931D01*
X45085Y36195D01*
X39243Y36195D01*
X39014Y36093D01*
X38481Y35560D01*
X30480Y35560D01*
X30480Y35941D01*
X30734Y36195D01*
X41910Y36830D02*
X41910Y36830D01*
X41910Y39370D01*
X42545Y39370D01*
X42545Y36830D01*
X43180Y36830D01*
X43180Y39370D01*
X41275Y36195D01*
X43815Y40005D01*
X43815Y36195D01*
X41275Y36195D01*
X41275Y40005D01*
X43815Y40005D01*
X42545Y38100D01*
D02*
G54D11*
X67564Y40132D02*
X72390Y40005D01*
X75133Y47447D02*
X79095Y47447D01*
X79095Y47447D02*
X81788Y48768D01*
X73456Y46228D02*
X75133Y47447D01*
X80314Y37109D02*
X81915Y39395D01*
X69088Y43180D02*
X75565Y43180D01*
X75565Y43180D02*
X92964Y43180D01*
X81915Y44450D02*
X81915Y45720D01*
X75565Y45720D02*
X81915Y45720D01*
X55880Y46228D02*
X73456Y46228D01*
X84302Y48717D02*
X84302Y50419D01*
X82905Y48742D02*
X84099Y48742D01*
X119888Y33528D02*
X120091Y33096D01*
X116332Y33528D02*
X119888Y33528D01*
X119888Y36068D02*
X120091Y35636D01*
X116332Y36068D02*
X119888Y36068D01*
X17754Y16687D02*
X17780Y16764D01*
X17780Y16764D02*
X19812Y16764D01*
X19812Y16764D02*
X20320Y17272D01*
X20320Y17272D02*
X23368Y17272D01*
X119888Y46228D02*
X120091Y45796D01*
X116332Y46228D02*
X119888Y46228D01*
X119888Y43688D02*
X120091Y43256D01*
X119888Y41148D02*
X120091Y40716D01*
X116332Y41148D02*
X119888Y41148D01*
X119888Y38100D02*
X120091Y38176D01*
X118872Y38100D02*
X119888Y38100D01*
X118364Y37592D02*
X118872Y38100D01*
X114808Y37592D02*
X118364Y37592D01*
X119888Y50800D02*
X120015Y50800D01*
X119888Y30988D02*
X120091Y30556D01*
X116332Y30988D02*
X119888Y30988D01*
X119888Y27940D02*
X120091Y28016D01*
X118872Y27940D02*
X119888Y27940D01*
X118364Y27432D02*
X118872Y27940D01*
X114808Y27432D02*
X118364Y27432D01*
X17754Y24917D02*
X17780Y24892D01*
X17780Y24892D02*
X23368Y24892D01*
X119888Y48260D02*
X120091Y48336D01*
X118872Y48260D02*
X119888Y48260D01*
X118364Y47752D02*
X118872Y48260D01*
X114808Y47752D02*
X118364Y47752D01*
X59436Y36576D02*
X59690Y36830D01*
X57404Y36576D02*
X59436Y36576D01*
X57150Y36830D02*
X57404Y36576D01*
X56896Y44196D02*
X57150Y44450D01*
X54864Y44196D02*
X56896Y44196D01*
X54610Y44450D02*
X54864Y44196D01*
X30480Y50800D02*
X33020Y50800D01*
X42672Y50800D02*
X42875Y50800D01*
X38100Y50800D02*
X42672Y50800D01*
X30480Y35560D02*
X38100Y35560D01*
X43180Y50800D02*
X55880Y50800D01*
X42875Y50800D02*
X43180Y50800D01*
X81788Y26416D02*
X81915Y26670D01*
X79248Y26416D02*
X81788Y26416D01*
X78740Y26035D02*
X79248Y26416D01*
X81788Y28956D02*
X81915Y29210D01*
X79248Y28956D02*
X81788Y28956D01*
X78740Y28575D02*
X79248Y28956D01*
X77216Y48768D02*
X77444Y48920D01*
X76200Y48768D02*
X77216Y48768D01*
X75692Y48260D02*
X76200Y48768D01*
X73660Y48260D02*
X75692Y48260D01*
X78740Y28448D02*
X78740Y28575D01*
X77216Y28448D02*
X78740Y28448D01*
X76708Y27940D02*
X77216Y28448D01*
X74676Y27940D02*
X76708Y27940D01*
X74295Y27889D02*
X74676Y27940D01*
X63500Y33655D02*
X64008Y34036D01*
X64008Y34036D02*
X65024Y34036D01*
X65024Y34036D02*
X66040Y35052D01*
X66040Y35052D02*
X67056Y35052D01*
X67056Y35052D02*
X67284Y35534D01*
X66548Y16256D02*
X66675Y16510D01*
X61468Y16256D02*
X66548Y16256D01*
X60960Y15875D02*
X61468Y16256D01*
X66040Y53035D02*
X66548Y52832D01*
X66548Y52832D02*
X68580Y52832D01*
X68580Y52832D02*
X70612Y50800D01*
X70612Y50800D02*
X73660Y50800D01*
X22860Y48260D02*
X27432Y48260D01*
X27432Y48260D02*
X29972Y45720D01*
X29972Y45720D02*
X30480Y45720D01*
X46736Y15240D02*
X46990Y15240D01*
X44196Y15240D02*
X46736Y15240D01*
X41656Y17780D02*
X44196Y15240D01*
X38100Y17780D02*
X41656Y17780D01*
X97155Y34290D02*
X97536Y34544D01*
X97536Y34544D02*
X105664Y34544D01*
X105664Y34544D02*
X106172Y35052D01*
X106172Y35052D02*
X114808Y35052D01*
X60960Y30988D02*
X60960Y31115D01*
X82524Y48920D02*
X82804Y48768D01*
X82804Y48768D02*
X87884Y48768D01*
X87884Y48768D02*
X88392Y49276D01*
X88392Y49276D02*
X92456Y49276D01*
X92456Y49276D02*
X92964Y48768D01*
X92964Y48768D02*
X113792Y48768D01*
X113792Y48768D02*
X114808Y47752D01*
X59690Y36830D02*
X59944Y36576D01*
X59944Y34036D02*
X59944Y36576D01*
X63500Y33655D02*
X63500Y34036D01*
X59944Y34036D02*
X63500Y34036D01*
X97028Y42164D02*
X97155Y41910D01*
X93980Y42164D02*
X97028Y42164D01*
X92964Y43180D02*
X93980Y42164D01*
X29210Y38100D02*
X29464Y38100D01*
X29464Y38100D02*
X33020Y38100D01*
X81788Y44704D02*
X81915Y44450D01*
X22860Y45720D02*
X23368Y45212D01*
X23368Y45212D02*
X28448Y45212D01*
X17754Y22123D02*
X17780Y21844D01*
X17780Y21844D02*
X24892Y21844D01*
X59690Y44450D02*
X59944Y44196D01*
X59944Y44196D02*
X65531Y44196D01*
X65531Y38100D02*
X65608Y38049D01*
X65531Y38100D02*
X65531Y44196D01*
X38100Y22860D02*
X43180Y22860D01*
X54356Y44196D02*
X54610Y44450D01*
X45720Y44196D02*
X54356Y44196D01*
X60960Y31115D02*
X61468Y30988D01*
X61468Y30988D02*
X67564Y30988D01*
X33020Y17780D02*
X38100Y17780D01*
X17780Y36042D02*
X18288Y35560D01*
X18288Y35560D02*
X20320Y35560D01*
X20320Y35560D02*
X21844Y34036D01*
X21844Y34036D02*
X23876Y34036D01*
X23876Y34036D02*
X24384Y33528D01*
X68580Y33020D02*
X75184Y33020D01*
X63500Y36195D02*
X64008Y36576D01*
X64008Y36576D02*
X66548Y36576D01*
X66548Y36576D02*
X67056Y37084D01*
X67056Y37084D02*
X80264Y37084D01*
X54356Y36576D02*
X54610Y36830D01*
X47244Y36576D02*
X54356Y36576D01*
X100076Y28448D02*
X116332Y28448D01*
X99568Y27940D02*
X100076Y28448D01*
X98552Y27940D02*
X99568Y27940D01*
X99060Y33528D02*
X116332Y33528D01*
X98552Y33020D02*
X99060Y33528D01*
X106680Y36068D02*
X116332Y36068D01*
X106172Y35560D02*
X106680Y36068D01*
X95504Y35560D02*
X106172Y35560D01*
X66548Y19304D02*
X66675Y19050D01*
X64008Y19304D02*
X66548Y19304D01*
X63500Y19812D02*
X64008Y19304D01*
X62484Y19812D02*
X63500Y19812D01*
X99568Y37592D02*
X114808Y37592D01*
X33020Y40640D02*
X38608Y40640D01*
X38608Y40640D02*
X40132Y42164D01*
X40132Y42164D02*
X55880Y42164D01*
X60960Y26035D02*
X60960Y26416D01*
X58420Y26416D02*
X60960Y26416D01*
X57404Y27432D02*
X58420Y26416D01*
X31496Y27432D02*
X57404Y27432D01*
X68072Y21336D02*
X80264Y21336D01*
X67056Y22352D02*
X68072Y21336D01*
X50800Y22352D02*
X67056Y22352D01*
X49784Y21336D02*
X50800Y22352D01*
X39116Y21336D02*
X49784Y21336D01*
X38100Y20320D02*
X39116Y21336D01*
X84328Y46228D02*
X116332Y46228D01*
X60960Y26035D02*
X60960Y26416D01*
X59436Y27940D02*
X60960Y26416D01*
X59436Y27940D02*
X59436Y29972D01*
X104648Y32512D02*
X114808Y32512D01*
X102616Y30480D02*
X104648Y32512D01*
X72644Y30480D02*
X102616Y30480D01*
X72136Y29972D02*
X72644Y30480D01*
X59436Y29972D02*
X72136Y29972D01*
X97155Y26670D02*
X97536Y26924D01*
X97536Y26924D02*
X101092Y26924D01*
X101092Y38608D02*
X116332Y38608D01*
X102108Y40132D02*
X114808Y40132D01*
X53340Y28448D02*
X53340Y28575D01*
X36068Y28448D02*
X53340Y28448D01*
X28448Y16764D02*
X36068Y16764D01*
X27940Y17272D02*
X28448Y16764D01*
X23368Y17272D02*
X27940Y17272D01*
X103632Y41148D02*
X116332Y41148D01*
X60960Y20828D02*
X60960Y20955D01*
X58420Y20828D02*
X60960Y20828D01*
X37084Y14224D02*
X58420Y14224D01*
X36068Y15240D02*
X37084Y14224D01*
X25400Y15240D02*
X36068Y15240D01*
X89916Y20320D02*
X106172Y20320D01*
X88900Y19304D02*
X89916Y20320D01*
X82296Y19304D02*
X88900Y19304D01*
X81915Y19050D02*
X82296Y19304D01*
X60960Y23495D02*
X60960Y23876D01*
X55880Y23876D02*
X60960Y23876D01*
X54864Y24892D02*
X55880Y23876D01*
X35052Y24892D02*
X54864Y24892D01*
X35052Y18796D02*
X35052Y24892D01*
X20320Y18796D02*
X35052Y18796D01*
X19812Y19304D02*
X20320Y18796D01*
X17780Y19304D02*
X19812Y19304D01*
X17754Y19354D02*
X17780Y19304D01*
X53340Y18415D02*
X53848Y18288D01*
X53848Y18288D02*
X56388Y18288D01*
X56388Y18288D02*
X57404Y17272D01*
X57404Y17272D02*
X63500Y17272D01*
X63500Y17272D02*
X64008Y17780D01*
X81788Y48768D02*
X82296Y48768D01*
X82296Y48768D02*
X82524Y48920D01*
X17780Y38811D02*
X18288Y38608D01*
X18288Y38608D02*
X19812Y40132D01*
X19812Y40132D02*
X20320Y40132D01*
X20320Y40132D02*
X20828Y40640D01*
X20828Y40640D02*
X20828Y43180D01*
X20828Y43180D02*
X21844Y44196D01*
X21844Y44196D02*
X31496Y44196D01*
X31496Y44196D02*
X32004Y44704D01*
X32004Y44704D02*
X36068Y44704D01*
X36068Y34036D02*
X53340Y34036D01*
X89916Y25400D02*
X110744Y25400D01*
X88900Y24384D02*
X89916Y25400D01*
X82296Y24384D02*
X88900Y24384D01*
X81915Y24130D02*
X82296Y24384D01*
X113792Y51308D02*
X114300Y51816D01*
X89916Y51308D02*
X113792Y51308D01*
X76708Y33020D02*
X89916Y33020D01*
X67564Y29464D02*
X76708Y29464D01*
X67056Y28956D02*
X67564Y29464D01*
X61468Y28956D02*
X67056Y28956D01*
X60960Y28575D02*
X61468Y28956D01*
X29972Y26416D02*
X40132Y26416D01*
X40132Y19812D02*
X56896Y19812D01*
X56896Y24892D02*
X64008Y24892D01*
X64008Y24892D02*
X65024Y23876D01*
X65024Y23876D02*
X79248Y23876D01*
X79248Y23876D02*
X80264Y22860D01*
X99060Y24384D02*
X107188Y24384D01*
X107188Y29972D02*
X114808Y29972D01*
X107696Y16764D02*
X107950Y16510D01*
X107696Y13208D02*
X107696Y16764D01*
X22860Y30988D02*
X26924Y30988D01*
X19304Y27432D02*
X22860Y30988D01*
X17780Y27432D02*
X19304Y27432D01*
X17754Y27736D02*
X17780Y27432D01*
X105537Y41783D02*
X113842Y41783D01*
X104648Y42672D02*
X105537Y41783D01*
X113614Y43815D02*
X114808Y45212D01*
X111125Y43815D02*
X113614Y43815D01*
X113842Y41783D02*
X116662Y42646D01*
X115265Y43738D02*
X119888Y43688D01*
X113665Y42545D02*
X115341Y43662D01*
X107950Y42545D02*
X113665Y42545D01*
X107950Y42545D02*
X107950Y43180D01*
X116840Y50800D02*
X119888Y50800D01*
X107315Y45085D02*
X109855Y45085D01*
X109855Y45085D02*
X111125Y43815D01*
X106045Y45085D02*
X107315Y45085D01*
X45720Y35560D02*
X45720Y38100D01*
X38100Y35560D02*
X45720Y35560D01*
X80264Y22860D02*
X90805Y22860D01*
X19050Y30480D02*
X19050Y33020D01*
X19050Y33020D02*
X20955Y33020D01*
X20955Y12065D02*
X20955Y15240D01*
X20955Y12065D02*
X116205Y12065D01*
X116205Y12065D02*
X116205Y20320D01*
X116205Y20320D02*
X120015Y20320D01*
X64008Y17780D02*
X106045Y17780D01*
X106045Y17780D02*
X107315Y19050D01*
X107315Y19050D02*
X109220Y19050D01*
X109220Y31115D02*
X116205Y31115D01*
X26924Y14071D02*
X27660Y13233D01*
X27660Y13233D02*
X107696Y13208D01*
X121615Y48590D02*
X118567Y48590D01*
X118567Y48082D01*
X121615Y48082D01*
X121615Y48590D01*
X120091Y48336D01*
X121615Y46050D02*
X118567Y46050D01*
X118567Y45542D01*
X121615Y45542D01*
X121615Y46050D01*
X120091Y45796D01*
X121615Y43510D02*
X118567Y43510D01*
X118567Y43002D01*
X121615Y43002D01*
X121615Y43510D01*
X120091Y43256D01*
X121615Y40970D02*
X118567Y40970D01*
X118567Y40462D01*
X121615Y40462D01*
X121615Y40970D01*
X120091Y40716D01*
X121615Y38430D02*
X118567Y38430D01*
X118567Y37922D01*
X121615Y37922D01*
X121615Y38430D01*
X120091Y38176D01*
X121615Y35890D02*
X118567Y35890D01*
X118567Y35382D01*
X121615Y35382D01*
X121615Y35890D01*
X120091Y35636D01*
X121615Y33350D02*
X118567Y33350D01*
X118567Y32842D01*
X121615Y32842D01*
X121615Y33350D01*
X120091Y33096D01*
X121615Y30810D02*
X118567Y30810D01*
X118567Y30302D01*
X121615Y30302D01*
X121615Y30810D01*
X120091Y30556D01*
X121615Y28270D02*
X118567Y28270D01*
X118567Y27762D01*
X121615Y27762D01*
X121615Y28270D01*
X120091Y28016D01*
X121615Y25730D02*
X118567Y25730D01*
X118567Y25222D01*
X121615Y25222D01*
X121615Y25730D01*
X120091Y25476D01*
X121589Y20650D02*
X118541Y20650D01*
X118541Y20142D01*
X121589Y20142D01*
X121589Y20650D01*
X120065Y20396D01*
X121589Y18110D02*
X118541Y18110D01*
X118541Y17602D01*
X121589Y17602D01*
X121589Y18110D01*
X120065Y17856D01*
X121589Y23190D02*
X118541Y23190D01*
X118541Y22682D01*
X121589Y22682D01*
X121589Y23190D01*
X120065Y22936D01*
X121539Y15494D02*
X118491Y15494D01*
X118491Y14986D01*
X121539Y14986D01*
X121539Y15494D01*
X120015Y15240D01*
X121539Y51054D02*
X118491Y51054D01*
X118491Y50546D01*
X121539Y50546D01*
X121539Y51054D01*
X120015Y50800D01*
X19304Y50139D02*
X16256Y50139D01*
X16256Y49631D01*
X19304Y49631D01*
X19304Y50139D01*
X17780Y49885D01*
X19304Y47345D02*
X16256Y47345D01*
X16256Y46837D01*
X19304Y46837D01*
X19304Y47345D01*
X17780Y47091D01*
X19304Y44678D02*
X16256Y44678D01*
X16256Y44170D01*
X19304Y44170D01*
X19304Y44678D01*
X17780Y44424D01*
X19304Y41859D02*
X16256Y41859D01*
X16256Y41351D01*
X19304Y41351D01*
X19304Y41859D01*
X17780Y41605D01*
X19304Y39065D02*
X16256Y39065D01*
X16256Y38557D01*
X19304Y38557D01*
X19304Y39065D01*
X17780Y38811D01*
X19304Y36296D02*
X16256Y36296D01*
X16256Y35788D01*
X19304Y35788D01*
X19304Y36296D01*
X17780Y36042D01*
X19304Y33528D02*
X16256Y33528D01*
X16256Y33020D01*
X19304Y33020D01*
X19304Y33528D01*
X17780Y33274D01*
X19304Y30734D02*
X16256Y30734D01*
X16256Y30226D01*
X19304Y30226D01*
X19304Y30734D01*
X17780Y30480D01*
X19278Y27990D02*
X16230Y27990D01*
X16230Y27482D01*
X19278Y27482D01*
X19278Y27990D01*
X17754Y27736D01*
X19278Y25171D02*
X16230Y25171D01*
X16230Y24663D01*
X19278Y24663D01*
X19278Y25171D01*
X17754Y24917D01*
X19278Y22377D02*
X16230Y22377D01*
X16230Y21869D01*
X19278Y21869D01*
X19278Y22377D01*
X17754Y22123D01*
X19278Y19608D02*
X16230Y19608D01*
X16230Y19100D01*
X19278Y19100D01*
X19278Y19608D01*
X17754Y19354D01*
X19278Y16941D02*
X16230Y16941D01*
X16230Y16433D01*
X19278Y16433D01*
X19278Y16941D01*
X17754Y16687D01*
X15240Y11201D02*
X15240Y54635D01*
X15417Y11176D02*
X122910Y11099D01*
X122859Y10998D02*
X122859Y54432D01*
X15417Y54610D02*
X122758Y54584D01*
X72517Y40132D02*
X72263Y40132D01*
X72263Y39878D01*
X72517Y39878D01*
X72517Y40132D01*
X72390Y40005D01*
X80137Y40005D02*
X80137Y40005D01*
X80086Y40081D01*
X79984Y40132D01*
X79908Y40081D01*
X79883Y39979D01*
X79908Y39903D01*
X80010Y39878D01*
X80086Y39903D01*
X80137Y40005D01*
X80010Y40005D01*
X75463Y43129D02*
X75463Y43129D01*
X75412Y43205D01*
X75311Y43256D01*
X75234Y43205D01*
X75209Y43103D01*
X75234Y43027D01*
X75336Y43002D01*
X75412Y43027D01*
X75463Y43129D01*
X75336Y43129D01*
X75463Y45796D02*
X75209Y45796D01*
X75209Y45542D01*
X75463Y45542D01*
X75463Y45796D01*
X75336Y45669D01*
X84328Y50520D02*
X84074Y50520D01*
X84074Y50266D01*
X84328Y50266D01*
X84328Y50520D01*
X84201Y50393D01*
X84328Y52933D02*
X84328Y52933D01*
X84277Y53009D01*
X84175Y53060D01*
X84099Y53009D01*
X84074Y52908D01*
X84099Y52832D01*
X84201Y52806D01*
X84277Y52832D01*
X84328Y52933D01*
X84201Y52933D01*
X94107Y47625D02*
X94107Y47625D01*
X94056Y47701D01*
X93954Y47752D01*
X93878Y47701D01*
X93853Y47599D01*
X93878Y47523D01*
X93980Y47498D01*
X94056Y47523D01*
X94107Y47625D01*
X93980Y47625D01*
X91567Y47752D02*
X91313Y47752D01*
X91313Y47498D01*
X91567Y47498D01*
X91567Y47752D01*
X91440Y47625D01*
X77571Y48920D02*
X77571Y48920D01*
X77520Y48996D01*
X77419Y49047D01*
X77343Y48996D01*
X77317Y48895D01*
X77343Y48818D01*
X77444Y48793D01*
X77520Y48818D01*
X77571Y48920D01*
X77444Y48920D01*
X80086Y50596D02*
X80086Y50596D01*
X80035Y50673D01*
X79933Y50723D01*
X79857Y50673D01*
X79832Y50571D01*
X79857Y50495D01*
X79959Y50469D01*
X80035Y50495D01*
X80086Y50596D01*
X79959Y50596D01*
X82651Y49047D02*
X82397Y49047D01*
X82397Y48793D01*
X82651Y48793D01*
X82651Y49047D01*
X82524Y48920D01*
X66802Y19177D02*
X66548Y19177D01*
X66548Y18923D01*
X66802Y18923D01*
X66802Y19177D01*
X66675Y19050D01*
X66802Y16510D02*
X66802Y16510D01*
X66751Y16586D01*
X66649Y16637D01*
X66573Y16586D01*
X66548Y16484D01*
X66573Y16408D01*
X66675Y16382D01*
X66751Y16408D01*
X66802Y16510D01*
X66675Y16510D01*
X61087Y16002D02*
X60833Y16002D01*
X60833Y15748D01*
X61087Y15748D01*
X61087Y16002D01*
X60960Y15875D01*
X61087Y18415D02*
X61087Y18415D01*
X61036Y18491D01*
X60934Y18542D01*
X60858Y18491D01*
X60833Y18389D01*
X60858Y18313D01*
X60960Y18288D01*
X61036Y18313D01*
X61087Y18415D01*
X60960Y18415D01*
X61087Y20955D02*
X61087Y20955D01*
X61036Y21031D01*
X60934Y21082D01*
X60858Y21031D01*
X60833Y20929D01*
X60858Y20853D01*
X60960Y20828D01*
X61036Y20853D01*
X61087Y20955D01*
X60960Y20955D01*
X61087Y23495D02*
X61087Y23495D01*
X61036Y23571D01*
X60934Y23622D01*
X60858Y23571D01*
X60833Y23469D01*
X60858Y23393D01*
X60960Y23368D01*
X61036Y23393D01*
X61087Y23495D01*
X60960Y23495D01*
X53467Y15875D02*
X53467Y15875D01*
X53416Y15951D01*
X53314Y16002D01*
X53238Y15951D01*
X53213Y15849D01*
X53238Y15773D01*
X53340Y15748D01*
X53416Y15773D01*
X53467Y15875D01*
X53340Y15875D01*
X53467Y18415D02*
X53467Y18415D01*
X53416Y18491D01*
X53314Y18542D01*
X53238Y18491D01*
X53213Y18389D01*
X53238Y18313D01*
X53340Y18288D01*
X53416Y18313D01*
X53467Y18415D01*
X53340Y18415D01*
X53467Y20955D02*
X53467Y20955D01*
X53416Y21031D01*
X53314Y21082D01*
X53238Y21031D01*
X53213Y20929D01*
X53238Y20853D01*
X53340Y20828D01*
X53416Y20853D01*
X53467Y20955D01*
X53340Y20955D01*
X53467Y23495D02*
X53467Y23495D01*
X53416Y23571D01*
X53314Y23622D01*
X53238Y23571D01*
X53213Y23469D01*
X53238Y23393D01*
X53340Y23368D01*
X53416Y23393D01*
X53467Y23495D01*
X53340Y23495D01*
X53467Y26035D02*
X53467Y26035D01*
X53416Y26111D01*
X53314Y26162D01*
X53238Y26111D01*
X53213Y26009D01*
X53238Y25933D01*
X53340Y25908D01*
X53416Y25933D01*
X53467Y26035D01*
X53340Y26035D01*
X53467Y28575D02*
X53467Y28575D01*
X53416Y28651D01*
X53314Y28702D01*
X53238Y28651D01*
X53213Y28549D01*
X53238Y28473D01*
X53340Y28448D01*
X53416Y28473D01*
X53467Y28575D01*
X53340Y28575D01*
X53467Y31115D02*
X53467Y31115D01*
X53416Y31191D01*
X53314Y31242D01*
X53238Y31191D01*
X53213Y31089D01*
X53238Y31013D01*
X53340Y30988D01*
X53416Y31013D01*
X53467Y31115D01*
X53340Y31115D01*
X61087Y26035D02*
X61087Y26035D01*
X61036Y26111D01*
X60934Y26162D01*
X60858Y26111D01*
X60833Y26009D01*
X60858Y25933D01*
X60960Y25908D01*
X61036Y25933D01*
X61087Y26035D01*
X60960Y26035D01*
X61087Y28575D02*
X61087Y28575D01*
X61036Y28651D01*
X60934Y28702D01*
X60858Y28651D01*
X60833Y28549D01*
X60858Y28473D01*
X60960Y28448D01*
X61036Y28473D01*
X61087Y28575D01*
X60960Y28575D01*
X61087Y31115D02*
X61087Y31115D01*
X61036Y31191D01*
X60934Y31242D01*
X60858Y31191D01*
X60833Y31089D01*
X60858Y31013D01*
X60960Y30988D01*
X61036Y31013D01*
X61087Y31115D01*
X60960Y31115D01*
X47117Y15240D02*
X47117Y15240D01*
X47066Y15316D01*
X46964Y15367D01*
X46888Y15316D01*
X46863Y15214D01*
X46888Y15138D01*
X46990Y15113D01*
X47066Y15138D01*
X47117Y15240D01*
X46990Y15240D01*
X47117Y22987D02*
X46863Y22987D01*
X46863Y22733D01*
X47117Y22733D01*
X47117Y22987D01*
X46990Y22860D01*
X97282Y19050D02*
X97282Y19050D01*
X97231Y19126D01*
X97129Y19177D01*
X97053Y19126D01*
X97028Y19024D01*
X97053Y18948D01*
X97155Y18923D01*
X97231Y18948D01*
X97282Y19050D01*
X97155Y19050D01*
X97282Y16510D02*
X97282Y16510D01*
X97231Y16586D01*
X97129Y16637D01*
X97053Y16586D01*
X97028Y16484D01*
X97053Y16408D01*
X97155Y16382D01*
X97231Y16408D01*
X97282Y16510D01*
X97155Y16510D01*
X82042Y16510D02*
X82042Y16510D01*
X81991Y16586D01*
X81889Y16637D01*
X81813Y16586D01*
X81788Y16484D01*
X81813Y16408D01*
X81915Y16382D01*
X81991Y16408D01*
X82042Y16510D01*
X81915Y16510D01*
X82042Y19050D02*
X82042Y19050D01*
X81991Y19126D01*
X81889Y19177D01*
X81813Y19126D01*
X81788Y19024D01*
X81813Y18948D01*
X81915Y18923D01*
X81991Y18948D01*
X82042Y19050D01*
X81915Y19050D01*
X97282Y24130D02*
X97282Y24130D01*
X97231Y24206D01*
X97129Y24257D01*
X97053Y24206D01*
X97028Y24104D01*
X97053Y24028D01*
X97155Y24003D01*
X97231Y24028D01*
X97282Y24130D01*
X97155Y24130D01*
X97282Y21590D02*
X97282Y21590D01*
X97231Y21666D01*
X97129Y21717D01*
X97053Y21666D01*
X97028Y21564D01*
X97053Y21488D01*
X97155Y21463D01*
X97231Y21488D01*
X97282Y21590D01*
X97155Y21590D01*
X82042Y21590D02*
X82042Y21590D01*
X81991Y21666D01*
X81889Y21717D01*
X81813Y21666D01*
X81788Y21564D01*
X81813Y21488D01*
X81915Y21463D01*
X81991Y21488D01*
X82042Y21590D01*
X81915Y21590D01*
X82042Y24130D02*
X82042Y24130D01*
X81991Y24206D01*
X81889Y24257D01*
X81813Y24206D01*
X81788Y24104D01*
X81813Y24028D01*
X81915Y24003D01*
X81991Y24028D01*
X82042Y24130D01*
X81915Y24130D01*
X97282Y44450D02*
X97282Y44450D01*
X97231Y44526D01*
X97129Y44577D01*
X97053Y44526D01*
X97028Y44424D01*
X97053Y44348D01*
X97155Y44323D01*
X97231Y44348D01*
X97282Y44450D01*
X97155Y44450D01*
X97282Y41910D02*
X97282Y41910D01*
X97231Y41986D01*
X97129Y42037D01*
X97053Y41986D01*
X97028Y41884D01*
X97053Y41808D01*
X97155Y41783D01*
X97231Y41808D01*
X97282Y41910D01*
X97155Y41910D01*
X97282Y39370D02*
X97282Y39370D01*
X97231Y39446D01*
X97129Y39497D01*
X97053Y39446D01*
X97028Y39344D01*
X97053Y39268D01*
X97155Y39243D01*
X97231Y39268D01*
X97282Y39370D01*
X97155Y39370D01*
X97282Y36830D02*
X97282Y36830D01*
X97231Y36906D01*
X97129Y36957D01*
X97053Y36906D01*
X97028Y36804D01*
X97053Y36728D01*
X97155Y36703D01*
X97231Y36728D01*
X97282Y36830D01*
X97155Y36830D01*
X97282Y34290D02*
X97282Y34290D01*
X97231Y34366D01*
X97129Y34417D01*
X97053Y34366D01*
X97028Y34264D01*
X97053Y34188D01*
X97155Y34163D01*
X97231Y34188D01*
X97282Y34290D01*
X97155Y34290D01*
X97282Y31750D02*
X97282Y31750D01*
X97231Y31826D01*
X97129Y31877D01*
X97053Y31826D01*
X97028Y31724D01*
X97053Y31648D01*
X97155Y31623D01*
X97231Y31648D01*
X97282Y31750D01*
X97155Y31750D01*
X97282Y29210D02*
X97282Y29210D01*
X97231Y29286D01*
X97129Y29337D01*
X97053Y29286D01*
X97028Y29184D01*
X97053Y29108D01*
X97155Y29083D01*
X97231Y29108D01*
X97282Y29210D01*
X97155Y29210D01*
X97282Y26670D02*
X97282Y26670D01*
X97231Y26746D01*
X97129Y26797D01*
X97053Y26746D01*
X97028Y26644D01*
X97053Y26568D01*
X97155Y26543D01*
X97231Y26568D01*
X97282Y26670D01*
X97155Y26670D01*
X82042Y26670D02*
X82042Y26670D01*
X81991Y26746D01*
X81889Y26797D01*
X81813Y26746D01*
X81788Y26644D01*
X81813Y26568D01*
X81915Y26543D01*
X81991Y26568D01*
X82042Y26670D01*
X81915Y26670D01*
X82042Y29210D02*
X82042Y29210D01*
X81991Y29286D01*
X81889Y29337D01*
X81813Y29286D01*
X81788Y29184D01*
X81813Y29108D01*
X81915Y29083D01*
X81991Y29108D01*
X82042Y29210D01*
X81915Y29210D01*
X82042Y31750D02*
X82042Y31750D01*
X81991Y31826D01*
X81889Y31877D01*
X81813Y31826D01*
X81788Y31724D01*
X81813Y31648D01*
X81915Y31623D01*
X81991Y31648D01*
X82042Y31750D01*
X81915Y31750D01*
X82042Y34290D02*
X82042Y34290D01*
X81991Y34366D01*
X81889Y34417D01*
X81813Y34366D01*
X81788Y34264D01*
X81813Y34188D01*
X81915Y34163D01*
X81991Y34188D01*
X82042Y34290D01*
X81915Y34290D01*
X82042Y36830D02*
X82042Y36830D01*
X81991Y36906D01*
X81889Y36957D01*
X81813Y36906D01*
X81788Y36804D01*
X81813Y36728D01*
X81915Y36703D01*
X81991Y36728D01*
X82042Y36830D01*
X81915Y36830D01*
X82042Y39370D02*
X82042Y39370D01*
X81991Y39446D01*
X81889Y39497D01*
X81813Y39446D01*
X81788Y39344D01*
X81813Y39268D01*
X81915Y39243D01*
X81991Y39268D01*
X82042Y39370D01*
X81915Y39370D01*
X82042Y41910D02*
X82042Y41910D01*
X81991Y41986D01*
X81889Y42037D01*
X81813Y41986D01*
X81788Y41884D01*
X81813Y41808D01*
X81915Y41783D01*
X81991Y41808D01*
X82042Y41910D01*
X81915Y41910D01*
X82042Y44577D02*
X81788Y44577D01*
X81788Y44323D01*
X82042Y44323D01*
X82042Y44577D01*
X81915Y44450D01*
X78867Y26035D02*
X78867Y26035D01*
X78816Y26111D01*
X78714Y26162D01*
X78638Y26111D01*
X78613Y26009D01*
X78638Y25933D01*
X78740Y25908D01*
X78816Y25933D01*
X78867Y26035D01*
X78740Y26035D01*
X78867Y28702D02*
X78613Y28702D01*
X78613Y28448D01*
X78867Y28448D01*
X78867Y28702D01*
X78740Y28575D01*
X74422Y27889D02*
X74422Y27889D01*
X74371Y27965D01*
X74269Y28016D01*
X74193Y27965D01*
X74168Y27863D01*
X74193Y27787D01*
X74295Y27762D01*
X74371Y27787D01*
X74422Y27889D01*
X74295Y27889D01*
X74422Y22656D02*
X74422Y22656D01*
X74371Y22733D01*
X74269Y22783D01*
X74193Y22733D01*
X74168Y22631D01*
X74193Y22555D01*
X74295Y22529D01*
X74371Y22555D01*
X74422Y22656D01*
X74295Y22656D01*
X112522Y52705D02*
X112522Y52705D01*
X112471Y52781D01*
X112369Y52832D01*
X112293Y52781D01*
X112268Y52679D01*
X112293Y52603D01*
X112395Y52578D01*
X112471Y52603D01*
X112522Y52705D01*
X112395Y52705D01*
X112522Y45212D02*
X112268Y45212D01*
X112268Y44958D01*
X112522Y44958D01*
X112522Y45212D01*
X112395Y45085D01*
X66294Y53035D02*
X66294Y53035D01*
X66217Y53213D01*
X66014Y53289D01*
X65836Y53213D01*
X65786Y53009D01*
X65836Y52832D01*
X66040Y52781D01*
X66217Y52832D01*
X66294Y53035D01*
X66040Y53035D01*
X63754Y42875D02*
X63754Y42875D01*
X63677Y43053D01*
X63474Y43129D01*
X63296Y43053D01*
X63246Y42849D01*
X63296Y42672D01*
X63500Y42621D01*
X63677Y42672D01*
X63754Y42875D01*
X63500Y42875D01*
X68834Y42875D02*
X68834Y42875D01*
X68757Y43053D01*
X68554Y43129D01*
X68376Y43053D01*
X68326Y42849D01*
X68376Y42672D01*
X68580Y42621D01*
X68757Y42672D01*
X68834Y42875D01*
X68580Y42875D01*
X73787Y48387D02*
X73533Y48387D01*
X73533Y48133D01*
X73787Y48133D01*
X73787Y48387D01*
X73660Y48260D01*
X73787Y50800D02*
X73787Y50800D01*
X73736Y50876D01*
X73634Y50927D01*
X73558Y50876D01*
X73533Y50774D01*
X73558Y50698D01*
X73660Y50673D01*
X73736Y50698D01*
X73787Y50800D01*
X73660Y50800D01*
X54737Y36830D02*
X54737Y36830D01*
X54686Y36906D01*
X54584Y36957D01*
X54508Y36906D01*
X54483Y36804D01*
X54508Y36728D01*
X54610Y36703D01*
X54686Y36728D01*
X54737Y36830D01*
X54610Y36830D01*
X54737Y44577D02*
X54483Y44577D01*
X54483Y44323D01*
X54737Y44323D01*
X54737Y44577D01*
X54610Y44450D01*
X59817Y44577D02*
X59563Y44577D01*
X59563Y44323D01*
X59817Y44323D01*
X59817Y44577D01*
X59690Y44450D01*
X59817Y36830D02*
X59817Y36830D01*
X59766Y36906D01*
X59664Y36957D01*
X59588Y36906D01*
X59563Y36804D01*
X59588Y36728D01*
X59690Y36703D01*
X59766Y36728D01*
X59817Y36830D01*
X59690Y36830D01*
X57277Y44450D02*
X57277Y44450D01*
X57226Y44526D01*
X57124Y44577D01*
X57048Y44526D01*
X57023Y44424D01*
X57048Y44348D01*
X57150Y44323D01*
X57226Y44348D01*
X57277Y44450D01*
X57150Y44450D01*
X57277Y36957D02*
X57023Y36957D01*
X57023Y36703D01*
X57277Y36703D01*
X57277Y36957D01*
X57150Y36830D01*
X45847Y40767D02*
X45593Y40767D01*
X45593Y40513D01*
X45847Y40513D01*
X45847Y40767D01*
X45720Y40640D01*
X45847Y38100D02*
X45847Y38100D01*
X45796Y38176D01*
X45694Y38227D01*
X45618Y38176D01*
X45593Y38074D01*
X45618Y37998D01*
X45720Y37973D01*
X45796Y37998D01*
X45847Y38100D01*
X45720Y38100D01*
X56007Y48387D02*
X55753Y48387D01*
X55753Y48133D01*
X56007Y48133D01*
X56007Y48387D01*
X55880Y48260D01*
X56007Y50800D02*
X56007Y50800D01*
X55956Y50876D01*
X55854Y50927D01*
X55778Y50876D01*
X55753Y50774D01*
X55778Y50698D01*
X55880Y50673D01*
X55956Y50698D01*
X56007Y50800D01*
X55880Y50800D01*
X43129Y45720D02*
X43129Y45720D01*
X43053Y45897D01*
X42849Y45974D01*
X42672Y45897D01*
X42621Y45694D01*
X42672Y45516D01*
X42875Y45466D01*
X43053Y45516D01*
X43103Y45720D01*
X42875Y45720D01*
X43129Y50800D02*
X43129Y50800D01*
X43053Y50977D01*
X42849Y51054D01*
X42672Y50977D01*
X42621Y50774D01*
X42672Y50596D01*
X42875Y50546D01*
X43053Y50596D01*
X43103Y50800D01*
X42875Y50800D01*
X53289Y48260D02*
X53289Y48260D01*
X53213Y48437D01*
X53009Y48514D01*
X52832Y48437D01*
X52781Y48234D01*
X52832Y48056D01*
X53035Y48006D01*
X53213Y48056D01*
X53289Y48260D01*
X53035Y48260D01*
X22987Y50927D02*
X22733Y50927D01*
X22733Y50673D01*
X22987Y50673D01*
X22987Y50927D01*
X22860Y50800D01*
X30607Y50800D02*
X30607Y50800D01*
X30556Y50876D01*
X30454Y50927D01*
X30378Y50876D01*
X30353Y50774D01*
X30378Y50698D01*
X30480Y50673D01*
X30556Y50698D01*
X30607Y50800D01*
X30480Y50800D01*
X22987Y48387D02*
X22733Y48387D01*
X22733Y48133D01*
X22987Y48133D01*
X22987Y48387D01*
X22860Y48260D01*
X30607Y48260D02*
X30607Y48260D01*
X30556Y48336D01*
X30454Y48387D01*
X30378Y48336D01*
X30353Y48234D01*
X30378Y48158D01*
X30480Y48133D01*
X30556Y48158D01*
X30607Y48260D01*
X30480Y48260D01*
X30607Y45720D02*
X30607Y45720D01*
X30556Y45796D01*
X30454Y45847D01*
X30378Y45796D01*
X30353Y45694D01*
X30378Y45618D01*
X30480Y45593D01*
X30556Y45618D01*
X30607Y45720D01*
X30480Y45720D01*
X22987Y45847D02*
X22733Y45847D01*
X22733Y45593D01*
X22987Y45593D01*
X22987Y45847D01*
X22860Y45720D01*
X25527Y15367D02*
X25273Y15367D01*
X25273Y15113D01*
X25527Y15113D01*
X25527Y15367D01*
X25400Y15240D01*
X22987Y15240D02*
X22987Y15240D01*
X22936Y15316D01*
X22834Y15367D01*
X22758Y15316D01*
X22733Y15214D01*
X22758Y15138D01*
X22860Y15113D01*
X22936Y15138D01*
X22961Y15240D01*
X22860Y15240D01*
X33147Y33020D02*
X33147Y33020D01*
X33096Y33096D01*
X32994Y33147D01*
X32918Y33096D01*
X32893Y32994D01*
X32918Y32918D01*
X33020Y32893D01*
X33096Y32918D01*
X33147Y33020D01*
X33020Y33020D01*
X33147Y40767D02*
X32893Y40767D01*
X32893Y40513D01*
X33147Y40513D01*
X33147Y40767D01*
X33020Y40640D01*
X38227Y50800D02*
X38227Y50800D01*
X38176Y50876D01*
X38074Y50927D01*
X37998Y50876D01*
X37973Y50774D01*
X37998Y50698D01*
X38100Y50673D01*
X38176Y50698D01*
X38227Y50800D01*
X38100Y50800D01*
X38227Y43307D02*
X37973Y43307D01*
X37973Y43053D01*
X38227Y43053D01*
X38227Y43307D01*
X38100Y43180D01*
X33147Y50800D02*
X33147Y50800D01*
X33096Y50876D01*
X32994Y50927D01*
X32918Y50876D01*
X32893Y50774D01*
X32918Y50698D01*
X33020Y50673D01*
X33096Y50698D01*
X33147Y50800D01*
X33020Y50800D01*
X33147Y43307D02*
X32893Y43307D01*
X32893Y43053D01*
X33147Y43053D01*
X33147Y43307D01*
X33020Y43180D01*
X43307Y30607D02*
X43053Y30607D01*
X43053Y30353D01*
X43307Y30353D01*
X43307Y30607D01*
X43180Y30480D01*
X40767Y30480D02*
X40767Y30480D01*
X40716Y30556D01*
X40614Y30607D01*
X40538Y30556D01*
X40513Y30454D01*
X40538Y30378D01*
X40640Y30353D01*
X40716Y30378D01*
X40767Y30480D01*
X40640Y30480D01*
X33147Y30607D02*
X32893Y30607D01*
X32893Y30353D01*
X33147Y30353D01*
X33147Y30607D01*
X33020Y30480D01*
X35687Y30480D02*
X35687Y30480D01*
X35636Y30556D01*
X35534Y30607D01*
X35458Y30556D01*
X35433Y30454D01*
X35458Y30378D01*
X35560Y30353D01*
X35636Y30378D01*
X35687Y30480D01*
X35560Y30480D01*
X50927Y40767D02*
X50673Y40767D01*
X50673Y40513D01*
X50927Y40513D01*
X50927Y40767D01*
X50800Y40640D01*
X50927Y38100D02*
X50927Y38100D01*
X50876Y38176D01*
X50774Y38227D01*
X50698Y38176D01*
X50673Y38074D01*
X50698Y37998D01*
X50800Y37973D01*
X50876Y37998D01*
X50927Y38100D01*
X50800Y38100D01*
X22987Y35687D02*
X22733Y35687D01*
X22733Y35433D01*
X22987Y35433D01*
X22987Y35687D01*
X22860Y35560D01*
X30607Y35560D02*
X30607Y35560D01*
X30556Y35636D01*
X30454Y35687D01*
X30378Y35636D01*
X30353Y35534D01*
X30378Y35458D01*
X30480Y35433D01*
X30556Y35458D01*
X30607Y35560D01*
X30480Y35560D01*
X29337Y38100D02*
X29337Y38100D01*
X29286Y38176D01*
X29184Y38227D01*
X29108Y38176D01*
X29083Y38074D01*
X29108Y37998D01*
X29210Y37973D01*
X29286Y37998D01*
X29337Y38100D01*
X29210Y38100D01*
X22987Y38227D02*
X22733Y38227D01*
X22733Y37973D01*
X22987Y37973D01*
X22987Y38227D01*
X22860Y38100D01*
X22987Y40767D02*
X22733Y40767D01*
X22733Y40513D01*
X22987Y40513D01*
X22987Y40767D01*
X22860Y40640D01*
X29337Y40640D02*
X29337Y40640D01*
X29286Y40716D01*
X29184Y40767D01*
X29108Y40716D01*
X29083Y40614D01*
X29108Y40538D01*
X29210Y40513D01*
X29286Y40538D01*
X29337Y40640D01*
X29210Y40640D01*
X22987Y20447D02*
X22733Y20447D01*
X22733Y20193D01*
X22987Y20193D01*
X22987Y20447D01*
X22860Y20320D01*
X29337Y20320D02*
X29337Y20320D01*
X29286Y20396D01*
X29184Y20447D01*
X29108Y20396D01*
X29083Y20294D01*
X29108Y20218D01*
X29210Y20193D01*
X29286Y20218D01*
X29337Y20320D01*
X29210Y20320D01*
X28041Y28092D02*
X27787Y28092D01*
X27787Y27838D01*
X28041Y27838D01*
X28041Y28092D01*
X27914Y27965D01*
X25476Y29641D02*
X25476Y29641D01*
X25425Y29718D01*
X25323Y29768D01*
X25247Y29718D01*
X25222Y29616D01*
X25247Y29540D01*
X25349Y29514D01*
X25425Y29540D01*
X25450Y29641D01*
X25349Y29641D01*
X22961Y27965D02*
X22961Y27965D01*
X22910Y28041D01*
X22809Y28092D01*
X22733Y28041D01*
X22707Y27940D01*
X22733Y27863D01*
X22834Y27838D01*
X22910Y27863D01*
X22936Y27965D01*
X22834Y27965D01*
X38227Y17907D02*
X37973Y17907D01*
X37973Y17653D01*
X38227Y17653D01*
X38227Y17907D01*
X38100Y17780D01*
X38227Y20320D02*
X38227Y20320D01*
X38176Y20396D01*
X38074Y20447D01*
X37998Y20396D01*
X37973Y20294D01*
X37998Y20218D01*
X38100Y20193D01*
X38176Y20218D01*
X38227Y20320D01*
X38100Y20320D01*
X38227Y22860D02*
X38227Y22860D01*
X38176Y22936D01*
X38074Y22987D01*
X37998Y22936D01*
X37973Y22834D01*
X37998Y22758D01*
X38100Y22733D01*
X38176Y22758D01*
X38227Y22860D01*
X38100Y22860D01*
X68707Y25400D02*
X68707Y25400D01*
X68656Y25476D01*
X68554Y25527D01*
X68478Y25476D01*
X68453Y25374D01*
X68478Y25298D01*
X68580Y25273D01*
X68656Y25298D01*
X68707Y25400D01*
X68580Y25400D01*
X68707Y33147D02*
X68453Y33147D01*
X68453Y32893D01*
X68707Y32893D01*
X68707Y33147D01*
X68580Y33020D01*
X114427Y16510D02*
X114427Y16510D01*
X114376Y16586D01*
X114274Y16637D01*
X114198Y16586D01*
X114173Y16484D01*
X114198Y16408D01*
X114300Y16382D01*
X114376Y16408D01*
X114427Y16510D01*
X114300Y16510D01*
X108077Y16637D02*
X107823Y16637D01*
X107823Y16382D01*
X108077Y16382D01*
X108077Y16637D01*
X107950Y16510D01*
X77597Y16637D02*
X77343Y16637D01*
X77343Y16382D01*
X77597Y16382D01*
X77597Y16637D01*
X77470Y16510D01*
X72517Y16510D02*
X72517Y16510D01*
X72466Y16586D01*
X72364Y16637D01*
X72288Y16586D01*
X72263Y16484D01*
X72288Y16408D01*
X72390Y16382D01*
X72466Y16408D01*
X72517Y16510D01*
X72390Y16510D01*
X77597Y35560D02*
X77597Y35560D01*
X77546Y35636D01*
X77444Y35687D01*
X77368Y35636D01*
X77343Y35534D01*
X77368Y35458D01*
X77470Y35433D01*
X77546Y35458D01*
X77597Y35560D01*
X77470Y35560D01*
X72517Y35687D02*
X72263Y35687D01*
X72263Y35433D01*
X72517Y35433D01*
X72517Y35687D01*
X72390Y35560D01*
X63627Y33655D02*
X63627Y33655D01*
X63576Y33731D01*
X63474Y33782D01*
X63398Y33731D01*
X63373Y33629D01*
X63398Y33553D01*
X63500Y33528D01*
X63576Y33553D01*
X63627Y33655D01*
X63500Y33655D01*
X63627Y36322D02*
X63373Y36322D01*
X63373Y36068D01*
X63627Y36068D01*
X63627Y36322D01*
X63500Y36195D01*
X67411Y35534D02*
X67411Y35534D01*
X67360Y35610D01*
X67259Y35661D01*
X67183Y35610D01*
X67157Y35509D01*
X67183Y35433D01*
X67284Y35407D01*
X67360Y35433D01*
X67411Y35534D01*
X67284Y35534D01*
X65735Y38049D02*
X65735Y38049D01*
X65684Y38125D01*
X65582Y38176D01*
X65506Y38125D01*
X65481Y38023D01*
X65506Y37947D01*
X65608Y37922D01*
X65684Y37947D01*
X65735Y38049D01*
X65608Y38049D01*
X67411Y40741D02*
X67157Y40741D01*
X67157Y40487D01*
X67411Y40487D01*
X67411Y40741D01*
X67284Y40614D01*
X106045Y52705D02*
X106045Y52705D01*
X103505Y52705D02*
X103505Y52705D01*
X100965Y52705D02*
X100965Y52705D01*
X98425Y52705D02*
X98425Y52705D01*
X95885Y52705D02*
X95885Y52705D01*
X93345Y52705D02*
X93345Y52705D01*
X38100Y36195D02*
X38100Y36195D01*
X116332Y28448D02*
X116332Y28448D01*
X116332Y38608D02*
X116332Y38608D01*
X114808Y35052D02*
X114808Y35052D01*
X114808Y45212D02*
X114808Y45212D01*
X114808Y40132D02*
X114808Y40132D01*
X114808Y32512D02*
X114808Y32512D01*
X114808Y27432D02*
X114808Y27432D01*
X23368Y24892D02*
X23368Y24892D01*
X114808Y29972D02*
X114808Y29972D01*
X114808Y47752D02*
X114808Y47752D01*
X93980Y42164D02*
X93980Y42164D01*
X33020Y38100D02*
X33020Y38100D01*
X28448Y45212D02*
X28448Y45212D01*
X24892Y21844D02*
X24892Y21844D01*
X43180Y22860D02*
X43180Y22860D01*
X45720Y44196D02*
X45720Y44196D01*
X67564Y30988D02*
X67564Y30988D01*
X33020Y17780D02*
X33020Y17780D01*
X24384Y33528D02*
X24384Y33528D01*
X75184Y33020D02*
X75184Y33020D01*
X47244Y36576D02*
X47244Y36576D01*
X98552Y27940D02*
X98552Y27940D01*
X98552Y33020D02*
X98552Y33020D01*
X95504Y35560D02*
X95504Y35560D01*
X62484Y19812D02*
X62484Y19812D01*
X99568Y37592D02*
X99568Y37592D01*
X55880Y42164D02*
X55880Y42164D01*
X31496Y27432D02*
X31496Y27432D01*
X80264Y21336D02*
X80264Y21336D01*
X84328Y46228D02*
X84328Y46228D01*
X101092Y26924D02*
X101092Y26924D01*
X101092Y38608D02*
X101092Y38608D01*
X102108Y40132D02*
X102108Y40132D01*
X36068Y28448D02*
X36068Y28448D01*
X36068Y16764D02*
X36068Y16764D01*
X103632Y41148D02*
X103632Y41148D01*
X58420Y20828D02*
X58420Y20828D01*
X58420Y14224D02*
X58420Y14224D01*
X104648Y42672D02*
X104648Y42672D01*
X106172Y20320D02*
X106172Y20320D01*
X55880Y46228D02*
X55880Y46228D01*
X36068Y44704D02*
X36068Y44704D01*
X36068Y34036D02*
X36068Y34036D01*
X53340Y34036D02*
X53340Y34036D01*
X110744Y25400D02*
X110744Y25400D01*
X114300Y51816D02*
X114300Y51816D01*
X89916Y51308D02*
X89916Y51308D01*
X89916Y33020D02*
X89916Y33020D01*
X76708Y33020D02*
X76708Y33020D01*
X76708Y29464D02*
X76708Y29464D01*
X29972Y26416D02*
X29972Y26416D01*
X40132Y26416D02*
X40132Y26416D01*
X40132Y19812D02*
X40132Y19812D01*
X56896Y19812D02*
X56896Y19812D01*
X56896Y24892D02*
X56896Y24892D01*
X99060Y24384D02*
X99060Y24384D01*
X107188Y24384D02*
X107188Y24384D01*
X107188Y29972D02*
X107188Y29972D01*
X26924Y30988D02*
X26924Y30988D01*
X116662Y42646D02*
X116662Y42646D01*
X115265Y43738D02*
X115265Y43738D01*
X107950Y43180D02*
X107950Y43180D01*
X106045Y45085D02*
X106045Y45085D01*
X78562Y43230D02*
X78562Y43230D01*
X70485Y52070D02*
X70485Y52070D01*
X70485Y53975D02*
X70485Y53975D01*
X41910Y43180D02*
X41910Y43180D01*
X41275Y40640D02*
X41275Y40640D01*
X42545Y40640D02*
X42545Y40640D01*
X43815Y40640D02*
X43815Y40640D01*
X41275Y36195D02*
X41275Y36195D01*
X90805Y22860D02*
X90805Y22860D01*
X20955Y15240D02*
X20955Y15240D01*
X20955Y33020D02*
X20955Y33020D01*
X109220Y19050D02*
X109220Y19050D01*
X109220Y31115D02*
X109220Y31115D01*
X26924Y14071D02*
X26924Y14071D01*
D02M02*
