*%FSLAX53Y53*
SFA1.0B1.0*%
G71*
G90*
G01*
D02*
G54D11*
X89052Y58928D02*
X89052Y61061D01*
X89052Y61061D02*
X89916Y61976D01*
X89052Y58928D02*
X89916Y57912D01*
X72542Y68427D02*
X72694Y95148D01*
X153670Y93345D02*
X153670Y99060D01*
X152400Y92710D02*
X153670Y93345D01*
X149860Y87630D02*
X151765Y87630D01*
X149860Y60325D02*
X149860Y87630D01*
X149860Y60325D02*
X154305Y56515D01*
X133985Y55880D02*
X146685Y55880D01*
X146685Y55880D02*
X147320Y56515D01*
X147320Y56515D02*
X149225Y56515D01*
X149225Y52705D02*
X149225Y56515D01*
X149225Y43180D02*
X149225Y45085D01*
X141605Y50800D02*
X144145Y50800D01*
X144145Y43180D02*
X151765Y43180D01*
X151765Y43180D02*
X151765Y53975D01*
X141605Y50800D02*
X141605Y53975D01*
X139700Y50800D02*
X141605Y50800D01*
X137160Y48260D02*
X137160Y51435D01*
X127000Y53340D02*
X129540Y51435D01*
X137160Y48260D02*
X142240Y48260D01*
X127000Y53340D02*
X127000Y53975D01*
X127000Y53975D02*
X127000Y64135D01*
X100330Y62230D02*
X100330Y66675D01*
X49758Y84023D02*
X49758Y88493D01*
X49733Y88544D02*
X49758Y88493D01*
X49733Y88544D02*
X49733Y102489D01*
X37084Y81280D02*
X39065Y81305D01*
X103124Y73660D02*
X104140Y72593D01*
X104140Y67564D02*
X104140Y72593D01*
X133553Y79044D02*
X133604Y59944D01*
X62890Y79121D02*
X62992Y53365D01*
X61112Y62382D02*
X61112Y68122D01*
X96520Y43180D02*
X96520Y44704D01*
X107696Y54356D02*
X107950Y54635D01*
X107696Y53848D02*
X107696Y54356D01*
X106680Y52832D02*
X107696Y53848D01*
X106680Y51308D02*
X106680Y52832D01*
X106172Y50800D02*
X106680Y51308D01*
X105156Y50800D02*
X106172Y50800D01*
X104140Y49784D02*
X105156Y50800D01*
X104140Y45720D02*
X104140Y49784D01*
X58420Y43180D02*
X58420Y46736D01*
X105156Y57404D02*
X105410Y57175D01*
X105156Y57404D02*
X105664Y57404D01*
X105664Y57404D02*
X106680Y58420D01*
X97790Y76200D02*
X98044Y76200D01*
X102870Y59715D02*
X103124Y59944D01*
X103124Y59944D02*
X104648Y58420D01*
X104648Y58420D02*
X105664Y58420D01*
X105664Y58420D02*
X106680Y59436D01*
X106680Y59436D02*
X106680Y72136D01*
X105156Y73660D02*
X106680Y72136D01*
X105156Y73660D02*
X105410Y73660D01*
X83820Y62484D02*
X83820Y67564D01*
X83820Y62484D02*
X84836Y61468D01*
X84836Y61468D02*
X85090Y60960D01*
X48768Y50292D02*
X48768Y59436D01*
X123952Y51816D02*
X123952Y52324D01*
X123952Y52324D02*
X124968Y53340D01*
X124968Y53340D02*
X124968Y67056D01*
X123952Y68072D02*
X124968Y67056D01*
X34239Y42799D02*
X34544Y43180D01*
X36576Y83820D02*
X36830Y83820D01*
X47752Y122936D02*
X48234Y123215D01*
X46736Y122936D02*
X47752Y122936D01*
X45212Y121412D02*
X46736Y122936D01*
X64008Y61468D02*
X64008Y80264D01*
X62992Y81280D02*
X64008Y80264D01*
X36830Y81280D02*
X37084Y81280D01*
X88392Y68072D02*
X88900Y68580D01*
X54864Y57404D02*
X54864Y71628D01*
X54686Y57175D02*
X54864Y57404D01*
X93980Y46228D02*
X93980Y58420D01*
X93980Y46228D02*
X94996Y45212D01*
X94996Y44704D02*
X94996Y45212D01*
X94996Y44704D02*
X95250Y44475D01*
X86868Y58420D02*
X86868Y69596D01*
X86360Y70104D02*
X86868Y69596D01*
X86360Y70104D02*
X86360Y75184D01*
X86360Y75184D02*
X87376Y76200D01*
X87376Y76200D02*
X87630Y76200D01*
X89916Y47244D02*
X90170Y47015D01*
X101600Y60960D02*
X101600Y68072D01*
X100584Y69088D02*
X101600Y68072D01*
X100584Y69088D02*
X100584Y73660D01*
X100330Y73660D02*
X100584Y73660D01*
X34239Y50419D02*
X34544Y50800D01*
X34544Y50800D02*
X34544Y51308D01*
X92456Y44704D02*
X92710Y44475D01*
X92456Y44704D02*
X92456Y45212D01*
X91440Y46228D02*
X92456Y45212D01*
X91440Y46228D02*
X91440Y55880D01*
X99060Y63500D02*
X99060Y75184D01*
X99060Y75184D02*
X100076Y76200D01*
X100076Y76200D02*
X100330Y76200D01*
X83312Y48260D02*
X83312Y54864D01*
X45720Y44450D02*
X46228Y44704D01*
X46228Y44704D02*
X47244Y44704D01*
X47244Y44704D02*
X49276Y46736D01*
X80264Y56388D02*
X80264Y64516D01*
X78740Y66040D02*
X80264Y64516D01*
X105410Y52095D02*
X105664Y52324D01*
X74168Y42164D02*
X78740Y42164D01*
X73660Y41910D02*
X74168Y42164D01*
X84836Y58420D02*
X85090Y58420D01*
X84836Y57912D02*
X84836Y58420D01*
X83312Y56388D02*
X84836Y57912D01*
X83312Y54864D02*
X83312Y56388D01*
X79248Y54864D02*
X83312Y54864D01*
X78816Y54635D02*
X79248Y54864D01*
X36576Y89408D02*
X36830Y88900D01*
X78740Y54864D02*
X78740Y55880D01*
X78740Y54864D02*
X78816Y54635D01*
X95250Y76200D02*
X95504Y76200D01*
X95504Y75692D02*
X95504Y76200D01*
X95504Y75692D02*
X96520Y74676D01*
X96520Y61468D02*
X96520Y74676D01*
X96520Y61468D02*
X97536Y60452D01*
X97536Y59944D02*
X97536Y60452D01*
X97536Y59944D02*
X97790Y59715D01*
X92710Y76200D02*
X92964Y76200D01*
X92964Y75692D02*
X92964Y76200D01*
X92964Y75692D02*
X93980Y74676D01*
X93980Y61468D02*
X93980Y74676D01*
X93980Y61468D02*
X94996Y60452D01*
X94996Y59944D02*
X94996Y60452D01*
X94996Y59944D02*
X95250Y59715D01*
X90170Y76200D02*
X90424Y76200D01*
X90424Y75692D02*
X90424Y76200D01*
X90424Y75692D02*
X91440Y74676D01*
X91440Y61468D02*
X91440Y74676D01*
X91440Y61468D02*
X92456Y60452D01*
X92456Y59944D02*
X92456Y60452D01*
X92456Y59944D02*
X92710Y59715D01*
X102870Y73660D02*
X103124Y73660D01*
X104140Y61468D02*
X104140Y67564D01*
X104140Y61468D02*
X105156Y60452D01*
X105156Y59944D02*
X105156Y60452D01*
X105156Y59944D02*
X105410Y59715D01*
X72466Y54635D02*
X72644Y54356D01*
X72644Y51308D02*
X72644Y54356D01*
X45720Y46990D02*
X45720Y47244D01*
X45720Y47244D02*
X46736Y48260D01*
X46736Y48260D02*
X46736Y53340D01*
X46736Y53340D02*
X47066Y53365D01*
X72136Y66040D02*
X72390Y66040D01*
X72136Y62484D02*
X72136Y66040D01*
X72136Y62484D02*
X72466Y62255D01*
X89916Y73660D02*
X90170Y73660D01*
X89916Y61976D02*
X89916Y73660D01*
X89916Y57404D02*
X89916Y57912D01*
X89916Y57404D02*
X90170Y57175D01*
X102616Y76200D02*
X102870Y76200D01*
X102616Y75692D02*
X102616Y76200D01*
X101600Y74676D02*
X102616Y75692D01*
X101600Y73152D02*
X101600Y74676D01*
X101600Y73152D02*
X102616Y72136D01*
X102616Y62484D02*
X102616Y72136D01*
X102616Y62484D02*
X102870Y62255D01*
X97536Y73660D02*
X97790Y73660D01*
X97536Y62484D02*
X97536Y73660D01*
X97536Y62484D02*
X97790Y62255D01*
X94996Y73660D02*
X95250Y73660D01*
X94996Y62484D02*
X94996Y73660D01*
X94996Y62484D02*
X95250Y62255D01*
X92456Y73660D02*
X92710Y73660D01*
X92456Y62484D02*
X92456Y73660D01*
X92456Y62484D02*
X92710Y62255D01*
X34036Y62992D02*
X34239Y63119D01*
X34036Y53340D02*
X34239Y52959D01*
X72136Y58420D02*
X72466Y58445D01*
X72136Y54864D02*
X72136Y58420D01*
X72136Y54864D02*
X72466Y54635D01*
X72136Y61976D02*
X72466Y62255D01*
X72136Y58928D02*
X72136Y61976D01*
X72136Y58928D02*
X72466Y58445D01*
X45212Y72415D02*
X47066Y72415D01*
X45212Y62255D02*
X47066Y62255D01*
X54686Y53365D02*
X62992Y53365D01*
X107950Y52095D02*
X109728Y52095D01*
X133604Y58267D02*
X133604Y59944D01*
X133604Y42164D02*
X133604Y58267D01*
X109728Y42164D02*
X109728Y52095D01*
X45212Y68580D02*
X45212Y72415D01*
X45212Y62255D02*
X45212Y68580D01*
X45212Y57175D02*
X45212Y62255D01*
X45212Y48768D02*
X45212Y57175D01*
X36830Y86360D02*
X41148Y86360D01*
X54584Y115595D02*
X54584Y119380D01*
X41148Y115595D02*
X43154Y115595D01*
X52146Y70104D02*
X52146Y72415D01*
X41148Y115595D02*
X41148Y119380D01*
X41148Y86360D02*
X41148Y115595D01*
X41148Y70104D02*
X41148Y86360D01*
X41148Y119380D02*
X54584Y119380D01*
X78714Y44577D02*
X78790Y44856D01*
X78714Y44577D02*
X78740Y42164D01*
X73634Y45085D02*
X73710Y44856D01*
X88900Y68580D02*
X88925Y87630D01*
X95656Y97053D02*
X95656Y102108D01*
X88925Y87630D02*
X95554Y87604D01*
X74168Y51308D02*
X74193Y67741D01*
X72542Y68427D02*
X74193Y67741D01*
X108712Y79527D02*
X115646Y79527D01*
X73101Y47955D02*
X73634Y47929D01*
X141046Y60426D02*
X141071Y101727D01*
X138353Y101727D02*
X141071Y101727D01*
X65633Y52908D02*
X65659Y73634D01*
X65659Y73634D02*
X66065Y73634D01*
X66065Y73634D02*
X66065Y109982D01*
X108254Y102590D02*
X108686Y102133D01*
X108254Y112750D02*
X108686Y112293D01*
X78232Y74168D02*
X78359Y82270D01*
X77978Y82270D02*
X78359Y82270D01*
X108635Y82270D02*
X108712Y79527D01*
X108127Y82270D02*
X108254Y82270D01*
X108254Y82270D02*
X108635Y82270D01*
X123164Y92430D02*
X123291Y92430D01*
X93497Y102108D02*
X95656Y102108D01*
X93014Y102590D02*
X93497Y102108D01*
X92989Y112776D02*
X93014Y112750D01*
X63017Y112649D02*
X66065Y109982D01*
X47929Y102489D02*
X49733Y102489D01*
X137845Y102133D02*
X138328Y102590D01*
X137845Y102133D02*
X138353Y101727D01*
X62992Y81280D02*
X63322Y82270D01*
X62941Y82270D02*
X63322Y82270D01*
X47701Y82270D02*
X48082Y82270D01*
X123291Y61976D02*
X123444Y53340D01*
X123291Y61976D02*
X123393Y62052D01*
X123799Y72136D02*
X123952Y68072D01*
X123393Y72212D02*
X123799Y72136D01*
X62941Y102057D02*
X62941Y102590D01*
X115570Y65887D02*
X115646Y79527D01*
X73914Y79705D02*
X73914Y89865D01*
X77978Y102590D02*
X78181Y102463D01*
X78181Y102463D02*
X80619Y102463D01*
X36830Y91440D02*
X36931Y91694D01*
X36931Y91694D02*
X39776Y91694D01*
X39776Y121361D02*
X45212Y121412D01*
X39776Y91694D02*
X39776Y121361D01*
X109677Y39065D02*
X109728Y42164D01*
X55829Y39065D02*
X109677Y39065D01*
X111302Y40792D02*
X111810Y40284D01*
X111252Y58420D02*
X111302Y40792D01*
X51765Y46786D02*
X55880Y50800D01*
X49276Y46736D02*
X51765Y46786D01*
X56032Y43332D02*
X56032Y47396D01*
X55829Y38862D02*
X55829Y43332D01*
X95681Y87452D02*
X95732Y87426D01*
X95656Y97053D02*
X95681Y87452D01*
X108102Y87452D02*
X108127Y82270D01*
X95681Y87452D02*
X108102Y87452D01*
X108686Y102133D02*
X109753Y101752D01*
X62941Y102057D02*
X62966Y97485D01*
X62966Y97485D02*
X64820Y97485D01*
X64820Y97485D02*
X64897Y85090D01*
X78740Y66040D02*
X79222Y66014D01*
X79400Y80314D02*
X79476Y66141D01*
X79222Y66014D02*
X79476Y66141D01*
X73914Y79705D02*
X75895Y79679D01*
X75819Y49733D02*
X75844Y79629D01*
X72618Y45110D02*
X72644Y51308D01*
X72618Y45110D02*
X73634Y45085D01*
X74168Y51308D02*
X74345Y50901D01*
X77038Y56845D02*
X78740Y55880D01*
X76936Y74168D02*
X78232Y74168D01*
X76936Y74168D02*
X77038Y56845D01*
X64008Y61468D02*
X64185Y60934D01*
X39547Y45796D02*
X39598Y72999D01*
X39065Y81305D02*
X39598Y81330D01*
X39598Y72999D02*
X39598Y81330D01*
X38455Y76200D02*
X38531Y43078D01*
X35610Y83896D02*
X36296Y83896D01*
X34950Y76123D02*
X38531Y76174D01*
X34950Y76123D02*
X34950Y83896D01*
X34950Y83896D02*
X36068Y83896D01*
X34264Y43027D02*
X38557Y43027D01*
X34544Y51308D02*
X37490Y51257D01*
X37490Y51257D02*
X37490Y62915D01*
X34036Y62992D02*
X34188Y63017D01*
X34188Y63017D02*
X36118Y63093D01*
X34036Y53340D02*
X36118Y53314D01*
X36118Y53314D02*
X36118Y63093D01*
X96520Y44704D02*
X96545Y45212D01*
X95224Y47015D02*
X95250Y47015D01*
X95224Y47015D02*
X96545Y45212D01*
X123190Y72390D02*
X123393Y72212D01*
X123190Y72390D02*
X123190Y76835D01*
X123190Y76835D02*
X125730Y76835D01*
X99060Y78105D02*
X106045Y78105D01*
X97790Y76835D02*
X99060Y78105D01*
X97790Y76200D02*
X97790Y76835D01*
X106045Y78105D02*
X109220Y78105D01*
X109220Y78105D02*
X113030Y78105D01*
X113030Y61595D02*
X113030Y78105D01*
X111125Y61595D02*
X113030Y61595D01*
X109220Y58420D02*
X111125Y61595D01*
X106680Y58420D02*
X109220Y58420D01*
X88265Y63500D02*
X88392Y68072D01*
X102870Y52070D02*
X102870Y55880D01*
X102870Y52070D02*
X105410Y52070D01*
X41833Y60502D02*
X43611Y60502D01*
X114554Y40284D02*
X123291Y40284D01*
X123291Y40284D02*
X123291Y48818D01*
X114300Y40335D02*
X114350Y40284D01*
X80772Y48133D02*
X81330Y48158D01*
X81330Y41960D02*
X81330Y48158D01*
X70612Y40132D02*
X81280Y40132D01*
X81280Y40132D02*
X87376Y40132D01*
X118872Y48768D02*
X125730Y48768D01*
X69088Y55372D02*
X70612Y55372D01*
X56388Y66548D02*
X57404Y66548D01*
X43688Y75184D02*
X46990Y75184D01*
X46990Y75184D02*
X49606Y75184D01*
X49606Y75184D02*
X49784Y75184D01*
X43688Y52959D02*
X43688Y60579D01*
X43688Y60579D02*
X43688Y66548D01*
X43688Y66548D02*
X43688Y70104D01*
X43688Y70104D02*
X43688Y75184D01*
X43688Y75184D02*
X43688Y79756D01*
X56388Y62255D02*
X56388Y66548D01*
X69088Y55372D02*
X69088Y67310D01*
X70612Y40132D02*
X70612Y45212D01*
X70612Y45212D02*
X70612Y55372D01*
X87376Y40132D02*
X87376Y48768D01*
X87376Y48768D02*
X87376Y53340D01*
X118872Y48768D02*
X118872Y58420D01*
X125730Y48768D02*
X125730Y50800D01*
X116840Y58420D02*
X118872Y58420D01*
X57404Y123215D02*
X59664Y123215D01*
X81280Y40132D02*
X81280Y41910D01*
X67310Y67310D02*
X69088Y67310D01*
X46990Y75184D02*
X46990Y77470D01*
X41859Y52959D02*
X43688Y52959D01*
X49606Y72415D02*
X49606Y75184D01*
X83312Y69596D02*
X83337Y80365D01*
X57302Y80365D02*
X57404Y123215D01*
X57302Y80365D02*
X57404Y66548D01*
X57302Y80365D02*
X57480Y79730D01*
X57251Y79654D02*
X57404Y79654D01*
X125730Y48768D02*
X125933Y46990D01*
X139674Y40309D02*
X139700Y45720D01*
X122682Y40309D02*
X139674Y40309D01*
X49784Y75184D02*
X49784Y79654D01*
X49784Y79654D02*
X57251Y79654D01*
X117627Y60909D02*
X118872Y58420D01*
X117627Y60909D02*
X117627Y69621D01*
X87299Y80111D02*
X87299Y85826D01*
X85090Y78359D02*
X87299Y80111D01*
X83820Y67564D02*
X85090Y69062D01*
X85090Y69062D02*
X85090Y78359D01*
X108686Y112293D02*
X111125Y111125D01*
X111125Y97155D02*
X111125Y111125D01*
X88900Y48260D02*
X89916Y47244D01*
X88900Y48260D02*
X88900Y55880D01*
X88265Y56515D02*
X88900Y55880D01*
X88265Y56515D02*
X88265Y63500D01*
X109855Y85725D02*
X109855Y101600D01*
X111125Y95250D02*
X111125Y97155D01*
X123190Y86360D02*
X123190Y92710D01*
X123190Y86360D02*
X125730Y86360D01*
X125730Y76835D02*
X125730Y86360D01*
X80619Y102463D02*
X80645Y84455D01*
X79400Y80314D02*
X80645Y80645D01*
X80645Y80645D02*
X80645Y84455D01*
X32893Y125450D02*
X157937Y125526D01*
X157988Y109347D02*
X157988Y125577D01*
X157937Y68427D02*
X157988Y105714D01*
X32867Y109347D02*
X32867Y125476D01*
X157937Y38100D02*
X157937Y65049D01*
X32816Y38049D02*
X158038Y38049D01*
X32842Y38049D02*
X32867Y66497D01*
X32867Y70154D02*
X32893Y105841D01*
X156083Y109448D02*
X157911Y109448D01*
X156032Y105918D02*
X157937Y105918D01*
X155854Y65150D02*
X157886Y65150D01*
X155752Y68453D02*
X157911Y68453D01*
X32842Y70154D02*
X34848Y70154D01*
X32893Y66573D02*
X34747Y66573D01*
X32918Y109448D02*
X34747Y109448D01*
X32918Y105968D02*
X34798Y105968D01*
X156133Y109474D02*
X156133Y109474D01*
X155752Y109474D01*
X155397Y109397D01*
X155067Y109245D01*
X154762Y109016D01*
X154508Y108762D01*
X154330Y108432D01*
X154203Y108102D01*
X154178Y107721D01*
X154203Y107365D01*
X154305Y107010D01*
X154457Y106680D01*
X154711Y106400D01*
X154990Y106172D01*
X155321Y105994D01*
X155676Y105918D01*
X156032Y105892D01*
X155752Y68453D02*
X155752Y68453D01*
X155371Y68402D01*
X154990Y68249D01*
X154660Y68021D01*
X154406Y67716D01*
X154228Y67386D01*
X154127Y66979D01*
X154127Y66598D01*
X154228Y66192D01*
X154406Y65862D01*
X154660Y65557D01*
X154990Y65328D01*
X155371Y65176D01*
X155778Y65150D01*
X34772Y105968D02*
X34772Y105968D01*
X35179Y105994D01*
X35534Y106121D01*
X35864Y106324D01*
X36144Y106578D01*
X36347Y106908D01*
X36499Y107289D01*
X36525Y107670D01*
X36499Y108051D01*
X36372Y108432D01*
X36169Y108762D01*
X35890Y109042D01*
X35560Y109245D01*
X35204Y109372D01*
X34798Y109397D01*
X34747Y66522D02*
X34747Y66522D01*
X35128Y66573D01*
X35458Y66675D01*
X35788Y66878D01*
X36068Y67132D01*
X36271Y67437D01*
X36423Y67792D01*
X36499Y68148D01*
X36499Y68529D01*
X36423Y68884D01*
X36271Y69240D01*
X36068Y69545D01*
X35788Y69799D01*
X35458Y70002D01*
X35128Y70104D01*
X34747Y70154D01*
X148590Y97790D02*
X148590Y97790D01*
X149225Y97790D01*
X149021Y98221D01*
X148564Y98425D01*
X148132Y98221D01*
X147955Y97764D01*
X148132Y97332D01*
X148590Y97155D01*
X149021Y97332D01*
X149225Y97790D01*
X148590Y97790D01*
X153670Y99060D02*
X153670Y99060D01*
X154305Y99060D01*
X154101Y99491D01*
X153644Y99695D01*
X153212Y99491D01*
X153035Y99034D01*
X153212Y98602D01*
X153670Y98425D01*
X154101Y98602D01*
X154305Y99060D01*
X153670Y99060D01*
X152527Y92710D02*
X152527Y92710D01*
X152476Y92786D01*
X152374Y92837D01*
X152298Y92786D01*
X152273Y92684D01*
X152298Y92608D01*
X152400Y92583D01*
X152476Y92608D01*
X152527Y92710D01*
X152400Y92710D01*
X152527Y90170D02*
X152527Y90170D01*
X152476Y90246D01*
X152374Y90297D01*
X152298Y90246D01*
X152273Y90144D01*
X152298Y90068D01*
X152400Y90043D01*
X152476Y90068D01*
X152527Y90170D01*
X152400Y90170D01*
X152527Y87630D02*
X152527Y87630D01*
X152476Y87706D01*
X152374Y87757D01*
X152298Y87706D01*
X152273Y87604D01*
X152298Y87528D01*
X152400Y87503D01*
X152476Y87528D01*
X152527Y87630D01*
X152400Y87630D01*
X149352Y45212D02*
X149098Y45212D01*
X149098Y44958D01*
X149352Y44958D01*
X149352Y45212D01*
X149225Y45085D01*
X149352Y52705D02*
X149352Y52705D01*
X149301Y52781D01*
X149199Y52832D01*
X149123Y52781D01*
X149098Y52679D01*
X149123Y52603D01*
X149225Y52578D01*
X149301Y52603D01*
X149352Y52705D01*
X149225Y52705D01*
X144272Y50927D02*
X144018Y50927D01*
X144018Y50673D01*
X144272Y50673D01*
X144272Y50927D01*
X144145Y50800D01*
X144272Y43180D02*
X144272Y43180D01*
X144221Y43256D01*
X144119Y43307D01*
X144043Y43256D01*
X144018Y43154D01*
X144043Y43078D01*
X144145Y43053D01*
X144221Y43078D01*
X144272Y43180D01*
X144145Y43180D01*
X149352Y56642D02*
X149098Y56642D01*
X149098Y56388D01*
X149352Y56388D01*
X149352Y56642D01*
X149225Y56515D01*
X151892Y53975D02*
X151892Y53975D01*
X151841Y54051D01*
X151739Y54102D01*
X151663Y54051D01*
X151638Y53949D01*
X151663Y53873D01*
X151765Y53848D01*
X151841Y53873D01*
X151892Y53975D01*
X151765Y53975D01*
X154432Y56515D02*
X154432Y56515D01*
X154381Y56591D01*
X154279Y56642D01*
X154203Y56591D01*
X154178Y56489D01*
X154203Y56413D01*
X154305Y56388D01*
X154381Y56413D01*
X154432Y56515D01*
X154305Y56515D01*
X141732Y53975D02*
X141732Y53975D01*
X141681Y54051D01*
X141579Y54102D01*
X141503Y54051D01*
X141478Y53949D01*
X141503Y53873D01*
X141605Y53848D01*
X141681Y53873D01*
X141732Y53975D01*
X141605Y53975D01*
X134112Y54102D02*
X133858Y54102D01*
X133858Y53848D01*
X134112Y53848D01*
X134112Y54102D01*
X133985Y53975D01*
X137287Y51435D02*
X137287Y51435D01*
X137236Y51511D01*
X137134Y51562D01*
X137058Y51511D01*
X137033Y51409D01*
X137058Y51333D01*
X137160Y51308D01*
X137236Y51333D01*
X137287Y51435D01*
X137160Y51435D01*
X129667Y51562D02*
X129413Y51562D01*
X129413Y51308D01*
X129667Y51308D01*
X129667Y51562D01*
X129540Y51435D01*
X139827Y50800D02*
X139827Y50800D01*
X139776Y50876D01*
X139674Y50927D01*
X139598Y50876D01*
X139573Y50774D01*
X139598Y50698D01*
X139700Y50673D01*
X139776Y50698D01*
X139827Y50800D01*
X139700Y50800D01*
X142367Y48260D02*
X142367Y48260D01*
X142316Y48336D01*
X142214Y48387D01*
X142138Y48336D01*
X142113Y48234D01*
X142138Y48158D01*
X142240Y48133D01*
X142316Y48158D01*
X142367Y48260D01*
X142240Y48260D01*
X139827Y45847D02*
X139573Y45847D01*
X139573Y45593D01*
X139827Y45593D01*
X139827Y45847D01*
X139700Y45720D01*
X36830Y114300D02*
X36830Y114300D01*
X37465Y114300D01*
X37261Y114731D01*
X36804Y114935D01*
X36372Y114731D01*
X36195Y114274D01*
X36372Y113842D01*
X36830Y113665D01*
X37261Y113842D01*
X37439Y114300D01*
X36830Y114300D01*
X36830Y102870D02*
X36830Y102870D01*
X37465Y102870D01*
X37261Y103301D01*
X36804Y103505D01*
X36372Y103301D01*
X36195Y102844D01*
X36372Y102412D01*
X36830Y102235D01*
X37261Y102412D01*
X37439Y102870D01*
X36830Y102870D01*
X36830Y97790D02*
X36830Y97790D01*
X37465Y97790D01*
X37261Y98221D01*
X36804Y98425D01*
X36372Y98221D01*
X36195Y97764D01*
X36372Y97332D01*
X36830Y97155D01*
X37261Y97332D01*
X37439Y97790D01*
X36830Y97790D01*
X83820Y123190D02*
X83820Y123190D01*
X84455Y123190D01*
X84251Y123621D01*
X83794Y123825D01*
X83362Y123621D01*
X83185Y123164D01*
X83362Y122732D01*
X83820Y122555D01*
X84251Y122732D01*
X84429Y123190D01*
X83820Y123190D01*
X88900Y123190D02*
X88900Y123190D01*
X89535Y123190D01*
X89331Y123621D01*
X88874Y123825D01*
X88442Y123621D01*
X88265Y123164D01*
X88442Y122732D01*
X88900Y122555D01*
X89331Y122732D01*
X89509Y123190D01*
X88900Y123190D01*
X93980Y123190D02*
X93980Y123190D01*
X94615Y123190D01*
X94411Y123621D01*
X93954Y123825D01*
X93522Y123621D01*
X93345Y123164D01*
X93522Y122732D01*
X93980Y122555D01*
X94411Y122732D01*
X94589Y123190D01*
X93980Y123190D01*
X99060Y123190D02*
X99060Y123190D01*
X99695Y123190D01*
X99491Y123621D01*
X99034Y123825D01*
X98602Y123621D01*
X98425Y123164D01*
X98602Y122732D01*
X99060Y122555D01*
X99491Y122732D01*
X99669Y123190D01*
X99060Y123190D01*
X104140Y123190D02*
X104140Y123190D01*
X104775Y123190D01*
X104571Y123621D01*
X104114Y123825D01*
X103682Y123621D01*
X103505Y123164D01*
X103682Y122732D01*
X104140Y122555D01*
X104571Y122732D01*
X104775Y123190D01*
X104140Y123190D01*
X109220Y123190D02*
X109220Y123190D01*
X109855Y123190D01*
X109651Y123621D01*
X109194Y123825D01*
X108762Y123621D01*
X108585Y123164D01*
X108762Y122732D01*
X109220Y122555D01*
X109651Y122732D01*
X109855Y123190D01*
X109220Y123190D01*
X114300Y123190D02*
X114300Y123190D01*
X114935Y123190D01*
X114731Y123621D01*
X114274Y123825D01*
X113842Y123621D01*
X113665Y123164D01*
X113842Y122732D01*
X114300Y122555D01*
X114731Y122732D01*
X114935Y123190D01*
X114300Y123190D01*
X119380Y123190D02*
X119380Y123190D01*
X120015Y123190D01*
X119811Y123621D01*
X119354Y123825D01*
X118922Y123621D01*
X118745Y123164D01*
X118922Y122732D01*
X119380Y122555D01*
X119811Y122732D01*
X120015Y123190D01*
X119380Y123190D01*
X124460Y123190D02*
X124460Y123190D01*
X125095Y123190D01*
X124891Y123621D01*
X124434Y123825D01*
X124002Y123621D01*
X123825Y123164D01*
X124002Y122732D01*
X124460Y122555D01*
X124891Y122732D01*
X125095Y123190D01*
X124460Y123190D01*
X124460Y118745D02*
X124460Y118745D01*
X125095Y118745D01*
X124891Y119176D01*
X124434Y119380D01*
X124002Y119176D01*
X123825Y118719D01*
X124002Y118287D01*
X124460Y118110D01*
X124891Y118287D01*
X125095Y118745D01*
X124460Y118745D01*
X119380Y118745D02*
X119380Y118745D01*
X120015Y118745D01*
X119811Y119176D01*
X119354Y119380D01*
X118922Y119176D01*
X118745Y118719D01*
X118922Y118287D01*
X119380Y118110D01*
X119811Y118287D01*
X120015Y118745D01*
X119380Y118745D01*
X114300Y118745D02*
X114300Y118745D01*
X114935Y118745D01*
X114731Y119176D01*
X114274Y119380D01*
X113842Y119176D01*
X113665Y118719D01*
X113842Y118287D01*
X114300Y118110D01*
X114731Y118287D01*
X114935Y118745D01*
X114300Y118745D01*
X109220Y118745D02*
X109220Y118745D01*
X109855Y118745D01*
X109651Y119176D01*
X109194Y119380D01*
X108762Y119176D01*
X108585Y118719D01*
X108762Y118287D01*
X109220Y118110D01*
X109651Y118287D01*
X109855Y118745D01*
X109220Y118745D01*
X104140Y118745D02*
X104140Y118745D01*
X104775Y118745D01*
X104571Y119176D01*
X104114Y119380D01*
X103682Y119176D01*
X103505Y118719D01*
X103682Y118287D01*
X104140Y118110D01*
X104571Y118287D01*
X104775Y118745D01*
X104140Y118745D01*
X99060Y118745D02*
X99060Y118745D01*
X99695Y118745D01*
X99491Y119176D01*
X99034Y119380D01*
X98602Y119176D01*
X98425Y118719D01*
X98602Y118287D01*
X99060Y118110D01*
X99491Y118287D01*
X99669Y118745D01*
X99060Y118745D01*
X93980Y118745D02*
X93980Y118745D01*
X94615Y118745D01*
X94411Y119176D01*
X93954Y119380D01*
X93522Y119176D01*
X93345Y118719D01*
X93522Y118287D01*
X93980Y118110D01*
X94411Y118287D01*
X94589Y118745D01*
X93980Y118745D01*
X88900Y118745D02*
X88900Y118745D01*
X89535Y118745D01*
X89331Y119176D01*
X88874Y119380D01*
X88442Y119176D01*
X88265Y118719D01*
X88442Y118287D01*
X88900Y118110D01*
X89331Y118287D01*
X89509Y118745D01*
X88900Y118745D01*
X83820Y118745D02*
X83820Y118745D01*
X84455Y118745D01*
X84251Y119176D01*
X83794Y119380D01*
X83362Y119176D01*
X83185Y118719D01*
X83362Y118287D01*
X83820Y118110D01*
X84251Y118287D01*
X84429Y118745D01*
X83820Y118745D01*
X78740Y118745D02*
X78740Y118745D01*
X79375Y118745D01*
X79171Y119176D01*
X78714Y119380D01*
X78282Y119176D01*
X78105Y118719D01*
X78282Y118287D01*
X78740Y118110D01*
X79171Y118287D01*
X79349Y118745D01*
X78740Y118745D01*
X78740Y123190D02*
X78740Y123190D01*
X79375Y123190D01*
X79171Y123621D01*
X78714Y123825D01*
X78282Y123621D01*
X78105Y123164D01*
X78282Y122732D01*
X78740Y122555D01*
X79171Y122732D01*
X79349Y123190D01*
X78740Y123190D01*
X37033Y91414D02*
X37033Y91414D01*
X36982Y91490D01*
X36880Y91541D01*
X36804Y91490D01*
X36779Y91389D01*
X36804Y91313D01*
X36906Y91287D01*
X36982Y91313D01*
X37033Y91414D01*
X36906Y91414D01*
X37033Y88874D02*
X37033Y88874D01*
X36982Y88950D01*
X36880Y89001D01*
X36804Y88950D01*
X36779Y88849D01*
X36804Y88773D01*
X36906Y88747D01*
X36982Y88773D01*
X37033Y88874D01*
X36906Y88874D01*
X37033Y86334D02*
X37033Y86334D01*
X36982Y86410D01*
X36880Y86461D01*
X36804Y86410D01*
X36779Y86309D01*
X36804Y86233D01*
X36906Y86207D01*
X36982Y86233D01*
X37033Y86334D01*
X36906Y86334D01*
X37033Y83794D02*
X37033Y83794D01*
X36982Y83870D01*
X36880Y83921D01*
X36804Y83870D01*
X36779Y83769D01*
X36804Y83693D01*
X36906Y83667D01*
X36982Y83693D01*
X37033Y83794D01*
X36906Y83794D01*
X37033Y81254D02*
X37033Y81254D01*
X36982Y81330D01*
X36880Y81381D01*
X36804Y81330D01*
X36779Y81229D01*
X36804Y81153D01*
X36906Y81127D01*
X36982Y81153D01*
X37033Y81254D01*
X36906Y81254D01*
X37033Y78841D02*
X36779Y78841D01*
X36779Y78587D01*
X37033Y78587D01*
X37033Y78841D01*
X36906Y78714D01*
X125730Y46532D02*
X125730Y46532D01*
X125679Y46609D01*
X125577Y46659D01*
X125501Y46609D01*
X125476Y46507D01*
X125501Y46431D01*
X125603Y46405D01*
X125679Y46431D01*
X125730Y46532D01*
X125603Y46532D01*
X120650Y46659D02*
X120396Y46659D01*
X120396Y46405D01*
X120650Y46405D01*
X120650Y46659D01*
X120523Y46532D01*
X41986Y40386D02*
X41732Y40386D01*
X41732Y40132D01*
X41986Y40132D01*
X41986Y40386D01*
X41859Y40259D01*
X41986Y42799D02*
X41986Y42799D01*
X41935Y42875D01*
X41833Y42926D01*
X41757Y42875D01*
X41732Y42773D01*
X41757Y42697D01*
X41859Y42672D01*
X41935Y42697D01*
X41986Y42799D01*
X41859Y42799D01*
X41986Y45339D02*
X41986Y45339D01*
X41935Y45415D01*
X41833Y45466D01*
X41757Y45415D01*
X41732Y45313D01*
X41757Y45237D01*
X41859Y45212D01*
X41935Y45237D01*
X41986Y45339D01*
X41859Y45339D01*
X41986Y47879D02*
X41986Y47879D01*
X41935Y47955D01*
X41833Y48006D01*
X41757Y47955D01*
X41732Y47853D01*
X41757Y47777D01*
X41859Y47752D01*
X41935Y47777D01*
X41986Y47879D01*
X41859Y47879D01*
X41986Y50419D02*
X41986Y50419D01*
X41935Y50495D01*
X41833Y50546D01*
X41757Y50495D01*
X41732Y50393D01*
X41757Y50317D01*
X41859Y50292D01*
X41935Y50317D01*
X41986Y50419D01*
X41859Y50419D01*
X41986Y52959D02*
X41986Y52959D01*
X41935Y53035D01*
X41833Y53086D01*
X41757Y53035D01*
X41732Y52933D01*
X41757Y52857D01*
X41859Y52832D01*
X41935Y52857D01*
X41986Y52959D01*
X41859Y52959D01*
X41986Y55499D02*
X41986Y55499D01*
X41935Y55575D01*
X41833Y55626D01*
X41757Y55575D01*
X41732Y55473D01*
X41757Y55397D01*
X41859Y55372D01*
X41935Y55397D01*
X41986Y55499D01*
X41859Y55499D01*
X41986Y58039D02*
X41986Y58039D01*
X41935Y58115D01*
X41833Y58166D01*
X41757Y58115D01*
X41732Y58013D01*
X41757Y57937D01*
X41859Y57912D01*
X41935Y57937D01*
X41986Y58039D01*
X41859Y58039D01*
X34366Y58039D02*
X34366Y58039D01*
X34315Y58115D01*
X34213Y58166D01*
X34137Y58115D01*
X34112Y58013D01*
X34137Y57937D01*
X34239Y57912D01*
X34315Y57937D01*
X34366Y58039D01*
X34239Y58039D01*
X34366Y55499D02*
X34366Y55499D01*
X34315Y55575D01*
X34213Y55626D01*
X34137Y55575D01*
X34112Y55473D01*
X34137Y55397D01*
X34239Y55372D01*
X34315Y55397D01*
X34366Y55499D01*
X34239Y55499D01*
X34366Y52959D02*
X34366Y52959D01*
X34315Y53035D01*
X34213Y53086D01*
X34137Y53035D01*
X34112Y52933D01*
X34137Y52857D01*
X34239Y52832D01*
X34315Y52857D01*
X34366Y52959D01*
X34239Y52959D01*
X34366Y50419D02*
X34366Y50419D01*
X34315Y50495D01*
X34213Y50546D01*
X34137Y50495D01*
X34112Y50393D01*
X34137Y50317D01*
X34239Y50292D01*
X34315Y50317D01*
X34366Y50419D01*
X34239Y50419D01*
X34366Y47879D02*
X34366Y47879D01*
X34315Y47955D01*
X34213Y48006D01*
X34137Y47955D01*
X34112Y47853D01*
X34137Y47777D01*
X34239Y47752D01*
X34315Y47777D01*
X34366Y47879D01*
X34239Y47879D01*
X34366Y45339D02*
X34366Y45339D01*
X34315Y45415D01*
X34213Y45466D01*
X34137Y45415D01*
X34112Y45313D01*
X34137Y45237D01*
X34239Y45212D01*
X34315Y45237D01*
X34366Y45339D01*
X34239Y45339D01*
X34366Y42799D02*
X34366Y42799D01*
X34315Y42875D01*
X34213Y42926D01*
X34137Y42875D01*
X34112Y42773D01*
X34137Y42697D01*
X34239Y42672D01*
X34315Y42697D01*
X34366Y42799D01*
X34239Y42799D01*
X34366Y40259D02*
X34366Y40259D01*
X34315Y40335D01*
X34213Y40386D01*
X34137Y40335D01*
X34112Y40233D01*
X34137Y40157D01*
X34239Y40132D01*
X34315Y40157D01*
X34366Y40259D01*
X34239Y40259D01*
X41986Y60579D02*
X41986Y60579D01*
X41935Y60655D01*
X41833Y60706D01*
X41757Y60655D01*
X41732Y60553D01*
X41757Y60477D01*
X41859Y60452D01*
X41935Y60477D01*
X41986Y60579D01*
X41859Y60579D01*
X41986Y63119D02*
X41986Y63119D01*
X41935Y63195D01*
X41833Y63246D01*
X41757Y63195D01*
X41732Y63093D01*
X41757Y63017D01*
X41859Y62992D01*
X41935Y63017D01*
X41986Y63119D01*
X41859Y63119D01*
X34366Y63119D02*
X34366Y63119D01*
X34315Y63195D01*
X34213Y63246D01*
X34137Y63195D01*
X34112Y63093D01*
X34137Y63017D01*
X34239Y62992D01*
X34315Y63017D01*
X34366Y63119D01*
X34239Y63119D01*
X34366Y60579D02*
X34366Y60579D01*
X34315Y60655D01*
X34213Y60706D01*
X34137Y60655D01*
X34112Y60553D01*
X34137Y60477D01*
X34239Y60452D01*
X34315Y60477D01*
X34366Y60579D01*
X34239Y60579D01*
X50927Y43307D02*
X50673Y43307D01*
X50673Y43053D01*
X50927Y43053D01*
X50927Y43307D01*
X50800Y43180D01*
X53467Y43180D02*
X53467Y43180D01*
X53416Y43256D01*
X53314Y43307D01*
X53238Y43256D01*
X53213Y43154D01*
X53238Y43078D01*
X53340Y43053D01*
X53416Y43078D01*
X53467Y43180D01*
X53340Y43180D01*
X56007Y43180D02*
X56007Y43180D01*
X55956Y43256D01*
X55854Y43307D01*
X55778Y43256D01*
X55753Y43154D01*
X55778Y43078D01*
X55880Y43053D01*
X55956Y43078D01*
X56007Y43180D01*
X55880Y43180D01*
X58547Y43180D02*
X58547Y43180D01*
X58496Y43256D01*
X58394Y43307D01*
X58318Y43256D01*
X58293Y43154D01*
X58318Y43078D01*
X58420Y43053D01*
X58496Y43078D01*
X58547Y43180D01*
X58420Y43180D01*
X61087Y43180D02*
X61087Y43180D01*
X61036Y43256D01*
X60934Y43307D01*
X60858Y43256D01*
X60833Y43154D01*
X60858Y43078D01*
X60960Y43053D01*
X61036Y43078D01*
X61087Y43180D01*
X60960Y43180D01*
X63627Y43180D02*
X63627Y43180D01*
X63576Y43256D01*
X63474Y43307D01*
X63398Y43256D01*
X63373Y43154D01*
X63398Y43078D01*
X63500Y43053D01*
X63576Y43078D01*
X63627Y43180D01*
X63500Y43180D01*
X66167Y43180D02*
X66167Y43180D01*
X66116Y43256D01*
X66014Y43307D01*
X65938Y43256D01*
X65913Y43154D01*
X65938Y43078D01*
X66040Y43053D01*
X66116Y43078D01*
X66167Y43180D01*
X66040Y43180D01*
X50927Y50800D02*
X50927Y50800D01*
X50876Y50876D01*
X50774Y50927D01*
X50698Y50876D01*
X50673Y50774D01*
X50698Y50698D01*
X50800Y50673D01*
X50876Y50698D01*
X50927Y50800D01*
X50800Y50800D01*
X53467Y50800D02*
X53467Y50800D01*
X53416Y50876D01*
X53314Y50927D01*
X53238Y50876D01*
X53213Y50774D01*
X53238Y50698D01*
X53340Y50673D01*
X53416Y50698D01*
X53467Y50800D01*
X53340Y50800D01*
X56007Y50800D02*
X56007Y50800D01*
X55956Y50876D01*
X55854Y50927D01*
X55778Y50876D01*
X55753Y50774D01*
X55778Y50698D01*
X55880Y50673D01*
X55956Y50698D01*
X56007Y50800D01*
X55880Y50800D01*
X58547Y50800D02*
X58547Y50800D01*
X58496Y50876D01*
X58394Y50927D01*
X58318Y50876D01*
X58293Y50774D01*
X58318Y50698D01*
X58420Y50673D01*
X58496Y50698D01*
X58547Y50800D01*
X58420Y50800D01*
X61087Y50800D02*
X61087Y50800D01*
X61036Y50876D01*
X60934Y50927D01*
X60858Y50876D01*
X60833Y50774D01*
X60858Y50698D01*
X60960Y50673D01*
X61036Y50698D01*
X61087Y50800D01*
X60960Y50800D01*
X63627Y50800D02*
X63627Y50800D01*
X63576Y50876D01*
X63474Y50927D01*
X63398Y50876D01*
X63373Y50774D01*
X63398Y50698D01*
X63500Y50673D01*
X63576Y50698D01*
X63627Y50800D01*
X63500Y50800D01*
X66167Y50800D02*
X66167Y50800D01*
X66116Y50876D01*
X66014Y50927D01*
X65938Y50876D01*
X65913Y50774D01*
X65938Y50698D01*
X66040Y50673D01*
X66116Y50698D01*
X66167Y50800D01*
X66040Y50800D01*
X68707Y50800D02*
X68707Y50800D01*
X68656Y50876D01*
X68554Y50927D01*
X68478Y50876D01*
X68453Y50774D01*
X68478Y50698D01*
X68580Y50673D01*
X68656Y50698D01*
X68707Y50800D01*
X68580Y50800D01*
X68707Y43180D02*
X68707Y43180D01*
X68656Y43256D01*
X68554Y43307D01*
X68478Y43256D01*
X68453Y43154D01*
X68478Y43078D01*
X68580Y43053D01*
X68656Y43078D01*
X68707Y43180D01*
X68580Y43180D01*
X52197Y77470D02*
X52197Y77470D01*
X52146Y77546D01*
X52044Y77597D01*
X51968Y77546D01*
X51943Y77444D01*
X51968Y77368D01*
X52070Y77343D01*
X52146Y77368D01*
X52197Y77470D01*
X52070Y77470D01*
X47117Y77597D02*
X46863Y77597D01*
X46863Y77343D01*
X47117Y77343D01*
X47117Y77597D01*
X46990Y77470D01*
X67437Y57150D02*
X67437Y57150D01*
X67386Y57226D01*
X67284Y57277D01*
X67208Y57226D01*
X67183Y57124D01*
X67208Y57048D01*
X67310Y57023D01*
X67386Y57048D01*
X67437Y57150D01*
X67310Y57150D01*
X67437Y59690D02*
X67437Y59690D01*
X67386Y59766D01*
X67284Y59817D01*
X67208Y59766D01*
X67183Y59664D01*
X67208Y59588D01*
X67310Y59563D01*
X67386Y59588D01*
X67437Y59690D01*
X67310Y59690D01*
X67437Y62230D02*
X67437Y62230D01*
X67386Y62306D01*
X67284Y62357D01*
X67208Y62306D01*
X67183Y62204D01*
X67208Y62128D01*
X67310Y62103D01*
X67386Y62128D01*
X67437Y62230D01*
X67310Y62230D01*
X67437Y67310D02*
X67437Y67310D01*
X67386Y67386D01*
X67284Y67437D01*
X67208Y67386D01*
X67183Y67284D01*
X67208Y67208D01*
X67310Y67183D01*
X67386Y67208D01*
X67437Y67310D01*
X67310Y67310D01*
X67437Y69850D02*
X67437Y69850D01*
X67386Y69926D01*
X67284Y69977D01*
X67208Y69926D01*
X67183Y69824D01*
X67208Y69748D01*
X67310Y69723D01*
X67386Y69748D01*
X67437Y69850D01*
X67310Y69850D01*
X85217Y53467D02*
X84963Y53467D01*
X84963Y53213D01*
X85217Y53213D01*
X85217Y53467D01*
X85090Y53340D01*
X85217Y55880D02*
X85217Y55880D01*
X85166Y55956D01*
X85064Y56007D01*
X84988Y55956D01*
X84963Y55854D01*
X84988Y55778D01*
X85090Y55753D01*
X85166Y55778D01*
X85217Y55880D01*
X85090Y55880D01*
X85217Y58420D02*
X85217Y58420D01*
X85166Y58496D01*
X85064Y58547D01*
X84988Y58496D01*
X84963Y58394D01*
X84988Y58318D01*
X85090Y58293D01*
X85166Y58318D01*
X85217Y58420D01*
X85090Y58420D01*
X85217Y60960D02*
X85217Y60960D01*
X85166Y61036D01*
X85064Y61087D01*
X84988Y61036D01*
X84963Y60934D01*
X84988Y60858D01*
X85090Y60833D01*
X85166Y60858D01*
X85217Y60960D01*
X85090Y60960D01*
X85217Y63500D02*
X85217Y63500D01*
X85166Y63576D01*
X85064Y63627D01*
X84988Y63576D01*
X84963Y63474D01*
X84988Y63398D01*
X85090Y63373D01*
X85166Y63398D01*
X85217Y63500D01*
X85090Y63500D01*
X85217Y66040D02*
X85217Y66040D01*
X85166Y66116D01*
X85064Y66167D01*
X84988Y66116D01*
X84963Y66014D01*
X84988Y65938D01*
X85090Y65913D01*
X85166Y65938D01*
X85217Y66040D01*
X85090Y66040D01*
X72517Y66167D02*
X72263Y66167D01*
X72263Y65913D01*
X72517Y65913D01*
X72517Y66167D01*
X72390Y66040D01*
X78867Y66040D02*
X78867Y66040D01*
X78816Y66116D01*
X78714Y66167D01*
X78638Y66116D01*
X78613Y66014D01*
X78638Y65938D01*
X78740Y65913D01*
X78816Y65938D01*
X78867Y66040D01*
X78740Y66040D01*
X110617Y73660D02*
X110617Y73660D01*
X110566Y73736D01*
X110464Y73787D01*
X110388Y73736D01*
X110363Y73634D01*
X110388Y73558D01*
X110490Y73533D01*
X110566Y73558D01*
X110617Y73660D01*
X110490Y73660D01*
X108077Y73660D02*
X108077Y73660D01*
X108026Y73736D01*
X107924Y73787D01*
X107848Y73736D01*
X107823Y73634D01*
X107848Y73558D01*
X107950Y73533D01*
X108026Y73558D01*
X108077Y73660D01*
X107950Y73660D01*
X105537Y73660D02*
X105537Y73660D01*
X105486Y73736D01*
X105384Y73787D01*
X105308Y73736D01*
X105283Y73634D01*
X105308Y73558D01*
X105410Y73533D01*
X105486Y73558D01*
X105537Y73660D01*
X105410Y73660D01*
X102997Y73660D02*
X102997Y73660D01*
X102946Y73736D01*
X102844Y73787D01*
X102768Y73736D01*
X102743Y73634D01*
X102768Y73558D01*
X102870Y73533D01*
X102946Y73558D01*
X102997Y73660D01*
X102870Y73660D01*
X100457Y73660D02*
X100457Y73660D01*
X100406Y73736D01*
X100304Y73787D01*
X100228Y73736D01*
X100203Y73634D01*
X100228Y73558D01*
X100330Y73533D01*
X100406Y73558D01*
X100457Y73660D01*
X100330Y73660D01*
X97917Y73660D02*
X97917Y73660D01*
X97866Y73736D01*
X97764Y73787D01*
X97688Y73736D01*
X97663Y73634D01*
X97688Y73558D01*
X97790Y73533D01*
X97866Y73558D01*
X97917Y73660D01*
X97790Y73660D01*
X95377Y73660D02*
X95377Y73660D01*
X95326Y73736D01*
X95224Y73787D01*
X95148Y73736D01*
X95123Y73634D01*
X95148Y73558D01*
X95250Y73533D01*
X95326Y73558D01*
X95377Y73660D01*
X95250Y73660D01*
X92837Y73660D02*
X92837Y73660D01*
X92786Y73736D01*
X92684Y73787D01*
X92608Y73736D01*
X92583Y73634D01*
X92608Y73558D01*
X92710Y73533D01*
X92786Y73558D01*
X92837Y73660D01*
X92710Y73660D01*
X90297Y73660D02*
X90297Y73660D01*
X90246Y73736D01*
X90144Y73787D01*
X90068Y73736D01*
X90043Y73634D01*
X90068Y73558D01*
X90170Y73533D01*
X90246Y73558D01*
X90297Y73660D01*
X90170Y73660D01*
X87757Y73660D02*
X87757Y73660D01*
X87706Y73736D01*
X87604Y73787D01*
X87528Y73736D01*
X87503Y73634D01*
X87528Y73558D01*
X87630Y73533D01*
X87706Y73558D01*
X87757Y73660D01*
X87630Y73660D01*
X87757Y76200D02*
X87757Y76200D01*
X87706Y76276D01*
X87604Y76327D01*
X87528Y76276D01*
X87503Y76174D01*
X87528Y76098D01*
X87630Y76073D01*
X87706Y76098D01*
X87757Y76200D01*
X87630Y76200D01*
X90297Y76200D02*
X90297Y76200D01*
X90246Y76276D01*
X90144Y76327D01*
X90068Y76276D01*
X90043Y76174D01*
X90068Y76098D01*
X90170Y76073D01*
X90246Y76098D01*
X90297Y76200D01*
X90170Y76200D01*
X92837Y76200D02*
X92837Y76200D01*
X92786Y76276D01*
X92684Y76327D01*
X92608Y76276D01*
X92583Y76174D01*
X92608Y76098D01*
X92710Y76073D01*
X92786Y76098D01*
X92837Y76200D01*
X92710Y76200D01*
X95377Y76200D02*
X95377Y76200D01*
X95326Y76276D01*
X95224Y76327D01*
X95148Y76276D01*
X95123Y76174D01*
X95148Y76098D01*
X95250Y76073D01*
X95326Y76098D01*
X95377Y76200D01*
X95250Y76200D01*
X97917Y76200D02*
X97917Y76200D01*
X97866Y76276D01*
X97764Y76327D01*
X97688Y76276D01*
X97663Y76174D01*
X97688Y76098D01*
X97790Y76073D01*
X97866Y76098D01*
X97917Y76200D01*
X97790Y76200D01*
X100457Y76200D02*
X100457Y76200D01*
X100406Y76276D01*
X100304Y76327D01*
X100228Y76276D01*
X100203Y76174D01*
X100228Y76098D01*
X100330Y76073D01*
X100406Y76098D01*
X100457Y76200D01*
X100330Y76200D01*
X102997Y76200D02*
X102997Y76200D01*
X102946Y76276D01*
X102844Y76327D01*
X102768Y76276D01*
X102743Y76174D01*
X102768Y76098D01*
X102870Y76073D01*
X102946Y76098D01*
X102997Y76200D01*
X102870Y76200D01*
X105537Y76200D02*
X105537Y76200D01*
X105486Y76276D01*
X105384Y76327D01*
X105308Y76276D01*
X105283Y76174D01*
X105308Y76098D01*
X105410Y76073D01*
X105486Y76098D01*
X105537Y76200D01*
X105410Y76200D01*
X108077Y76200D02*
X108077Y76200D01*
X108026Y76276D01*
X107924Y76327D01*
X107848Y76276D01*
X107823Y76174D01*
X107848Y76098D01*
X107950Y76073D01*
X108026Y76098D01*
X108077Y76200D01*
X107950Y76200D01*
X110617Y76327D02*
X110363Y76327D01*
X110363Y76073D01*
X110617Y76073D01*
X110617Y76327D01*
X110490Y76200D01*
X73787Y42037D02*
X73533Y42037D01*
X73533Y41783D01*
X73787Y41783D01*
X73787Y42037D01*
X73660Y41910D01*
X81407Y41910D02*
X81407Y41910D01*
X81356Y41986D01*
X81254Y42037D01*
X81178Y41986D01*
X81153Y41884D01*
X81178Y41808D01*
X81280Y41783D01*
X81356Y41808D01*
X81407Y41910D01*
X81280Y41910D01*
X61087Y76327D02*
X60833Y76327D01*
X60833Y76073D01*
X61087Y76073D01*
X61087Y76327D01*
X60960Y76200D01*
X61087Y68580D02*
X61087Y68580D01*
X61036Y68656D01*
X60934Y68707D01*
X60858Y68656D01*
X60833Y68554D01*
X60858Y68478D01*
X60960Y68453D01*
X61036Y68478D01*
X61087Y68580D01*
X60960Y68580D01*
X45847Y47117D02*
X45593Y47117D01*
X45593Y46863D01*
X45847Y46863D01*
X45847Y47117D01*
X45720Y46990D01*
X45847Y44450D02*
X45847Y44450D01*
X45796Y44526D01*
X45694Y44577D01*
X45618Y44526D01*
X45593Y44424D01*
X45618Y44348D01*
X45720Y44323D01*
X45796Y44348D01*
X45847Y44450D01*
X45720Y44450D01*
X68681Y123215D02*
X68681Y123215D01*
X68630Y123291D01*
X68529Y123342D01*
X68453Y123291D01*
X68427Y123190D01*
X68453Y123113D01*
X68554Y123088D01*
X68630Y123113D01*
X68681Y123215D01*
X68554Y123215D01*
X68681Y115722D02*
X68427Y115722D01*
X68427Y115468D01*
X68681Y115468D01*
X68681Y115722D01*
X68554Y115595D01*
X59791Y123215D02*
X59791Y123215D01*
X59740Y123291D01*
X59639Y123342D01*
X59563Y123291D01*
X59537Y123190D01*
X59563Y123113D01*
X59664Y123088D01*
X59740Y123113D01*
X59791Y123215D01*
X59664Y123215D01*
X62331Y123342D02*
X62077Y123342D01*
X62077Y123088D01*
X62331Y123088D01*
X62331Y123342D01*
X62204Y123215D01*
X54711Y115722D02*
X54457Y115722D01*
X54457Y115468D01*
X54711Y115468D01*
X54711Y115722D01*
X54584Y115595D01*
X54711Y123215D02*
X54711Y123215D01*
X54660Y123291D01*
X54559Y123342D01*
X54483Y123291D01*
X54457Y123190D01*
X54483Y123113D01*
X54584Y123088D01*
X54660Y123113D01*
X54711Y123215D01*
X54584Y123215D01*
X50901Y123215D02*
X50901Y123215D01*
X50850Y123291D01*
X50749Y123342D01*
X50673Y123291D01*
X50647Y123190D01*
X50673Y123113D01*
X50774Y123088D01*
X50850Y123113D01*
X50901Y123215D01*
X50774Y123215D01*
X48361Y123342D02*
X48107Y123342D01*
X48107Y123088D01*
X48361Y123088D01*
X48361Y123342D01*
X48234Y123215D01*
X43281Y115722D02*
X43027Y115722D01*
X43027Y115468D01*
X43281Y115468D01*
X43281Y115722D01*
X43154Y115595D01*
X43281Y123215D02*
X43281Y123215D01*
X43230Y123291D01*
X43129Y123342D01*
X43053Y123291D01*
X43027Y123190D01*
X43053Y123113D01*
X43154Y123088D01*
X43230Y123113D01*
X43281Y123215D01*
X43154Y123215D01*
X39471Y123215D02*
X39471Y123215D01*
X39420Y123291D01*
X39319Y123342D01*
X39243Y123291D01*
X39217Y123190D01*
X39243Y123113D01*
X39344Y123088D01*
X39420Y123113D01*
X39471Y123215D01*
X39344Y123215D01*
X36931Y123342D02*
X36677Y123342D01*
X36677Y123088D01*
X36931Y123088D01*
X36931Y123342D01*
X36804Y123215D01*
X90932Y92456D02*
X90932Y92456D01*
X90805Y92710D01*
X90525Y92837D01*
X90271Y92710D01*
X90170Y92430D01*
X90271Y92176D01*
X90551Y92075D01*
X90805Y92176D01*
X90932Y92456D01*
X90551Y92456D01*
X93472Y92456D02*
X93472Y92456D01*
X93345Y92710D01*
X93065Y92837D01*
X92811Y92710D01*
X92710Y92430D01*
X92811Y92176D01*
X93091Y92075D01*
X93345Y92176D01*
X93472Y92456D01*
X93091Y92456D01*
X98552Y92456D02*
X98552Y92456D01*
X98425Y92710D01*
X98145Y92837D01*
X97891Y92710D01*
X97790Y92430D01*
X97891Y92176D01*
X98171Y92075D01*
X98425Y92176D01*
X98552Y92456D01*
X98171Y92456D01*
X101092Y92456D02*
X101092Y92456D01*
X100965Y92710D01*
X100685Y92837D01*
X100431Y92710D01*
X100330Y92430D01*
X100431Y92176D01*
X100711Y92075D01*
X100965Y92176D01*
X101092Y92456D01*
X100711Y92456D01*
X90932Y82296D02*
X90932Y82296D01*
X90805Y82550D01*
X90525Y82677D01*
X90271Y82550D01*
X90170Y82270D01*
X90271Y82016D01*
X90551Y81915D01*
X90805Y82016D01*
X90932Y82296D01*
X90551Y82296D01*
X93472Y82296D02*
X93472Y82296D01*
X93345Y82550D01*
X93065Y82677D01*
X92811Y82550D01*
X92710Y82270D01*
X92811Y82016D01*
X93091Y81915D01*
X93345Y82016D01*
X93472Y82296D01*
X93091Y82296D01*
X98552Y82296D02*
X98552Y82296D01*
X98425Y82550D01*
X98145Y82677D01*
X97891Y82550D01*
X97790Y82270D01*
X97891Y82016D01*
X98171Y81915D01*
X98425Y82016D01*
X98552Y82296D01*
X98171Y82296D01*
X101092Y82296D02*
X101092Y82296D01*
X100965Y82550D01*
X100685Y82677D01*
X100431Y82550D01*
X100330Y82270D01*
X100431Y82016D01*
X100711Y81915D01*
X100965Y82016D01*
X101092Y82296D01*
X100711Y82296D01*
X36449Y107696D02*
X36449Y107696D01*
X36398Y108077D01*
X36271Y108432D01*
X36068Y108762D01*
X35814Y109042D01*
X35483Y109245D01*
X35128Y109397D01*
X34747Y109448D01*
X34366Y109448D01*
X34010Y109347D01*
X33655Y109143D01*
X33375Y108915D01*
X33147Y108610D01*
X32969Y108254D01*
X32893Y107873D01*
X32893Y107492D01*
X32969Y107111D01*
X33147Y106756D01*
X33375Y106451D01*
X33655Y106222D01*
X34010Y106019D01*
X34366Y105918D01*
X34747Y105918D01*
X35128Y105968D01*
X35483Y106121D01*
X35814Y106324D01*
X36068Y106603D01*
X36271Y106934D01*
X36398Y107289D01*
X36423Y107696D01*
X33197Y107696D01*
X36144Y107696D01*
X34671Y109169D02*
X34671Y106222D01*
X144221Y58394D02*
X143967Y58394D01*
X143967Y58140D01*
X144221Y58140D01*
X144221Y58394D01*
X144094Y58267D01*
X136601Y58267D02*
X136601Y58267D01*
X136550Y58343D01*
X136448Y58394D01*
X136372Y58343D01*
X136347Y58242D01*
X136372Y58166D01*
X136474Y58140D01*
X136550Y58166D01*
X136601Y58267D01*
X136474Y58267D01*
X72593Y62382D02*
X72339Y62382D01*
X72339Y62128D01*
X72593Y62128D01*
X72593Y62382D01*
X72466Y62255D01*
X78943Y62255D02*
X78943Y62255D01*
X78892Y62331D01*
X78790Y62382D01*
X78714Y62331D01*
X78689Y62230D01*
X78714Y62153D01*
X78816Y62128D01*
X78892Y62153D01*
X78943Y62255D01*
X78816Y62255D01*
X78943Y58445D02*
X78943Y58445D01*
X78892Y58521D01*
X78790Y58572D01*
X78714Y58521D01*
X78689Y58420D01*
X78714Y58343D01*
X78816Y58318D01*
X78892Y58343D01*
X78943Y58445D01*
X78816Y58445D01*
X72593Y58572D02*
X72339Y58572D01*
X72339Y58318D01*
X72593Y58318D01*
X72593Y58572D01*
X72466Y58445D01*
X78943Y54635D02*
X78943Y54635D01*
X78892Y54711D01*
X78790Y54762D01*
X78714Y54711D01*
X78689Y54610D01*
X78714Y54533D01*
X78816Y54508D01*
X78892Y54533D01*
X78943Y54635D01*
X78816Y54635D01*
X72593Y54762D02*
X72339Y54762D01*
X72339Y54508D01*
X72593Y54508D01*
X72593Y54762D01*
X72466Y54635D01*
X52527Y72796D02*
X51765Y72796D01*
X51765Y72034D01*
X52527Y72034D01*
X52527Y72796D01*
X52146Y72415D01*
X49987Y72415D02*
X49987Y72415D01*
X49860Y72669D01*
X49580Y72796D01*
X49326Y72669D01*
X49225Y72390D01*
X49326Y72136D01*
X49606Y72034D01*
X49860Y72136D01*
X49961Y72415D01*
X49606Y72415D01*
X47447Y72415D02*
X47447Y72415D01*
X47320Y72669D01*
X47040Y72796D01*
X46786Y72669D01*
X46685Y72390D01*
X46786Y72136D01*
X47066Y72034D01*
X47320Y72136D01*
X47421Y72415D01*
X47066Y72415D01*
X47193Y62382D02*
X46939Y62382D01*
X46939Y62128D01*
X47193Y62128D01*
X47193Y62382D01*
X47066Y62255D01*
X49733Y62255D02*
X49733Y62255D01*
X49682Y62331D01*
X49580Y62382D01*
X49504Y62331D01*
X49479Y62230D01*
X49504Y62153D01*
X49606Y62128D01*
X49682Y62153D01*
X49733Y62255D01*
X49606Y62255D01*
X47193Y57175D02*
X47193Y57175D01*
X47142Y57251D01*
X47040Y57302D01*
X46964Y57251D01*
X46939Y57150D01*
X46964Y57073D01*
X47066Y57048D01*
X47142Y57073D01*
X47193Y57175D01*
X47066Y57175D01*
X54813Y57302D02*
X54559Y57302D01*
X54559Y57048D01*
X54813Y57048D01*
X54813Y57302D01*
X54686Y57175D01*
X47193Y53492D02*
X46939Y53492D01*
X46939Y53238D01*
X47193Y53238D01*
X47193Y53492D01*
X47066Y53365D01*
X54813Y53365D02*
X54813Y53365D01*
X54762Y53441D01*
X54660Y53492D01*
X54584Y53441D01*
X54559Y53340D01*
X54584Y53263D01*
X54686Y53238D01*
X54762Y53263D01*
X54813Y53365D01*
X54686Y53365D01*
X58623Y64922D02*
X58369Y64922D01*
X58369Y64668D01*
X58623Y64668D01*
X58623Y64922D01*
X58496Y64795D01*
X58623Y59715D02*
X58623Y59715D01*
X58572Y59791D01*
X58470Y59842D01*
X58394Y59791D01*
X58369Y59690D01*
X58394Y59613D01*
X58496Y59588D01*
X58572Y59613D01*
X58623Y59715D01*
X58496Y59715D01*
X81432Y73685D02*
X81432Y73685D01*
X81305Y73939D01*
X81026Y74066D01*
X80772Y73939D01*
X80670Y73660D01*
X80772Y73406D01*
X81051Y73304D01*
X81305Y73406D01*
X81432Y73685D01*
X81051Y73685D01*
X71272Y76225D02*
X71272Y76225D01*
X71145Y76479D01*
X70866Y76606D01*
X70612Y76479D01*
X70510Y76200D01*
X70612Y75946D01*
X70891Y75844D01*
X71145Y75946D01*
X71272Y76225D01*
X70891Y76225D01*
X71272Y71145D02*
X71272Y71145D01*
X71145Y71399D01*
X70866Y71526D01*
X70612Y71399D01*
X70510Y71120D01*
X70612Y70866D01*
X70891Y70764D01*
X71145Y70866D01*
X71272Y71145D01*
X70891Y71145D01*
X115697Y50749D02*
X115697Y50749D01*
X115646Y50825D01*
X115544Y50876D01*
X115468Y50825D01*
X115443Y50723D01*
X115468Y50647D01*
X115570Y50622D01*
X115646Y50647D01*
X115697Y50749D01*
X115570Y50749D01*
X115697Y45516D02*
X115697Y45516D01*
X115646Y45593D01*
X115544Y45643D01*
X115468Y45593D01*
X115443Y45491D01*
X115468Y45415D01*
X115570Y45389D01*
X115646Y45415D01*
X115697Y45516D01*
X115570Y45516D01*
X116967Y58420D02*
X116967Y58420D01*
X116916Y58496D01*
X116814Y58547D01*
X116738Y58496D01*
X116713Y58394D01*
X116738Y58318D01*
X116840Y58293D01*
X116916Y58318D01*
X116967Y58420D01*
X116840Y58420D01*
X116967Y56007D02*
X116713Y56007D01*
X116713Y55753D01*
X116967Y55753D01*
X116967Y56007D01*
X116840Y55880D01*
X125857Y50800D02*
X125857Y50800D01*
X125806Y50876D01*
X125704Y50927D01*
X125628Y50876D01*
X125603Y50774D01*
X125628Y50698D01*
X125730Y50673D01*
X125806Y50698D01*
X125857Y50800D01*
X125730Y50800D01*
X120777Y50927D02*
X120523Y50927D01*
X120523Y50673D01*
X120777Y50673D01*
X120777Y50927D01*
X120650Y50800D01*
X102870Y47015D02*
X102870Y47015D01*
X100330Y47015D02*
X100330Y47015D01*
X97790Y47015D02*
X97790Y47015D01*
X95250Y47015D02*
X95250Y47015D01*
X92710Y47015D02*
X92710Y47015D01*
X92710Y49555D02*
X92710Y49555D01*
X92710Y52095D02*
X92710Y52095D01*
X92710Y54635D02*
X92710Y54635D01*
X92710Y57175D02*
X92710Y57175D01*
X92710Y59715D02*
X92710Y59715D01*
X95250Y59715D02*
X95250Y59715D01*
X97790Y59715D02*
X97790Y59715D01*
X100330Y59715D02*
X100330Y59715D01*
X102870Y59715D02*
X102870Y59715D01*
X105410Y59715D02*
X105410Y59715D01*
X105410Y57175D02*
X105410Y57175D01*
X105410Y54635D02*
X105410Y54635D01*
X105410Y52095D02*
X105410Y52095D01*
X105410Y49555D02*
X105410Y49555D01*
X105410Y47015D02*
X105410Y47015D01*
X107950Y49555D02*
X107950Y49555D01*
X107950Y47015D02*
X107950Y47015D01*
X105410Y44475D02*
X105410Y44475D01*
X102870Y44475D02*
X102870Y44475D01*
X100330Y44475D02*
X100330Y44475D01*
X97790Y44475D02*
X97790Y44475D01*
X95250Y44475D02*
X95250Y44475D01*
X92710Y44475D02*
X92710Y44475D01*
X90170Y47015D02*
X90170Y47015D01*
X90170Y49555D02*
X90170Y49555D01*
X90170Y52095D02*
X90170Y52095D01*
X90170Y54635D02*
X90170Y54635D01*
X90170Y57175D02*
X90170Y57175D01*
X90170Y59715D02*
X90170Y59715D01*
X92710Y62255D02*
X92710Y62255D01*
X95250Y62255D02*
X95250Y62255D01*
X97790Y62255D02*
X97790Y62255D01*
X100330Y62255D02*
X100330Y62255D01*
X102870Y62255D02*
X102870Y62255D01*
X105410Y62255D02*
X105410Y62255D01*
X107950Y59715D02*
X107950Y59715D01*
X107950Y57175D02*
X107950Y57175D01*
X107950Y54635D02*
X107950Y54635D01*
X107950Y52095D02*
X107950Y52095D01*
X36449Y68376D02*
X36449Y68376D01*
X36398Y68757D01*
X36271Y69113D01*
X36068Y69443D01*
X35814Y69723D01*
X35483Y69926D01*
X35128Y70078D01*
X34747Y70129D01*
X34366Y70129D01*
X34010Y70027D01*
X33655Y69824D01*
X33375Y69596D01*
X33147Y69291D01*
X32969Y68935D01*
X32893Y68554D01*
X32893Y68173D01*
X32969Y67792D01*
X33147Y67437D01*
X33375Y67132D01*
X33655Y66903D01*
X34010Y66700D01*
X34366Y66598D01*
X34747Y66598D01*
X35128Y66649D01*
X35483Y66802D01*
X35814Y67005D01*
X36068Y67284D01*
X36271Y67614D01*
X36398Y67970D01*
X36423Y68376D01*
X33197Y68376D01*
X36144Y68376D01*
X34671Y69850D02*
X34671Y66903D01*
X157784Y66725D02*
X157784Y66725D01*
X157734Y67106D01*
X157607Y67462D01*
X157403Y67792D01*
X157149Y68072D01*
X156819Y68275D01*
X156464Y68427D01*
X156083Y68478D01*
X155702Y68478D01*
X155346Y68376D01*
X154990Y68173D01*
X154711Y67945D01*
X154482Y67640D01*
X154305Y67284D01*
X154228Y66903D01*
X154228Y66522D01*
X154305Y66141D01*
X154482Y65786D01*
X154711Y65481D01*
X154990Y65252D01*
X155346Y65049D01*
X155702Y64947D01*
X156083Y64947D01*
X156464Y64998D01*
X156819Y65150D01*
X157149Y65354D01*
X157403Y65633D01*
X157607Y65963D01*
X157734Y66319D01*
X157759Y66725D01*
X154533Y66725D01*
X157480Y66725D01*
X156006Y68199D02*
X156006Y65252D01*
X157784Y107696D02*
X157784Y107696D01*
X157734Y108077D01*
X157607Y108432D01*
X157403Y108762D01*
X157149Y109042D01*
X156819Y109245D01*
X156464Y109397D01*
X156083Y109448D01*
X155702Y109448D01*
X155346Y109347D01*
X154990Y109143D01*
X154711Y108915D01*
X154482Y108610D01*
X154305Y108254D01*
X154228Y107873D01*
X154228Y107492D01*
X154305Y107111D01*
X154482Y106756D01*
X154711Y106451D01*
X154990Y106222D01*
X155346Y106019D01*
X155702Y105918D01*
X156083Y105918D01*
X156464Y105968D01*
X156819Y106121D01*
X157149Y106324D01*
X157403Y106603D01*
X157607Y106934D01*
X157734Y107289D01*
X157759Y107696D01*
X154533Y107696D01*
X157480Y107696D01*
X156006Y109169D02*
X156006Y106222D01*
X78917Y44856D02*
X78917Y44856D01*
X78867Y44932D01*
X78765Y44983D01*
X78689Y44932D01*
X78663Y44831D01*
X78689Y44754D01*
X78790Y44729D01*
X78867Y44754D01*
X78917Y44856D01*
X78790Y44856D01*
X73837Y44983D02*
X73583Y44983D01*
X73583Y44729D01*
X73837Y44729D01*
X73837Y44983D01*
X73710Y44856D01*
X80772Y48082D02*
X80772Y48082D01*
X80721Y48158D01*
X80619Y48209D01*
X80543Y48158D01*
X80518Y48056D01*
X80543Y47980D01*
X80645Y47955D01*
X80721Y47980D01*
X80772Y48082D01*
X80645Y48082D01*
X73152Y48209D02*
X72898Y48209D01*
X72898Y47955D01*
X73152Y47955D01*
X73152Y48209D01*
X73025Y48082D01*
X116255Y102590D02*
X116255Y102590D01*
X116128Y102844D01*
X115849Y102971D01*
X115595Y102844D01*
X115493Y102565D01*
X115595Y102311D01*
X115874Y102209D01*
X116128Y102311D01*
X116255Y102590D01*
X115874Y102590D01*
X113715Y102590D02*
X113715Y102590D01*
X113588Y102844D01*
X113309Y102971D01*
X113055Y102844D01*
X112953Y102565D01*
X113055Y102311D01*
X113334Y102209D01*
X113588Y102311D01*
X113715Y102590D01*
X113334Y102590D01*
X108635Y102590D02*
X108635Y102590D01*
X108508Y102844D01*
X108229Y102971D01*
X107975Y102844D01*
X107873Y102565D01*
X107975Y102311D01*
X108254Y102209D01*
X108508Y102311D01*
X108635Y102590D01*
X108254Y102590D01*
X106095Y102590D02*
X106095Y102590D01*
X105968Y102844D01*
X105689Y102971D01*
X105435Y102844D01*
X105333Y102565D01*
X105435Y102311D01*
X105714Y102209D01*
X105968Y102311D01*
X106095Y102590D01*
X105714Y102590D01*
X116255Y112750D02*
X116255Y112750D01*
X116128Y113004D01*
X115849Y113131D01*
X115595Y113004D01*
X115493Y112725D01*
X115595Y112471D01*
X115874Y112369D01*
X116128Y112471D01*
X116255Y112750D01*
X115874Y112750D01*
X113715Y112750D02*
X113715Y112750D01*
X113588Y113004D01*
X113309Y113131D01*
X113055Y113004D01*
X112953Y112725D01*
X113055Y112471D01*
X113334Y112369D01*
X113588Y112471D01*
X113715Y112750D01*
X113334Y112750D01*
X108635Y112750D02*
X108635Y112750D01*
X108508Y113004D01*
X108229Y113131D01*
X107975Y113004D01*
X107873Y112725D01*
X107975Y112471D01*
X108254Y112369D01*
X108508Y112471D01*
X108635Y112750D01*
X108254Y112750D01*
X106095Y112750D02*
X106095Y112750D01*
X105968Y113004D01*
X105689Y113131D01*
X105435Y113004D01*
X105333Y112725D01*
X105435Y112471D01*
X105714Y112369D01*
X105968Y112471D01*
X106095Y112750D01*
X105714Y112750D01*
X121132Y112750D02*
X121132Y112750D01*
X121005Y113004D01*
X120726Y113131D01*
X120472Y113004D01*
X120370Y112725D01*
X120472Y112471D01*
X120751Y112369D01*
X121005Y112471D01*
X121132Y112750D01*
X120751Y112750D01*
X123672Y112750D02*
X123672Y112750D01*
X123545Y113004D01*
X123266Y113131D01*
X123012Y113004D01*
X122910Y112725D01*
X123012Y112471D01*
X123291Y112369D01*
X123545Y112471D01*
X123672Y112750D01*
X123291Y112750D01*
X128752Y112750D02*
X128752Y112750D01*
X128625Y113004D01*
X128346Y113131D01*
X128092Y113004D01*
X127990Y112725D01*
X128092Y112471D01*
X128371Y112369D01*
X128625Y112471D01*
X128752Y112750D01*
X128371Y112750D01*
X131292Y112750D02*
X131292Y112750D01*
X131165Y113004D01*
X130886Y113131D01*
X130632Y113004D01*
X130530Y112725D01*
X130632Y112471D01*
X130911Y112369D01*
X131165Y112471D01*
X131292Y112750D01*
X130911Y112750D01*
X121132Y102590D02*
X121132Y102590D01*
X121005Y102844D01*
X120726Y102971D01*
X120472Y102844D01*
X120370Y102565D01*
X120472Y102311D01*
X120751Y102209D01*
X121005Y102311D01*
X121132Y102590D01*
X120751Y102590D01*
X123672Y102590D02*
X123672Y102590D01*
X123545Y102844D01*
X123266Y102971D01*
X123012Y102844D01*
X122910Y102565D01*
X123012Y102311D01*
X123291Y102209D01*
X123545Y102311D01*
X123672Y102590D01*
X123291Y102590D01*
X128752Y102590D02*
X128752Y102590D01*
X128625Y102844D01*
X128346Y102971D01*
X128092Y102844D01*
X127990Y102565D01*
X128092Y102311D01*
X128371Y102209D01*
X128625Y102311D01*
X128752Y102590D01*
X128371Y102590D01*
X131292Y102590D02*
X131292Y102590D01*
X131165Y102844D01*
X130886Y102971D01*
X130632Y102844D01*
X130530Y102565D01*
X130632Y102311D01*
X130911Y102209D01*
X131165Y102311D01*
X131292Y102590D01*
X130911Y102590D01*
X85979Y82270D02*
X85979Y82270D01*
X85852Y82524D01*
X85572Y82651D01*
X85318Y82524D01*
X85217Y82245D01*
X85318Y81991D01*
X85598Y81889D01*
X85852Y81991D01*
X85979Y82270D01*
X85598Y82270D01*
X83439Y82270D02*
X83439Y82270D01*
X83312Y82524D01*
X83032Y82651D01*
X82778Y82524D01*
X82677Y82245D01*
X82778Y81991D01*
X83058Y81889D01*
X83312Y81991D01*
X83439Y82270D01*
X83058Y82270D01*
X78359Y82270D02*
X78359Y82270D01*
X78232Y82524D01*
X77952Y82651D01*
X77698Y82524D01*
X77597Y82245D01*
X77698Y81991D01*
X77978Y81889D01*
X78232Y81991D01*
X78359Y82270D01*
X77978Y82270D01*
X75819Y82270D02*
X75819Y82270D01*
X75692Y82524D01*
X75412Y82651D01*
X75158Y82524D01*
X75057Y82245D01*
X75158Y81991D01*
X75438Y81889D01*
X75692Y81991D01*
X75819Y82270D01*
X75438Y82270D01*
X85979Y92430D02*
X85979Y92430D01*
X85852Y92684D01*
X85572Y92811D01*
X85318Y92684D01*
X85217Y92405D01*
X85318Y92151D01*
X85598Y92049D01*
X85852Y92151D01*
X85979Y92430D01*
X85598Y92430D01*
X83439Y92430D02*
X83439Y92430D01*
X83312Y92684D01*
X83032Y92811D01*
X82778Y92684D01*
X82677Y92405D01*
X82778Y92151D01*
X83058Y92049D01*
X83312Y92151D01*
X83439Y92430D01*
X83058Y92430D01*
X78359Y92430D02*
X78359Y92430D01*
X78232Y92684D01*
X77952Y92811D01*
X77698Y92684D01*
X77597Y92405D01*
X77698Y92151D01*
X77978Y92049D01*
X78232Y92151D01*
X78359Y92430D01*
X77978Y92430D01*
X75819Y92430D02*
X75819Y92430D01*
X75692Y92684D01*
X75412Y92811D01*
X75158Y92684D01*
X75057Y92405D01*
X75158Y92151D01*
X75438Y92049D01*
X75692Y92151D01*
X75819Y92430D01*
X75438Y92430D01*
X106095Y92430D02*
X106095Y92430D01*
X105968Y92684D01*
X105689Y92811D01*
X105435Y92684D01*
X105333Y92405D01*
X105435Y92151D01*
X105714Y92049D01*
X105968Y92151D01*
X106095Y92430D01*
X105714Y92430D01*
X108635Y92430D02*
X108635Y92430D01*
X108508Y92684D01*
X108229Y92811D01*
X107975Y92684D01*
X107873Y92405D01*
X107975Y92151D01*
X108254Y92049D01*
X108508Y92151D01*
X108635Y92430D01*
X108254Y92430D01*
X113715Y92430D02*
X113715Y92430D01*
X113588Y92684D01*
X113309Y92811D01*
X113055Y92684D01*
X112953Y92405D01*
X113055Y92151D01*
X113334Y92049D01*
X113588Y92151D01*
X113715Y92430D01*
X113334Y92430D01*
X116255Y92430D02*
X116255Y92430D01*
X116128Y92684D01*
X115849Y92811D01*
X115595Y92684D01*
X115493Y92405D01*
X115595Y92151D01*
X115874Y92049D01*
X116128Y92151D01*
X116255Y92430D01*
X115874Y92430D01*
X106095Y82270D02*
X106095Y82270D01*
X105968Y82524D01*
X105689Y82651D01*
X105435Y82524D01*
X105333Y82245D01*
X105435Y81991D01*
X105714Y81889D01*
X105968Y81991D01*
X106095Y82270D01*
X105714Y82270D01*
X108635Y82270D02*
X108635Y82270D01*
X108508Y82524D01*
X108229Y82651D01*
X107975Y82524D01*
X107873Y82245D01*
X107975Y81991D01*
X108254Y81889D01*
X108508Y81991D01*
X108635Y82270D01*
X108254Y82270D01*
X113715Y82270D02*
X113715Y82270D01*
X113588Y82524D01*
X113309Y82651D01*
X113055Y82524D01*
X112953Y82245D01*
X113055Y81991D01*
X113334Y81889D01*
X113588Y81991D01*
X113715Y82270D01*
X113334Y82270D01*
X116255Y82270D02*
X116255Y82270D01*
X116128Y82524D01*
X115849Y82651D01*
X115595Y82524D01*
X115493Y82245D01*
X115595Y81991D01*
X115874Y81889D01*
X116128Y81991D01*
X116255Y82270D01*
X115874Y82270D01*
X121132Y92430D02*
X121132Y92430D01*
X121005Y92684D01*
X120726Y92811D01*
X120472Y92684D01*
X120370Y92405D01*
X120472Y92151D01*
X120751Y92049D01*
X121005Y92151D01*
X121132Y92430D01*
X120751Y92430D01*
X123672Y92430D02*
X123672Y92430D01*
X123545Y92684D01*
X123266Y92811D01*
X123012Y92684D01*
X122910Y92405D01*
X123012Y92151D01*
X123291Y92049D01*
X123545Y92151D01*
X123672Y92430D01*
X123291Y92430D01*
X128752Y92430D02*
X128752Y92430D01*
X128625Y92684D01*
X128346Y92811D01*
X128092Y92684D01*
X127990Y92405D01*
X128092Y92151D01*
X128371Y92049D01*
X128625Y92151D01*
X128752Y92430D01*
X128371Y92430D01*
X131292Y92430D02*
X131292Y92430D01*
X131165Y92684D01*
X130886Y92811D01*
X130632Y92684D01*
X130530Y92405D01*
X130632Y92151D01*
X130911Y92049D01*
X131165Y92151D01*
X131292Y92430D01*
X130911Y92430D01*
X121132Y82270D02*
X121132Y82270D01*
X121005Y82524D01*
X120726Y82651D01*
X120472Y82524D01*
X120370Y82245D01*
X120472Y81991D01*
X120751Y81889D01*
X121005Y81991D01*
X121132Y82270D01*
X120751Y82270D01*
X123672Y82270D02*
X123672Y82270D01*
X123545Y82524D01*
X123266Y82651D01*
X123012Y82524D01*
X122910Y82245D01*
X123012Y81991D01*
X123291Y81889D01*
X123545Y81991D01*
X123672Y82270D01*
X123291Y82270D01*
X128752Y82270D02*
X128752Y82270D01*
X128625Y82524D01*
X128346Y82651D01*
X128092Y82524D01*
X127990Y82245D01*
X128092Y81991D01*
X128371Y81889D01*
X128625Y81991D01*
X128752Y82270D01*
X128371Y82270D01*
X131292Y82270D02*
X131292Y82270D01*
X131165Y82524D01*
X130886Y82651D01*
X130632Y82524D01*
X130530Y82245D01*
X130632Y81991D01*
X130911Y81889D01*
X131165Y81991D01*
X131292Y82270D01*
X130911Y82270D01*
X101015Y102590D02*
X101015Y102590D01*
X100888Y102844D01*
X100609Y102971D01*
X100355Y102844D01*
X100253Y102565D01*
X100355Y102311D01*
X100634Y102209D01*
X100888Y102311D01*
X101015Y102590D01*
X100634Y102590D01*
X98475Y102590D02*
X98475Y102590D01*
X98348Y102844D01*
X98069Y102971D01*
X97815Y102844D01*
X97713Y102565D01*
X97815Y102311D01*
X98094Y102209D01*
X98348Y102311D01*
X98475Y102590D01*
X98094Y102590D01*
X93395Y102590D02*
X93395Y102590D01*
X93268Y102844D01*
X92989Y102971D01*
X92735Y102844D01*
X92633Y102565D01*
X92735Y102311D01*
X93014Y102209D01*
X93268Y102311D01*
X93395Y102590D01*
X93014Y102590D01*
X90855Y102590D02*
X90855Y102590D01*
X90728Y102844D01*
X90449Y102971D01*
X90195Y102844D01*
X90093Y102565D01*
X90195Y102311D01*
X90474Y102209D01*
X90728Y102311D01*
X90855Y102590D01*
X90474Y102590D01*
X101015Y112750D02*
X101015Y112750D01*
X100888Y113004D01*
X100609Y113131D01*
X100355Y113004D01*
X100253Y112725D01*
X100355Y112471D01*
X100634Y112369D01*
X100888Y112471D01*
X101015Y112750D01*
X100634Y112750D01*
X98475Y112750D02*
X98475Y112750D01*
X98348Y113004D01*
X98069Y113131D01*
X97815Y113004D01*
X97713Y112725D01*
X97815Y112471D01*
X98094Y112369D01*
X98348Y112471D01*
X98475Y112750D01*
X98094Y112750D01*
X93395Y112750D02*
X93395Y112750D01*
X93268Y113004D01*
X92989Y113131D01*
X92735Y113004D01*
X92633Y112725D01*
X92735Y112471D01*
X93014Y112369D01*
X93268Y112471D01*
X93395Y112750D01*
X93014Y112750D01*
X90855Y112750D02*
X90855Y112750D01*
X90728Y113004D01*
X90449Y113131D01*
X90195Y113004D01*
X90093Y112725D01*
X90195Y112471D01*
X90474Y112369D01*
X90728Y112471D01*
X90855Y112750D01*
X90474Y112750D01*
X75819Y112750D02*
X75819Y112750D01*
X75692Y113004D01*
X75412Y113131D01*
X75158Y113004D01*
X75057Y112725D01*
X75158Y112471D01*
X75438Y112369D01*
X75692Y112471D01*
X75819Y112750D01*
X75438Y112750D01*
X78359Y112750D02*
X78359Y112750D01*
X78232Y113004D01*
X77952Y113131D01*
X77698Y113004D01*
X77597Y112725D01*
X77698Y112471D01*
X77978Y112369D01*
X78232Y112471D01*
X78359Y112750D01*
X77978Y112750D01*
X83439Y112750D02*
X83439Y112750D01*
X83312Y113004D01*
X83032Y113131D01*
X82778Y113004D01*
X82677Y112725D01*
X82778Y112471D01*
X83058Y112369D01*
X83312Y112471D01*
X83439Y112750D01*
X83058Y112750D01*
X85979Y112750D02*
X85979Y112750D01*
X85852Y113004D01*
X85572Y113131D01*
X85318Y113004D01*
X85217Y112725D01*
X85318Y112471D01*
X85598Y112369D01*
X85852Y112471D01*
X85979Y112750D01*
X85598Y112750D01*
X75819Y102590D02*
X75819Y102590D01*
X75692Y102844D01*
X75412Y102971D01*
X75158Y102844D01*
X75057Y102565D01*
X75158Y102311D01*
X75438Y102209D01*
X75692Y102311D01*
X75819Y102590D01*
X75438Y102590D01*
X78359Y102590D02*
X78359Y102590D01*
X78232Y102844D01*
X77952Y102971D01*
X77698Y102844D01*
X77597Y102565D01*
X77698Y102311D01*
X77978Y102209D01*
X78232Y102311D01*
X78359Y102590D01*
X77978Y102590D01*
X83439Y102590D02*
X83439Y102590D01*
X83312Y102844D01*
X83032Y102971D01*
X82778Y102844D01*
X82677Y102565D01*
X82778Y102311D01*
X83058Y102209D01*
X83312Y102311D01*
X83439Y102590D01*
X83058Y102590D01*
X85979Y102590D02*
X85979Y102590D01*
X85852Y102844D01*
X85572Y102971D01*
X85318Y102844D01*
X85217Y102565D01*
X85318Y102311D01*
X85598Y102209D01*
X85852Y102311D01*
X85979Y102590D01*
X85598Y102590D01*
X60782Y112750D02*
X60782Y112750D01*
X60655Y113004D01*
X60375Y113131D01*
X60121Y113004D01*
X60020Y112725D01*
X60121Y112471D01*
X60401Y112369D01*
X60655Y112471D01*
X60782Y112750D01*
X60401Y112750D01*
X63322Y112750D02*
X63322Y112750D01*
X63195Y113004D01*
X62915Y113131D01*
X62661Y113004D01*
X62560Y112725D01*
X62661Y112471D01*
X62941Y112369D01*
X63195Y112471D01*
X63322Y112750D01*
X62941Y112750D01*
X68402Y112750D02*
X68402Y112750D01*
X68275Y113004D01*
X67995Y113131D01*
X67741Y113004D01*
X67640Y112725D01*
X67741Y112471D01*
X68021Y112369D01*
X68275Y112471D01*
X68402Y112750D01*
X68021Y112750D01*
X70942Y112750D02*
X70942Y112750D01*
X70815Y113004D01*
X70535Y113131D01*
X70281Y113004D01*
X70180Y112725D01*
X70281Y112471D01*
X70561Y112369D01*
X70815Y112471D01*
X70942Y112750D01*
X70561Y112750D01*
X60782Y102590D02*
X60782Y102590D01*
X60655Y102844D01*
X60375Y102971D01*
X60121Y102844D01*
X60020Y102565D01*
X60121Y102311D01*
X60401Y102209D01*
X60655Y102311D01*
X60782Y102590D01*
X60401Y102590D01*
X63322Y102590D02*
X63322Y102590D01*
X63195Y102844D01*
X62915Y102971D01*
X62661Y102844D01*
X62560Y102565D01*
X62661Y102311D01*
X62941Y102209D01*
X63195Y102311D01*
X63322Y102590D01*
X62941Y102590D01*
X68402Y102590D02*
X68402Y102590D01*
X68275Y102844D01*
X67995Y102971D01*
X67741Y102844D01*
X67640Y102565D01*
X67741Y102311D01*
X68021Y102209D01*
X68275Y102311D01*
X68402Y102590D01*
X68021Y102590D01*
X70942Y102590D02*
X70942Y102590D01*
X70815Y102844D01*
X70535Y102971D01*
X70281Y102844D01*
X70180Y102565D01*
X70281Y102311D01*
X70561Y102209D01*
X70815Y102311D01*
X70942Y102590D01*
X70561Y102590D01*
X55702Y102590D02*
X55702Y102590D01*
X55575Y102844D01*
X55295Y102971D01*
X55041Y102844D01*
X54940Y102565D01*
X55041Y102311D01*
X55321Y102209D01*
X55575Y102311D01*
X55702Y102590D01*
X55321Y102590D01*
X53162Y102590D02*
X53162Y102590D01*
X53035Y102844D01*
X52755Y102971D01*
X52501Y102844D01*
X52400Y102565D01*
X52501Y102311D01*
X52781Y102209D01*
X53035Y102311D01*
X53162Y102590D01*
X52781Y102590D01*
X48082Y102590D02*
X48082Y102590D01*
X47955Y102844D01*
X47675Y102971D01*
X47421Y102844D01*
X47320Y102565D01*
X47421Y102311D01*
X47701Y102209D01*
X47955Y102311D01*
X48056Y102590D01*
X47701Y102590D01*
X45542Y102590D02*
X45542Y102590D01*
X45415Y102844D01*
X45135Y102971D01*
X44881Y102844D01*
X44780Y102565D01*
X44881Y102311D01*
X45161Y102209D01*
X45415Y102311D01*
X45516Y102590D01*
X45161Y102590D01*
X55702Y112750D02*
X55702Y112750D01*
X55575Y113004D01*
X55295Y113131D01*
X55041Y113004D01*
X54940Y112725D01*
X55041Y112471D01*
X55321Y112369D01*
X55575Y112471D01*
X55702Y112750D01*
X55321Y112750D01*
X53162Y112750D02*
X53162Y112750D01*
X53035Y113004D01*
X52755Y113131D01*
X52501Y113004D01*
X52400Y112725D01*
X52501Y112471D01*
X52781Y112369D01*
X53035Y112471D01*
X53162Y112750D01*
X52781Y112750D01*
X48082Y112750D02*
X48082Y112750D01*
X47955Y113004D01*
X47675Y113131D01*
X47421Y113004D01*
X47320Y112725D01*
X47421Y112471D01*
X47701Y112369D01*
X47955Y112471D01*
X48056Y112750D01*
X47701Y112750D01*
X45542Y112750D02*
X45542Y112750D01*
X45415Y113004D01*
X45135Y113131D01*
X44881Y113004D01*
X44780Y112725D01*
X44881Y112471D01*
X45161Y112369D01*
X45415Y112471D01*
X45516Y112750D01*
X45161Y112750D01*
X136169Y112750D02*
X136169Y112750D01*
X136042Y113004D01*
X135763Y113131D01*
X135509Y113004D01*
X135407Y112725D01*
X135509Y112471D01*
X135788Y112369D01*
X136042Y112471D01*
X136169Y112750D01*
X135788Y112750D01*
X138709Y112750D02*
X138709Y112750D01*
X138582Y113004D01*
X138303Y113131D01*
X138049Y113004D01*
X137947Y112725D01*
X138049Y112471D01*
X138328Y112369D01*
X138582Y112471D01*
X138709Y112750D01*
X138328Y112750D01*
X143789Y112750D02*
X143789Y112750D01*
X143662Y113004D01*
X143383Y113131D01*
X143129Y113004D01*
X143027Y112725D01*
X143129Y112471D01*
X143408Y112369D01*
X143662Y112471D01*
X143789Y112750D01*
X143408Y112750D01*
X146329Y112750D02*
X146329Y112750D01*
X146202Y113004D01*
X145923Y113131D01*
X145669Y113004D01*
X145567Y112725D01*
X145669Y112471D01*
X145948Y112369D01*
X146202Y112471D01*
X146329Y112750D01*
X145948Y112750D01*
X136169Y102590D02*
X136169Y102590D01*
X136042Y102844D01*
X135763Y102971D01*
X135509Y102844D01*
X135407Y102565D01*
X135509Y102311D01*
X135788Y102209D01*
X136042Y102311D01*
X136169Y102590D01*
X135788Y102590D01*
X138709Y102590D02*
X138709Y102590D01*
X138582Y102844D01*
X138303Y102971D01*
X138049Y102844D01*
X137947Y102565D01*
X138049Y102311D01*
X138328Y102209D01*
X138582Y102311D01*
X138709Y102590D01*
X138328Y102590D01*
X143789Y102590D02*
X143789Y102590D01*
X143662Y102844D01*
X143383Y102971D01*
X143129Y102844D01*
X143027Y102565D01*
X143129Y102311D01*
X143408Y102209D01*
X143662Y102311D01*
X143789Y102590D01*
X143408Y102590D01*
X146329Y102590D02*
X146329Y102590D01*
X146202Y102844D01*
X145923Y102971D01*
X145669Y102844D01*
X145567Y102565D01*
X145669Y102311D01*
X145948Y102209D01*
X146202Y102311D01*
X146329Y102590D01*
X145948Y102590D01*
X136169Y92430D02*
X136169Y92430D01*
X136042Y92684D01*
X135763Y92811D01*
X135509Y92684D01*
X135407Y92405D01*
X135509Y92151D01*
X135788Y92049D01*
X136042Y92151D01*
X136169Y92430D01*
X135788Y92430D01*
X138709Y92430D02*
X138709Y92430D01*
X138582Y92684D01*
X138303Y92811D01*
X138049Y92684D01*
X137947Y92405D01*
X138049Y92151D01*
X138328Y92049D01*
X138582Y92151D01*
X138709Y92430D01*
X138328Y92430D01*
X143789Y92430D02*
X143789Y92430D01*
X143662Y92684D01*
X143383Y92811D01*
X143129Y92684D01*
X143027Y92405D01*
X143129Y92151D01*
X143408Y92049D01*
X143662Y92151D01*
X143789Y92430D01*
X143408Y92430D01*
X146329Y92430D02*
X146329Y92430D01*
X146202Y92684D01*
X145923Y92811D01*
X145669Y92684D01*
X145567Y92405D01*
X145669Y92151D01*
X145948Y92049D01*
X146202Y92151D01*
X146329Y92430D01*
X145948Y92430D01*
X136169Y82270D02*
X136169Y82270D01*
X136042Y82524D01*
X135763Y82651D01*
X135509Y82524D01*
X135407Y82245D01*
X135509Y81991D01*
X135788Y81889D01*
X136042Y81991D01*
X136169Y82270D01*
X135788Y82270D01*
X138709Y82270D02*
X138709Y82270D01*
X138582Y82524D01*
X138303Y82651D01*
X138049Y82524D01*
X137947Y82245D01*
X138049Y81991D01*
X138328Y81889D01*
X138582Y81991D01*
X138709Y82270D01*
X138328Y82270D01*
X143789Y82270D02*
X143789Y82270D01*
X143662Y82524D01*
X143383Y82651D01*
X143129Y82524D01*
X143027Y82245D01*
X143129Y81991D01*
X143408Y81889D01*
X143662Y81991D01*
X143789Y82270D01*
X143408Y82270D01*
X146329Y82270D02*
X146329Y82270D01*
X146202Y82524D01*
X145923Y82651D01*
X145669Y82524D01*
X145567Y82245D01*
X145669Y81991D01*
X145948Y81889D01*
X146202Y81991D01*
X146329Y82270D01*
X145948Y82270D01*
X60782Y92430D02*
X60782Y92430D01*
X60655Y92684D01*
X60375Y92811D01*
X60121Y92684D01*
X60020Y92405D01*
X60121Y92151D01*
X60401Y92049D01*
X60655Y92151D01*
X60782Y92430D01*
X60401Y92430D01*
X63322Y92430D02*
X63322Y92430D01*
X63195Y92684D01*
X62915Y92811D01*
X62661Y92684D01*
X62560Y92405D01*
X62661Y92151D01*
X62941Y92049D01*
X63195Y92151D01*
X63322Y92430D01*
X62941Y92430D01*
X68402Y92430D02*
X68402Y92430D01*
X68275Y92684D01*
X67995Y92811D01*
X67741Y92684D01*
X67640Y92405D01*
X67741Y92151D01*
X68021Y92049D01*
X68275Y92151D01*
X68402Y92430D01*
X68021Y92430D01*
X70942Y92430D02*
X70942Y92430D01*
X70815Y92684D01*
X70535Y92811D01*
X70281Y92684D01*
X70180Y92405D01*
X70281Y92151D01*
X70561Y92049D01*
X70815Y92151D01*
X70942Y92430D01*
X70561Y92430D01*
X60782Y82270D02*
X60782Y82270D01*
X60655Y82524D01*
X60375Y82651D01*
X60121Y82524D01*
X60020Y82245D01*
X60121Y81991D01*
X60401Y81889D01*
X60655Y81991D01*
X60782Y82270D01*
X60401Y82270D01*
X63322Y82270D02*
X63322Y82270D01*
X63195Y82524D01*
X62915Y82651D01*
X62661Y82524D01*
X62560Y82245D01*
X62661Y81991D01*
X62941Y81889D01*
X63195Y81991D01*
X63322Y82270D01*
X62941Y82270D01*
X68402Y82270D02*
X68402Y82270D01*
X68275Y82524D01*
X67995Y82651D01*
X67741Y82524D01*
X67640Y82245D01*
X67741Y81991D01*
X68021Y81889D01*
X68275Y81991D01*
X68402Y82270D01*
X68021Y82270D01*
X70942Y82270D02*
X70942Y82270D01*
X70815Y82524D01*
X70535Y82651D01*
X70281Y82524D01*
X70180Y82245D01*
X70281Y81991D01*
X70561Y81889D01*
X70815Y81991D01*
X70942Y82270D01*
X70561Y82270D01*
X45542Y92430D02*
X45542Y92430D01*
X45415Y92684D01*
X45135Y92811D01*
X44881Y92684D01*
X44780Y92405D01*
X44881Y92151D01*
X45161Y92049D01*
X45415Y92151D01*
X45516Y92430D01*
X45161Y92430D01*
X48082Y92430D02*
X48082Y92430D01*
X47955Y92684D01*
X47675Y92811D01*
X47421Y92684D01*
X47320Y92405D01*
X47421Y92151D01*
X47701Y92049D01*
X47955Y92151D01*
X48056Y92430D01*
X47701Y92430D01*
X53162Y92430D02*
X53162Y92430D01*
X53035Y92684D01*
X52755Y92811D01*
X52501Y92684D01*
X52400Y92405D01*
X52501Y92151D01*
X52781Y92049D01*
X53035Y92151D01*
X53162Y92430D01*
X52781Y92430D01*
X55702Y92430D02*
X55702Y92430D01*
X55575Y92684D01*
X55295Y92811D01*
X55041Y92684D01*
X54940Y92405D01*
X55041Y92151D01*
X55321Y92049D01*
X55575Y92151D01*
X55702Y92430D01*
X55321Y92430D01*
X45542Y82270D02*
X45542Y82270D01*
X45415Y82524D01*
X45135Y82651D01*
X44881Y82524D01*
X44780Y82245D01*
X44881Y81991D01*
X45161Y81889D01*
X45415Y81991D01*
X45516Y82270D01*
X45161Y82270D01*
X48082Y82270D02*
X48082Y82270D01*
X47955Y82524D01*
X47675Y82651D01*
X47421Y82524D01*
X47320Y82245D01*
X47421Y81991D01*
X47701Y81889D01*
X47955Y81991D01*
X48056Y82270D01*
X47701Y82270D01*
X53162Y82270D02*
X53162Y82270D01*
X53035Y82524D01*
X52755Y82651D01*
X52501Y82524D01*
X52400Y82245D01*
X52501Y81991D01*
X52781Y81889D01*
X53035Y81991D01*
X53162Y82270D01*
X52781Y82270D01*
X55702Y82270D02*
X55702Y82270D01*
X55575Y82524D01*
X55295Y82651D01*
X55041Y82524D01*
X54940Y82245D01*
X55041Y81991D01*
X55321Y81889D01*
X55575Y81991D01*
X55702Y82270D01*
X55321Y82270D01*
X136271Y72212D02*
X136271Y72212D01*
X136144Y72466D01*
X135864Y72593D01*
X135610Y72466D01*
X135509Y72186D01*
X135610Y71932D01*
X135890Y71831D01*
X136144Y71932D01*
X136271Y72212D01*
X135890Y72212D01*
X138811Y72212D02*
X138811Y72212D01*
X138684Y72466D01*
X138404Y72593D01*
X138150Y72466D01*
X138049Y72186D01*
X138150Y71932D01*
X138430Y71831D01*
X138684Y71932D01*
X138811Y72212D01*
X138430Y72212D01*
X143891Y72212D02*
X143891Y72212D01*
X143764Y72466D01*
X143484Y72593D01*
X143230Y72466D01*
X143129Y72186D01*
X143230Y71932D01*
X143510Y71831D01*
X143764Y71932D01*
X143891Y72212D01*
X143510Y72212D01*
X146431Y72212D02*
X146431Y72212D01*
X146304Y72466D01*
X146024Y72593D01*
X145770Y72466D01*
X145669Y72186D01*
X145770Y71932D01*
X146050Y71831D01*
X146304Y71932D01*
X146431Y72212D01*
X146050Y72212D01*
X136271Y62052D02*
X136271Y62052D01*
X136144Y62306D01*
X135864Y62433D01*
X135610Y62306D01*
X135509Y62026D01*
X135610Y61772D01*
X135890Y61671D01*
X136144Y61772D01*
X136271Y62052D01*
X135890Y62052D01*
X138811Y62052D02*
X138811Y62052D01*
X138684Y62306D01*
X138404Y62433D01*
X138150Y62306D01*
X138049Y62026D01*
X138150Y61772D01*
X138430Y61671D01*
X138684Y61772D01*
X138811Y62052D01*
X138430Y62052D01*
X143891Y62052D02*
X143891Y62052D01*
X143764Y62306D01*
X143484Y62433D01*
X143230Y62306D01*
X143129Y62026D01*
X143230Y61772D01*
X143510Y61671D01*
X143764Y61772D01*
X143891Y62052D01*
X143510Y62052D01*
X146431Y62052D02*
X146431Y62052D01*
X146304Y62306D01*
X146024Y62433D01*
X145770Y62306D01*
X145669Y62026D01*
X145770Y61772D01*
X146050Y61671D01*
X146304Y61772D01*
X146431Y62052D01*
X146050Y62052D01*
X131394Y62052D02*
X131394Y62052D01*
X131267Y62306D01*
X130987Y62433D01*
X130733Y62306D01*
X130632Y62026D01*
X130733Y61772D01*
X131013Y61671D01*
X131267Y61772D01*
X131394Y62052D01*
X131013Y62052D01*
X128854Y62052D02*
X128854Y62052D01*
X128727Y62306D01*
X128447Y62433D01*
X128193Y62306D01*
X128092Y62026D01*
X128193Y61772D01*
X128473Y61671D01*
X128727Y61772D01*
X128854Y62052D01*
X128473Y62052D01*
X123774Y62052D02*
X123774Y62052D01*
X123647Y62306D01*
X123367Y62433D01*
X123113Y62306D01*
X123012Y62026D01*
X123113Y61772D01*
X123393Y61671D01*
X123647Y61772D01*
X123774Y62052D01*
X123393Y62052D01*
X121234Y62052D02*
X121234Y62052D01*
X121107Y62306D01*
X120827Y62433D01*
X120573Y62306D01*
X120472Y62026D01*
X120573Y61772D01*
X120853Y61671D01*
X121107Y61772D01*
X121234Y62052D01*
X120853Y62052D01*
X131394Y72212D02*
X131394Y72212D01*
X131267Y72466D01*
X130987Y72593D01*
X130733Y72466D01*
X130632Y72186D01*
X130733Y71932D01*
X131013Y71831D01*
X131267Y71932D01*
X131394Y72212D01*
X131013Y72212D01*
X128854Y72212D02*
X128854Y72212D01*
X128727Y72466D01*
X128447Y72593D01*
X128193Y72466D01*
X128092Y72186D01*
X128193Y71932D01*
X128473Y71831D01*
X128727Y71932D01*
X128854Y72212D01*
X128473Y72212D01*
X123774Y72212D02*
X123774Y72212D01*
X123647Y72466D01*
X123367Y72593D01*
X123113Y72466D01*
X123012Y72186D01*
X123113Y71932D01*
X123393Y71831D01*
X123647Y71932D01*
X123774Y72212D01*
X123393Y72212D01*
X121234Y72212D02*
X121234Y72212D01*
X121107Y72466D01*
X120827Y72593D01*
X120573Y72466D01*
X120472Y72186D01*
X120573Y71932D01*
X120853Y71831D01*
X121107Y71932D01*
X121234Y72212D01*
X120853Y72212D01*
X111937Y40284D02*
X111937Y40284D01*
X111887Y40360D01*
X111785Y40411D01*
X111709Y40360D01*
X111683Y40259D01*
X111709Y40182D01*
X111810Y40157D01*
X111887Y40182D01*
X111937Y40284D01*
X111810Y40284D01*
X114477Y40411D02*
X114223Y40411D01*
X114223Y40157D01*
X114477Y40157D01*
X114477Y40411D01*
X114350Y40284D01*
X72694Y95148D02*
X72694Y95148D01*
X127000Y64135D02*
X127000Y64135D01*
X100330Y66675D02*
X100330Y66675D01*
X43688Y57200D02*
X43688Y57200D01*
X49758Y84023D02*
X49758Y84023D01*
X133553Y79044D02*
X133553Y79044D01*
X62890Y79121D02*
X62890Y79121D01*
X57327Y80264D02*
X57327Y80264D01*
X83337Y80365D02*
X83337Y80365D01*
X61112Y62382D02*
X61112Y62382D01*
X96520Y43180D02*
X96520Y43180D01*
X104140Y45720D02*
X104140Y45720D01*
X58420Y46736D02*
X58420Y46736D01*
X48768Y50292D02*
X48768Y50292D01*
X48768Y59436D02*
X48768Y59436D01*
X123952Y51816D02*
X123952Y51816D01*
X123444Y53340D02*
X123444Y53340D01*
X111252Y58420D02*
X111252Y58420D01*
X54864Y71628D02*
X54864Y71628D01*
X93980Y58420D02*
X93980Y58420D01*
X86868Y58420D02*
X86868Y58420D01*
X101600Y60960D02*
X101600Y60960D01*
X91440Y55880D02*
X91440Y55880D01*
X99060Y63500D02*
X99060Y63500D01*
X83312Y48260D02*
X83312Y48260D01*
X80264Y56388D02*
X80264Y56388D01*
X133604Y58267D02*
X133604Y58267D01*
X45212Y48768D02*
X45212Y48768D01*
X133604Y42164D02*
X133604Y42164D01*
X109728Y42164D02*
X109728Y42164D01*
X54584Y119380D02*
X54584Y119380D01*
X52146Y70104D02*
X52146Y70104D01*
X41148Y70104D02*
X41148Y70104D01*
X87376Y53340D02*
X87376Y53340D01*
X56388Y62255D02*
X56388Y62255D01*
X43688Y79756D02*
X43688Y79756D01*
X83312Y69596D02*
X83312Y69596D01*
X69088Y55372D02*
X69088Y55372D01*
X70612Y45212D02*
X70612Y45212D01*
X88925Y87630D02*
X88925Y87630D01*
X141046Y60426D02*
X141046Y60426D01*
X65659Y52882D02*
X65659Y52882D01*
X115570Y65887D02*
X115570Y65887D01*
X73914Y89865D02*
X73914Y89865D01*
X48717Y42926D02*
X48717Y42926D01*
X56032Y47396D02*
X56032Y47396D01*
X64897Y85090D02*
X64897Y85090D01*
X75819Y49733D02*
X75819Y49733D01*
X74345Y50901D02*
X74345Y50901D01*
X64185Y60934D02*
X64185Y60934D01*
X45212Y55499D02*
X45212Y55499D01*
X39547Y45796D02*
X39547Y45796D01*
X37490Y62915D02*
X37490Y62915D01*
X88265Y63500D02*
X88265Y63500D01*
X102870Y55880D02*
X102870Y55880D01*
X117627Y69621D02*
X117627Y69621D01*
X87299Y85826D02*
X87299Y85826D01*
X80645Y84455D02*
X80645Y84455D01*
X109855Y85725D02*
X109855Y85725D01*
X111125Y95250D02*
X111125Y95250D01*
D02M02*
