*%FSLAX53Y53*
SFA1.0B1.0*%
G71*
G90*
G01*
D02*
G54D11*
X52705Y5715D02*
X64135Y5715D01*
X152146Y86868D02*
X187020Y86868D01*
X151815Y87782D02*
X187020Y87782D01*
X187020Y88696D01*
X151815Y88696D01*
X151765Y89611D02*
X187020Y89611D01*
X187020Y90525D01*
X120319Y90525D01*
X120319Y91440D01*
X187020Y91440D01*
X187020Y92354D01*
X120319Y92354D01*
X117932Y93268D02*
X187020Y93268D01*
X187020Y94183D01*
X117957Y94183D01*
X117957Y95097D01*
X187020Y95097D01*
X187020Y96012D01*
X117983Y96012D01*
X116687Y96926D02*
X117957Y96926D01*
X117500Y97840D01*
X117195Y97840D01*
X117373Y97104D02*
X117043Y96494D01*
X187325Y95885D01*
X187325Y86995D01*
X151968Y86766D01*
X151511Y87604D01*
X151511Y89865D01*
X151130Y90246D01*
X120015Y90246D01*
X120015Y92633D01*
X119634Y93014D01*
X117627Y93014D01*
X117678Y96723D01*
X117373Y97104D01*
D02*
G54D11*
X76200Y58420D02*
X85090Y58420D01*
X74498Y59715D02*
X76200Y58420D01*
X85090Y58420D02*
X85166Y56235D01*
X76200Y60960D02*
X81280Y60960D01*
X75565Y62230D02*
X76200Y60960D01*
X81280Y60960D02*
X82550Y62230D01*
X82550Y62230D02*
X86360Y62230D01*
X86360Y62230D02*
X87630Y60960D01*
X87630Y58420D02*
X87630Y60960D01*
X87630Y58420D02*
X92710Y58420D01*
X39370Y60960D02*
X41910Y59690D01*
X38100Y60960D02*
X39370Y60960D01*
X92532Y61620D02*
X97129Y61620D01*
X91414Y59715D02*
X92532Y61620D01*
X92710Y58420D02*
X93980Y59690D01*
X85166Y56235D02*
X88036Y55270D01*
X88036Y55270D02*
X95148Y55321D01*
X67945Y59690D02*
X74498Y59715D01*
X76835Y55676D02*
X84861Y55676D01*
X75565Y57150D02*
X76835Y55676D01*
X84861Y55676D02*
X88087Y54610D01*
X95148Y55321D02*
X96520Y57150D01*
X88087Y54610D02*
X95885Y54610D01*
X99060Y52070D02*
X99060Y57150D01*
X93980Y52070D02*
X99060Y52070D01*
X95885Y73533D02*
X105892Y73533D01*
X109220Y74930D02*
X110490Y73660D01*
X100330Y74930D02*
X109220Y74930D01*
X110490Y73660D02*
X111785Y73583D01*
X92710Y64135D02*
X107594Y64135D01*
X63068Y41935D02*
X63068Y48285D01*
X34290Y41910D02*
X63068Y41935D01*
X63068Y48285D02*
X66040Y48260D01*
X61925Y54660D02*
X64287Y53340D01*
X33020Y54610D02*
X61925Y54660D01*
X64287Y53340D02*
X68580Y53340D01*
X64846Y46990D02*
X69215Y46990D01*
X89509Y17119D02*
X97078Y17119D01*
X97078Y17119D02*
X97790Y16510D01*
X66675Y7620D02*
X68834Y5537D01*
X60960Y12700D02*
X63500Y13970D01*
X52070Y12700D02*
X60960Y12700D01*
X49530Y15240D02*
X52070Y12700D01*
X15240Y5080D02*
X20320Y5080D01*
X15240Y5080D02*
X15240Y6350D01*
X30480Y88900D02*
X30480Y91440D01*
X30556Y93954D02*
X31115Y93345D01*
X13944Y26695D02*
X22860Y26670D01*
X54965Y63500D02*
X68580Y63500D01*
X30429Y89052D02*
X54965Y89052D01*
X11328Y56337D02*
X20599Y56311D01*
X144780Y50800D02*
X163830Y50800D01*
X109220Y49530D02*
X110490Y50800D01*
X110490Y50800D02*
X138430Y50800D01*
X111760Y52070D02*
X135890Y52070D01*
X99695Y17780D02*
X102870Y17780D01*
X98425Y19050D02*
X99695Y17780D01*
X111760Y82550D02*
X120015Y82550D01*
X60325Y90170D02*
X111760Y90170D01*
X157480Y72390D02*
X166370Y72390D01*
X111760Y39370D02*
X114300Y39370D01*
X114300Y39370D02*
X115570Y40640D01*
X115570Y40640D02*
X118110Y40640D01*
X111760Y64770D02*
X127000Y64770D01*
X184150Y36830D02*
X184200Y36830D01*
X102235Y33655D02*
X102870Y33020D01*
X102870Y31115D02*
X102870Y33020D01*
X102870Y31115D02*
X103505Y30480D01*
X112395Y80010D02*
X119380Y80010D01*
X36830Y39370D02*
X64135Y39370D01*
X35560Y34290D02*
X36830Y35560D01*
X36830Y35560D02*
X61595Y35560D01*
X106680Y88900D02*
X107950Y87630D01*
X107950Y87630D02*
X116205Y87630D01*
X102235Y55880D02*
X117475Y55880D01*
X101600Y55245D02*
X102235Y55880D01*
X40640Y34290D02*
X41910Y33020D01*
X41910Y33020D02*
X54610Y33020D01*
X54610Y9525D02*
X82550Y9525D01*
X38100Y53340D02*
X40640Y53340D01*
X184150Y59690D02*
X184200Y59690D01*
X184150Y59690D02*
X184150Y60325D01*
X184150Y60325D02*
X186690Y62865D01*
X186690Y62865D02*
X186690Y64770D01*
X186690Y64770D02*
X186690Y81280D01*
X184150Y81280D02*
X186690Y81280D01*
X182880Y80010D02*
X184150Y81280D01*
X163195Y80010D02*
X182880Y80010D01*
X162560Y80645D02*
X163195Y80010D01*
X133985Y80645D02*
X162560Y80645D01*
X133350Y80010D02*
X133985Y80645D01*
X38100Y63500D02*
X41910Y63500D01*
X83820Y83820D02*
X85090Y82550D01*
X85090Y82550D02*
X97155Y82550D01*
X114300Y78740D02*
X114935Y78105D01*
X114935Y78105D02*
X158750Y78105D01*
X158750Y78105D02*
X159385Y78740D01*
X159385Y78740D02*
X174625Y78740D01*
X174625Y78740D02*
X175260Y78105D01*
X149860Y52070D02*
X175260Y52070D01*
X72390Y69215D02*
X77470Y69215D01*
X71120Y70485D02*
X72390Y69215D01*
X108585Y68580D02*
X112395Y68580D01*
X107315Y67310D02*
X108585Y68580D01*
X60325Y67310D02*
X107315Y67310D01*
X69215Y46990D02*
X70485Y45720D01*
X70485Y45720D02*
X71120Y45720D01*
X99695Y27305D02*
X113030Y27305D01*
X99060Y26670D02*
X99695Y27305D01*
X75565Y26670D02*
X99060Y26670D01*
X74930Y27305D02*
X75565Y26670D01*
X65404Y30480D02*
X74930Y30480D01*
X65404Y44450D02*
X69215Y44450D01*
X69215Y44450D02*
X70485Y43180D01*
X70485Y43180D02*
X71120Y43180D01*
X87630Y39370D02*
X109220Y39370D01*
X78740Y53340D02*
X87630Y53340D01*
X75565Y44450D02*
X78740Y44450D01*
X67945Y39370D02*
X75565Y39370D01*
X67310Y40005D02*
X67945Y39370D01*
X67310Y40005D02*
X67310Y41910D01*
X67310Y41910D02*
X68580Y43180D01*
X86360Y36830D02*
X109220Y36830D01*
X77470Y48260D02*
X86360Y48260D01*
X69850Y41910D02*
X76200Y41910D01*
X68580Y40640D02*
X69850Y41910D01*
X74295Y63500D02*
X85090Y63500D01*
X34925Y65404D02*
X38100Y68580D01*
X11125Y71374D02*
X11430Y71120D01*
X25400Y16510D02*
X59690Y16510D01*
X59690Y16510D02*
X60960Y15240D01*
X60960Y15240D02*
X89535Y15240D01*
X89535Y15240D02*
X90805Y13970D01*
X90805Y13970D02*
X111125Y13970D01*
X25400Y16510D02*
X25400Y24130D01*
X74930Y10795D02*
X76835Y12700D01*
X76835Y12700D02*
X92710Y12700D01*
X71120Y40640D02*
X78105Y40640D01*
X164465Y20955D02*
X166370Y22860D01*
X136525Y20955D02*
X164465Y20955D01*
X104775Y21590D02*
X106045Y20320D01*
X78105Y21590D02*
X104775Y21590D01*
X67310Y26035D02*
X101600Y26035D01*
X101600Y26035D02*
X102235Y26670D01*
X102235Y26670D02*
X107950Y26670D01*
X107950Y26670D02*
X110490Y24130D01*
X128270Y67310D02*
X129540Y68580D01*
X129540Y68580D02*
X133985Y68580D01*
X133985Y68580D02*
X134620Y67945D01*
X134620Y66675D02*
X134620Y67945D01*
X134620Y66675D02*
X136525Y64770D01*
X136525Y64770D02*
X178435Y64770D01*
X178435Y54610D02*
X184150Y54610D01*
X184150Y54610D02*
X184200Y54610D01*
X173355Y55880D02*
X181610Y55880D01*
X106680Y76200D02*
X107950Y77470D01*
X107950Y77470D02*
X173355Y77470D01*
X149860Y72390D02*
X151130Y73660D01*
X71120Y48260D02*
X75565Y48260D01*
X133350Y82550D02*
X135255Y84455D01*
X135255Y84455D02*
X168910Y84455D01*
X168910Y84455D02*
X169545Y85090D01*
X169545Y53340D02*
X181610Y53340D01*
X116205Y39370D02*
X128270Y39370D01*
X107950Y69850D02*
X116205Y69850D01*
X106680Y71120D02*
X107950Y69850D01*
X104140Y33655D02*
X104775Y33020D01*
X184200Y39370D02*
X184785Y39370D01*
X30480Y34290D02*
X33020Y36830D01*
X33020Y36830D02*
X74295Y36830D01*
X5715Y50800D02*
X38100Y50800D01*
X5715Y50800D02*
X5715Y73660D01*
X5715Y73660D02*
X10795Y73660D01*
X10795Y73660D02*
X11125Y74142D01*
X64135Y91440D02*
X86360Y91440D01*
X67945Y60960D02*
X68580Y60960D01*
X66675Y59690D02*
X67945Y60960D01*
X64135Y59690D02*
X66675Y59690D01*
X66675Y52070D02*
X76200Y52070D01*
X76200Y52070D02*
X77470Y50800D01*
X77470Y50800D02*
X107315Y50800D01*
X144780Y79375D02*
X185420Y79375D01*
X185420Y71120D02*
X185420Y79375D01*
X184785Y70485D02*
X185420Y71120D01*
X184200Y69850D02*
X184785Y70485D01*
X65404Y78740D02*
X86360Y78740D01*
X67945Y58420D02*
X68580Y58420D01*
X66675Y57150D02*
X67945Y58420D01*
X65404Y57150D02*
X66675Y57150D01*
X7620Y49530D02*
X16510Y49530D01*
X7620Y66675D02*
X13970Y66675D01*
X13970Y66675D02*
X13970Y67233D01*
X112395Y43180D02*
X113665Y41910D01*
X110490Y43180D02*
X112395Y43180D01*
X109220Y41910D02*
X110490Y43180D01*
X27940Y34290D02*
X30480Y31750D01*
X30480Y31750D02*
X33655Y31750D01*
X34290Y5080D02*
X34925Y5080D01*
X34925Y5080D02*
X37465Y7620D01*
X37465Y7620D02*
X38100Y7620D01*
X80645Y62230D02*
X88900Y62230D01*
X160655Y54610D02*
X171450Y54610D01*
X160020Y55245D02*
X160655Y54610D01*
X162560Y55880D02*
X167640Y55880D01*
X130809Y64135D02*
X134620Y64135D01*
X108585Y67310D02*
X120650Y67310D01*
X107315Y66040D02*
X108585Y67310D01*
X71120Y66040D02*
X107315Y66040D01*
X55245Y7620D02*
X56515Y8890D01*
X43180Y7620D02*
X55245Y7620D01*
X123190Y10160D02*
X123190Y13970D01*
X14605Y80645D02*
X39370Y80645D01*
X13970Y81076D02*
X14605Y80645D01*
X167640Y35560D02*
X168910Y34290D01*
X110490Y35560D02*
X167640Y35560D01*
X109220Y36830D02*
X110490Y35560D01*
X43180Y22860D02*
X104775Y22860D01*
X82550Y25400D02*
X102870Y25400D01*
X81915Y24765D02*
X82550Y25400D01*
X39370Y24765D02*
X81915Y24765D01*
X112395Y36195D02*
X170180Y36195D01*
X111760Y36830D02*
X112395Y36195D01*
X171450Y85090D02*
X182880Y85090D01*
X170180Y83820D02*
X171450Y85090D01*
X152400Y83820D02*
X170180Y83820D01*
X151130Y82550D02*
X152400Y83820D01*
X110490Y24130D02*
X160020Y24130D01*
X160020Y24130D02*
X161290Y22860D01*
X72390Y27940D02*
X73025Y27305D01*
X39370Y27940D02*
X72390Y27940D01*
X38100Y26670D02*
X39370Y27940D01*
X95885Y54610D02*
X97790Y54610D01*
X67945Y57150D02*
X75565Y57150D01*
X66675Y55880D02*
X67945Y57150D01*
X45720Y55880D02*
X66675Y55880D01*
X66040Y48260D02*
X68580Y50800D01*
X107950Y21590D02*
X154940Y21590D01*
X154940Y21590D02*
X156210Y22860D01*
X134620Y55880D02*
X150495Y55880D01*
X150495Y55880D02*
X151765Y57150D01*
X151765Y57150D02*
X184150Y57150D01*
X184150Y57150D02*
X184200Y57150D01*
X14605Y78105D02*
X34925Y78105D01*
X13970Y78308D02*
X14605Y78105D01*
X156210Y48260D02*
X158750Y45720D01*
X114935Y48260D02*
X156210Y48260D01*
X138430Y60960D02*
X140335Y59055D01*
X140335Y59055D02*
X172720Y59055D01*
X172720Y59055D02*
X173355Y59690D01*
X127000Y15240D02*
X128270Y13970D01*
X93980Y15240D02*
X127000Y15240D01*
X110490Y53340D02*
X147320Y53340D01*
X109220Y54610D02*
X110490Y53340D01*
X80645Y40640D02*
X113665Y40640D01*
X78105Y38100D02*
X80645Y40640D01*
X71120Y38100D02*
X78105Y38100D01*
X68580Y48260D02*
X69215Y48260D01*
X69215Y48260D02*
X70485Y46990D01*
X70485Y46990D02*
X76200Y46990D01*
X76200Y46990D02*
X77470Y45720D01*
X77470Y45720D02*
X107315Y45720D01*
X107315Y45720D02*
X107950Y45720D01*
X107950Y45720D02*
X109220Y44450D01*
X68580Y45720D02*
X69215Y45720D01*
X69215Y45720D02*
X70485Y44450D01*
X70485Y44450D02*
X73025Y44450D01*
X73025Y44450D02*
X74295Y43180D01*
X74295Y43180D02*
X107315Y43180D01*
X107315Y43180D02*
X107950Y43180D01*
X107950Y43180D02*
X109220Y41910D01*
X73025Y88900D02*
X86360Y88900D01*
X149860Y69850D02*
X182245Y69850D01*
X182245Y69850D02*
X183515Y71120D01*
X183515Y71120D02*
X183515Y71755D01*
X183515Y71755D02*
X184150Y72390D01*
X184150Y72390D02*
X184200Y72390D01*
X57150Y29845D02*
X60960Y29845D01*
X60960Y29845D02*
X61595Y29210D01*
X61595Y29210D02*
X83820Y29210D01*
X114300Y86360D02*
X149860Y86360D01*
X146050Y71120D02*
X181610Y71120D01*
X13970Y70002D02*
X14605Y69850D01*
X154940Y74930D02*
X184150Y74930D01*
X184150Y74930D02*
X184200Y74930D01*
X167640Y45720D02*
X181610Y45720D01*
X107950Y62230D02*
X109220Y63500D01*
X109220Y63500D02*
X111125Y63500D01*
X136525Y62865D02*
X138430Y60960D01*
X79375Y81915D02*
X82550Y81915D01*
X78740Y82473D02*
X79375Y81915D01*
X24130Y6350D02*
X34290Y6350D01*
X34290Y6350D02*
X35560Y7620D01*
X151130Y73660D02*
X181610Y73660D01*
X111760Y54610D02*
X139700Y54610D01*
X95250Y80010D02*
X110490Y80010D01*
X93980Y81280D02*
X95250Y80010D01*
X111760Y57150D02*
X142240Y57150D01*
X67310Y73660D02*
X86360Y73660D01*
X99695Y82550D02*
X109855Y82550D01*
X98425Y83820D02*
X99695Y82550D01*
X93980Y83820D02*
X98425Y83820D01*
X14605Y75565D02*
X30480Y75565D01*
X13970Y75539D02*
X14605Y75565D01*
X183515Y43180D02*
X186055Y43180D01*
X182245Y44450D02*
X183515Y43180D01*
X158115Y44450D02*
X182245Y44450D01*
X156845Y45720D02*
X158115Y44450D01*
X156210Y45720D02*
X156845Y45720D01*
X184200Y49530D02*
X184785Y49530D01*
X184785Y48895D02*
X184785Y49530D01*
X184785Y48895D02*
X186055Y47625D01*
X186055Y43180D02*
X186055Y47625D01*
X105410Y58420D02*
X128270Y58420D01*
X104140Y59690D02*
X105410Y58420D01*
X109220Y66040D02*
X132080Y66040D01*
X132080Y66040D02*
X133350Y67310D01*
X110490Y62230D02*
X134620Y62230D01*
X134620Y62230D02*
X135890Y60960D01*
X78740Y77393D02*
X79375Y77470D01*
X74930Y76200D02*
X83820Y76200D01*
X74295Y76835D02*
X74930Y76200D01*
X71755Y76835D02*
X74295Y76835D01*
X71120Y77393D02*
X71755Y76835D01*
X154940Y41910D02*
X166370Y41910D01*
X157480Y43180D02*
X168910Y43180D01*
X106680Y76200D02*
X109855Y76200D01*
X109855Y76200D02*
X111125Y74930D01*
X111125Y74930D02*
X128270Y74930D01*
X130809Y85090D02*
X133350Y82550D01*
X108585Y85090D02*
X130809Y85090D01*
X95250Y85090D02*
X108585Y85090D01*
X93980Y86360D02*
X95250Y85090D01*
X123825Y60960D02*
X130809Y60960D01*
X13970Y72771D02*
X14605Y72390D01*
X166370Y41910D02*
X184150Y41910D01*
X184150Y41910D02*
X184200Y41910D01*
X80645Y38100D02*
X90170Y38100D01*
X78105Y35560D02*
X80645Y38100D01*
X71120Y35560D02*
X78105Y35560D01*
X79375Y74930D02*
X90170Y74930D01*
X78740Y74853D02*
X79375Y74930D01*
X76835Y33020D02*
X85090Y33020D01*
X85090Y33020D02*
X86360Y31750D01*
X168910Y43180D02*
X181610Y43180D01*
X41275Y20955D02*
X43180Y22860D01*
X29845Y20955D02*
X41275Y20955D01*
X77470Y71120D02*
X86360Y71120D01*
X83820Y52070D02*
X93980Y52070D01*
X97790Y24130D02*
X106680Y24130D01*
X10160Y15163D02*
X10795Y14605D01*
X16510Y17780D02*
X19050Y15240D01*
X19050Y15240D02*
X27940Y15240D01*
X5715Y17780D02*
X16510Y17780D01*
X5689Y17678D02*
X5715Y17780D01*
X63500Y7620D02*
X66675Y7620D01*
X57150Y7620D02*
X63500Y7620D01*
X36830Y28575D02*
X78740Y28575D01*
X78740Y28575D02*
X80010Y27305D01*
X80010Y27305D02*
X98425Y27305D01*
X98425Y27305D02*
X99060Y27940D01*
X99060Y27940D02*
X107950Y27940D01*
X107950Y27940D02*
X109220Y29210D01*
X27940Y26670D02*
X29845Y28575D01*
X29845Y28575D02*
X36830Y28575D01*
X90805Y64135D02*
X92710Y64135D01*
X90170Y64693D02*
X90805Y64135D01*
X25400Y24130D02*
X25400Y26670D01*
X25400Y24130D02*
X30480Y24130D01*
X30480Y24130D02*
X31750Y22860D01*
X33020Y26670D02*
X34925Y24765D01*
X34925Y24765D02*
X39370Y24765D01*
X39370Y22860D02*
X39370Y24765D01*
X38100Y34290D02*
X40640Y31750D01*
X40640Y31750D02*
X77470Y31750D01*
X77470Y31750D02*
X78740Y30480D01*
X78740Y30480D02*
X100330Y30480D01*
X100330Y30480D02*
X101600Y31750D01*
X109220Y39370D02*
X110490Y38100D01*
X110490Y38100D02*
X123190Y38100D01*
X123190Y38100D02*
X124460Y36830D01*
X98425Y31750D02*
X99060Y31750D01*
X94615Y35560D02*
X98425Y31750D01*
X80645Y35560D02*
X94615Y35560D01*
X79375Y34290D02*
X80645Y35560D01*
X43180Y34290D02*
X79375Y34290D01*
X66675Y58420D02*
X67945Y59690D01*
X45720Y58420D02*
X66675Y58420D01*
X57785Y62230D02*
X75565Y62230D01*
X56515Y60960D02*
X57785Y62230D01*
X45720Y60960D02*
X56515Y60960D01*
X135890Y60960D02*
X138430Y58420D01*
X138430Y58420D02*
X181610Y58420D01*
X135890Y67310D02*
X137795Y65404D01*
X137795Y65404D02*
X171450Y65404D01*
X171450Y65404D02*
X172085Y66040D01*
X172085Y66040D02*
X181610Y66040D01*
X140970Y60960D02*
X143510Y63500D01*
X143510Y63500D02*
X181610Y63500D01*
X140970Y67310D02*
X142240Y68580D01*
X142240Y68580D02*
X181610Y68580D01*
X127000Y44450D02*
X128270Y43180D01*
X111760Y44450D02*
X127000Y44450D01*
X109220Y44450D02*
X110490Y45720D01*
X110490Y45720D02*
X127000Y45720D01*
X127000Y45720D02*
X128905Y43815D01*
X128905Y43815D02*
X146685Y43815D01*
X146685Y43815D02*
X148590Y45720D01*
X41275Y9525D02*
X43180Y7620D01*
X5715Y9525D02*
X41275Y9525D01*
X5689Y10058D02*
X5715Y9525D01*
X148590Y60960D02*
X149225Y60960D01*
X149225Y60960D02*
X150495Y62230D01*
X150495Y62230D02*
X184150Y62230D01*
X184150Y62230D02*
X184200Y62230D01*
X145415Y45720D02*
X146050Y45720D01*
X144145Y44450D02*
X145415Y45720D01*
X129540Y44450D02*
X144145Y44450D01*
X127635Y46355D02*
X129540Y44450D01*
X112395Y46355D02*
X127635Y46355D01*
X111760Y46990D02*
X112395Y46355D01*
X142240Y46990D02*
X143510Y45720D01*
X113665Y46990D02*
X142240Y46990D01*
X112395Y48260D02*
X113665Y46990D01*
X110490Y48260D02*
X112395Y48260D01*
X109220Y46990D02*
X110490Y48260D01*
X132080Y59690D02*
X133350Y60960D01*
X116840Y59690D02*
X132080Y59690D01*
X115570Y60960D02*
X116840Y59690D01*
X107950Y60960D02*
X115570Y60960D01*
X106680Y59690D02*
X107950Y60960D01*
X158750Y45720D02*
X161290Y48260D01*
X161290Y48260D02*
X181610Y48260D01*
X161290Y45720D02*
X162560Y46990D01*
X162560Y46990D02*
X184150Y46990D01*
X184150Y46990D02*
X184200Y46990D01*
X43180Y15240D02*
X49530Y15240D01*
X166370Y40640D02*
X181610Y40640D01*
X71120Y50800D02*
X72390Y49530D01*
X72390Y49530D02*
X81280Y49530D01*
X71120Y82473D02*
X71755Y81915D01*
X71755Y81915D02*
X74295Y81915D01*
X74295Y81915D02*
X76200Y80010D01*
X76200Y80010D02*
X78740Y80010D01*
X78740Y79933D02*
X78740Y80010D01*
X15240Y23495D02*
X15240Y24053D01*
X45720Y76200D02*
X46990Y76200D01*
X46990Y76200D02*
X49530Y78740D01*
X49530Y78740D02*
X50800Y78740D01*
X81483Y20320D02*
X81915Y20320D01*
X81915Y20320D02*
X86360Y20320D01*
X71120Y21590D02*
X72390Y20320D01*
X72390Y20320D02*
X76200Y20320D01*
X76200Y20320D02*
X76250Y20320D01*
X45720Y73660D02*
X49530Y73660D01*
X49530Y73660D02*
X50800Y72390D01*
X20320Y5003D02*
X20320Y5080D01*
X97790Y10083D02*
X97790Y10160D01*
X92710Y10160D02*
X97790Y10160D01*
X138430Y67310D02*
X139065Y67310D01*
X139065Y67310D02*
X140335Y66040D01*
X140335Y66040D02*
X164465Y66040D01*
X164465Y66040D02*
X165735Y67310D01*
X165735Y67310D02*
X184150Y67310D01*
X184150Y67310D02*
X184200Y67310D01*
X143510Y60960D02*
X144145Y60960D01*
X144145Y60960D02*
X145415Y59690D01*
X145415Y59690D02*
X164465Y59690D01*
X164465Y59690D02*
X165735Y60960D01*
X165735Y60960D02*
X181610Y60960D01*
X93980Y76200D02*
X106680Y76200D01*
X86360Y29210D02*
X87630Y27940D01*
X87630Y27940D02*
X97790Y27940D01*
X97790Y27940D02*
X99060Y29210D01*
X63500Y16510D02*
X71120Y16510D01*
X31115Y93345D02*
X36830Y93345D01*
X36830Y93345D02*
X36830Y93903D01*
X33020Y76200D02*
X38100Y76200D01*
X33020Y73660D02*
X38100Y73660D01*
X128270Y6350D02*
X133350Y6350D01*
X39370Y15240D02*
X43180Y15240D01*
X35560Y15240D02*
X39370Y15240D01*
X31750Y15240D02*
X35560Y15240D01*
X27940Y15240D02*
X31750Y15240D01*
X68580Y63500D02*
X71120Y63500D01*
X68580Y33020D02*
X71120Y33020D01*
X91643Y20320D02*
X102870Y20320D01*
X15240Y17780D02*
X15240Y21590D01*
X114300Y91440D02*
X114300Y93980D01*
X96520Y93980D02*
X114300Y93980D01*
X96520Y93980D02*
X96520Y95834D01*
X46990Y85826D02*
X68757Y85826D01*
X71120Y85013D02*
X71120Y85090D01*
X68757Y85826D02*
X71120Y85090D01*
X45720Y85013D02*
X45720Y85090D01*
X45720Y85090D02*
X46990Y85826D01*
X45720Y68580D02*
X48260Y69850D01*
X48260Y69850D02*
X58420Y69850D01*
X128270Y4343D02*
X128270Y6350D01*
X181610Y76200D02*
X184150Y77470D01*
X114300Y91440D02*
X117983Y90779D01*
X117983Y90703D02*
X117983Y90779D01*
X122072Y76225D02*
X146050Y76200D01*
X74244Y72364D02*
X149860Y72390D01*
X58420Y95859D02*
X96520Y95834D01*
X58420Y85775D02*
X58420Y95859D01*
X40640Y78740D02*
X41910Y81280D01*
X41910Y81280D02*
X62357Y81280D01*
X62357Y87655D02*
X98425Y87630D01*
X41935Y76962D02*
X43180Y80010D01*
X43180Y80010D02*
X58420Y80010D01*
X58420Y80010D02*
X64414Y80010D01*
X64414Y80010D02*
X64414Y83845D01*
X64414Y83845D02*
X83820Y83820D01*
X20599Y56311D02*
X21590Y58420D01*
X21590Y58420D02*
X30480Y58420D01*
X44450Y62230D02*
X45720Y63500D01*
X41910Y50800D02*
X45720Y50800D01*
X41910Y44450D02*
X41910Y50800D01*
X25400Y44450D02*
X41910Y44450D01*
X43180Y53340D02*
X45720Y53340D01*
X43180Y52070D02*
X43180Y53340D01*
X41910Y63500D02*
X41935Y76962D01*
X4851Y86766D02*
X13893Y86766D01*
X4851Y45770D02*
X4851Y86766D01*
X4851Y45770D02*
X16510Y45720D01*
X27940Y62230D02*
X44450Y62230D01*
X13970Y69850D02*
X27940Y69850D01*
X26670Y52070D02*
X43180Y52070D01*
X11455Y64262D02*
X26670Y64262D01*
X8890Y53340D02*
X19050Y53340D01*
X4851Y38074D02*
X4851Y45897D01*
X13944Y26695D02*
X13944Y35382D01*
X79375Y77470D02*
X91897Y77495D01*
X7620Y24130D02*
X15240Y24130D01*
X146050Y76200D02*
X177114Y76200D01*
X179908Y64795D02*
X184150Y64770D01*
X173990Y39370D02*
X184150Y39370D01*
X173990Y33020D02*
X173990Y39370D01*
X104775Y33020D02*
X173990Y33020D01*
X127000Y31750D02*
X175260Y31750D01*
X175260Y36830D02*
X184150Y36830D01*
X175260Y31750D02*
X175260Y36830D01*
X103505Y30480D02*
X176530Y30480D01*
X181610Y38100D02*
X186690Y38100D01*
X186690Y33020D02*
X186690Y38100D01*
X182880Y33020D02*
X186690Y33020D01*
X182880Y31750D02*
X182880Y33020D01*
X177800Y31750D02*
X182880Y31750D01*
X176530Y30480D02*
X177800Y31750D01*
X163830Y50800D02*
X173990Y50800D01*
X176530Y33020D02*
X181610Y33020D01*
X10160Y11430D02*
X16510Y11430D01*
X10160Y11430D02*
X10160Y15240D01*
X64084Y21005D02*
X65659Y18440D01*
X65659Y18440D02*
X80010Y18415D01*
X102870Y12700D02*
X113030Y12700D01*
X113030Y12700D02*
X113030Y13970D01*
X86360Y19050D02*
X86360Y20320D01*
X91440Y19050D02*
X98425Y19050D01*
X69291Y23876D02*
X86360Y23850D01*
X68834Y5537D02*
X92710Y5537D01*
X82550Y9525D02*
X83489Y11506D01*
X109169Y4368D02*
X128270Y4343D01*
X97790Y10160D02*
X109220Y10160D01*
X123190Y8890D02*
X123190Y10160D01*
X108585Y8890D02*
X123190Y8890D01*
X84709Y6807D02*
X86614Y6807D01*
X83820Y8890D02*
X84709Y6807D01*
X56515Y8890D02*
X83820Y8890D01*
X86614Y6807D02*
X107289Y6807D01*
X107289Y6807D02*
X108585Y8890D01*
X98425Y11506D02*
X101066Y12115D01*
X83489Y11506D02*
X98425Y11506D01*
X11125Y71374D02*
X12928Y68630D01*
X12928Y68630D02*
X16586Y68630D01*
X16586Y65455D02*
X16586Y68630D01*
X16586Y65379D02*
X34925Y65404D01*
X4851Y38074D02*
X7620Y38100D01*
X15240Y38100D02*
X45720Y38100D01*
X25400Y41910D02*
X25400Y44450D01*
X15240Y41910D02*
X25400Y41910D01*
X119989Y87630D02*
X147091Y87630D01*
X121920Y88900D02*
X121920Y90170D01*
X130657Y41859D02*
X138455Y41859D01*
X113665Y41910D02*
X127609Y41859D01*
X127609Y41859D02*
X129997Y40919D01*
X125730Y40640D02*
X127889Y40716D01*
X127889Y40716D02*
X129514Y40157D01*
X128371Y42443D02*
X130657Y41859D01*
X125526Y42900D02*
X128371Y42443D01*
X111125Y63500D02*
X113868Y63398D01*
X130200Y62865D02*
X136525Y62865D01*
X129235Y63398D02*
X130200Y62865D01*
X113868Y63398D02*
X129235Y63398D01*
X173482Y59817D02*
X179628Y59817D01*
X111760Y49530D02*
X140944Y49530D01*
X139700Y54610D02*
X142240Y54610D01*
X143510Y38100D02*
X143510Y39370D01*
X128270Y39370D02*
X143510Y39370D01*
X146024Y40208D02*
X146050Y38100D01*
X129514Y40157D02*
X146024Y40106D01*
X146100Y42037D02*
X148666Y42037D01*
X149860Y43180D02*
X151130Y45720D01*
X128270Y43180D02*
X149860Y43180D01*
X151790Y40944D02*
X153670Y45720D01*
X129997Y40919D02*
X151790Y40944D01*
X119380Y34290D02*
X150977Y34264D01*
X153670Y38100D02*
X156210Y40640D01*
X156210Y40640D02*
X166370Y40640D01*
X156210Y36830D02*
X156210Y38100D01*
X124460Y36830D02*
X156286Y36804D01*
X118110Y29210D02*
X158877Y29210D01*
X161290Y34290D02*
X161290Y35560D01*
X171475Y49250D02*
X177800Y49250D01*
X168910Y34290D02*
X171450Y34290D01*
X109220Y19050D02*
X130048Y19050D01*
X128676Y20929D02*
X136525Y20955D01*
X128270Y20320D02*
X128676Y20929D01*
X106045Y20320D02*
X128270Y20320D01*
X130048Y26644D02*
X135890Y26670D01*
X62230Y69850D02*
X62230Y71120D01*
X58420Y69850D02*
X62230Y69850D01*
X62230Y73660D02*
X62230Y74930D01*
X62230Y74930D02*
X71120Y74930D01*
X144576Y6172D02*
X144576Y8712D01*
X146151Y8712D01*
X144576Y7493D02*
X145542Y7493D01*
X144576Y6172D02*
X146151Y6172D01*
X146862Y6172D02*
X146862Y8712D01*
X147955Y8712D01*
X148310Y8585D01*
X148437Y8458D01*
X148564Y8229D01*
X148564Y7975D01*
X148437Y7747D01*
X148310Y7620D01*
X147955Y7493D01*
X146862Y7493D02*
X147955Y7493D01*
X148310Y7391D01*
X148437Y7264D01*
X148564Y7010D01*
X148564Y6654D01*
X148437Y6426D01*
X148310Y6299D01*
X147955Y6172D01*
X146862Y6172D01*
X150977Y8356D02*
X150723Y8585D01*
X150368Y8712D01*
X149885Y8712D01*
X149529Y8585D01*
X149275Y8356D01*
X149275Y8102D01*
X149402Y7874D01*
X149529Y7747D01*
X149758Y7620D01*
X150495Y7391D01*
X150723Y7264D01*
X150850Y7137D01*
X150977Y6908D01*
X150977Y6527D01*
X150723Y6299D01*
X150368Y6172D01*
X149885Y6172D01*
X149529Y6299D01*
X149275Y6527D01*
X151815Y8712D02*
X151815Y6172D01*
X153263Y6172D01*
X144094Y10617D02*
X144094Y13157D01*
X145186Y13157D01*
X145542Y13030D01*
X145669Y12903D01*
X145796Y12674D01*
X145796Y12420D01*
X145669Y12192D01*
X145542Y12065D01*
X145186Y11938D01*
X144094Y11938D01*
X144932Y11938D02*
X145796Y10617D01*
X147116Y13157D02*
X147116Y10617D01*
X146278Y13157D02*
X147955Y13157D01*
X148437Y13157D02*
X150139Y10617D01*
X150139Y13157D02*
X148437Y10617D01*
X150977Y11709D02*
X153162Y11709D01*
X154127Y12547D02*
X154127Y12674D01*
X154254Y12903D01*
X154381Y13030D01*
X154609Y13157D01*
X155092Y13157D01*
X155346Y13030D01*
X155448Y12903D01*
X155575Y12674D01*
X155575Y12420D01*
X155448Y12192D01*
X155219Y11836D01*
X154000Y10617D01*
X155702Y10617D01*
X156794Y12674D02*
X157022Y12801D01*
X157378Y13157D01*
X157378Y10617D01*
X158826Y10617D02*
X160528Y13157D01*
X163068Y12547D02*
X162941Y12801D01*
X162687Y13030D01*
X162458Y13157D01*
X161975Y13157D01*
X161721Y13030D01*
X161493Y12801D01*
X161366Y12547D01*
X161239Y12192D01*
X161239Y11582D01*
X161366Y11226D01*
X161493Y10972D01*
X161721Y10744D01*
X161975Y10617D01*
X162458Y10617D01*
X162687Y10744D01*
X162941Y10972D01*
X163068Y11226D01*
X163906Y10617D02*
X163906Y13157D01*
X164998Y13157D01*
X165354Y13030D01*
X165481Y12903D01*
X165608Y12674D01*
X165608Y12319D01*
X165481Y12065D01*
X165354Y11938D01*
X164998Y11836D01*
X163906Y11836D01*
X166446Y13157D02*
X166446Y11353D01*
X166573Y10972D01*
X166801Y10744D01*
X167182Y10617D01*
X167411Y10617D01*
X167767Y10744D01*
X168021Y10972D01*
X168148Y11353D01*
X168148Y13157D01*
X3606Y3200D02*
X3606Y97155D01*
X3556Y97053D02*
X188468Y97028D01*
X3149Y3048D02*
X188645Y3048D01*
X188595Y97155D02*
X188645Y3048D01*
X30683Y93954D02*
X30683Y93954D01*
X30632Y94030D01*
X30530Y94081D01*
X30454Y94030D01*
X30429Y93929D01*
X30454Y93853D01*
X30556Y93827D01*
X30632Y93853D01*
X30683Y93954D01*
X30556Y93954D01*
X30683Y91541D02*
X30429Y91541D01*
X30429Y91287D01*
X30683Y91287D01*
X30683Y91541D01*
X30556Y91414D01*
X5816Y17678D02*
X5816Y17678D01*
X5765Y17754D01*
X5664Y17805D01*
X5588Y17754D01*
X5562Y17653D01*
X5588Y17576D01*
X5689Y17551D01*
X5765Y17576D01*
X5791Y17678D01*
X5689Y17678D01*
X5816Y10185D02*
X5562Y10185D01*
X5562Y9931D01*
X5816Y9931D01*
X5816Y10185D01*
X5689Y10058D01*
X10414Y6273D02*
X10414Y6273D01*
X10337Y6451D01*
X10134Y6527D01*
X9956Y6451D01*
X9906Y6248D01*
X9956Y6070D01*
X10160Y6019D01*
X10337Y6070D01*
X10388Y6273D01*
X10160Y6273D01*
X12954Y6273D02*
X12954Y6273D01*
X12877Y6451D01*
X12674Y6527D01*
X12496Y6451D01*
X12446Y6248D01*
X12496Y6070D01*
X12700Y6019D01*
X12877Y6070D01*
X12928Y6273D01*
X12700Y6273D01*
X15494Y6527D02*
X14986Y6527D01*
X14986Y6019D01*
X15494Y6019D01*
X15494Y6527D01*
X15240Y6273D01*
X15367Y15163D02*
X15367Y15163D01*
X15316Y15240D01*
X15214Y15290D01*
X15138Y15240D01*
X15113Y15138D01*
X15138Y15062D01*
X15240Y15036D01*
X15316Y15062D01*
X15341Y15163D01*
X15240Y15163D01*
X10287Y15290D02*
X10033Y15290D01*
X10033Y15036D01*
X10287Y15036D01*
X10287Y15290D01*
X10160Y15163D01*
X14097Y35483D02*
X14097Y35483D01*
X14046Y35560D01*
X13944Y35610D01*
X13868Y35560D01*
X13843Y35458D01*
X13868Y35382D01*
X13970Y35356D01*
X14046Y35382D01*
X14071Y35483D01*
X13970Y35483D01*
X6477Y35610D02*
X6223Y35610D01*
X6223Y35356D01*
X6477Y35356D01*
X6477Y35610D01*
X6350Y35483D01*
X20574Y17703D02*
X20574Y17703D01*
X20497Y17881D01*
X20294Y17957D01*
X20116Y17881D01*
X20066Y17678D01*
X20116Y17500D01*
X20320Y17449D01*
X20497Y17500D01*
X20548Y17703D01*
X20320Y17703D01*
X20574Y5257D02*
X20066Y5257D01*
X20066Y4749D01*
X20574Y4749D01*
X20574Y5257D01*
X20320Y5003D01*
X63169Y50825D02*
X63169Y50825D01*
X63119Y51181D01*
X63017Y51536D01*
X62865Y51866D01*
X62636Y52146D01*
X62382Y52400D01*
X62052Y52578D01*
X61722Y52730D01*
X61366Y52781D01*
X60985Y52781D01*
X60629Y52730D01*
X60299Y52578D01*
X59969Y52400D01*
X59715Y52146D01*
X59486Y51866D01*
X59334Y51536D01*
X59232Y51181D01*
X59207Y50800D01*
X59232Y50444D01*
X59334Y50088D01*
X59486Y49758D01*
X59715Y49479D01*
X59969Y49225D01*
X60299Y49047D01*
X60629Y48895D01*
X60985Y48844D01*
X61366Y48844D01*
X61722Y48895D01*
X62052Y49047D01*
X62382Y49225D01*
X62636Y49479D01*
X62865Y49758D01*
X63017Y50088D01*
X63119Y50444D01*
X63144Y50825D01*
X59512Y50825D01*
X62865Y50825D01*
X61188Y52501D02*
X61188Y49149D01*
X12065Y31267D02*
X12065Y31267D01*
X12014Y31623D01*
X11912Y31978D01*
X11760Y32308D01*
X11531Y32588D01*
X11277Y32842D01*
X10947Y33020D01*
X10617Y33172D01*
X10261Y33223D01*
X9880Y33223D01*
X9525Y33172D01*
X9194Y33020D01*
X8864Y32842D01*
X8610Y32588D01*
X8382Y32308D01*
X8229Y31978D01*
X8128Y31623D01*
X8102Y31242D01*
X8128Y30886D01*
X8229Y30530D01*
X8382Y30200D01*
X8610Y29921D01*
X8864Y29667D01*
X9194Y29489D01*
X9525Y29337D01*
X9880Y29286D01*
X10261Y29286D01*
X10617Y29337D01*
X10947Y29489D01*
X11277Y29667D01*
X11531Y29921D01*
X11760Y30200D01*
X11912Y30530D01*
X12014Y30886D01*
X12039Y31267D01*
X8407Y31267D01*
X11760Y31267D01*
X10083Y32943D02*
X10083Y29591D01*
X24841Y93954D02*
X24841Y93954D01*
X24790Y94310D01*
X24688Y94665D01*
X24536Y94996D01*
X24307Y95275D01*
X24053Y95529D01*
X23723Y95707D01*
X23393Y95859D01*
X23037Y95910D01*
X22656Y95910D01*
X22301Y95859D01*
X21971Y95707D01*
X21640Y95529D01*
X21386Y95275D01*
X21158Y94996D01*
X21005Y94665D01*
X20904Y94310D01*
X20878Y93929D01*
X20904Y93573D01*
X21005Y93218D01*
X21158Y92887D01*
X21386Y92608D01*
X21640Y92354D01*
X21971Y92176D01*
X22301Y92024D01*
X22656Y91973D01*
X23037Y91973D01*
X23393Y92024D01*
X23723Y92176D01*
X24053Y92354D01*
X24307Y92608D01*
X24536Y92887D01*
X24688Y93218D01*
X24790Y93573D01*
X24815Y93954D01*
X21183Y93954D01*
X24536Y93954D01*
X22860Y95631D02*
X22860Y92278D01*
X31242Y47752D02*
X31242Y47752D01*
X31191Y48107D01*
X31089Y48463D01*
X30937Y48793D01*
X30708Y49072D01*
X30454Y49326D01*
X30124Y49504D01*
X29794Y49657D01*
X29438Y49707D01*
X29057Y49707D01*
X28702Y49657D01*
X28371Y49504D01*
X28041Y49326D01*
X27787Y49072D01*
X27559Y48793D01*
X27406Y48463D01*
X27305Y48107D01*
X27279Y47726D01*
X27305Y47371D01*
X27406Y47015D01*
X27559Y46685D01*
X27787Y46405D01*
X28041Y46151D01*
X28371Y45974D01*
X28702Y45821D01*
X29057Y45770D01*
X29438Y45770D01*
X29794Y45821D01*
X30124Y45974D01*
X30454Y46151D01*
X30708Y46405D01*
X30937Y46685D01*
X31089Y47015D01*
X31191Y47371D01*
X31216Y47752D01*
X27584Y47752D01*
X30937Y47752D01*
X29260Y49428D02*
X29260Y46075D01*
X15087Y93599D02*
X15087Y93599D01*
X15062Y93929D01*
X14986Y94234D01*
X14884Y94564D01*
X14732Y94869D01*
X14554Y95123D01*
X14325Y95377D01*
X14071Y95605D01*
X13792Y95783D01*
X13512Y95935D01*
X13182Y96037D01*
X12877Y96113D01*
X12522Y96139D01*
X12192Y96113D01*
X11887Y96037D01*
X11557Y95935D01*
X11252Y95783D01*
X10998Y95605D01*
X10744Y95377D01*
X10515Y95123D01*
X10337Y94843D01*
X10185Y94564D01*
X10083Y94234D01*
X10007Y93929D01*
X10007Y93573D01*
X10007Y93243D01*
X10083Y92938D01*
X10185Y92608D01*
X10337Y92303D01*
X10515Y92049D01*
X10744Y91795D01*
X10998Y91567D01*
X11277Y91389D01*
X11557Y91236D01*
X11887Y91135D01*
X12192Y91059D01*
X12547Y91059D01*
X12877Y91059D01*
X13182Y91135D01*
X13512Y91236D01*
X13817Y91389D01*
X14071Y91567D01*
X14325Y91795D01*
X14554Y92049D01*
X14732Y92329D01*
X14884Y92608D01*
X14986Y92938D01*
X15062Y93243D01*
X15062Y93599D01*
X10312Y93599D01*
X14782Y93599D01*
X12547Y95834D02*
X12547Y91363D01*
X15087Y60248D02*
X15087Y60248D01*
X15062Y60579D01*
X14986Y60883D01*
X14884Y61214D01*
X14732Y61518D01*
X14554Y61772D01*
X14325Y62026D01*
X14071Y62255D01*
X13792Y62433D01*
X13512Y62585D01*
X13182Y62687D01*
X12877Y62763D01*
X12522Y62788D01*
X12192Y62763D01*
X11887Y62687D01*
X11557Y62585D01*
X11252Y62433D01*
X10998Y62255D01*
X10744Y62026D01*
X10515Y61772D01*
X10337Y61493D01*
X10185Y61214D01*
X10083Y60883D01*
X10007Y60579D01*
X10007Y60223D01*
X10007Y59893D01*
X10083Y59588D01*
X10185Y59258D01*
X10337Y58953D01*
X10515Y58699D01*
X10744Y58445D01*
X10998Y58216D01*
X11277Y58039D01*
X11557Y57886D01*
X11887Y57785D01*
X12192Y57708D01*
X12547Y57708D01*
X12877Y57708D01*
X13182Y57785D01*
X13512Y57886D01*
X13817Y58039D01*
X14071Y58216D01*
X14325Y58445D01*
X14554Y58699D01*
X14732Y58978D01*
X14884Y59258D01*
X14986Y59588D01*
X15062Y59893D01*
X15062Y60248D01*
X10312Y60248D01*
X14782Y60248D01*
X12547Y62484D02*
X12547Y58013D01*
X11379Y85217D02*
X11379Y85217D01*
X11303Y85394D01*
X11099Y85471D01*
X10922Y85394D01*
X10871Y85191D01*
X10922Y85013D01*
X11125Y84963D01*
X11303Y85013D01*
X11353Y85217D01*
X11125Y85217D01*
X11379Y82448D02*
X11379Y82448D01*
X11303Y82626D01*
X11099Y82702D01*
X10922Y82626D01*
X10871Y82423D01*
X10922Y82245D01*
X11125Y82194D01*
X11303Y82245D01*
X11353Y82448D01*
X11125Y82448D01*
X11379Y79679D02*
X11379Y79679D01*
X11303Y79857D01*
X11099Y79933D01*
X10922Y79857D01*
X10871Y79654D01*
X10922Y79476D01*
X11125Y79425D01*
X11303Y79476D01*
X11353Y79679D01*
X11125Y79679D01*
X11379Y76911D02*
X11379Y76911D01*
X11303Y77089D01*
X11099Y77165D01*
X10922Y77089D01*
X10871Y76885D01*
X10922Y76708D01*
X11125Y76657D01*
X11303Y76708D01*
X11353Y76911D01*
X11125Y76911D01*
X11379Y74142D02*
X11379Y74142D01*
X11303Y74320D01*
X11099Y74396D01*
X10922Y74320D01*
X10871Y74117D01*
X10922Y73939D01*
X11125Y73888D01*
X11303Y73939D01*
X11353Y74142D01*
X11125Y74142D01*
X11379Y71374D02*
X11379Y71374D01*
X11303Y71551D01*
X11099Y71628D01*
X10922Y71551D01*
X10871Y71348D01*
X10922Y71170D01*
X11125Y71120D01*
X11303Y71170D01*
X11353Y71374D01*
X11125Y71374D01*
X11379Y68605D02*
X11379Y68605D01*
X11303Y68783D01*
X11099Y68859D01*
X10922Y68783D01*
X10871Y68580D01*
X10922Y68402D01*
X11125Y68351D01*
X11303Y68402D01*
X11353Y68605D01*
X11125Y68605D01*
X14224Y86614D02*
X14224Y86614D01*
X14147Y86791D01*
X13944Y86868D01*
X13766Y86791D01*
X13716Y86588D01*
X13766Y86410D01*
X13970Y86360D01*
X14147Y86410D01*
X14198Y86614D01*
X13970Y86614D01*
X14224Y83845D02*
X14224Y83845D01*
X14147Y84023D01*
X13944Y84099D01*
X13766Y84023D01*
X13716Y83820D01*
X13766Y83642D01*
X13970Y83591D01*
X14147Y83642D01*
X14198Y83845D01*
X13970Y83845D01*
X14224Y81076D02*
X14224Y81076D01*
X14147Y81254D01*
X13944Y81330D01*
X13766Y81254D01*
X13716Y81051D01*
X13766Y80873D01*
X13970Y80822D01*
X14147Y80873D01*
X14198Y81076D01*
X13970Y81076D01*
X14224Y78308D02*
X14224Y78308D01*
X14147Y78486D01*
X13944Y78562D01*
X13766Y78486D01*
X13716Y78282D01*
X13766Y78105D01*
X13970Y78054D01*
X14147Y78105D01*
X14198Y78308D01*
X13970Y78308D01*
X14224Y75539D02*
X14224Y75539D01*
X14147Y75717D01*
X13944Y75793D01*
X13766Y75717D01*
X13716Y75514D01*
X13766Y75336D01*
X13970Y75285D01*
X14147Y75336D01*
X14198Y75539D01*
X13970Y75539D01*
X14224Y72771D02*
X14224Y72771D01*
X14147Y72948D01*
X13944Y73025D01*
X13766Y72948D01*
X13716Y72745D01*
X13766Y72567D01*
X13970Y72517D01*
X14147Y72567D01*
X14198Y72771D01*
X13970Y72771D01*
X14224Y70002D02*
X14224Y70002D01*
X14147Y70180D01*
X13944Y70256D01*
X13766Y70180D01*
X13716Y69977D01*
X13766Y69799D01*
X13970Y69748D01*
X14147Y69799D01*
X14198Y70002D01*
X13970Y70002D01*
X14224Y67487D02*
X13716Y67487D01*
X13716Y66979D01*
X14224Y66979D01*
X14224Y67487D01*
X13970Y67233D01*
X15367Y24053D02*
X15367Y24053D01*
X15316Y24130D01*
X15214Y24180D01*
X15138Y24130D01*
X15113Y24028D01*
X15138Y23952D01*
X15240Y23926D01*
X15316Y23952D01*
X15341Y24053D01*
X15240Y24053D01*
X15367Y21640D02*
X15113Y21640D01*
X15113Y21386D01*
X15367Y21386D01*
X15367Y21640D01*
X15240Y21513D01*
X36957Y91363D02*
X36957Y91363D01*
X36906Y91440D01*
X36804Y91490D01*
X36728Y91440D01*
X36703Y91338D01*
X36728Y91262D01*
X36830Y91236D01*
X36906Y91262D01*
X36957Y91363D01*
X36830Y91363D01*
X36957Y94030D02*
X36703Y94030D01*
X36703Y93776D01*
X36957Y93776D01*
X36957Y94030D01*
X36830Y93903D01*
X45847Y85140D02*
X45593Y85140D01*
X45593Y84886D01*
X45847Y84886D01*
X45847Y85140D01*
X45720Y85013D01*
X43307Y85013D02*
X43307Y85013D01*
X43256Y85090D01*
X43154Y85140D01*
X43078Y85090D01*
X43053Y84988D01*
X43078Y84912D01*
X43180Y84886D01*
X43256Y84912D01*
X43307Y85013D01*
X43180Y85013D01*
X187248Y93878D02*
X187248Y93878D01*
X187198Y94234D01*
X187096Y94589D01*
X186944Y94919D01*
X186715Y95199D01*
X186461Y95453D01*
X186131Y95631D01*
X185801Y95783D01*
X185445Y95834D01*
X185064Y95834D01*
X184708Y95783D01*
X184378Y95631D01*
X184048Y95453D01*
X183794Y95199D01*
X183565Y94919D01*
X183413Y94589D01*
X183311Y94234D01*
X183286Y93853D01*
X183311Y93497D01*
X183413Y93141D01*
X183565Y92811D01*
X183794Y92532D01*
X184048Y92278D01*
X184378Y92100D01*
X184708Y91948D01*
X185064Y91897D01*
X185445Y91897D01*
X185801Y91948D01*
X186131Y92100D01*
X186461Y92278D01*
X186715Y92532D01*
X186944Y92811D01*
X187096Y93141D01*
X187198Y93497D01*
X187223Y93878D01*
X183591Y93878D01*
X186944Y93878D01*
X185267Y95554D02*
X185267Y92202D01*
X181051Y10083D02*
X181051Y10083D01*
X181000Y10439D01*
X180898Y10795D01*
X180746Y11125D01*
X180517Y11404D01*
X180263Y11658D01*
X179933Y11836D01*
X179603Y11988D01*
X179247Y12039D01*
X178866Y12039D01*
X178511Y11988D01*
X178181Y11836D01*
X177850Y11658D01*
X177596Y11404D01*
X177368Y11125D01*
X177215Y10795D01*
X177114Y10439D01*
X177088Y10058D01*
X177114Y9702D01*
X177215Y9347D01*
X177368Y9017D01*
X177596Y8737D01*
X177850Y8483D01*
X178181Y8305D01*
X178511Y8153D01*
X178866Y8102D01*
X179247Y8102D01*
X179603Y8153D01*
X179933Y8305D01*
X180263Y8483D01*
X180517Y8737D01*
X180746Y9017D01*
X180898Y9347D01*
X181000Y9702D01*
X181025Y10083D01*
X177393Y10083D01*
X180746Y10083D01*
X179070Y11760D02*
X179070Y8407D01*
X140411Y15240D02*
X140411Y15240D01*
X140360Y15595D01*
X140258Y15951D01*
X140106Y16281D01*
X139877Y16560D01*
X139623Y16814D01*
X139293Y16992D01*
X138963Y17145D01*
X138607Y17195D01*
X138226Y17195D01*
X137871Y17145D01*
X137541Y16992D01*
X137210Y16814D01*
X136956Y16560D01*
X136728Y16281D01*
X136575Y15951D01*
X136474Y15595D01*
X136448Y15214D01*
X136474Y14859D01*
X136575Y14503D01*
X136728Y14173D01*
X136956Y13893D01*
X137210Y13639D01*
X137541Y13462D01*
X137871Y13309D01*
X138226Y13258D01*
X138607Y13258D01*
X138963Y13309D01*
X139293Y13462D01*
X139623Y13639D01*
X139877Y13893D01*
X140106Y14173D01*
X140258Y14503D01*
X140360Y14859D01*
X140385Y15240D01*
X136753Y15240D01*
X140106Y15240D01*
X138430Y16916D02*
X138430Y13563D01*
X129616Y94259D02*
X129616Y94259D01*
X129565Y94615D01*
X129463Y94970D01*
X129311Y95300D01*
X129082Y95580D01*
X128828Y95834D01*
X128498Y96012D01*
X128168Y96164D01*
X127812Y96215D01*
X127431Y96215D01*
X127076Y96164D01*
X126746Y96012D01*
X126415Y95834D01*
X126161Y95580D01*
X125933Y95300D01*
X125780Y94970D01*
X125679Y94615D01*
X125653Y94234D01*
X125679Y93878D01*
X125780Y93522D01*
X125933Y93192D01*
X126161Y92913D01*
X126415Y92659D01*
X126746Y92481D01*
X127076Y92329D01*
X127431Y92278D01*
X127812Y92278D01*
X128168Y92329D01*
X128498Y92481D01*
X128828Y92659D01*
X129082Y92913D01*
X129311Y93192D01*
X129463Y93522D01*
X129565Y93878D01*
X129590Y94259D01*
X125958Y94259D01*
X129311Y94259D01*
X127635Y95935D02*
X127635Y92583D01*
X90297Y64693D02*
X90297Y64693D01*
X90246Y64770D01*
X90144Y64820D01*
X90068Y64770D01*
X90043Y64668D01*
X90068Y64592D01*
X90170Y64566D01*
X90246Y64592D01*
X90297Y64693D01*
X90170Y64693D01*
X87757Y64820D02*
X87503Y64820D01*
X87503Y64566D01*
X87757Y64566D01*
X87757Y64820D01*
X87630Y64693D01*
X71247Y85013D02*
X71247Y85013D01*
X71196Y85090D01*
X71094Y85140D01*
X71018Y85090D01*
X70993Y84988D01*
X71018Y84912D01*
X71120Y84886D01*
X71196Y84912D01*
X71247Y85013D01*
X71120Y85013D01*
X78867Y85140D02*
X78613Y85140D01*
X78613Y84886D01*
X78867Y84886D01*
X78867Y85140D01*
X78740Y85013D01*
X71247Y82473D02*
X71247Y82473D01*
X71196Y82550D01*
X71094Y82600D01*
X71018Y82550D01*
X70993Y82448D01*
X71018Y82372D01*
X71120Y82346D01*
X71196Y82372D01*
X71247Y82473D01*
X71120Y82473D01*
X78867Y82600D02*
X78613Y82600D01*
X78613Y82346D01*
X78867Y82346D01*
X78867Y82600D01*
X78740Y82473D01*
X71247Y80060D02*
X70993Y80060D01*
X70993Y79806D01*
X71247Y79806D01*
X71247Y80060D01*
X71120Y79933D01*
X78867Y79933D02*
X78867Y79933D01*
X78816Y80010D01*
X78714Y80060D01*
X78638Y80010D01*
X78613Y79908D01*
X78638Y79832D01*
X78740Y79806D01*
X78816Y79832D01*
X78867Y79933D01*
X78740Y79933D01*
X71247Y77520D02*
X70993Y77520D01*
X70993Y77266D01*
X71247Y77266D01*
X71247Y77520D01*
X71120Y77393D01*
X78867Y77393D02*
X78867Y77393D01*
X78816Y77470D01*
X78714Y77520D01*
X78638Y77470D01*
X78613Y77368D01*
X78638Y77292D01*
X78740Y77266D01*
X78816Y77292D01*
X78867Y77393D01*
X78740Y77393D01*
X78867Y74853D02*
X78867Y74853D01*
X78816Y74930D01*
X78714Y74980D01*
X78638Y74930D01*
X78613Y74828D01*
X78638Y74752D01*
X78740Y74726D01*
X78816Y74752D01*
X78867Y74853D01*
X78740Y74853D01*
X71247Y74980D02*
X70993Y74980D01*
X70993Y74726D01*
X71247Y74726D01*
X71247Y74980D01*
X71120Y74853D01*
X68707Y38100D02*
X68707Y38100D01*
X68656Y38176D01*
X68554Y38227D01*
X68478Y38176D01*
X68453Y38074D01*
X68478Y37998D01*
X68580Y37973D01*
X68656Y37998D01*
X68707Y38100D01*
X68580Y38100D01*
X68707Y40640D02*
X68707Y40640D01*
X68656Y40716D01*
X68554Y40767D01*
X68478Y40716D01*
X68453Y40614D01*
X68478Y40538D01*
X68580Y40513D01*
X68656Y40538D01*
X68707Y40640D01*
X68580Y40640D01*
X68707Y43180D02*
X68707Y43180D01*
X68656Y43256D01*
X68554Y43307D01*
X68478Y43256D01*
X68453Y43154D01*
X68478Y43078D01*
X68580Y43053D01*
X68656Y43078D01*
X68707Y43180D01*
X68580Y43180D01*
X68707Y45720D02*
X68707Y45720D01*
X68656Y45796D01*
X68554Y45847D01*
X68478Y45796D01*
X68453Y45694D01*
X68478Y45618D01*
X68580Y45593D01*
X68656Y45618D01*
X68707Y45720D01*
X68580Y45720D01*
X68707Y48260D02*
X68707Y48260D01*
X68656Y48336D01*
X68554Y48387D01*
X68478Y48336D01*
X68453Y48234D01*
X68478Y48158D01*
X68580Y48133D01*
X68656Y48158D01*
X68707Y48260D01*
X68580Y48260D01*
X68707Y50800D02*
X68707Y50800D01*
X68656Y50876D01*
X68554Y50927D01*
X68478Y50876D01*
X68453Y50774D01*
X68478Y50698D01*
X68580Y50673D01*
X68656Y50698D01*
X68707Y50800D01*
X68580Y50800D01*
X68707Y53340D02*
X68707Y53340D01*
X68656Y53416D01*
X68554Y53467D01*
X68478Y53416D01*
X68453Y53314D01*
X68478Y53238D01*
X68580Y53213D01*
X68656Y53238D01*
X68707Y53340D01*
X68580Y53340D01*
X68707Y55880D02*
X68707Y55880D01*
X68656Y55956D01*
X68554Y56007D01*
X68478Y55956D01*
X68453Y55854D01*
X68478Y55778D01*
X68580Y55753D01*
X68656Y55778D01*
X68707Y55880D01*
X68580Y55880D01*
X68707Y58420D02*
X68707Y58420D01*
X68656Y58496D01*
X68554Y58547D01*
X68478Y58496D01*
X68453Y58394D01*
X68478Y58318D01*
X68580Y58293D01*
X68656Y58318D01*
X68707Y58420D01*
X68580Y58420D01*
X68707Y60960D02*
X68707Y60960D01*
X68656Y61036D01*
X68554Y61087D01*
X68478Y61036D01*
X68453Y60934D01*
X68478Y60858D01*
X68580Y60833D01*
X68656Y60858D01*
X68707Y60960D01*
X68580Y60960D01*
X68707Y63500D02*
X68707Y63500D01*
X68656Y63576D01*
X68554Y63627D01*
X68478Y63576D01*
X68453Y63474D01*
X68478Y63398D01*
X68580Y63373D01*
X68656Y63398D01*
X68707Y63500D01*
X68580Y63500D01*
X68707Y66040D02*
X68707Y66040D01*
X68656Y66116D01*
X68554Y66167D01*
X68478Y66116D01*
X68453Y66014D01*
X68478Y65938D01*
X68580Y65913D01*
X68656Y65938D01*
X68707Y66040D01*
X68580Y66040D01*
X68707Y68580D02*
X68707Y68580D01*
X68656Y68656D01*
X68554Y68707D01*
X68478Y68656D01*
X68453Y68554D01*
X68478Y68478D01*
X68580Y68453D01*
X68656Y68478D01*
X68707Y68580D01*
X68580Y68580D01*
X71247Y68580D02*
X71247Y68580D01*
X71196Y68656D01*
X71094Y68707D01*
X71018Y68656D01*
X70993Y68554D01*
X71018Y68478D01*
X71120Y68453D01*
X71196Y68478D01*
X71247Y68580D01*
X71120Y68580D01*
X71247Y66040D02*
X71247Y66040D01*
X71196Y66116D01*
X71094Y66167D01*
X71018Y66116D01*
X70993Y66014D01*
X71018Y65938D01*
X71120Y65913D01*
X71196Y65938D01*
X71247Y66040D01*
X71120Y66040D01*
X71247Y63500D02*
X71247Y63500D01*
X71196Y63576D01*
X71094Y63627D01*
X71018Y63576D01*
X70993Y63474D01*
X71018Y63398D01*
X71120Y63373D01*
X71196Y63398D01*
X71247Y63500D01*
X71120Y63500D01*
X71247Y60960D02*
X71247Y60960D01*
X71196Y61036D01*
X71094Y61087D01*
X71018Y61036D01*
X70993Y60934D01*
X71018Y60858D01*
X71120Y60833D01*
X71196Y60858D01*
X71247Y60960D01*
X71120Y60960D01*
X71247Y58420D02*
X71247Y58420D01*
X71196Y58496D01*
X71094Y58547D01*
X71018Y58496D01*
X70993Y58394D01*
X71018Y58318D01*
X71120Y58293D01*
X71196Y58318D01*
X71247Y58420D01*
X71120Y58420D01*
X71247Y55880D02*
X71247Y55880D01*
X71196Y55956D01*
X71094Y56007D01*
X71018Y55956D01*
X70993Y55854D01*
X71018Y55778D01*
X71120Y55753D01*
X71196Y55778D01*
X71247Y55880D01*
X71120Y55880D01*
X71247Y53340D02*
X71247Y53340D01*
X71196Y53416D01*
X71094Y53467D01*
X71018Y53416D01*
X70993Y53314D01*
X71018Y53238D01*
X71120Y53213D01*
X71196Y53238D01*
X71247Y53340D01*
X71120Y53340D01*
X71247Y50800D02*
X71247Y50800D01*
X71196Y50876D01*
X71094Y50927D01*
X71018Y50876D01*
X70993Y50774D01*
X71018Y50698D01*
X71120Y50673D01*
X71196Y50698D01*
X71247Y50800D01*
X71120Y50800D01*
X71247Y48260D02*
X71247Y48260D01*
X71196Y48336D01*
X71094Y48387D01*
X71018Y48336D01*
X70993Y48234D01*
X71018Y48158D01*
X71120Y48133D01*
X71196Y48158D01*
X71247Y48260D01*
X71120Y48260D01*
X71247Y45720D02*
X71247Y45720D01*
X71196Y45796D01*
X71094Y45847D01*
X71018Y45796D01*
X70993Y45694D01*
X71018Y45618D01*
X71120Y45593D01*
X71196Y45618D01*
X71247Y45720D01*
X71120Y45720D01*
X71247Y43180D02*
X71247Y43180D01*
X71196Y43256D01*
X71094Y43307D01*
X71018Y43256D01*
X70993Y43154D01*
X71018Y43078D01*
X71120Y43053D01*
X71196Y43078D01*
X71247Y43180D01*
X71120Y43180D01*
X71247Y40640D02*
X71247Y40640D01*
X71196Y40716D01*
X71094Y40767D01*
X71018Y40716D01*
X70993Y40614D01*
X71018Y40538D01*
X71120Y40513D01*
X71196Y40538D01*
X71247Y40640D01*
X71120Y40640D01*
X71247Y38100D02*
X71247Y38100D01*
X71196Y38176D01*
X71094Y38227D01*
X71018Y38176D01*
X70993Y38074D01*
X71018Y37998D01*
X71120Y37973D01*
X71196Y37998D01*
X71247Y38100D01*
X71120Y38100D01*
X71247Y35560D02*
X71247Y35560D01*
X71196Y35636D01*
X71094Y35687D01*
X71018Y35636D01*
X70993Y35534D01*
X71018Y35458D01*
X71120Y35433D01*
X71196Y35458D01*
X71247Y35560D01*
X71120Y35560D01*
X68707Y35560D02*
X68707Y35560D01*
X68656Y35636D01*
X68554Y35687D01*
X68478Y35636D01*
X68453Y35534D01*
X68478Y35458D01*
X68580Y35433D01*
X68656Y35458D01*
X68707Y35560D01*
X68580Y35560D01*
X68707Y33020D02*
X68707Y33020D01*
X68656Y33096D01*
X68554Y33147D01*
X68478Y33096D01*
X68453Y32994D01*
X68478Y32918D01*
X68580Y32893D01*
X68656Y32918D01*
X68707Y33020D01*
X68580Y33020D01*
X71247Y33147D02*
X70993Y33147D01*
X70993Y32893D01*
X71247Y32893D01*
X71247Y33147D01*
X71120Y33020D01*
X125857Y67437D02*
X125603Y67437D01*
X125603Y67183D01*
X125857Y67183D01*
X125857Y67437D01*
X125730Y67310D01*
X128397Y67310D02*
X128397Y67310D01*
X128346Y67386D01*
X128244Y67437D01*
X128168Y67386D01*
X128143Y67284D01*
X128168Y67208D01*
X128270Y67183D01*
X128346Y67208D01*
X128397Y67310D01*
X128270Y67310D01*
X130936Y67310D02*
X130936Y67310D01*
X130886Y67386D01*
X130784Y67437D01*
X130708Y67386D01*
X130682Y67284D01*
X130708Y67208D01*
X130809Y67183D01*
X130886Y67208D01*
X130936Y67310D01*
X130809Y67310D01*
X133477Y67310D02*
X133477Y67310D01*
X133426Y67386D01*
X133324Y67437D01*
X133248Y67386D01*
X133223Y67284D01*
X133248Y67208D01*
X133350Y67183D01*
X133426Y67208D01*
X133477Y67310D01*
X133350Y67310D01*
X136017Y67310D02*
X136017Y67310D01*
X135966Y67386D01*
X135864Y67437D01*
X135788Y67386D01*
X135763Y67284D01*
X135788Y67208D01*
X135890Y67183D01*
X135966Y67208D01*
X136017Y67310D01*
X135890Y67310D01*
X138557Y67310D02*
X138557Y67310D01*
X138506Y67386D01*
X138404Y67437D01*
X138328Y67386D01*
X138303Y67284D01*
X138328Y67208D01*
X138430Y67183D01*
X138506Y67208D01*
X138557Y67310D01*
X138430Y67310D01*
X141097Y67310D02*
X141097Y67310D01*
X141046Y67386D01*
X140944Y67437D01*
X140868Y67386D01*
X140843Y67284D01*
X140868Y67208D01*
X140970Y67183D01*
X141046Y67208D01*
X141097Y67310D01*
X140970Y67310D01*
X143637Y67310D02*
X143637Y67310D01*
X143586Y67386D01*
X143484Y67437D01*
X143408Y67386D01*
X143383Y67284D01*
X143408Y67208D01*
X143510Y67183D01*
X143586Y67208D01*
X143637Y67310D01*
X143510Y67310D01*
X125857Y82550D02*
X125857Y82550D01*
X125806Y82626D01*
X125704Y82677D01*
X125628Y82626D01*
X125603Y82524D01*
X125628Y82448D01*
X125730Y82423D01*
X125806Y82448D01*
X125857Y82550D01*
X125730Y82550D01*
X128397Y82550D02*
X128397Y82550D01*
X128346Y82626D01*
X128244Y82677D01*
X128168Y82626D01*
X128143Y82524D01*
X128168Y82448D01*
X128270Y82423D01*
X128346Y82448D01*
X128397Y82550D01*
X128270Y82550D01*
X130936Y82550D02*
X130936Y82550D01*
X130886Y82626D01*
X130784Y82677D01*
X130708Y82626D01*
X130682Y82524D01*
X130708Y82448D01*
X130809Y82423D01*
X130886Y82448D01*
X130936Y82550D01*
X130809Y82550D01*
X133477Y82550D02*
X133477Y82550D01*
X133426Y82626D01*
X133324Y82677D01*
X133248Y82626D01*
X133223Y82524D01*
X133248Y82448D01*
X133350Y82423D01*
X133426Y82448D01*
X133477Y82550D01*
X133350Y82550D01*
X136017Y82550D02*
X136017Y82550D01*
X135966Y82626D01*
X135864Y82677D01*
X135788Y82626D01*
X135763Y82524D01*
X135788Y82448D01*
X135890Y82423D01*
X135966Y82448D01*
X136017Y82550D01*
X135890Y82550D01*
X138557Y82550D02*
X138557Y82550D01*
X138506Y82626D01*
X138404Y82677D01*
X138328Y82626D01*
X138303Y82524D01*
X138328Y82448D01*
X138430Y82423D01*
X138506Y82448D01*
X138557Y82550D01*
X138430Y82550D01*
X141097Y82550D02*
X141097Y82550D01*
X141046Y82626D01*
X140944Y82677D01*
X140868Y82626D01*
X140843Y82524D01*
X140868Y82448D01*
X140970Y82423D01*
X141046Y82448D01*
X141097Y82550D01*
X140970Y82550D01*
X143637Y82550D02*
X143637Y82550D01*
X143586Y82626D01*
X143484Y82677D01*
X143408Y82626D01*
X143383Y82524D01*
X143408Y82448D01*
X143510Y82423D01*
X143586Y82448D01*
X143637Y82550D01*
X143510Y82550D01*
X146177Y67310D02*
X146177Y67310D01*
X146126Y67386D01*
X146024Y67437D01*
X145948Y67386D01*
X145923Y67284D01*
X145948Y67208D01*
X146050Y67183D01*
X146126Y67208D01*
X146177Y67310D01*
X146050Y67310D01*
X148717Y67310D02*
X148717Y67310D01*
X148666Y67386D01*
X148564Y67437D01*
X148488Y67386D01*
X148463Y67284D01*
X148488Y67208D01*
X148590Y67183D01*
X148666Y67208D01*
X148717Y67310D01*
X148590Y67310D01*
X146177Y82550D02*
X146177Y82550D01*
X146126Y82626D01*
X146024Y82677D01*
X145948Y82626D01*
X145923Y82524D01*
X145948Y82448D01*
X146050Y82423D01*
X146126Y82448D01*
X146177Y82550D01*
X146050Y82550D01*
X148717Y82550D02*
X148717Y82550D01*
X148666Y82626D01*
X148564Y82677D01*
X148488Y82626D01*
X148463Y82524D01*
X148488Y82448D01*
X148590Y82423D01*
X148666Y82448D01*
X148717Y82550D01*
X148590Y82550D01*
X151257Y67310D02*
X151257Y67310D01*
X151206Y67386D01*
X151104Y67437D01*
X151028Y67386D01*
X151003Y67284D01*
X151028Y67208D01*
X151130Y67183D01*
X151206Y67208D01*
X151257Y67310D01*
X151130Y67310D01*
X153797Y67310D02*
X153797Y67310D01*
X153746Y67386D01*
X153644Y67437D01*
X153568Y67386D01*
X153543Y67284D01*
X153568Y67208D01*
X153670Y67183D01*
X153746Y67208D01*
X153797Y67310D01*
X153670Y67310D01*
X156337Y67310D02*
X156337Y67310D01*
X156286Y67386D01*
X156184Y67437D01*
X156108Y67386D01*
X156083Y67284D01*
X156108Y67208D01*
X156210Y67183D01*
X156286Y67208D01*
X156337Y67310D01*
X156210Y67310D01*
X158877Y67310D02*
X158877Y67310D01*
X158826Y67386D01*
X158724Y67437D01*
X158648Y67386D01*
X158623Y67284D01*
X158648Y67208D01*
X158750Y67183D01*
X158826Y67208D01*
X158877Y67310D01*
X158750Y67310D01*
X151257Y82550D02*
X151257Y82550D01*
X151206Y82626D01*
X151104Y82677D01*
X151028Y82626D01*
X151003Y82524D01*
X151028Y82448D01*
X151130Y82423D01*
X151206Y82448D01*
X151257Y82550D01*
X151130Y82550D01*
X153797Y82550D02*
X153797Y82550D01*
X153746Y82626D01*
X153644Y82677D01*
X153568Y82626D01*
X153543Y82524D01*
X153568Y82448D01*
X153670Y82423D01*
X153746Y82448D01*
X153797Y82550D01*
X153670Y82550D01*
X156337Y82550D02*
X156337Y82550D01*
X156286Y82626D01*
X156184Y82677D01*
X156108Y82626D01*
X156083Y82524D01*
X156108Y82448D01*
X156210Y82423D01*
X156286Y82448D01*
X156337Y82550D01*
X156210Y82550D01*
X158877Y82550D02*
X158877Y82550D01*
X158826Y82626D01*
X158724Y82677D01*
X158648Y82626D01*
X158623Y82524D01*
X158648Y82448D01*
X158750Y82423D01*
X158826Y82448D01*
X158877Y82550D01*
X158750Y82550D01*
X161417Y67310D02*
X161417Y67310D01*
X161366Y67386D01*
X161264Y67437D01*
X161188Y67386D01*
X161163Y67284D01*
X161188Y67208D01*
X161290Y67183D01*
X161366Y67208D01*
X161417Y67310D01*
X161290Y67310D01*
X163957Y67310D02*
X163957Y67310D01*
X163906Y67386D01*
X163804Y67437D01*
X163728Y67386D01*
X163703Y67284D01*
X163728Y67208D01*
X163830Y67183D01*
X163906Y67208D01*
X163957Y67310D01*
X163830Y67310D01*
X163957Y82550D02*
X163957Y82550D01*
X163906Y82626D01*
X163804Y82677D01*
X163728Y82626D01*
X163703Y82524D01*
X163728Y82448D01*
X163830Y82423D01*
X163906Y82448D01*
X163957Y82550D01*
X163830Y82550D01*
X161417Y82550D02*
X161417Y82550D01*
X161366Y82626D01*
X161264Y82677D01*
X161188Y82626D01*
X161163Y82524D01*
X161188Y82448D01*
X161290Y82423D01*
X161366Y82448D01*
X161417Y82550D01*
X161290Y82550D01*
X130936Y45847D02*
X130682Y45847D01*
X130682Y45593D01*
X130936Y45593D01*
X130936Y45847D01*
X130809Y45720D01*
X133477Y45720D02*
X133477Y45720D01*
X133426Y45796D01*
X133324Y45847D01*
X133248Y45796D01*
X133223Y45694D01*
X133248Y45618D01*
X133350Y45593D01*
X133426Y45618D01*
X133477Y45720D01*
X133350Y45720D01*
X136017Y45720D02*
X136017Y45720D01*
X135966Y45796D01*
X135864Y45847D01*
X135788Y45796D01*
X135763Y45694D01*
X135788Y45618D01*
X135890Y45593D01*
X135966Y45618D01*
X136017Y45720D01*
X135890Y45720D01*
X138557Y45720D02*
X138557Y45720D01*
X138506Y45796D01*
X138404Y45847D01*
X138328Y45796D01*
X138303Y45694D01*
X138328Y45618D01*
X138430Y45593D01*
X138506Y45618D01*
X138557Y45720D01*
X138430Y45720D01*
X141097Y45720D02*
X141097Y45720D01*
X141046Y45796D01*
X140944Y45847D01*
X140868Y45796D01*
X140843Y45694D01*
X140868Y45618D01*
X140970Y45593D01*
X141046Y45618D01*
X141097Y45720D01*
X140970Y45720D01*
X143637Y45720D02*
X143637Y45720D01*
X143586Y45796D01*
X143484Y45847D01*
X143408Y45796D01*
X143383Y45694D01*
X143408Y45618D01*
X143510Y45593D01*
X143586Y45618D01*
X143637Y45720D01*
X143510Y45720D01*
X146177Y45720D02*
X146177Y45720D01*
X146126Y45796D01*
X146024Y45847D01*
X145948Y45796D01*
X145923Y45694D01*
X145948Y45618D01*
X146050Y45593D01*
X146126Y45618D01*
X146177Y45720D01*
X146050Y45720D01*
X148717Y45720D02*
X148717Y45720D01*
X148666Y45796D01*
X148564Y45847D01*
X148488Y45796D01*
X148463Y45694D01*
X148488Y45618D01*
X148590Y45593D01*
X148666Y45618D01*
X148717Y45720D01*
X148590Y45720D01*
X130936Y60960D02*
X130936Y60960D01*
X130886Y61036D01*
X130784Y61087D01*
X130708Y61036D01*
X130682Y60934D01*
X130708Y60858D01*
X130809Y60833D01*
X130886Y60858D01*
X130936Y60960D01*
X130809Y60960D01*
X133477Y60960D02*
X133477Y60960D01*
X133426Y61036D01*
X133324Y61087D01*
X133248Y61036D01*
X133223Y60934D01*
X133248Y60858D01*
X133350Y60833D01*
X133426Y60858D01*
X133477Y60960D01*
X133350Y60960D01*
X136017Y60960D02*
X136017Y60960D01*
X135966Y61036D01*
X135864Y61087D01*
X135788Y61036D01*
X135763Y60934D01*
X135788Y60858D01*
X135890Y60833D01*
X135966Y60858D01*
X136017Y60960D01*
X135890Y60960D01*
X138557Y60960D02*
X138557Y60960D01*
X138506Y61036D01*
X138404Y61087D01*
X138328Y61036D01*
X138303Y60934D01*
X138328Y60858D01*
X138430Y60833D01*
X138506Y60858D01*
X138557Y60960D01*
X138430Y60960D01*
X141097Y60960D02*
X141097Y60960D01*
X141046Y61036D01*
X140944Y61087D01*
X140868Y61036D01*
X140843Y60934D01*
X140868Y60858D01*
X140970Y60833D01*
X141046Y60858D01*
X141097Y60960D01*
X140970Y60960D01*
X143637Y60960D02*
X143637Y60960D01*
X143586Y61036D01*
X143484Y61087D01*
X143408Y61036D01*
X143383Y60934D01*
X143408Y60858D01*
X143510Y60833D01*
X143586Y60858D01*
X143637Y60960D01*
X143510Y60960D01*
X146177Y60960D02*
X146177Y60960D01*
X146126Y61036D01*
X146024Y61087D01*
X145948Y61036D01*
X145923Y60934D01*
X145948Y60858D01*
X146050Y60833D01*
X146126Y60858D01*
X146177Y60960D01*
X146050Y60960D01*
X148717Y60960D02*
X148717Y60960D01*
X148666Y61036D01*
X148564Y61087D01*
X148488Y61036D01*
X148463Y60934D01*
X148488Y60858D01*
X148590Y60833D01*
X148666Y60858D01*
X148717Y60960D01*
X148590Y60960D01*
X151257Y45720D02*
X151257Y45720D01*
X151206Y45796D01*
X151104Y45847D01*
X151028Y45796D01*
X151003Y45694D01*
X151028Y45618D01*
X151130Y45593D01*
X151206Y45618D01*
X151257Y45720D01*
X151130Y45720D01*
X153797Y45720D02*
X153797Y45720D01*
X153746Y45796D01*
X153644Y45847D01*
X153568Y45796D01*
X153543Y45694D01*
X153568Y45618D01*
X153670Y45593D01*
X153746Y45618D01*
X153797Y45720D01*
X153670Y45720D01*
X151257Y60960D02*
X151257Y60960D01*
X151206Y61036D01*
X151104Y61087D01*
X151028Y61036D01*
X151003Y60934D01*
X151028Y60858D01*
X151130Y60833D01*
X151206Y60858D01*
X151257Y60960D01*
X151130Y60960D01*
X153797Y60960D02*
X153797Y60960D01*
X153746Y61036D01*
X153644Y61087D01*
X153568Y61036D01*
X153543Y60934D01*
X153568Y60858D01*
X153670Y60833D01*
X153746Y60858D01*
X153797Y60960D01*
X153670Y60960D01*
X156337Y45720D02*
X156337Y45720D01*
X156286Y45796D01*
X156184Y45847D01*
X156108Y45796D01*
X156083Y45694D01*
X156108Y45618D01*
X156210Y45593D01*
X156286Y45618D01*
X156337Y45720D01*
X156210Y45720D01*
X158877Y45720D02*
X158877Y45720D01*
X158826Y45796D01*
X158724Y45847D01*
X158648Y45796D01*
X158623Y45694D01*
X158648Y45618D01*
X158750Y45593D01*
X158826Y45618D01*
X158877Y45720D01*
X158750Y45720D01*
X161417Y45720D02*
X161417Y45720D01*
X161366Y45796D01*
X161264Y45847D01*
X161188Y45796D01*
X161163Y45694D01*
X161188Y45618D01*
X161290Y45593D01*
X161366Y45618D01*
X161417Y45720D01*
X161290Y45720D01*
X163957Y45720D02*
X163957Y45720D01*
X163906Y45796D01*
X163804Y45847D01*
X163728Y45796D01*
X163703Y45694D01*
X163728Y45618D01*
X163830Y45593D01*
X163906Y45618D01*
X163957Y45720D01*
X163830Y45720D01*
X156337Y60960D02*
X156337Y60960D01*
X156286Y61036D01*
X156184Y61087D01*
X156108Y61036D01*
X156083Y60934D01*
X156108Y60858D01*
X156210Y60833D01*
X156286Y60858D01*
X156337Y60960D01*
X156210Y60960D01*
X158877Y60960D02*
X158877Y60960D01*
X158826Y61036D01*
X158724Y61087D01*
X158648Y61036D01*
X158623Y60934D01*
X158648Y60858D01*
X158750Y60833D01*
X158826Y60858D01*
X158877Y60960D01*
X158750Y60960D01*
X161417Y60960D02*
X161417Y60960D01*
X161366Y61036D01*
X161264Y61087D01*
X161188Y61036D01*
X161163Y60934D01*
X161188Y60858D01*
X161290Y60833D01*
X161366Y60858D01*
X161417Y60960D01*
X161290Y60960D01*
X163957Y60960D02*
X163957Y60960D01*
X163906Y61036D01*
X163804Y61087D01*
X163728Y61036D01*
X163703Y60934D01*
X163728Y60858D01*
X163830Y60833D01*
X163906Y60858D01*
X163957Y60960D01*
X163830Y60960D01*
X174599Y22225D02*
X174599Y22225D01*
X174498Y22682D01*
X174218Y23088D01*
X173812Y23368D01*
X173329Y23469D01*
X172872Y23368D01*
X172466Y23088D01*
X172186Y22682D01*
X172110Y22199D01*
X172186Y21742D01*
X172466Y21336D01*
X172872Y21056D01*
X173355Y20980D01*
X173812Y21056D01*
X174218Y21336D01*
X174498Y21742D01*
X174574Y22225D01*
X172415Y22225D01*
X174294Y22225D01*
X173355Y23164D02*
X173355Y21285D01*
X174599Y83185D02*
X174599Y83185D01*
X174498Y83642D01*
X174218Y84048D01*
X173812Y84328D01*
X173329Y84429D01*
X172872Y84328D01*
X172466Y84048D01*
X172186Y83642D01*
X172110Y83159D01*
X172186Y82702D01*
X172466Y82296D01*
X172872Y82016D01*
X173355Y81940D01*
X173812Y82016D01*
X174218Y82296D01*
X174498Y82702D01*
X174574Y83185D01*
X172415Y83185D01*
X174294Y83185D01*
X173355Y84124D02*
X173355Y82245D01*
X156057Y87630D02*
X156057Y87630D01*
X156032Y87960D01*
X155956Y88290D01*
X155829Y88620D01*
X155676Y88900D01*
X155473Y89179D01*
X155219Y89433D01*
X154940Y89636D01*
X154660Y89789D01*
X154330Y89916D01*
X154000Y89992D01*
X153644Y90017D01*
X153314Y89992D01*
X152984Y89916D01*
X152654Y89789D01*
X152374Y89636D01*
X152095Y89433D01*
X151841Y89179D01*
X151638Y88900D01*
X151485Y88620D01*
X151358Y88290D01*
X151282Y87960D01*
X151282Y87604D01*
X151282Y87274D01*
X151358Y86944D01*
X151485Y86614D01*
X151638Y86334D01*
X151841Y86055D01*
X152095Y85801D01*
X152374Y85598D01*
X152654Y85445D01*
X152984Y85318D01*
X153314Y85242D01*
X153670Y85242D01*
X154000Y85242D01*
X154330Y85318D01*
X154660Y85445D01*
X154940Y85598D01*
X155219Y85801D01*
X155473Y86055D01*
X155676Y86334D01*
X155829Y86614D01*
X155956Y86944D01*
X156032Y87274D01*
X156032Y87630D01*
X151587Y87630D01*
X155752Y87630D01*
X153670Y89712D02*
X153670Y85547D01*
X156057Y17780D02*
X156057Y17780D01*
X156032Y18110D01*
X155956Y18440D01*
X155829Y18770D01*
X155676Y19050D01*
X155473Y19329D01*
X155219Y19583D01*
X154940Y19786D01*
X154660Y19939D01*
X154330Y20066D01*
X154000Y20142D01*
X153644Y20142D01*
X153314Y20142D01*
X152984Y20066D01*
X152654Y19939D01*
X152374Y19786D01*
X152095Y19583D01*
X151841Y19329D01*
X151638Y19050D01*
X151485Y18770D01*
X151358Y18440D01*
X151282Y18110D01*
X151282Y17754D01*
X151282Y17424D01*
X151358Y17094D01*
X151485Y16764D01*
X151638Y16484D01*
X151841Y16205D01*
X152095Y15951D01*
X152374Y15748D01*
X152654Y15595D01*
X152984Y15468D01*
X153314Y15392D01*
X153670Y15392D01*
X154000Y15392D01*
X154330Y15468D01*
X154660Y15595D01*
X154940Y15748D01*
X155219Y15951D01*
X155473Y16205D01*
X155676Y16484D01*
X155829Y16764D01*
X155956Y17094D01*
X156032Y17424D01*
X156032Y17780D01*
X151587Y17780D01*
X155752Y17780D01*
X153670Y19862D02*
X153670Y15697D01*
X181737Y27940D02*
X181737Y27940D01*
X181686Y28016D01*
X181584Y28067D01*
X181508Y28016D01*
X181483Y27914D01*
X181508Y27838D01*
X181610Y27813D01*
X181686Y27838D01*
X181737Y27940D01*
X181610Y27940D01*
X184327Y29210D02*
X184327Y29210D01*
X184277Y29286D01*
X184175Y29337D01*
X184099Y29286D01*
X184073Y29184D01*
X184099Y29108D01*
X184200Y29083D01*
X184277Y29108D01*
X184327Y29210D01*
X184200Y29210D01*
X181737Y30480D02*
X181737Y30480D01*
X181686Y30556D01*
X181584Y30607D01*
X181508Y30556D01*
X181483Y30454D01*
X181508Y30378D01*
X181610Y30353D01*
X181686Y30378D01*
X181737Y30480D01*
X181610Y30480D01*
X184327Y31750D02*
X184327Y31750D01*
X184277Y31826D01*
X184175Y31877D01*
X184099Y31826D01*
X184073Y31724D01*
X184099Y31648D01*
X184200Y31623D01*
X184277Y31648D01*
X184327Y31750D01*
X184200Y31750D01*
X181737Y33020D02*
X181737Y33020D01*
X181686Y33096D01*
X181584Y33147D01*
X181508Y33096D01*
X181483Y32994D01*
X181508Y32918D01*
X181610Y32893D01*
X181686Y32918D01*
X181737Y33020D01*
X181610Y33020D01*
X184327Y34290D02*
X184327Y34290D01*
X184277Y34366D01*
X184175Y34417D01*
X184099Y34366D01*
X184073Y34264D01*
X184099Y34188D01*
X184200Y34163D01*
X184277Y34188D01*
X184327Y34290D01*
X184200Y34290D01*
X181737Y35560D02*
X181737Y35560D01*
X181686Y35636D01*
X181584Y35687D01*
X181508Y35636D01*
X181483Y35534D01*
X181508Y35458D01*
X181610Y35433D01*
X181686Y35458D01*
X181737Y35560D01*
X181610Y35560D01*
X184327Y36830D02*
X184327Y36830D01*
X184277Y36906D01*
X184175Y36957D01*
X184099Y36906D01*
X184073Y36804D01*
X184099Y36728D01*
X184200Y36703D01*
X184277Y36728D01*
X184327Y36830D01*
X184200Y36830D01*
X181737Y38100D02*
X181737Y38100D01*
X181686Y38176D01*
X181584Y38227D01*
X181508Y38176D01*
X181483Y38074D01*
X181508Y37998D01*
X181610Y37973D01*
X181686Y37998D01*
X181737Y38100D01*
X181610Y38100D01*
X184327Y39370D02*
X184327Y39370D01*
X184277Y39446D01*
X184175Y39497D01*
X184099Y39446D01*
X184073Y39344D01*
X184099Y39268D01*
X184200Y39243D01*
X184277Y39268D01*
X184327Y39370D01*
X184200Y39370D01*
X181737Y40640D02*
X181737Y40640D01*
X181686Y40716D01*
X181584Y40767D01*
X181508Y40716D01*
X181483Y40614D01*
X181508Y40538D01*
X181610Y40513D01*
X181686Y40538D01*
X181737Y40640D01*
X181610Y40640D01*
X184327Y41910D02*
X184327Y41910D01*
X184277Y41986D01*
X184175Y42037D01*
X184099Y41986D01*
X184073Y41884D01*
X184099Y41808D01*
X184200Y41783D01*
X184277Y41808D01*
X184327Y41910D01*
X184200Y41910D01*
X181737Y43180D02*
X181737Y43180D01*
X181686Y43256D01*
X181584Y43307D01*
X181508Y43256D01*
X181483Y43154D01*
X181508Y43078D01*
X181610Y43053D01*
X181686Y43078D01*
X181737Y43180D01*
X181610Y43180D01*
X184327Y44450D02*
X184327Y44450D01*
X184277Y44526D01*
X184175Y44577D01*
X184099Y44526D01*
X184073Y44424D01*
X184099Y44348D01*
X184200Y44323D01*
X184277Y44348D01*
X184327Y44450D01*
X184200Y44450D01*
X181737Y45720D02*
X181737Y45720D01*
X181686Y45796D01*
X181584Y45847D01*
X181508Y45796D01*
X181483Y45694D01*
X181508Y45618D01*
X181610Y45593D01*
X181686Y45618D01*
X181737Y45720D01*
X181610Y45720D01*
X184327Y46990D02*
X184327Y46990D01*
X184277Y47066D01*
X184175Y47117D01*
X184099Y47066D01*
X184073Y46964D01*
X184099Y46888D01*
X184200Y46863D01*
X184277Y46888D01*
X184327Y46990D01*
X184200Y46990D01*
X181737Y48260D02*
X181737Y48260D01*
X181686Y48336D01*
X181584Y48387D01*
X181508Y48336D01*
X181483Y48234D01*
X181508Y48158D01*
X181610Y48133D01*
X181686Y48158D01*
X181737Y48260D01*
X181610Y48260D01*
X184327Y49530D02*
X184327Y49530D01*
X184277Y49606D01*
X184175Y49657D01*
X184099Y49606D01*
X184073Y49504D01*
X184099Y49428D01*
X184200Y49403D01*
X184277Y49428D01*
X184327Y49530D01*
X184200Y49530D01*
X181737Y50800D02*
X181737Y50800D01*
X181686Y50876D01*
X181584Y50927D01*
X181508Y50876D01*
X181483Y50774D01*
X181508Y50698D01*
X181610Y50673D01*
X181686Y50698D01*
X181737Y50800D01*
X181610Y50800D01*
X184327Y52070D02*
X184327Y52070D01*
X184277Y52146D01*
X184175Y52197D01*
X184099Y52146D01*
X184073Y52044D01*
X184099Y51968D01*
X184200Y51943D01*
X184277Y51968D01*
X184327Y52070D01*
X184200Y52070D01*
X181737Y53340D02*
X181737Y53340D01*
X181686Y53416D01*
X181584Y53467D01*
X181508Y53416D01*
X181483Y53314D01*
X181508Y53238D01*
X181610Y53213D01*
X181686Y53238D01*
X181737Y53340D01*
X181610Y53340D01*
X184327Y54610D02*
X184327Y54610D01*
X184277Y54686D01*
X184175Y54737D01*
X184099Y54686D01*
X184073Y54584D01*
X184099Y54508D01*
X184200Y54483D01*
X184277Y54508D01*
X184327Y54610D01*
X184200Y54610D01*
X181737Y55880D02*
X181737Y55880D01*
X181686Y55956D01*
X181584Y56007D01*
X181508Y55956D01*
X181483Y55854D01*
X181508Y55778D01*
X181610Y55753D01*
X181686Y55778D01*
X181737Y55880D01*
X181610Y55880D01*
X184327Y57150D02*
X184327Y57150D01*
X184277Y57226D01*
X184175Y57277D01*
X184099Y57226D01*
X184073Y57124D01*
X184099Y57048D01*
X184200Y57023D01*
X184277Y57048D01*
X184327Y57150D01*
X184200Y57150D01*
X181737Y58420D02*
X181737Y58420D01*
X181686Y58496D01*
X181584Y58547D01*
X181508Y58496D01*
X181483Y58394D01*
X181508Y58318D01*
X181610Y58293D01*
X181686Y58318D01*
X181737Y58420D01*
X181610Y58420D01*
X184327Y59690D02*
X184327Y59690D01*
X184277Y59766D01*
X184175Y59817D01*
X184099Y59766D01*
X184073Y59664D01*
X184099Y59588D01*
X184200Y59563D01*
X184277Y59588D01*
X184327Y59690D01*
X184200Y59690D01*
X181737Y60960D02*
X181737Y60960D01*
X181686Y61036D01*
X181584Y61087D01*
X181508Y61036D01*
X181483Y60934D01*
X181508Y60858D01*
X181610Y60833D01*
X181686Y60858D01*
X181737Y60960D01*
X181610Y60960D01*
X184327Y62230D02*
X184327Y62230D01*
X184277Y62306D01*
X184175Y62357D01*
X184099Y62306D01*
X184073Y62204D01*
X184099Y62128D01*
X184200Y62103D01*
X184277Y62128D01*
X184327Y62230D01*
X184200Y62230D01*
X181737Y63500D02*
X181737Y63500D01*
X181686Y63576D01*
X181584Y63627D01*
X181508Y63576D01*
X181483Y63474D01*
X181508Y63398D01*
X181610Y63373D01*
X181686Y63398D01*
X181737Y63500D01*
X181610Y63500D01*
X184327Y64770D02*
X184327Y64770D01*
X184277Y64846D01*
X184175Y64897D01*
X184099Y64846D01*
X184073Y64744D01*
X184099Y64668D01*
X184200Y64643D01*
X184277Y64668D01*
X184327Y64770D01*
X184200Y64770D01*
X181737Y66040D02*
X181737Y66040D01*
X181686Y66116D01*
X181584Y66167D01*
X181508Y66116D01*
X181483Y66014D01*
X181508Y65938D01*
X181610Y65913D01*
X181686Y65938D01*
X181737Y66040D01*
X181610Y66040D01*
X184327Y67310D02*
X184327Y67310D01*
X184277Y67386D01*
X184175Y67437D01*
X184099Y67386D01*
X184073Y67284D01*
X184099Y67208D01*
X184200Y67183D01*
X184277Y67208D01*
X184327Y67310D01*
X184200Y67310D01*
X181737Y68580D02*
X181737Y68580D01*
X181686Y68656D01*
X181584Y68707D01*
X181508Y68656D01*
X181483Y68554D01*
X181508Y68478D01*
X181610Y68453D01*
X181686Y68478D01*
X181737Y68580D01*
X181610Y68580D01*
X184327Y69850D02*
X184327Y69850D01*
X184277Y69926D01*
X184175Y69977D01*
X184099Y69926D01*
X184073Y69824D01*
X184099Y69748D01*
X184200Y69723D01*
X184277Y69748D01*
X184327Y69850D01*
X184200Y69850D01*
X181737Y71120D02*
X181737Y71120D01*
X181686Y71196D01*
X181584Y71247D01*
X181508Y71196D01*
X181483Y71094D01*
X181508Y71018D01*
X181610Y70993D01*
X181686Y71018D01*
X181737Y71120D01*
X181610Y71120D01*
X184327Y72390D02*
X184327Y72390D01*
X184277Y72466D01*
X184175Y72517D01*
X184099Y72466D01*
X184073Y72364D01*
X184099Y72288D01*
X184200Y72263D01*
X184277Y72288D01*
X184327Y72390D01*
X184200Y72390D01*
X181737Y73660D02*
X181737Y73660D01*
X181686Y73736D01*
X181584Y73787D01*
X181508Y73736D01*
X181483Y73634D01*
X181508Y73558D01*
X181610Y73533D01*
X181686Y73558D01*
X181737Y73660D01*
X181610Y73660D01*
X184327Y74930D02*
X184327Y74930D01*
X184277Y75006D01*
X184175Y75057D01*
X184099Y75006D01*
X184073Y74904D01*
X184099Y74828D01*
X184200Y74803D01*
X184277Y74828D01*
X184327Y74930D01*
X184200Y74930D01*
X181737Y76200D02*
X181737Y76200D01*
X181686Y76276D01*
X181584Y76327D01*
X181508Y76276D01*
X181483Y76174D01*
X181508Y76098D01*
X181610Y76073D01*
X181686Y76098D01*
X181737Y76200D01*
X181610Y76200D01*
X184327Y77470D02*
X184327Y77470D01*
X184277Y77546D01*
X184175Y77597D01*
X184099Y77546D01*
X184073Y77444D01*
X184099Y77368D01*
X184200Y77343D01*
X184277Y77368D01*
X184327Y77470D01*
X184200Y77470D01*
X96520Y29210D02*
X96520Y29210D01*
X96520Y31750D02*
X96520Y31750D01*
X99060Y29210D02*
X99060Y29210D01*
X99060Y31750D02*
X99060Y31750D01*
X101600Y29210D02*
X101600Y29210D01*
X101600Y31750D02*
X101600Y31750D01*
X104140Y29210D02*
X104140Y29210D01*
X104140Y31750D02*
X104140Y31750D01*
X106680Y29210D02*
X106680Y29210D01*
X106680Y31750D02*
X106680Y31750D01*
X109220Y29210D02*
X109220Y29210D01*
X111760Y31750D02*
X111760Y31750D01*
X109220Y31750D02*
X109220Y31750D01*
X111760Y34290D02*
X111760Y34290D01*
X109220Y34290D02*
X109220Y34290D01*
X111760Y36830D02*
X111760Y36830D01*
X109220Y36830D02*
X109220Y36830D01*
X111760Y39370D02*
X111760Y39370D01*
X109220Y39370D02*
X109220Y39370D01*
X111760Y41910D02*
X111760Y41910D01*
X109220Y41910D02*
X109220Y41910D01*
X111760Y44450D02*
X111760Y44450D01*
X109220Y44450D02*
X109220Y44450D01*
X111760Y46990D02*
X111760Y46990D01*
X109220Y46990D02*
X109220Y46990D01*
X111760Y49530D02*
X111760Y49530D01*
X109220Y49530D02*
X109220Y49530D01*
X111760Y52070D02*
X111760Y52070D01*
X109220Y52070D02*
X109220Y52070D01*
X111760Y54610D02*
X111760Y54610D01*
X109220Y54610D02*
X109220Y54610D01*
X111760Y57150D02*
X111760Y57150D01*
X109220Y59690D02*
X109220Y59690D01*
X109220Y57150D02*
X109220Y57150D01*
X106680Y59690D02*
X106680Y59690D01*
X106680Y57150D02*
X106680Y57150D01*
X104140Y59690D02*
X104140Y59690D01*
X104140Y57150D02*
X104140Y57150D01*
X101600Y59690D02*
X101600Y59690D01*
X101600Y57150D02*
X101600Y57150D01*
X99060Y59690D02*
X99060Y59690D01*
X99060Y57150D02*
X99060Y57150D01*
X96520Y59690D02*
X96520Y59690D01*
X96520Y57150D02*
X96520Y57150D01*
X93980Y59690D02*
X93980Y59690D01*
X93980Y57150D02*
X93980Y57150D01*
X91440Y59690D02*
X91440Y59690D01*
X91440Y57150D02*
X91440Y57150D01*
X88900Y59690D02*
X88900Y59690D01*
X88900Y57150D02*
X88900Y57150D01*
X86360Y59690D02*
X86360Y59690D01*
X86360Y57150D02*
X86360Y57150D01*
X83820Y59690D02*
X83820Y59690D01*
X81280Y57150D02*
X81280Y57150D01*
X83820Y57150D02*
X83820Y57150D01*
X81280Y54610D02*
X81280Y54610D01*
X83820Y54610D02*
X83820Y54610D01*
X81280Y52070D02*
X81280Y52070D01*
X83820Y52070D02*
X83820Y52070D01*
X81280Y49530D02*
X81280Y49530D01*
X83820Y49530D02*
X83820Y49530D01*
X81280Y46990D02*
X81280Y46990D01*
X83820Y46990D02*
X83820Y46990D01*
X81280Y44450D02*
X81280Y44450D01*
X83820Y44450D02*
X83820Y44450D01*
X81280Y41910D02*
X81280Y41910D01*
X83820Y41910D02*
X83820Y41910D01*
X81280Y39370D02*
X81280Y39370D01*
X83820Y39370D02*
X83820Y39370D01*
X81280Y36830D02*
X81280Y36830D01*
X83820Y36830D02*
X83820Y36830D01*
X81280Y34290D02*
X81280Y34290D01*
X83820Y34290D02*
X83820Y34290D01*
X81280Y31750D02*
X81280Y31750D01*
X83820Y29210D02*
X83820Y29210D01*
X83820Y31750D02*
X83820Y31750D01*
X86360Y29210D02*
X86360Y29210D01*
X86360Y31750D02*
X86360Y31750D01*
X88900Y29210D02*
X88900Y29210D01*
X88900Y31750D02*
X88900Y31750D01*
X91440Y29210D02*
X91440Y29210D01*
X91440Y31750D02*
X91440Y31750D01*
X93980Y29210D02*
X93980Y29210D01*
X93980Y31750D02*
X93980Y31750D01*
X86487Y91440D02*
X86487Y91440D01*
X86436Y91516D01*
X86334Y91567D01*
X86258Y91516D01*
X86233Y91414D01*
X86258Y91338D01*
X86360Y91313D01*
X86436Y91338D01*
X86487Y91440D01*
X86360Y91440D01*
X86487Y93980D02*
X86487Y93980D01*
X86436Y94056D01*
X86334Y94107D01*
X86258Y94056D01*
X86233Y93954D01*
X86258Y93878D01*
X86360Y93853D01*
X86436Y93878D01*
X86487Y93980D01*
X86360Y93980D01*
X94107Y93980D02*
X94107Y93980D01*
X94056Y94056D01*
X93954Y94107D01*
X93878Y94056D01*
X93853Y93954D01*
X93878Y93878D01*
X93980Y93853D01*
X94056Y93878D01*
X94107Y93980D01*
X93980Y93980D01*
X94107Y91440D02*
X94107Y91440D01*
X94056Y91516D01*
X93954Y91567D01*
X93878Y91516D01*
X93853Y91414D01*
X93878Y91338D01*
X93980Y91313D01*
X94056Y91338D01*
X94107Y91440D01*
X93980Y91440D01*
X86487Y71120D02*
X86487Y71120D01*
X86436Y71196D01*
X86334Y71247D01*
X86258Y71196D01*
X86233Y71094D01*
X86258Y71018D01*
X86360Y70993D01*
X86436Y71018D01*
X86487Y71120D01*
X86360Y71120D01*
X86487Y73660D02*
X86487Y73660D01*
X86436Y73736D01*
X86334Y73787D01*
X86258Y73736D01*
X86233Y73634D01*
X86258Y73558D01*
X86360Y73533D01*
X86436Y73558D01*
X86487Y73660D01*
X86360Y73660D01*
X86487Y76200D02*
X86487Y76200D01*
X86436Y76276D01*
X86334Y76327D01*
X86258Y76276D01*
X86233Y76174D01*
X86258Y76098D01*
X86360Y76073D01*
X86436Y76098D01*
X86487Y76200D01*
X86360Y76200D01*
X86487Y78740D02*
X86487Y78740D01*
X86436Y78816D01*
X86334Y78867D01*
X86258Y78816D01*
X86233Y78714D01*
X86258Y78638D01*
X86360Y78613D01*
X86436Y78638D01*
X86487Y78740D01*
X86360Y78740D01*
X86487Y81280D02*
X86487Y81280D01*
X86436Y81356D01*
X86334Y81407D01*
X86258Y81356D01*
X86233Y81254D01*
X86258Y81178D01*
X86360Y81153D01*
X86436Y81178D01*
X86487Y81280D01*
X86360Y81280D01*
X86487Y83820D02*
X86487Y83820D01*
X86436Y83896D01*
X86334Y83947D01*
X86258Y83896D01*
X86233Y83794D01*
X86258Y83718D01*
X86360Y83693D01*
X86436Y83718D01*
X86487Y83820D01*
X86360Y83820D01*
X86487Y86360D02*
X86487Y86360D01*
X86436Y86436D01*
X86334Y86487D01*
X86258Y86436D01*
X86233Y86334D01*
X86258Y86258D01*
X86360Y86233D01*
X86436Y86258D01*
X86487Y86360D01*
X86360Y86360D01*
X86487Y88900D02*
X86487Y88900D01*
X86436Y88976D01*
X86334Y89027D01*
X86258Y88976D01*
X86233Y88874D01*
X86258Y88798D01*
X86360Y88773D01*
X86436Y88798D01*
X86487Y88900D01*
X86360Y88900D01*
X94107Y88900D02*
X94107Y88900D01*
X94056Y88976D01*
X93954Y89027D01*
X93878Y88976D01*
X93853Y88874D01*
X93878Y88798D01*
X93980Y88773D01*
X94056Y88798D01*
X94107Y88900D01*
X93980Y88900D01*
X94107Y86360D02*
X94107Y86360D01*
X94056Y86436D01*
X93954Y86487D01*
X93878Y86436D01*
X93853Y86334D01*
X93878Y86258D01*
X93980Y86233D01*
X94056Y86258D01*
X94107Y86360D01*
X93980Y86360D01*
X94107Y83820D02*
X94107Y83820D01*
X94056Y83896D01*
X93954Y83947D01*
X93878Y83896D01*
X93853Y83794D01*
X93878Y83718D01*
X93980Y83693D01*
X94056Y83718D01*
X94107Y83820D01*
X93980Y83820D01*
X94107Y81280D02*
X94107Y81280D01*
X94056Y81356D01*
X93954Y81407D01*
X93878Y81356D01*
X93853Y81254D01*
X93878Y81178D01*
X93980Y81153D01*
X94056Y81178D01*
X94107Y81280D01*
X93980Y81280D01*
X94107Y78740D02*
X94107Y78740D01*
X94056Y78816D01*
X93954Y78867D01*
X93878Y78816D01*
X93853Y78714D01*
X93878Y78638D01*
X93980Y78613D01*
X94056Y78638D01*
X94107Y78740D01*
X93980Y78740D01*
X94107Y76200D02*
X94107Y76200D01*
X94056Y76276D01*
X93954Y76327D01*
X93878Y76276D01*
X93853Y76174D01*
X93878Y76098D01*
X93980Y76073D01*
X94056Y76098D01*
X94107Y76200D01*
X93980Y76200D01*
X94107Y73660D02*
X94107Y73660D01*
X94056Y73736D01*
X93954Y73787D01*
X93878Y73736D01*
X93853Y73634D01*
X93878Y73558D01*
X93980Y73533D01*
X94056Y73558D01*
X94107Y73660D01*
X93980Y73660D01*
X94107Y71247D02*
X93853Y71247D01*
X93853Y70993D01*
X94107Y70993D01*
X94107Y71247D01*
X93980Y71120D01*
X106807Y91567D02*
X106553Y91567D01*
X106553Y91313D01*
X106807Y91313D01*
X106807Y91567D01*
X106680Y91440D01*
X106807Y88900D02*
X106807Y88900D01*
X106756Y88976D01*
X106654Y89027D01*
X106578Y88976D01*
X106553Y88874D01*
X106578Y88798D01*
X106680Y88773D01*
X106756Y88798D01*
X106807Y88900D01*
X106680Y88900D01*
X106807Y86360D02*
X106807Y86360D01*
X106756Y86436D01*
X106654Y86487D01*
X106578Y86436D01*
X106553Y86334D01*
X106578Y86258D01*
X106680Y86233D01*
X106756Y86258D01*
X106807Y86360D01*
X106680Y86360D01*
X106807Y83820D02*
X106807Y83820D01*
X106756Y83896D01*
X106654Y83947D01*
X106578Y83896D01*
X106553Y83794D01*
X106578Y83718D01*
X106680Y83693D01*
X106756Y83718D01*
X106807Y83820D01*
X106680Y83820D01*
X106807Y81280D02*
X106807Y81280D01*
X106756Y81356D01*
X106654Y81407D01*
X106578Y81356D01*
X106553Y81254D01*
X106578Y81178D01*
X106680Y81153D01*
X106756Y81178D01*
X106807Y81280D01*
X106680Y81280D01*
X106807Y78740D02*
X106807Y78740D01*
X106756Y78816D01*
X106654Y78867D01*
X106578Y78816D01*
X106553Y78714D01*
X106578Y78638D01*
X106680Y78613D01*
X106756Y78638D01*
X106807Y78740D01*
X106680Y78740D01*
X106807Y76200D02*
X106807Y76200D01*
X106756Y76276D01*
X106654Y76327D01*
X106578Y76276D01*
X106553Y76174D01*
X106578Y76098D01*
X106680Y76073D01*
X106756Y76098D01*
X106807Y76200D01*
X106680Y76200D01*
X106807Y73660D02*
X106807Y73660D01*
X106756Y73736D01*
X106654Y73787D01*
X106578Y73736D01*
X106553Y73634D01*
X106578Y73558D01*
X106680Y73533D01*
X106756Y73558D01*
X106807Y73660D01*
X106680Y73660D01*
X114427Y73660D02*
X114427Y73660D01*
X114376Y73736D01*
X114274Y73787D01*
X114198Y73736D01*
X114173Y73634D01*
X114198Y73558D01*
X114300Y73533D01*
X114376Y73558D01*
X114427Y73660D01*
X114300Y73660D01*
X114427Y76200D02*
X114427Y76200D01*
X114376Y76276D01*
X114274Y76327D01*
X114198Y76276D01*
X114173Y76174D01*
X114198Y76098D01*
X114300Y76073D01*
X114376Y76098D01*
X114427Y76200D01*
X114300Y76200D01*
X114427Y78740D02*
X114427Y78740D01*
X114376Y78816D01*
X114274Y78867D01*
X114198Y78816D01*
X114173Y78714D01*
X114198Y78638D01*
X114300Y78613D01*
X114376Y78638D01*
X114427Y78740D01*
X114300Y78740D01*
X114427Y81280D02*
X114427Y81280D01*
X114376Y81356D01*
X114274Y81407D01*
X114198Y81356D01*
X114173Y81254D01*
X114198Y81178D01*
X114300Y81153D01*
X114376Y81178D01*
X114427Y81280D01*
X114300Y81280D01*
X114427Y83820D02*
X114427Y83820D01*
X114376Y83896D01*
X114274Y83947D01*
X114198Y83896D01*
X114173Y83794D01*
X114198Y83718D01*
X114300Y83693D01*
X114376Y83718D01*
X114427Y83820D01*
X114300Y83820D01*
X114427Y86360D02*
X114427Y86360D01*
X114376Y86436D01*
X114274Y86487D01*
X114198Y86436D01*
X114173Y86334D01*
X114198Y86258D01*
X114300Y86233D01*
X114376Y86258D01*
X114427Y86360D01*
X114300Y86360D01*
X114427Y88900D02*
X114427Y88900D01*
X114376Y88976D01*
X114274Y89027D01*
X114198Y88976D01*
X114173Y88874D01*
X114198Y88798D01*
X114300Y88773D01*
X114376Y88798D01*
X114427Y88900D01*
X114300Y88900D01*
X114427Y91440D02*
X114427Y91440D01*
X114376Y91516D01*
X114274Y91567D01*
X114198Y91516D01*
X114173Y91414D01*
X114198Y91338D01*
X114300Y91313D01*
X114376Y91338D01*
X114427Y91440D01*
X114300Y91440D01*
X106807Y71120D02*
X106807Y71120D01*
X106756Y71196D01*
X106654Y71247D01*
X106578Y71196D01*
X106553Y71094D01*
X106578Y71018D01*
X106680Y70993D01*
X106756Y71018D01*
X106807Y71120D01*
X106680Y71120D01*
X106807Y68580D02*
X106807Y68580D01*
X106756Y68656D01*
X106654Y68707D01*
X106578Y68656D01*
X106553Y68554D01*
X106578Y68478D01*
X106680Y68453D01*
X106756Y68478D01*
X106807Y68580D01*
X106680Y68580D01*
X114427Y68580D02*
X114427Y68580D01*
X114376Y68656D01*
X114274Y68707D01*
X114198Y68656D01*
X114173Y68554D01*
X114198Y68478D01*
X114300Y68453D01*
X114376Y68478D01*
X114427Y68580D01*
X114300Y68580D01*
X114427Y71120D02*
X114427Y71120D01*
X114376Y71196D01*
X114274Y71247D01*
X114198Y71196D01*
X114173Y71094D01*
X114198Y71018D01*
X114300Y70993D01*
X114376Y71018D01*
X114427Y71120D01*
X114300Y71120D01*
X45847Y48387D02*
X45593Y48387D01*
X45593Y48133D01*
X45847Y48133D01*
X45847Y48387D01*
X45720Y48260D01*
X45847Y50800D02*
X45847Y50800D01*
X45796Y50876D01*
X45694Y50927D01*
X45618Y50876D01*
X45593Y50774D01*
X45618Y50698D01*
X45720Y50673D01*
X45796Y50698D01*
X45847Y50800D01*
X45720Y50800D01*
X45847Y53340D02*
X45847Y53340D01*
X45796Y53416D01*
X45694Y53467D01*
X45618Y53416D01*
X45593Y53314D01*
X45618Y53238D01*
X45720Y53213D01*
X45796Y53238D01*
X45847Y53340D01*
X45720Y53340D01*
X45847Y55880D02*
X45847Y55880D01*
X45796Y55956D01*
X45694Y56007D01*
X45618Y55956D01*
X45593Y55854D01*
X45618Y55778D01*
X45720Y55753D01*
X45796Y55778D01*
X45847Y55880D01*
X45720Y55880D01*
X45847Y58420D02*
X45847Y58420D01*
X45796Y58496D01*
X45694Y58547D01*
X45618Y58496D01*
X45593Y58394D01*
X45618Y58318D01*
X45720Y58293D01*
X45796Y58318D01*
X45847Y58420D01*
X45720Y58420D01*
X45847Y60960D02*
X45847Y60960D01*
X45796Y61036D01*
X45694Y61087D01*
X45618Y61036D01*
X45593Y60934D01*
X45618Y60858D01*
X45720Y60833D01*
X45796Y60858D01*
X45847Y60960D01*
X45720Y60960D01*
X45847Y63500D02*
X45847Y63500D01*
X45796Y63576D01*
X45694Y63627D01*
X45618Y63576D01*
X45593Y63474D01*
X45618Y63398D01*
X45720Y63373D01*
X45796Y63398D01*
X45847Y63500D01*
X45720Y63500D01*
X45847Y66040D02*
X45847Y66040D01*
X45796Y66116D01*
X45694Y66167D01*
X45618Y66116D01*
X45593Y66014D01*
X45618Y65938D01*
X45720Y65913D01*
X45796Y65938D01*
X45847Y66040D01*
X45720Y66040D01*
X38227Y48260D02*
X38227Y48260D01*
X38176Y48336D01*
X38074Y48387D01*
X37998Y48336D01*
X37973Y48234D01*
X37998Y48158D01*
X38100Y48133D01*
X38176Y48158D01*
X38227Y48260D01*
X38100Y48260D01*
X38227Y50800D02*
X38227Y50800D01*
X38176Y50876D01*
X38074Y50927D01*
X37998Y50876D01*
X37973Y50774D01*
X37998Y50698D01*
X38100Y50673D01*
X38176Y50698D01*
X38227Y50800D01*
X38100Y50800D01*
X38227Y53340D02*
X38227Y53340D01*
X38176Y53416D01*
X38074Y53467D01*
X37998Y53416D01*
X37973Y53314D01*
X37998Y53238D01*
X38100Y53213D01*
X38176Y53238D01*
X38227Y53340D01*
X38100Y53340D01*
X38227Y55880D02*
X38227Y55880D01*
X38176Y55956D01*
X38074Y56007D01*
X37998Y55956D01*
X37973Y55854D01*
X37998Y55778D01*
X38100Y55753D01*
X38176Y55778D01*
X38227Y55880D01*
X38100Y55880D01*
X38227Y58420D02*
X38227Y58420D01*
X38176Y58496D01*
X38074Y58547D01*
X37998Y58496D01*
X37973Y58394D01*
X37998Y58318D01*
X38100Y58293D01*
X38176Y58318D01*
X38227Y58420D01*
X38100Y58420D01*
X38227Y60960D02*
X38227Y60960D01*
X38176Y61036D01*
X38074Y61087D01*
X37998Y61036D01*
X37973Y60934D01*
X37998Y60858D01*
X38100Y60833D01*
X38176Y60858D01*
X38227Y60960D01*
X38100Y60960D01*
X38227Y63500D02*
X38227Y63500D01*
X38176Y63576D01*
X38074Y63627D01*
X37998Y63576D01*
X37973Y63474D01*
X37998Y63398D01*
X38100Y63373D01*
X38176Y63398D01*
X38227Y63500D01*
X38100Y63500D01*
X38227Y66040D02*
X38227Y66040D01*
X38176Y66116D01*
X38074Y66167D01*
X37998Y66116D01*
X37973Y66014D01*
X37998Y65938D01*
X38100Y65913D01*
X38176Y65938D01*
X38227Y66040D01*
X38100Y66040D01*
X45847Y68580D02*
X45847Y68580D01*
X45796Y68656D01*
X45694Y68707D01*
X45618Y68656D01*
X45593Y68554D01*
X45618Y68478D01*
X45720Y68453D01*
X45796Y68478D01*
X45847Y68580D01*
X45720Y68580D01*
X45847Y71120D02*
X45847Y71120D01*
X45796Y71196D01*
X45694Y71247D01*
X45618Y71196D01*
X45593Y71094D01*
X45618Y71018D01*
X45720Y70993D01*
X45796Y71018D01*
X45847Y71120D01*
X45720Y71120D01*
X38227Y68580D02*
X38227Y68580D01*
X38176Y68656D01*
X38074Y68707D01*
X37998Y68656D01*
X37973Y68554D01*
X37998Y68478D01*
X38100Y68453D01*
X38176Y68478D01*
X38227Y68580D01*
X38100Y68580D01*
X38227Y71120D02*
X38227Y71120D01*
X38176Y71196D01*
X38074Y71247D01*
X37998Y71196D01*
X37973Y71094D01*
X37998Y71018D01*
X38100Y70993D01*
X38176Y71018D01*
X38227Y71120D01*
X38100Y71120D01*
X45847Y73660D02*
X45847Y73660D01*
X45796Y73736D01*
X45694Y73787D01*
X45618Y73736D01*
X45593Y73634D01*
X45618Y73558D01*
X45720Y73533D01*
X45796Y73558D01*
X45847Y73660D01*
X45720Y73660D01*
X45847Y76200D02*
X45847Y76200D01*
X45796Y76276D01*
X45694Y76327D01*
X45618Y76276D01*
X45593Y76174D01*
X45618Y76098D01*
X45720Y76073D01*
X45796Y76098D01*
X45847Y76200D01*
X45720Y76200D01*
X38227Y73660D02*
X38227Y73660D01*
X38176Y73736D01*
X38074Y73787D01*
X37998Y73736D01*
X37973Y73634D01*
X37998Y73558D01*
X38100Y73533D01*
X38176Y73558D01*
X38227Y73660D01*
X38100Y73660D01*
X38227Y76200D02*
X38227Y76200D01*
X38176Y76276D01*
X38074Y76327D01*
X37998Y76276D01*
X37973Y76174D01*
X37998Y76098D01*
X38100Y76073D01*
X38176Y76098D01*
X38227Y76200D01*
X38100Y76200D01*
X50927Y69850D02*
X50927Y69850D01*
X50876Y69926D01*
X50774Y69977D01*
X50698Y69926D01*
X50673Y69824D01*
X50698Y69748D01*
X50800Y69723D01*
X50876Y69748D01*
X50927Y69850D01*
X50800Y69850D01*
X50927Y72517D02*
X50673Y72517D01*
X50673Y72263D01*
X50927Y72263D01*
X50927Y72517D01*
X50800Y72390D01*
X50927Y78740D02*
X50927Y78740D01*
X50876Y78816D01*
X50774Y78867D01*
X50698Y78816D01*
X50673Y78714D01*
X50698Y78638D01*
X50800Y78613D01*
X50876Y78638D01*
X50927Y78740D01*
X50800Y78740D01*
X50927Y76327D02*
X50673Y76327D01*
X50673Y76073D01*
X50927Y76073D01*
X50927Y76327D01*
X50800Y76200D01*
X33147Y76327D02*
X32893Y76327D01*
X32893Y76073D01*
X33147Y76073D01*
X33147Y76327D01*
X33020Y76200D01*
X33147Y73660D02*
X33147Y73660D01*
X33096Y73736D01*
X32994Y73787D01*
X32918Y73736D01*
X32893Y73634D01*
X32918Y73558D01*
X33020Y73533D01*
X33096Y73558D01*
X33147Y73660D01*
X33020Y73660D01*
X16637Y49657D02*
X16382Y49657D01*
X16382Y49403D01*
X16637Y49403D01*
X16637Y49657D01*
X16510Y49530D01*
X21717Y49530D02*
X21717Y49530D01*
X21666Y49606D01*
X21564Y49657D01*
X21488Y49606D01*
X21463Y49504D01*
X21488Y49428D01*
X21590Y49403D01*
X21666Y49428D01*
X21691Y49530D01*
X21590Y49530D01*
X16637Y45847D02*
X16382Y45847D01*
X16382Y45593D01*
X16637Y45593D01*
X16637Y45847D01*
X16510Y45720D01*
X21717Y45720D02*
X21717Y45720D01*
X21666Y45796D01*
X21564Y45847D01*
X21488Y45796D01*
X21463Y45694D01*
X21488Y45618D01*
X21590Y45593D01*
X21666Y45618D01*
X21691Y45720D01*
X21590Y45720D01*
X43307Y34417D02*
X43053Y34417D01*
X43053Y34163D01*
X43307Y34163D01*
X43307Y34417D01*
X43180Y34290D01*
X40767Y34290D02*
X40767Y34290D01*
X40716Y34366D01*
X40614Y34417D01*
X40538Y34366D01*
X40513Y34264D01*
X40538Y34188D01*
X40640Y34163D01*
X40716Y34188D01*
X40767Y34290D01*
X40640Y34290D01*
X38227Y34290D02*
X38227Y34290D01*
X38176Y34366D01*
X38074Y34417D01*
X37998Y34366D01*
X37973Y34264D01*
X37998Y34188D01*
X38100Y34163D01*
X38176Y34188D01*
X38227Y34290D01*
X38100Y34290D01*
X35687Y34290D02*
X35687Y34290D01*
X35636Y34366D01*
X35534Y34417D01*
X35458Y34366D01*
X35433Y34264D01*
X35458Y34188D01*
X35560Y34163D01*
X35636Y34188D01*
X35687Y34290D01*
X35560Y34290D01*
X33147Y34290D02*
X33147Y34290D01*
X33096Y34366D01*
X32994Y34417D01*
X32918Y34366D01*
X32893Y34264D01*
X32918Y34188D01*
X33020Y34163D01*
X33096Y34188D01*
X33147Y34290D01*
X33020Y34290D01*
X30607Y34290D02*
X30607Y34290D01*
X30556Y34366D01*
X30454Y34417D01*
X30378Y34366D01*
X30353Y34264D01*
X30378Y34188D01*
X30480Y34163D01*
X30556Y34188D01*
X30607Y34290D01*
X30480Y34290D01*
X28067Y34290D02*
X28067Y34290D01*
X28016Y34366D01*
X27914Y34417D01*
X27838Y34366D01*
X27813Y34264D01*
X27838Y34188D01*
X27940Y34163D01*
X28016Y34188D01*
X28067Y34290D01*
X27940Y34290D01*
X25527Y34290D02*
X25527Y34290D01*
X25476Y34366D01*
X25374Y34417D01*
X25298Y34366D01*
X25273Y34264D01*
X25298Y34188D01*
X25400Y34163D01*
X25476Y34188D01*
X25501Y34290D01*
X25400Y34290D01*
X25527Y26670D02*
X25527Y26670D01*
X25476Y26746D01*
X25374Y26797D01*
X25298Y26746D01*
X25273Y26644D01*
X25298Y26568D01*
X25400Y26543D01*
X25476Y26568D01*
X25501Y26670D01*
X25400Y26670D01*
X28067Y26670D02*
X28067Y26670D01*
X28016Y26746D01*
X27914Y26797D01*
X27838Y26746D01*
X27813Y26644D01*
X27838Y26568D01*
X27940Y26543D01*
X28016Y26568D01*
X28067Y26670D01*
X27940Y26670D01*
X30607Y26670D02*
X30607Y26670D01*
X30556Y26746D01*
X30454Y26797D01*
X30378Y26746D01*
X30353Y26644D01*
X30378Y26568D01*
X30480Y26543D01*
X30556Y26568D01*
X30607Y26670D01*
X30480Y26670D01*
X33147Y26670D02*
X33147Y26670D01*
X33096Y26746D01*
X32994Y26797D01*
X32918Y26746D01*
X32893Y26644D01*
X32918Y26568D01*
X33020Y26543D01*
X33096Y26568D01*
X33147Y26670D01*
X33020Y26670D01*
X35687Y26670D02*
X35687Y26670D01*
X35636Y26746D01*
X35534Y26797D01*
X35458Y26746D01*
X35433Y26644D01*
X35458Y26568D01*
X35560Y26543D01*
X35636Y26568D01*
X35687Y26670D01*
X35560Y26670D01*
X38227Y26670D02*
X38227Y26670D01*
X38176Y26746D01*
X38074Y26797D01*
X37998Y26746D01*
X37973Y26644D01*
X37998Y26568D01*
X38100Y26543D01*
X38176Y26568D01*
X38227Y26670D01*
X38100Y26670D01*
X40767Y26670D02*
X40767Y26670D01*
X40716Y26746D01*
X40614Y26797D01*
X40538Y26746D01*
X40513Y26644D01*
X40538Y26568D01*
X40640Y26543D01*
X40716Y26568D01*
X40767Y26670D01*
X40640Y26670D01*
X43307Y26670D02*
X43307Y26670D01*
X43256Y26746D01*
X43154Y26797D01*
X43078Y26746D01*
X43053Y26644D01*
X43078Y26568D01*
X43180Y26543D01*
X43256Y26568D01*
X43307Y26670D01*
X43180Y26670D01*
X22987Y34290D02*
X22987Y34290D01*
X22936Y34366D01*
X22834Y34417D01*
X22758Y34366D01*
X22733Y34264D01*
X22758Y34188D01*
X22860Y34163D01*
X22936Y34188D01*
X22961Y34290D01*
X22860Y34290D01*
X22987Y26670D02*
X22987Y26670D01*
X22936Y26746D01*
X22834Y26797D01*
X22758Y26746D01*
X22733Y26644D01*
X22758Y26568D01*
X22860Y26543D01*
X22936Y26568D01*
X22961Y26670D01*
X22860Y26670D01*
X43307Y15240D02*
X43307Y15240D01*
X43256Y15316D01*
X43154Y15367D01*
X43078Y15316D01*
X43053Y15214D01*
X43078Y15138D01*
X43180Y15113D01*
X43256Y15138D01*
X43307Y15240D01*
X43180Y15240D01*
X43307Y22987D02*
X43053Y22987D01*
X43053Y22733D01*
X43307Y22733D01*
X43307Y22987D01*
X43180Y22860D01*
X39497Y15240D02*
X39497Y15240D01*
X39446Y15316D01*
X39344Y15367D01*
X39268Y15316D01*
X39243Y15214D01*
X39268Y15138D01*
X39370Y15113D01*
X39446Y15138D01*
X39497Y15240D01*
X39370Y15240D01*
X39497Y22987D02*
X39243Y22987D01*
X39243Y22733D01*
X39497Y22733D01*
X39497Y22987D01*
X39370Y22860D01*
X28067Y22987D02*
X27813Y22987D01*
X27813Y22733D01*
X28067Y22733D01*
X28067Y22987D01*
X27940Y22860D01*
X28067Y15240D02*
X28067Y15240D01*
X28016Y15316D01*
X27914Y15367D01*
X27838Y15316D01*
X27813Y15214D01*
X27838Y15138D01*
X27940Y15113D01*
X28016Y15138D01*
X28067Y15240D01*
X27940Y15240D01*
X31877Y15240D02*
X31877Y15240D01*
X31826Y15316D01*
X31724Y15367D01*
X31648Y15316D01*
X31623Y15214D01*
X31648Y15138D01*
X31750Y15113D01*
X31826Y15138D01*
X31877Y15240D01*
X31750Y15240D01*
X31877Y22987D02*
X31623Y22987D01*
X31623Y22733D01*
X31877Y22733D01*
X31877Y22987D01*
X31750Y22860D01*
X35687Y15240D02*
X35687Y15240D01*
X35636Y15316D01*
X35534Y15367D01*
X35458Y15316D01*
X35433Y15214D01*
X35458Y15138D01*
X35560Y15113D01*
X35636Y15138D01*
X35687Y15240D01*
X35560Y15240D01*
X35687Y22987D02*
X35433Y22987D01*
X35433Y22733D01*
X35687Y22733D01*
X35687Y22987D01*
X35560Y22860D01*
X30607Y7620D02*
X30607Y7620D01*
X30556Y7696D01*
X30454Y7747D01*
X30378Y7696D01*
X30353Y7594D01*
X30378Y7518D01*
X30480Y7493D01*
X30556Y7518D01*
X30607Y7620D01*
X30480Y7620D01*
X33147Y7620D02*
X33147Y7620D01*
X33096Y7696D01*
X32994Y7747D01*
X32918Y7696D01*
X32893Y7594D01*
X32918Y7518D01*
X33020Y7493D01*
X33096Y7518D01*
X33147Y7620D01*
X33020Y7620D01*
X35687Y7620D02*
X35687Y7620D01*
X35636Y7696D01*
X35534Y7747D01*
X35458Y7696D01*
X35433Y7594D01*
X35458Y7518D01*
X35560Y7493D01*
X35636Y7518D01*
X35687Y7620D01*
X35560Y7620D01*
X38227Y7620D02*
X38227Y7620D01*
X38176Y7696D01*
X38074Y7747D01*
X37998Y7696D01*
X37973Y7594D01*
X37998Y7518D01*
X38100Y7493D01*
X38176Y7518D01*
X38227Y7620D01*
X38100Y7620D01*
X40767Y7620D02*
X40767Y7620D01*
X40716Y7696D01*
X40614Y7747D01*
X40538Y7696D01*
X40513Y7594D01*
X40538Y7518D01*
X40640Y7493D01*
X40716Y7518D01*
X40767Y7620D01*
X40640Y7620D01*
X43307Y7747D02*
X43053Y7747D01*
X43053Y7493D01*
X43307Y7493D01*
X43307Y7747D01*
X43180Y7620D01*
X57277Y7620D02*
X57277Y7620D01*
X57226Y7696D01*
X57124Y7747D01*
X57048Y7696D01*
X57023Y7594D01*
X57048Y7518D01*
X57150Y7493D01*
X57226Y7518D01*
X57277Y7620D01*
X57150Y7620D01*
X57277Y15367D02*
X57023Y15367D01*
X57023Y15113D01*
X57277Y15113D01*
X57277Y15367D01*
X57150Y15240D01*
X63627Y14097D02*
X63373Y14097D01*
X63373Y13843D01*
X63627Y13843D01*
X63627Y14097D01*
X63500Y13970D01*
X63627Y16510D02*
X63627Y16510D01*
X63576Y16586D01*
X63474Y16637D01*
X63398Y16586D01*
X63373Y16484D01*
X63398Y16408D01*
X63500Y16382D01*
X63576Y16408D01*
X63627Y16510D01*
X63500Y16510D01*
X71247Y21717D02*
X70993Y21717D01*
X70993Y21463D01*
X71247Y21463D01*
X71247Y21717D01*
X71120Y21590D01*
X71247Y16510D02*
X71247Y16510D01*
X71196Y16586D01*
X71094Y16637D01*
X71018Y16586D01*
X70993Y16484D01*
X71018Y16408D01*
X71120Y16382D01*
X71196Y16408D01*
X71247Y16510D01*
X71120Y16510D01*
X81610Y20320D02*
X81610Y20320D01*
X81559Y20396D01*
X81457Y20447D01*
X81381Y20396D01*
X81356Y20294D01*
X81381Y20218D01*
X81483Y20193D01*
X81559Y20218D01*
X81610Y20320D01*
X81483Y20320D01*
X76377Y20320D02*
X76377Y20320D01*
X76327Y20396D01*
X76225Y20447D01*
X76149Y20396D01*
X76123Y20294D01*
X76149Y20218D01*
X76250Y20193D01*
X76327Y20218D01*
X76377Y20320D01*
X76250Y20320D01*
X75057Y7747D02*
X74803Y7747D01*
X74803Y7493D01*
X75057Y7493D01*
X75057Y7747D01*
X74930Y7620D01*
X75057Y13970D02*
X75057Y13970D01*
X75006Y14046D01*
X74904Y14097D01*
X74828Y14046D01*
X74803Y13944D01*
X74828Y13868D01*
X74930Y13843D01*
X75006Y13868D01*
X75057Y13970D01*
X74930Y13970D01*
X80137Y13970D02*
X80137Y13970D01*
X80086Y14046D01*
X79984Y14097D01*
X79908Y14046D01*
X79883Y13944D01*
X79908Y13868D01*
X80010Y13843D01*
X80086Y13868D01*
X80137Y13970D01*
X80010Y13970D01*
X80137Y7747D02*
X79883Y7747D01*
X79883Y7493D01*
X80137Y7493D01*
X80137Y7747D01*
X80010Y7620D01*
X77597Y7747D02*
X77343Y7747D01*
X77343Y7493D01*
X77597Y7493D01*
X77597Y7747D01*
X77470Y7620D01*
X77597Y13970D02*
X77597Y13970D01*
X77546Y14046D01*
X77444Y14097D01*
X77368Y14046D01*
X77343Y13944D01*
X77368Y13868D01*
X77470Y13843D01*
X77546Y13868D01*
X77597Y13970D01*
X77470Y13970D01*
X82677Y13970D02*
X82677Y13970D01*
X82626Y14046D01*
X82524Y14097D01*
X82448Y14046D01*
X82423Y13944D01*
X82448Y13868D01*
X82550Y13843D01*
X82626Y13868D01*
X82677Y13970D01*
X82550Y13970D01*
X82677Y7747D02*
X82423Y7747D01*
X82423Y7493D01*
X82677Y7493D01*
X82677Y7747D01*
X82550Y7620D01*
X92837Y12700D02*
X92837Y12700D01*
X92786Y12776D01*
X92684Y12827D01*
X92608Y12776D01*
X92583Y12674D01*
X92608Y12598D01*
X92710Y12573D01*
X92786Y12598D01*
X92837Y12700D01*
X92710Y12700D01*
X92837Y10287D02*
X92583Y10287D01*
X92583Y10033D01*
X92837Y10033D01*
X92837Y10287D01*
X92710Y10160D01*
X97917Y16510D02*
X97917Y16510D01*
X97866Y16586D01*
X97764Y16637D01*
X97688Y16586D01*
X97663Y16484D01*
X97688Y16408D01*
X97790Y16382D01*
X97866Y16408D01*
X97917Y16510D01*
X97790Y16510D01*
X97917Y24257D02*
X97663Y24257D01*
X97663Y24003D01*
X97917Y24003D01*
X97917Y24257D01*
X97790Y24130D01*
X102997Y17780D02*
X102997Y17780D01*
X102946Y17856D01*
X102844Y17907D01*
X102768Y17856D01*
X102743Y17754D01*
X102768Y17678D01*
X102870Y17653D01*
X102946Y17678D01*
X102997Y17780D01*
X102870Y17780D01*
X102997Y20447D02*
X102743Y20447D01*
X102743Y20193D01*
X102997Y20193D01*
X102997Y20447D01*
X102870Y20320D01*
X113157Y13970D02*
X113157Y13970D01*
X113106Y14046D01*
X113004Y14097D01*
X112928Y14046D01*
X112903Y13944D01*
X112928Y13868D01*
X113030Y13843D01*
X113106Y13868D01*
X113157Y13970D01*
X113030Y13970D01*
X115697Y13970D02*
X115697Y13970D01*
X115646Y14046D01*
X115544Y14097D01*
X115468Y14046D01*
X115443Y13944D01*
X115468Y13868D01*
X115570Y13843D01*
X115646Y13868D01*
X115697Y13970D01*
X115570Y13970D01*
X118237Y13970D02*
X118237Y13970D01*
X118186Y14046D01*
X118084Y14097D01*
X118008Y14046D01*
X117983Y13944D01*
X118008Y13868D01*
X118110Y13843D01*
X118186Y13868D01*
X118237Y13970D01*
X118110Y13970D01*
X113157Y6350D02*
X113157Y6350D01*
X113106Y6426D01*
X113004Y6477D01*
X112928Y6426D01*
X112903Y6324D01*
X112928Y6248D01*
X113030Y6223D01*
X113106Y6248D01*
X113157Y6350D01*
X113030Y6350D01*
X115697Y6350D02*
X115697Y6350D01*
X115646Y6426D01*
X115544Y6477D01*
X115468Y6426D01*
X115443Y6324D01*
X115468Y6248D01*
X115570Y6223D01*
X115646Y6248D01*
X115697Y6350D01*
X115570Y6350D01*
X118237Y6350D02*
X118237Y6350D01*
X118186Y6426D01*
X118084Y6477D01*
X118008Y6426D01*
X117983Y6324D01*
X118008Y6248D01*
X118110Y6223D01*
X118186Y6248D01*
X118237Y6350D01*
X118110Y6350D01*
X120777Y6350D02*
X120777Y6350D01*
X120726Y6426D01*
X120624Y6477D01*
X120548Y6426D01*
X120523Y6324D01*
X120548Y6248D01*
X120650Y6223D01*
X120726Y6248D01*
X120777Y6350D01*
X120650Y6350D01*
X123317Y6350D02*
X123317Y6350D01*
X123266Y6426D01*
X123164Y6477D01*
X123088Y6426D01*
X123063Y6324D01*
X123088Y6248D01*
X123190Y6223D01*
X123266Y6248D01*
X123317Y6350D01*
X123190Y6350D01*
X125857Y6350D02*
X125857Y6350D01*
X125806Y6426D01*
X125704Y6477D01*
X125628Y6426D01*
X125603Y6324D01*
X125628Y6248D01*
X125730Y6223D01*
X125806Y6248D01*
X125857Y6350D01*
X125730Y6350D01*
X128397Y6350D02*
X128397Y6350D01*
X128346Y6426D01*
X128244Y6477D01*
X128168Y6426D01*
X128143Y6324D01*
X128168Y6248D01*
X128270Y6223D01*
X128346Y6248D01*
X128397Y6350D01*
X128270Y6350D01*
X120777Y13970D02*
X120777Y13970D01*
X120726Y14046D01*
X120624Y14097D01*
X120548Y14046D01*
X120523Y13944D01*
X120548Y13868D01*
X120650Y13843D01*
X120726Y13868D01*
X120777Y13970D01*
X120650Y13970D01*
X123317Y13970D02*
X123317Y13970D01*
X123266Y14046D01*
X123164Y14097D01*
X123088Y14046D01*
X123063Y13944D01*
X123088Y13868D01*
X123190Y13843D01*
X123266Y13868D01*
X123317Y13970D01*
X123190Y13970D01*
X125857Y13970D02*
X125857Y13970D01*
X125806Y14046D01*
X125704Y14097D01*
X125628Y14046D01*
X125603Y13944D01*
X125628Y13868D01*
X125730Y13843D01*
X125806Y13868D01*
X125857Y13970D01*
X125730Y13970D01*
X128397Y14097D02*
X128143Y14097D01*
X128143Y13843D01*
X128397Y13843D01*
X128397Y14097D01*
X128270Y13970D01*
X133477Y8890D02*
X133477Y8890D01*
X133426Y8966D01*
X133324Y9017D01*
X133248Y8966D01*
X133223Y8864D01*
X133248Y8788D01*
X133350Y8763D01*
X133426Y8788D01*
X133477Y8890D01*
X133350Y8890D01*
X133477Y6477D02*
X133223Y6477D01*
X133223Y6223D01*
X133477Y6223D01*
X133477Y6477D01*
X133350Y6350D01*
X118110Y93319D02*
X118110Y93319D01*
X118059Y93395D01*
X117957Y93446D01*
X117881Y93395D01*
X117856Y93294D01*
X117881Y93218D01*
X117983Y93192D01*
X118059Y93218D01*
X118110Y93319D01*
X117983Y93319D01*
X118110Y90906D02*
X117856Y90906D01*
X117856Y90652D01*
X118110Y90652D01*
X118110Y90906D01*
X117983Y90779D01*
X21717Y53467D02*
X21463Y53467D01*
X21463Y53213D01*
X21717Y53213D01*
X21717Y53467D01*
X21590Y53340D01*
X19177Y53340D02*
X19177Y53340D01*
X19126Y53416D01*
X19024Y53467D01*
X18948Y53416D01*
X18923Y53314D01*
X18948Y53238D01*
X19050Y53213D01*
X19126Y53238D01*
X19151Y53340D01*
X19050Y53340D01*
X7747Y26670D02*
X7747Y26670D01*
X7696Y26746D01*
X7594Y26797D01*
X7518Y26746D01*
X7493Y26644D01*
X7518Y26568D01*
X7620Y26543D01*
X7696Y26568D01*
X7721Y26670D01*
X7620Y26670D01*
X7747Y24257D02*
X7493Y24257D01*
X7493Y24003D01*
X7747Y24003D01*
X7747Y24257D01*
X7620Y24130D01*
X95377Y24257D02*
X95123Y24257D01*
X95123Y24003D01*
X95377Y24003D01*
X95377Y24257D01*
X95250Y24130D01*
X95377Y16510D02*
X95377Y16510D01*
X95326Y16586D01*
X95224Y16637D01*
X95148Y16586D01*
X95123Y16484D01*
X95148Y16408D01*
X95250Y16382D01*
X95326Y16408D01*
X95377Y16510D01*
X95250Y16510D01*
X86487Y19177D02*
X86233Y19177D01*
X86233Y18923D01*
X86487Y18923D01*
X86487Y19177D01*
X86360Y19050D01*
X91567Y19050D02*
X91567Y19050D01*
X91516Y19126D01*
X91414Y19177D01*
X91338Y19126D01*
X91313Y19024D01*
X91338Y18948D01*
X91440Y18923D01*
X91516Y18948D01*
X91567Y19050D01*
X91440Y19050D01*
X86487Y16357D02*
X86233Y16357D01*
X86233Y16103D01*
X86487Y16103D01*
X86487Y16357D01*
X86360Y16230D01*
X86487Y8610D02*
X86487Y8610D01*
X86436Y8686D01*
X86334Y8737D01*
X86258Y8686D01*
X86233Y8585D01*
X86258Y8509D01*
X86360Y8483D01*
X86436Y8509D01*
X86487Y8610D01*
X86360Y8610D01*
X7747Y38100D02*
X7747Y38100D01*
X7696Y38176D01*
X7594Y38227D01*
X7518Y38176D01*
X7493Y38074D01*
X7518Y37998D01*
X7620Y37973D01*
X7696Y37998D01*
X7721Y38100D01*
X7620Y38100D01*
X15367Y38227D02*
X15113Y38227D01*
X15113Y37973D01*
X15367Y37973D01*
X15367Y38227D01*
X15240Y38100D01*
X15367Y42037D02*
X15113Y42037D01*
X15113Y41783D01*
X15367Y41783D01*
X15367Y42037D01*
X15240Y41910D01*
X7747Y41910D02*
X7747Y41910D01*
X7696Y41986D01*
X7594Y42037D01*
X7518Y41986D01*
X7493Y41884D01*
X7518Y41808D01*
X7620Y41783D01*
X7696Y41808D01*
X7721Y41910D01*
X7620Y41910D01*
X122047Y83820D02*
X122047Y83820D01*
X121996Y83896D01*
X121894Y83947D01*
X121818Y83896D01*
X121793Y83794D01*
X121818Y83718D01*
X121920Y83693D01*
X121996Y83718D01*
X122047Y83820D01*
X121920Y83820D01*
X122047Y81407D02*
X121793Y81407D01*
X121793Y81153D01*
X122047Y81153D01*
X122047Y81407D01*
X121920Y81280D01*
X136017Y22987D02*
X135763Y22987D01*
X135763Y22733D01*
X136017Y22733D01*
X136017Y22987D01*
X135890Y22860D01*
X138557Y22860D02*
X138557Y22860D01*
X138506Y22936D01*
X138404Y22987D01*
X138328Y22936D01*
X138303Y22834D01*
X138328Y22758D01*
X138430Y22733D01*
X138506Y22758D01*
X138557Y22860D01*
X138430Y22860D01*
X141097Y22860D02*
X141097Y22860D01*
X141046Y22936D01*
X140944Y22987D01*
X140868Y22936D01*
X140843Y22834D01*
X140868Y22758D01*
X140970Y22733D01*
X141046Y22758D01*
X141097Y22860D01*
X140970Y22860D01*
X143637Y22860D02*
X143637Y22860D01*
X143586Y22936D01*
X143484Y22987D01*
X143408Y22936D01*
X143383Y22834D01*
X143408Y22758D01*
X143510Y22733D01*
X143586Y22758D01*
X143637Y22860D01*
X143510Y22860D01*
X146177Y22860D02*
X146177Y22860D01*
X146126Y22936D01*
X146024Y22987D01*
X145948Y22936D01*
X145923Y22834D01*
X145948Y22758D01*
X146050Y22733D01*
X146126Y22758D01*
X146177Y22860D01*
X146050Y22860D01*
X148717Y22860D02*
X148717Y22860D01*
X148666Y22936D01*
X148564Y22987D01*
X148488Y22936D01*
X148463Y22834D01*
X148488Y22758D01*
X148590Y22733D01*
X148666Y22758D01*
X148717Y22860D01*
X148590Y22860D01*
X151257Y22860D02*
X151257Y22860D01*
X151206Y22936D01*
X151104Y22987D01*
X151028Y22936D01*
X151003Y22834D01*
X151028Y22758D01*
X151130Y22733D01*
X151206Y22758D01*
X151257Y22860D01*
X151130Y22860D01*
X153797Y22860D02*
X153797Y22860D01*
X153746Y22936D01*
X153644Y22987D01*
X153568Y22936D01*
X153543Y22834D01*
X153568Y22758D01*
X153670Y22733D01*
X153746Y22758D01*
X153797Y22860D01*
X153670Y22860D01*
X153797Y38100D02*
X153797Y38100D01*
X153746Y38176D01*
X153644Y38227D01*
X153568Y38176D01*
X153543Y38074D01*
X153568Y37998D01*
X153670Y37973D01*
X153746Y37998D01*
X153797Y38100D01*
X153670Y38100D01*
X151257Y38100D02*
X151257Y38100D01*
X151206Y38176D01*
X151104Y38227D01*
X151028Y38176D01*
X151003Y38074D01*
X151028Y37998D01*
X151130Y37973D01*
X151206Y37998D01*
X151257Y38100D01*
X151130Y38100D01*
X148717Y38100D02*
X148717Y38100D01*
X148666Y38176D01*
X148564Y38227D01*
X148488Y38176D01*
X148463Y38074D01*
X148488Y37998D01*
X148590Y37973D01*
X148666Y37998D01*
X148717Y38100D01*
X148590Y38100D01*
X146177Y38100D02*
X146177Y38100D01*
X146126Y38176D01*
X146024Y38227D01*
X145948Y38176D01*
X145923Y38074D01*
X145948Y37998D01*
X146050Y37973D01*
X146126Y37998D01*
X146177Y38100D01*
X146050Y38100D01*
X143637Y38100D02*
X143637Y38100D01*
X143586Y38176D01*
X143484Y38227D01*
X143408Y38176D01*
X143383Y38074D01*
X143408Y37998D01*
X143510Y37973D01*
X143586Y37998D01*
X143637Y38100D01*
X143510Y38100D01*
X141097Y38100D02*
X141097Y38100D01*
X141046Y38176D01*
X140944Y38227D01*
X140868Y38176D01*
X140843Y38074D01*
X140868Y37998D01*
X140970Y37973D01*
X141046Y37998D01*
X141097Y38100D01*
X140970Y38100D01*
X138557Y38100D02*
X138557Y38100D01*
X138506Y38176D01*
X138404Y38227D01*
X138328Y38176D01*
X138303Y38074D01*
X138328Y37998D01*
X138430Y37973D01*
X138506Y37998D01*
X138557Y38100D01*
X138430Y38100D01*
X136017Y38100D02*
X136017Y38100D01*
X135966Y38176D01*
X135864Y38227D01*
X135788Y38176D01*
X135763Y38074D01*
X135788Y37998D01*
X135890Y37973D01*
X135966Y37998D01*
X136017Y38100D01*
X135890Y38100D01*
X156337Y22860D02*
X156337Y22860D01*
X156286Y22936D01*
X156184Y22987D01*
X156108Y22936D01*
X156083Y22834D01*
X156108Y22758D01*
X156210Y22733D01*
X156286Y22758D01*
X156337Y22860D01*
X156210Y22860D01*
X158877Y22860D02*
X158877Y22860D01*
X158826Y22936D01*
X158724Y22987D01*
X158648Y22936D01*
X158623Y22834D01*
X158648Y22758D01*
X158750Y22733D01*
X158826Y22758D01*
X158877Y22860D01*
X158750Y22860D01*
X158877Y38100D02*
X158877Y38100D01*
X158826Y38176D01*
X158724Y38227D01*
X158648Y38176D01*
X158623Y38074D01*
X158648Y37998D01*
X158750Y37973D01*
X158826Y37998D01*
X158877Y38100D01*
X158750Y38100D01*
X156337Y38100D02*
X156337Y38100D01*
X156286Y38176D01*
X156184Y38227D01*
X156108Y38176D01*
X156083Y38074D01*
X156108Y37998D01*
X156210Y37973D01*
X156286Y37998D01*
X156337Y38100D01*
X156210Y38100D01*
X161417Y22860D02*
X161417Y22860D01*
X161366Y22936D01*
X161264Y22987D01*
X161188Y22936D01*
X161163Y22834D01*
X161188Y22758D01*
X161290Y22733D01*
X161366Y22758D01*
X161417Y22860D01*
X161290Y22860D01*
X163957Y22860D02*
X163957Y22860D01*
X163906Y22936D01*
X163804Y22987D01*
X163728Y22936D01*
X163703Y22834D01*
X163728Y22758D01*
X163830Y22733D01*
X163906Y22758D01*
X163957Y22860D01*
X163830Y22860D01*
X163957Y38100D02*
X163957Y38100D01*
X163906Y38176D01*
X163804Y38227D01*
X163728Y38176D01*
X163703Y38074D01*
X163728Y37998D01*
X163830Y37973D01*
X163906Y37998D01*
X163957Y38100D01*
X163830Y38100D01*
X161417Y38100D02*
X161417Y38100D01*
X161366Y38176D01*
X161264Y38227D01*
X161188Y38176D01*
X161163Y38074D01*
X161188Y37998D01*
X161290Y37973D01*
X161366Y37998D01*
X161417Y38100D01*
X161290Y38100D01*
X130174Y19050D02*
X130174Y19050D01*
X130124Y19126D01*
X130022Y19177D01*
X129946Y19126D01*
X129921Y19024D01*
X129946Y18948D01*
X130048Y18923D01*
X130124Y18948D01*
X130174Y19050D01*
X130048Y19050D01*
X135255Y19177D02*
X135001Y19177D01*
X135001Y18923D01*
X135255Y18923D01*
X135255Y19177D01*
X135128Y19050D01*
X62357Y71247D02*
X62103Y71247D01*
X62103Y70993D01*
X62357Y70993D01*
X62357Y71247D01*
X62230Y71120D01*
X62357Y73660D02*
X62357Y73660D01*
X62306Y73736D01*
X62204Y73787D01*
X62128Y73736D01*
X62103Y73634D01*
X62128Y73558D01*
X62230Y73533D01*
X62306Y73558D01*
X62357Y73660D01*
X62230Y73660D01*
X91465Y20574D02*
X91465Y20574D01*
X41910Y59690D02*
X41910Y59690D01*
X100330Y74930D02*
X100330Y74930D01*
X95885Y73533D02*
X95885Y73533D01*
X107594Y64135D02*
X107594Y64135D01*
X64744Y5638D02*
X64744Y5638D01*
X52603Y5638D02*
X52603Y5638D01*
X64846Y46990D02*
X64846Y46990D01*
X89509Y17119D02*
X89509Y17119D01*
X54965Y63500D02*
X54965Y63500D01*
X54965Y89052D02*
X54965Y89052D01*
X11328Y56286D02*
X11328Y56286D01*
X120015Y82550D02*
X120015Y82550D01*
X111760Y82550D02*
X111760Y82550D01*
X111760Y90170D02*
X111760Y90170D01*
X60325Y90170D02*
X60325Y90170D01*
X166370Y72390D02*
X166370Y72390D01*
X157480Y72390D02*
X157480Y72390D01*
X118110Y40640D02*
X118110Y40640D01*
X118110Y29210D02*
X118110Y29210D01*
X111760Y73660D02*
X111760Y73660D01*
X111760Y64770D02*
X111760Y64770D01*
X127000Y64770D02*
X127000Y64770D01*
X127000Y31750D02*
X127000Y31750D01*
X102235Y33655D02*
X102235Y33655D01*
X112395Y80010D02*
X112395Y80010D01*
X119380Y80010D02*
X119380Y80010D01*
X119380Y34290D02*
X119380Y34290D01*
X36830Y39370D02*
X36830Y39370D01*
X64135Y39370D02*
X64135Y39370D01*
X80010Y18415D02*
X80010Y18415D01*
X61595Y35560D02*
X61595Y35560D01*
X116205Y87630D02*
X116205Y87630D01*
X117475Y55880D02*
X117475Y55880D01*
X101600Y55245D02*
X101600Y55245D01*
X54610Y33020D02*
X54610Y33020D01*
X54610Y9525D02*
X54610Y9525D01*
X40640Y53340D02*
X40640Y53340D01*
X98425Y87630D02*
X98425Y87630D01*
X133350Y80010D02*
X133350Y80010D01*
X97155Y82550D02*
X97155Y82550D01*
X97155Y61595D02*
X97155Y61595D01*
X175260Y78105D02*
X175260Y78105D01*
X175260Y52070D02*
X175260Y52070D01*
X149860Y52070D02*
X149860Y52070D01*
X77470Y69215D02*
X77470Y69215D01*
X71120Y70485D02*
X71120Y70485D01*
X112395Y68580D02*
X112395Y68580D01*
X60325Y67310D02*
X60325Y67310D01*
X113030Y27305D02*
X113030Y27305D01*
X74930Y27305D02*
X74930Y27305D01*
X74930Y30480D02*
X74930Y30480D01*
X65404Y30480D02*
X65404Y30480D01*
X65404Y44450D02*
X65404Y44450D01*
X87630Y39370D02*
X87630Y39370D01*
X87630Y53340D02*
X87630Y53340D01*
X78740Y53340D02*
X78740Y53340D01*
X78740Y44450D02*
X78740Y44450D01*
X75565Y44450D02*
X75565Y44450D01*
X75565Y39370D02*
X75565Y39370D01*
X86360Y36830D02*
X86360Y36830D01*
X86360Y48260D02*
X86360Y48260D01*
X77470Y48260D02*
X77470Y48260D01*
X76200Y41910D02*
X76200Y41910D01*
X85090Y63500D02*
X85090Y63500D01*
X74295Y63500D02*
X74295Y63500D01*
X111125Y13970D02*
X111125Y13970D01*
X144780Y50800D02*
X144780Y50800D01*
X163830Y50800D02*
X163830Y50800D01*
X74930Y10795D02*
X74930Y10795D01*
X78105Y40640D02*
X78105Y40640D01*
X78105Y21590D02*
X78105Y21590D01*
X67310Y26035D02*
X67310Y26035D01*
X178435Y64770D02*
X178435Y64770D01*
X178435Y54610D02*
X178435Y54610D01*
X173355Y55880D02*
X173355Y55880D01*
X173355Y77470D02*
X173355Y77470D01*
X75565Y48260D02*
X75565Y48260D01*
X169545Y85090D02*
X169545Y85090D01*
X169545Y53340D02*
X169545Y53340D01*
X116205Y39370D02*
X116205Y39370D01*
X116205Y69850D02*
X116205Y69850D01*
X146050Y76200D02*
X146050Y76200D01*
X104140Y33655D02*
X104140Y33655D01*
X74295Y36830D02*
X74295Y36830D01*
X64135Y91440D02*
X64135Y91440D01*
X64135Y59690D02*
X64135Y59690D01*
X107315Y50800D02*
X107315Y50800D01*
X66675Y52070D02*
X66675Y52070D01*
X144780Y79375D02*
X144780Y79375D01*
X65404Y78740D02*
X65404Y78740D01*
X65404Y57150D02*
X65404Y57150D01*
X7620Y49530D02*
X7620Y49530D01*
X7620Y66675D02*
X7620Y66675D01*
X33655Y31750D02*
X33655Y31750D01*
X34290Y5080D02*
X34290Y5080D01*
X80645Y62230D02*
X80645Y62230D01*
X88900Y62230D02*
X88900Y62230D01*
X171450Y54610D02*
X171450Y54610D01*
X160020Y55245D02*
X160020Y55245D01*
X167640Y55880D02*
X167640Y55880D01*
X162560Y55880D02*
X162560Y55880D01*
X130809Y64135D02*
X130809Y64135D01*
X134620Y64135D02*
X134620Y64135D01*
X120650Y67310D02*
X120650Y67310D01*
X39370Y80645D02*
X39370Y80645D01*
X104775Y22860D02*
X104775Y22860D01*
X102870Y25400D02*
X102870Y25400D01*
X170180Y36195D02*
X170180Y36195D01*
X182880Y85090D02*
X182880Y85090D01*
X110490Y24130D02*
X110490Y24130D01*
X73025Y27305D02*
X73025Y27305D01*
X97790Y54610D02*
X97790Y54610D01*
X107950Y21590D02*
X107950Y21590D01*
X134620Y55880D02*
X134620Y55880D01*
X34925Y78105D02*
X34925Y78105D01*
X33020Y54610D02*
X33020Y54610D01*
X125730Y40640D02*
X125730Y40640D01*
X114935Y48260D02*
X114935Y48260D01*
X128270Y39370D02*
X128270Y39370D01*
X93980Y15240D02*
X93980Y15240D01*
X147320Y53340D02*
X147320Y53340D01*
X113665Y40640D02*
X113665Y40640D01*
X73025Y88900D02*
X73025Y88900D01*
X149860Y69850D02*
X149860Y69850D01*
X57150Y29845D02*
X57150Y29845D01*
X149860Y86360D02*
X149860Y86360D01*
X146050Y71120D02*
X146050Y71120D01*
X154940Y74930D02*
X154940Y74930D01*
X167640Y45720D02*
X167640Y45720D01*
X107950Y62230D02*
X107950Y62230D01*
X82550Y81915D02*
X82550Y81915D01*
X24130Y6350D02*
X24130Y6350D01*
X151130Y73660D02*
X151130Y73660D01*
X139700Y54610D02*
X139700Y54610D01*
X110490Y80010D02*
X110490Y80010D01*
X142240Y57150D02*
X142240Y57150D01*
X67310Y73660D02*
X67310Y73660D01*
X45720Y38100D02*
X45720Y38100D01*
X138430Y50800D02*
X138430Y50800D01*
X109855Y82550D02*
X109855Y82550D01*
X30480Y75565D02*
X30480Y75565D01*
X128270Y58420D02*
X128270Y58420D01*
X109220Y66040D02*
X109220Y66040D01*
X135890Y52070D02*
X135890Y52070D01*
X110490Y62230D02*
X110490Y62230D01*
X83820Y76200D02*
X83820Y76200D01*
X8890Y53340D02*
X8890Y53340D01*
X154940Y41910D02*
X154940Y41910D01*
X157480Y43180D02*
X157480Y43180D01*
X128270Y74930D02*
X128270Y74930D01*
X108585Y85090D02*
X108585Y85090D01*
X123825Y60960D02*
X123825Y60960D01*
X90170Y38100D02*
X90170Y38100D01*
X76835Y33020D02*
X76835Y33020D01*
X29845Y20955D02*
X29845Y20955D01*
X77470Y71120D02*
X77470Y71120D01*
X93980Y52070D02*
X93980Y52070D01*
X99695Y17780D02*
X99695Y17780D01*
X106680Y24130D02*
X106680Y24130D01*
X63500Y7620D02*
X63500Y7620D01*
X36830Y28575D02*
X36830Y28575D01*
X92710Y64135D02*
X92710Y64135D01*
X20624Y21437D02*
X20624Y21437D01*
X58420Y69850D02*
X58420Y69850D01*
X58420Y85953D02*
X58420Y85953D01*
X122072Y76225D02*
X122072Y76225D01*
X74244Y72364D02*
X74244Y72364D01*
X76200Y80010D02*
X76200Y80010D01*
X40640Y78740D02*
X40640Y78740D01*
X62357Y81280D02*
X62357Y81280D01*
X62357Y87655D02*
X62357Y87655D01*
X30480Y58420D02*
X30480Y58420D01*
X34290Y41910D02*
X34290Y41910D01*
X11455Y64262D02*
X11455Y64262D01*
X27940Y62230D02*
X27940Y62230D01*
X27940Y69850D02*
X27940Y69850D01*
X26670Y52070D02*
X26670Y52070D01*
X26670Y64262D02*
X26670Y64262D01*
X13944Y35382D02*
X13944Y35382D01*
X90170Y74930D02*
X90170Y74930D01*
X91897Y77495D02*
X91897Y77495D01*
X109220Y19050D02*
X109220Y19050D01*
X109194Y4470D02*
X109194Y4470D01*
X177114Y76200D02*
X177114Y76200D01*
X179908Y59715D02*
X179908Y59715D01*
X179908Y64795D02*
X179908Y64795D01*
X184150Y64770D02*
X184150Y64770D01*
X186690Y87630D02*
X186690Y87630D01*
X167640Y87630D02*
X167640Y87630D01*
X173990Y50800D02*
X173990Y50800D01*
X176530Y33020D02*
X176530Y33020D01*
X16510Y11430D02*
X16510Y11430D01*
X64084Y21005D02*
X64084Y21005D01*
X102870Y12700D02*
X102870Y12700D01*
X95250Y20320D02*
X95250Y20320D01*
X86360Y23850D02*
X86360Y23850D01*
X69875Y23952D02*
X69875Y23952D01*
X97790Y10160D02*
X97790Y10160D01*
X109220Y10160D02*
X109220Y10160D01*
X92710Y5486D02*
X92710Y5486D01*
X101066Y12115D02*
X101066Y12115D01*
X119989Y87630D02*
X119989Y87630D01*
X147091Y87630D02*
X147091Y87630D01*
X121894Y88798D02*
X121894Y88798D01*
X135890Y26670D02*
X135890Y26670D01*
X138455Y41960D02*
X138455Y41960D01*
X138455Y41859D02*
X138455Y41859D01*
X125526Y42900D02*
X125526Y42900D01*
X125526Y63500D02*
X125526Y63500D01*
X140944Y49530D02*
X140944Y49530D01*
X142240Y54610D02*
X142240Y54610D01*
X146100Y42037D02*
X146100Y42037D01*
X148666Y42037D02*
X148666Y42037D01*
X151130Y34290D02*
X151130Y34290D01*
X164490Y40640D02*
X164490Y40640D01*
X157607Y41783D02*
X157607Y41783D01*
X159867Y43230D02*
X159867Y43230D01*
X158750Y29133D02*
X158750Y29133D01*
X161290Y34290D02*
X161290Y34290D01*
X171475Y49250D02*
X171475Y49250D01*
X177800Y49250D02*
X177800Y49250D01*
X171450Y34290D02*
X171450Y34290D01*
X166370Y22860D02*
X166370Y22860D01*
X130048Y26644D02*
X130048Y26644D01*
D02M02*
