M48
METRIC,0000.00
T01F00S00C0.124
T02F00S00C0.034
T03F00S00C0.038
T04F00S00C0.046
T06F00S00C0.137
%
T02
X+007619Y+049529
Y+066674
X+008889Y+053339
X+011328Y+056286
X+011455Y+064261
X+013944Y+035382
X+016509Y+011429
X+020624Y+021437
X+024129Y+006349
X+026669Y+052069
Y+064261
X+027939Y+062229
Y+069849
X+029844Y+020954
X+030479Y+075564
Y+058419
X+033019Y+054609
X+033654Y+031749
X+034289Y+005079
Y+041909
X+034924Y+078104
X+036829Y+039369
Y+028574
X+039369Y+080644
X+040639Y+053339
Y+078739
X+041909Y+059689
X+045719Y+038099
X+052603Y+005638
X+054609Y+033019
Y+009524
X+054965Y+063499
Y+089052
X+057149Y+029844
X+058419Y+069849
Y+085953
X+060324Y+090169
Y+067309
X+061594Y+035559
X+062356Y+081279
Y+087655
X+063499Y+007619
X+064084Y+021005
X+064134Y+039369
Y+091439
Y+059689
X+064744Y+005638
X+064846Y+046989
X+065404Y+030479
Y+044449
Y+078739
Y+057149
X+066674Y+052069
X+067309Y+026034
Y+073659
X+069875Y+023952
X+071119Y+070484
X+073024Y+027304
Y+088899
X+074244Y+072364
X+074294Y+063499
Y+036829
X+074929Y+027304
Y+030479
Y+010794
X+075564Y+044449
Y+039369
Y+048259
X+076199Y+041909
Y+080009
X+076834Y+033019
X+077469Y+069214
Y+048259
Y+071119
X+078104Y+040639
Y+021589
X+078739Y+053339
Y+044449
X+080009Y+018414
X+080644Y+062229
X+082549Y+081914
X+083819Y+076199
X+085089Y+063499
X+086359Y+036829
Y+048259
Y+023850
X+087629Y+039369
Y+053339
X+088899Y+062229
X+089509Y+017119
X+090169Y+038099
Y+074929
X+091465Y+020573
X+091897Y+077495
X+092709Y+064134
Y+005486
X+093979Y+015239
Y+052069
X+095249Y+020319
X+095884Y+073532
X+097154Y+082549
Y+061594
X+097789Y+054609
Y+010159
X+098424Y+087629
X+099694Y+017779
X+100329Y+074929
X+101066Y+012115
X+101599Y+055244
X+102234Y+033654
X+102869Y+025399
Y+012699
X+104139Y+033654
X+104774Y+022859
X+106679Y+024129
X+107314Y+050799
X+107594Y+064134
X+107949Y+021589
Y+062229
X+108584Y+085089
X+109194Y+004470
X+109219Y+066039
Y+019049
Y+010159
X+109854Y+082549
X+110489Y+024129
Y+080009
Y+062229
X+111124Y+013969
X+111759Y+082549
Y+090169
Y+073659
Y+064769
X+112394Y+080009
Y+068579
X+113029Y+027304
X+113664Y+040639
X+114934Y+048259
X+116204Y+087629
Y+039369
Y+069849
X+117474Y+055879
X+118109Y+040639
Y+029209
X+119379Y+080009
Y+034289
X+119989Y+087629
X+120014Y+082549
X+120649Y+067309
X+121894Y+088798
X+122072Y+076225
X+123824Y+060959
X+125526Y+042900
Y+063499
X+125729Y+040639
X+126999Y+064769
Y+031749
X+128269Y+039369
Y+058419
Y+074929
X+130047Y+026644
X+130809Y+064134
X+133349Y+080009
X+134619Y+064134
Y+055879
X+135889Y+052069
Y+026669
X+138429Y+050799
X+138455Y+041960
Y+041859
X+139699Y+054609
X+140944Y+049529
X+142239Y+057149
Y+054609
X+144779Y+050799
Y+079374
X+146049Y+076199
Y+071119
X+146100Y+042036
X+147091Y+087629
X+147319Y+053339
X+148666Y+042036
X+149859Y+052069
Y+069849
Y+086359
X+151129Y+073659
Y+034289
X+154939Y+074929
Y+041909
X+157479Y+072389
Y+043179
X+157606Y+041782
X+158749Y+029133
X+159867Y+043230
X+160019Y+055244
X+161289Y+034289
X+162559Y+055879
X+163829Y+050799
X+164490Y+040639
X+166369Y+072389
Y+022859
X+167639Y+055879
Y+045719
Y+087629
X+169544Y+085089
Y+053339
X+170179Y+036194
X+171449Y+054609
Y+034289
X+171475Y+049250
X+173354Y+055879
Y+077469
X+173989Y+050799
X+175259Y+078104
Y+052069
X+176529Y+033019
X+177114Y+076199
X+177799Y+049250
X+178434Y+064769
Y+054609
X+179908Y+059715
Y+064795
X+182879Y+085089
X+184149Y+064769
X+186689Y+087629
X+153669
Y+017779
X+173354Y+022224
Y+083184
X+043179Y+007619
X+081279Y+057149
Y+054609
Y+052069
Y+049529
Y+046989
Y+044449
Y+041909
Y+039369
Y+036829
Y+034289
Y+031749
X+083819Y+059689
Y+057149
Y+054609
Y+052069
Y+049529
Y+046989
Y+044449
Y+041909
Y+039369
Y+036829
Y+034289
Y+029209
Y+031749
X+086359Y+059689
Y+057149
Y+029209
Y+031749
X+088899Y+059689
Y+057149
Y+029209
Y+031749
X+091439Y+059689
Y+057149
Y+029209
Y+031749
X+093979Y+059689
Y+057149
Y+029209
Y+031749
X+096519Y+029209
Y+031749
Y+059689
Y+057149
X+099059Y+029209
Y+031749
Y+059689
Y+057149
X+101599Y+029209
Y+031749
Y+059689
Y+057149
X+104139Y+029209
Y+031749
Y+059689
Y+057149
X+106679Y+029209
Y+031749
Y+059689
Y+057149
X+109219Y+029209
Y+031749
Y+034289
Y+036829
Y+039369
Y+041909
Y+044449
Y+046989
Y+049529
Y+052069
Y+054609
Y+059689
Y+057149
X+111759Y+031749
Y+034289
Y+036829
Y+039369
Y+041909
Y+044449
Y+046989
Y+049529
Y+052069
Y+054609
Y+057149
T03
X+005689Y+017678
Y+010058
X+006349Y+035483
X+007619Y+026669
Y+024129
Y+038099
Y+041909
X+010159Y+015163
X+013969Y+035483
X+015239Y+015163
Y+024053
Y+021513
Y+038099
Y+041909
X+016509Y+049529
Y+045719
X+019049Y+053339
X+021589Y+049529
Y+045719
Y+053339
X+022859Y+034289
Y+026669
X+025399Y+034289
Y+026669
X+027939Y+034289
Y+026669
Y+022859
Y+015239
X+030479Y+034289
Y+026669
Y+007619
X+030556Y+093954
Y+091414
X+031749Y+015239
Y+022859
X+033019Y+076199
Y+073659
Y+034289
Y+026669
Y+007619
X+035559Y+034289
Y+026669
Y+015239
Y+022859
Y+007619
X+036829Y+091363
Y+093903
X+038099Y+048259
Y+050799
Y+053339
Y+055879
Y+058419
Y+060959
Y+063499
Y+066039
Y+068579
Y+071119
Y+073659
Y+076199
Y+034289
Y+026669
Y+007619
X+039369Y+015239
Y+022859
X+040639Y+034289
Y+026669
Y+007619
X+043179Y+085013
Y+034289
Y+026669
Y+015239
Y+022859
X+045719Y+085013
Y+048259
Y+050799
Y+053339
Y+055879
Y+058419
Y+060959
Y+063499
Y+066039
Y+068579
Y+071119
Y+073659
Y+076199
X+050799Y+069849
Y+072389
Y+078739
Y+076199
X+057149Y+007619
Y+015239
X+062229Y+071119
Y+073659
X+063499Y+013969
Y+016509
X+068579Y+038099
Y+040639
Y+043179
Y+045719
Y+048259
Y+050799
Y+053339
Y+055879
Y+058419
Y+060959
Y+063499
Y+066039
Y+068579
Y+035559
Y+033019
X+071119Y+085013
Y+082473
Y+079933
Y+077393
Y+074853
Y+068579
Y+066039
Y+063499
Y+060959
Y+058419
Y+055879
Y+053339
Y+050799
Y+048259
Y+045719
Y+043179
Y+040639
Y+038099
Y+035559
Y+033019
Y+021589
Y+016509
X+074929Y+007619
Y+013969
X+076250Y+020319
X+077469Y+007619
Y+013969
X+078739Y+085013
Y+082473
Y+079933
Y+077393
Y+074853
X+080009Y+013969
Y+007619
X+081483Y+020319
X+082549Y+013969
Y+007619
X+086359Y+091439
Y+093979
Y+071119
Y+073659
Y+076199
Y+078739
Y+081279
Y+083819
Y+086359
Y+088899
Y+019049
Y+016230
Y+008610
X+087629Y+064693
X+090169
X+091439Y+019049
X+092709Y+012699
Y+010159
X+093979Y+093979
Y+091439
Y+088899
Y+086359
Y+083819
Y+081279
Y+078739
Y+076199
Y+073659
Y+071119
X+095249Y+024129
Y+016509
X+097789
Y+024129
X+102869Y+017779
Y+020319
X+106679Y+091439
Y+088899
Y+086359
Y+083819
Y+081279
Y+078739
Y+076199
Y+073659
Y+071119
Y+068579
X+113029Y+013969
Y+006349
X+114299Y+073659
Y+076199
Y+078739
Y+081279
Y+083819
Y+086359
Y+088899
Y+091439
Y+068579
Y+071119
X+115569Y+013969
Y+006349
X+117982Y+093319
Y+090779
X+118109Y+013969
Y+006349
X+120649
Y+013969
X+121919Y+083819
Y+081279
X+123189Y+006349
Y+013969
X+125729Y+067309
Y+082549
Y+006349
Y+013969
X+128269Y+067309
Y+082549
Y+006349
Y+013969
X+130047Y+019049
X+130809Y+067309
Y+082549
Y+045719
Y+060959
X+133349Y+067309
Y+082549
Y+045719
Y+060959
Y+008889
Y+006349
X+135127Y+019049
X+135889Y+067309
Y+082549
Y+045719
Y+060959
Y+022859
Y+038099
X+138429Y+067309
Y+082549
Y+045719
Y+060959
Y+022859
Y+038099
X+140969Y+067309
Y+082549
Y+045719
Y+060959
Y+022859
Y+038099
X+143509Y+067309
Y+082549
Y+045719
Y+060959
Y+022859
Y+038099
X+146049Y+067309
Y+082549
Y+045719
Y+060959
Y+022859
Y+038099
X+148589Y+067309
Y+082549
Y+045719
Y+060959
Y+022859
Y+038099
X+151129Y+067309
Y+082549
Y+045719
Y+060959
Y+022859
Y+038099
X+153669Y+067309
Y+082549
Y+045719
Y+060959
Y+022859
Y+038099
X+156209Y+067309
Y+082549
Y+045719
Y+060959
Y+022859
Y+038099
X+158749Y+067309
Y+082549
Y+045719
Y+060959
Y+022859
Y+038099
X+161289Y+067309
Y+082549
Y+045719
Y+060959
Y+022859
Y+038099
X+163829Y+067309
Y+082549
Y+045719
Y+060959
Y+022859
Y+038099
X+181609Y+027939
Y+030479
Y+033019
Y+035559
Y+038099
Y+040639
Y+043179
Y+045719
Y+048259
Y+050799
Y+053339
Y+055879
Y+058419
Y+060959
Y+063499
Y+066039
Y+068579
Y+071119
Y+073659
Y+076199
X+184200Y+029209
Y+031749
Y+034289
Y+036829
Y+039369
Y+041909
Y+044449
Y+046989
Y+049529
Y+052069
Y+054609
Y+057149
Y+059689
Y+062229
Y+064769
Y+067309
Y+069849
Y+072389
Y+074929
Y+077469
T04
X+010159Y+006273
X+011125Y+085216
Y+082448
Y+079679
Y+076911
Y+074142
Y+071373
Y+068605
X+012699Y+006273
X+013969Y+086613
Y+083845
Y+081076
Y+078308
Y+075539
Y+072770
Y+070002
Y+067233
X+015239Y+006273
X+020319Y+017703
Y+005003
T01
X+012547Y+093598
Y+060248
T06
X+010083Y+031267
X+022859Y+093954
X+029260Y+047751
X+061188Y+050825
X+127634Y+094259
X+138429Y+015239
X+179069Y+010083
X+185267Y+093878
T00
M30
