M48
METRIC,0000.00
T01F00S00C0.020
T02F00S00C0.035
T03F00S00C0.038
T04F00S00C0.046
T05F00S00C0.040
T06F00S00C0.140
%
T01
X+020319Y+035559
Y+057784
Y+092074
X+024129Y+069849
X+025399Y+062864
X+026034Y+056514
Y+077469
X+026669Y+111759
Y+060959
X+027304Y+054609
X+027939Y+076199
X+029844Y+073024
Y+074929
X+030479Y+102869
X+032384Y+067944
Y+106044
X+033019Y+021589
Y+063703
Y+101599
X+034924Y+052069
Y+015239
X+035559Y+100329
X+036194Y+027939
Y+083819
X+036829Y+065404
X+038099Y+074929
Y+102234
X+040639Y+109854
Y+064134
Y+076199
Y+053339
X+040843Y+022859
X+041909Y+100964
X+042544Y+015239
X+042748Y+025399
X+043179Y+075564
X+044449Y+058419
Y+073659
Y+099694
X+045719Y+071754
X+046354Y+024129
Y+020319
Y+027939
X+046989Y+061163
X+048259Y+058419
Y+027939
Y+080009
Y+102869
X+049529Y+034289
X+050164Y+107949
X+050799Y+040639
X+052069Y+038099
X+053339Y+040639
X+053771Y+038099
X+054609Y+043179
Y+085089
X+055676Y+029209
Y+061163
X+055879Y+091439
X+056514Y+081279
Y+088899
X+057149Y+030048
X+057784Y+075564
X+058419Y+099694
X+060959Y+104139
X+062229Y+058419
Y+052704
Y+106044
X+063499Y+099059
Y+054609
X+064134Y+069849
X+064769Y+093979
Y+048259
X+065404Y+052069
Y+066674
Y+078739
X+067309Y+106679
X+067944Y+067309
Y+024129
X+068579Y+051434
X+069214Y+073659
X+069418Y+020319
X+070484Y+021589
Y+077469
X+071754Y+033019
X+072389Y+102869
X+073024Y+015239
Y+085089
X+073659Y+091439
X+074294Y+024129
Y+082549
Y+076199
Y+066039
X+075564Y+036829
Y+046989
Y+060959
X+076199Y+067309
Y+107949
Y+086994
Y+069849
X+076834Y+082549
Y+030479
X+077469Y+077469
X+077673Y+021589
Y+025603
X+081279Y+046989
Y+052069
Y+090169
X+081483Y+060959
Y+066039
X+081914Y+078104
X+082549Y+081279
X+083184Y+076199
X+083819Y+083819
Y+109219
Y+027939
Y+038734
Y+043179
X+085724Y+015239
X+087629Y+057784
Y+037464
X+088899Y+045719
Y+067309
Y+071119
Y+074929
Y+035559
Y+031749
X+089534Y+083819
Y+015874
X+090804Y+066039
Y+030479
Y+063499
X+091439Y+082549
X+092074Y+039369
X+092709Y+092709
Y+034289
Y+029209
X+094614Y+080009
Y+060324
X+095249Y+083819
X+095884Y+025603
X+096519Y+050799
X+097789Y+064134
Y+090169
X+099694Y+091439
Y+111759
Y+033019
Y+085089
X+100329Y+060959
X+100964Y+107314
Y+096519
Y+082549
X+102869Y+097154
X+104139Y+099059
X+104774Y+106679
X+106044Y+096519
Y+088899
X+107949Y+107949
X+108584Y+054609
X+109219Y+078104
Y+066039
X+109854Y+092709
X+110489Y+069214
Y+060324
X+111759Y+091439
X+112394Y+067944
X+113029Y+039369
X+114299Y+082549
Y+110489
X+115569Y+098424
X+116204Y+062229
X+116839Y+087629
X+118744Y+057149
X+121919Y+067309
X+123189Y+015239
X+124459Y+097789
Y+019684
X+125729Y+055879
X+128269Y+017779
X+130809Y+096519
X+131444Y+034289
X+134619Y+067309
Y+053339
X+135889Y+055244
X+138429Y+045719
Y+025399
X+139699Y+102869
Y+074929
X+140969Y+025399
X+141604Y+105409
Y+076199
X+143509Y+062229
X+144779Y+082549
Y+043179
X+145414Y+060959
X+147954Y+029209
X+149859Y+041909
X+151764Y+060959
X+159384Y+083819
Y+077469
Y+074929
Y+072389
Y+069849
Y+067309
Y+064769
Y+062229
Y+059689
X+160019Y+050799
Y+033019
X+161289Y+048259
X+161924Y+102234
X+164464Y+082549
Y+052069
X+167639Y+017779
X+168274Y+111759
X+168909Y+034289
X+169544Y+086359
X+173354Y+088899
Y+055879
X+175259Y+056514
Y+080644
T02
X+166369Y+102869
X+171449
X+031749Y+082549
Y+080009
Y+077469
Y+074929
Y+072389
Y+069849
Y+095249
Y+092709
Y+090169
Y+087629
Y+085089
X+034289Y+082549
Y+080009
Y+077469
Y+074929
Y+072389
Y+067309
Y+069849
Y+097789
Y+095249
Y+092709
Y+090169
Y+087629
Y+085089
X+036829Y+067309
Y+069849
Y+097789
Y+095249
X+039369Y+067309
Y+069849
Y+097789
Y+095249
X+041909Y+067309
Y+069849
Y+097789
Y+095249
X+044449Y+067309
Y+069849
Y+097789
Y+095249
X+046989Y+067309
Y+069849
Y+097789
Y+095249
X+049529Y+067309
Y+069849
Y+097789
Y+095249
X+052069Y+067309
Y+069849
Y+097789
Y+095249
X+054609Y+067309
Y+069849
Y+097789
Y+095249
X+057149Y+067309
Y+069849
Y+097789
Y+095249
X+059689Y+067309
Y+069849
Y+072389
Y+074929
Y+077469
Y+080009
Y+082549
Y+085089
Y+087629
Y+090169
Y+092709
Y+097789
Y+095249
X+062229Y+069849
Y+072389
Y+074929
Y+077469
Y+080009
Y+082549
Y+085089
Y+087629
Y+090169
Y+092709
Y+095249
T03
X+020319Y+069849
X+021589Y+080009
Y+090169
Y+064769
Y+074929
Y+093979
Y+096519
Y+099059
Y+101599
Y+105409
X+024129Y+080009
Y+090169
Y+064769
Y+074929
Y+107949
Y+016509
Y+019049
Y+021589
Y+024129
Y+026669
Y+029209
Y+031749
Y+034289
Y+036829
Y+039369
Y+041909
Y+044449
Y+046989
Y+049529
X+026669Y+082600
Y+087833
X+027939Y+069849
Y+093979
Y+096519
Y+099059
Y+101599
X+029209Y+105409
Y+063499
Y+060959
X+031749Y+107949
X+034289Y+057149
Y+104139
X+036829Y+107949
Y+063499
Y+060959
X+039369Y+107949
Y+016509
Y+019049
Y+021589
Y+024129
Y+026669
Y+029209
Y+031749
Y+034289
Y+036829
Y+039369
Y+041909
Y+044449
Y+046989
Y+049529
X+041909Y+057149
Y+104139
X+044449Y+054609
Y+052069
Y+049529
Y+046989
Y+044449
Y+041909
Y+039369
Y+036829
Y+034289
Y+031749
Y+029209
Y+026669
Y+024129
Y+021589
Y+019049
Y+016509
Y+104139
Y+107949
X+052069Y+104139
Y+107949
X+055879
Y+104139
X+059689Y+054609
Y+052069
Y+049529
Y+046989
Y+044449
Y+041909
Y+039369
Y+036829
Y+034289
Y+031749
Y+029209
Y+026669
Y+024129
Y+021589
Y+016509
Y+019049
X+063499Y+107949
Y+104139
X+066039Y+044449
Y+041909
Y+039369
Y+036829
Y+034289
Y+031749
Y+029209
Y+026669
Y+024129
Y+021589
Y+019049
Y+016509
Y+110489
Y+102869
X+067309Y+054609
X+068579Y+049529
X+069849Y+095249
Y+087629
Y+105409
Y+097789
X+071119Y+049529
X+072389Y+057149
Y+059689
Y+062229
Y+064769
Y+067309
Y+069849
Y+072389
Y+074929
Y+077469
Y+080009
Y+087629
Y+095249
Y+105409
Y+097789
X+074929Y+105409
Y+097789
Y+054609
X+076199Y+085089
Y+088899
Y+092709
X+077469Y+105409
Y+097789
X+078739Y+085089
Y+088899
Y+092709
X+080009Y+059689
Y+057149
Y+080009
Y+077469
Y+074929
Y+072389
Y+069849
Y+067309
Y+064769
Y+062229
Y+105409
Y+097789
X+081279Y+026669
Y+029209
Y+031749
Y+034289
Y+036829
Y+039369
Y+041909
Y+044449
Y+021589
Y+024129
Y+016509
Y+019049
X+082549Y+105409
Y+097789
X+085089Y+017576
Y+022809
Y+034289
Y+031749
Y+057149
Y+059689
Y+062229
Y+064769
Y+067309
Y+069849
Y+072389
Y+074929
Y+077469
Y+080009
Y+093979
Y+091439
Y+105409
Y+097789
Y+053339
Y+049529
Y+046989
X+086359Y+027939
X+087629Y+040639
Y+043179
Y+105409
Y+097789
X+088899Y+027939
X+090169Y+021589
Y+017779
Y+091439
Y+093979
Y+105409
Y+097789
X+092709Y+021589
Y+017779
Y+059689
Y+057149
Y+080009
Y+077469
Y+074929
Y+072389
Y+069849
Y+067309
Y+064769
Y+062229
Y+105409
Y+097789
Y+053339
X+093979Y+050799
Y+048259
Y+045719
X+095249Y+091439
Y+093979
Y+105409
Y+097789
X+096519Y+058419
Y+055879
X+097789Y+034289
Y+031749
Y+029209
Y+039369
Y+041909
Y+105409
Y+097789
Y+080009
Y+082549
Y+072389
Y+069849
Y+067309
X+100329Y+054609
X+101599Y+046989
X+102869Y+050799
Y+059689
Y+054609
Y+106679
Y+109219
X+104139Y+046989
Y+021589
Y+029209
Y+038099
Y+040639
X+105409Y+059689
Y+063499
Y+071119
X+106679Y+021589
Y+029209
Y+017779
Y+074929
X+107949Y+063499
Y+071119
X+109219Y+021589
Y+029209
Y+038099
Y+017779
Y+043179
Y+040639
Y+074929
X+110489Y+050799
Y+063499
Y+071119
Y+106679
Y+109219
X+111759Y+029209
Y+021589
Y+055879
Y+058419
X+113029Y+063499
Y+071119
X+114299Y+019049
Y+029209
Y+021589
X+115569Y+052069
Y+059689
X+116839Y+029209
Y+021589
Y+033019
Y+038099
Y+043179
Y+040639
Y+074929
X+118109Y+064769
Y+067309
Y+069849
Y+109219
Y+106679
X+119379Y+029209
Y+021589
Y+033019
Y+059689
Y+074929
X+120649Y+040639
Y+048259
X+121919Y+019049
Y+055879
Y+053339
Y+059689
X+125729Y+109219
Y+106679
X+126999Y+046989
Y+064769
Y+072389
Y+060959
X+128269Y+025399
Y+035559
Y+038099
Y+040639
X+129539Y+064769
Y+072389
X+130809Y+025399
X+132079Y+064769
Y+072389
X+133349Y+043179
Y+040639
X+134619Y+046989
Y+064769
Y+072389
Y+074929
Y+060959
Y+057149
Y+049529
X+137159Y+064769
Y+072389
Y+074929
X+138429Y+060959
Y+058419
X+139699Y+064769
Y+072389
X+142239Y+064769
Y+072389
X+143509Y+033019
Y+025399
Y+017779
Y+057149
Y+054609
X+144779Y+064769
Y+072389
X+146049Y+033019
Y+025399
Y+017779
X+147319Y+064769
Y+072389
X+149859Y+045719
Y+060959
Y+074929
Y+064769
Y+072389
X+152399Y+024129
Y+039369
X+157479Y+045719
Y+060959
Y+074929
X+160019Y+024129
Y+039369
X+166369Y+024129
Y+026669
Y+029209
Y+031749
Y+034289
Y+036829
Y+039369
Y+041909
Y+044449
Y+046989
Y+049529
Y+052069
Y+054609
Y+057149
Y+059689
Y+062229
Y+064769
Y+067309
Y+069849
Y+072389
Y+074929
Y+077469
Y+080009
Y+082549
Y+085089
Y+087629
Y+090169
Y+092709
Y+095249
Y+097789
Y+100329
X+171449Y+024129
Y+026669
Y+029209
Y+031749
Y+034289
Y+036829
Y+039369
Y+041909
Y+044449
Y+046989
Y+049529
Y+052069
Y+054609
Y+057149
Y+059689
Y+062229
Y+064769
Y+067309
Y+069849
Y+072389
Y+074929
Y+077469
Y+080009
Y+082549
Y+085089
Y+087629
Y+090169
Y+092709
Y+095249
Y+097789
Y+100329
T05
X+021589Y+054609
Y+059689
X+024129Y+057149
X+029209Y+058419
Y+053339
X+031749Y+055879
X+076199Y+050799
X+078739Y+053339
Y+048259
X+102412Y+104139
X+102438Y+080213
X+104393Y+104139
X+104419Y+080213
X+106375Y+104139
X+106400Y+080213
X+108356Y+104139
X+108381Y+080213
X+110337Y+104139
X+110362Y+080213
X+110489Y+048259
X+112318Y+104139
X+112344Y+080213
X+113029Y+050799
X+114299Y+104139
X+114325Y+080213
X+115569Y+048259
X+116281Y+104139
X+116306Y+080213
X+118262Y+104139
X+118287Y+080213
X+128269Y+055879
Y+050799
X+130809Y+053339
X+144017Y+104139
X+144043Y+080213
X+145999Y+104139
X+146024Y+080213
X+147980Y+104139
X+148005Y+080213
X+149961Y+104139
X+149986Y+080213
X+151942Y+104139
X+151968Y+080213
X+153923Y+104139
X+153949Y+080213
X+155905Y+104139
X+155930Y+080213
X+157886Y+104139
X+157911Y+080213
X+159892
X+161848Y+104139
X+161874Y+080213
X+163829Y+104139
X+163855Y+080213
T04
X+133349Y+017779
X+135889
X+138429
X+153669
X+156209
X+158749
T06
X+173989Y+107949
Y+019049
T00
M30
