  0
SECTION
  2
HEADER
  9
$ACADVER
  1
AC1009
  9
$INSBASE
 10
0.0
 20
0.0
 30
0.0
  9
$EXTMIN
 10
0.031106
 20
-6.75897
 30
0.0
  9
$EXTMAX
 10
5.666869
 20
-0.018364
 30
0.0
  9
$LIMMIN
 10
0.0
 20
0.0
  9
$LIMMAX
 10
12.0
 20
9.0
  9
$ORTHOMODE
 70
     0
  9
$REGENMODE
 70
     1
  9
$FILLMODE
 70
     1
  9
$QTEXTMODE
 70
     0
  9
$MIRRTEXT
 70
     1
  9
$DRAGMODE
 70
     2
  9
$LTSCALE
 40
1.0
  9
$OSMODE
 70
     0
  9
$ATTMODE
 70
     1
  9
$TEXTSIZE
 40
0.5
  9
$TRACEWID
 40
0.05
  9
$TEXTSTYLE
  7
STANDARD
  9
$CLAYER
  8
0
  9
$CELTYPE
  6
BYLAYER
  9
$CECOLOR
 62
   256
  9
$DIMSCALE
 40
1.0
  9
$DIMASZ
 40
0.18
  9
$DIMEXO
 40
0.0625
  9
$DIMDLI
 40
0.38
  9
$DIMRND
 40
0.0
  9
$DIMDLE
 40
0.0
  9
$DIMEXE
 40
0.18
  9
$DIMTP
 40
0.0
  9
$DIMTM
 40
0.0
  9
$DIMTXT
 40
0.18
  9
$DIMCEN
 40
0.09
  9
$DIMTSZ
 40
0.0
  9
$DIMTOL
 70
     0
  9
$DIMLIM
 70
     0
  9
$DIMTIH
 70
     1
  9
$DIMTOH
 70
     1
  9
$DIMSE1
 70
     0
  9
$DIMSE2
 70
     0
  9
$DIMTAD
 70
     0
  9
$DIMZIN
 70
     0
  9
$DIMBLK
  1

  9
$DIMASO
 70
     1
  9
$DIMSHO
 70
     1
  9
$DIMPOST
  1

  9
$DIMAPOST
  1

  9
$DIMALT
 70
     0
  9
$DIMALTD
 70
     2
  9
$DIMALTF
 40
25.4
  9
$DIMLFAC
 40
1.0
  9
$DIMTOFL
 70
     0
  9
$DIMTVP
 40
0.0
  9
$DIMTIX
 70
     0
  9
$DIMSOXD
 70
     0
  9
$DIMSAH
 70
     0
  9
$DIMBLK1
  1

  9
$DIMBLK2
  1

  9
$DIMSTYLE
  2
*UNNAMED
  9
$DIMCLRD
 70
     0
  9
$DIMCLRE
 70
     0
  9
$DIMCLRT
 70
     0
  9
$DIMTFAC
 40
1.0
  9
$DIMGAP
 40
0.09
  9
$LUNITS
 70
     2
  9
$LUPREC
 70
     4
  9
$SKETCHINC
 40
0.1
  9
$FILLETRAD
 40
0.5
  9
$AUNITS
 70
     0
  9
$AUPREC
 70
     0
  9
$MENU
  1
acad
  9
$ELEVATION
 40
0.0
  9
$PELEVATION
 40
0.0
  9
$THICKNESS
 40
0.0
  9
$LIMCHECK
 70
     0
  9
$BLIPMODE
 70
     1
  9
$CHAMFERA
 40
0.0
  9
$CHAMFERB
 40
0.0
  9
$SKPOLY
 70
     0
  9
$TDCREATE
 40
2444329.214753587
  9
$TDUPDATE
 40
2444329.214753587
  9
$TDINDWG
 40
0.0000000000
  9
$TDUSRTIMER
 40
0.0000000000
  9
$USRTIMER
 70
     1
  9
$ANGBASE
 50
0.0
  9
$ANGDIR
 70
     0
  9
$PDMODE
 70
     0
  9
$PDSIZE
 40
0.0
  9
$PLINEWID
 40
0.0
  9
$COORDS
 70
     1
  9
$SPLFRAME
 70
     0
  9
$SPLINETYPE
 70
     6
  9
$SPLINESEGS
 70
     8
  9
$ATTDIA
 70
     0
  9
$ATTREQ
 70
     1
  9
$HANDLING
 70
     0
  9
$HANDSEED
  5
0
  9
$SURFTAB1
 70
     6
  9
$SURFTAB2
 70
     6
  9
$SURFTYPE
 70
     6
  9
$SURFU
 70
     6
  9
$SURFV
 70
     6
  9
$UCSNAME
  2

  9
$UCSORG
 10
0.0
 20
0.0
 30
0.0
  9
$UCSXDIR
 10
1.0
 20
0.0
 30
0.0
  9
$UCSYDIR
 10
0.0
 20
1.0
 30
0.0
  9
$PUCSNAME
  2

  9
$PUCSORG
 10
0.0
 20
0.0
 30
0.0
  9
$PUCSXDIR
 10
1.0
 20
0.0
 30
0.0
  9
$PUCSYDIR
 10
0.0
 20
1.0
 30
0.0
  9
$USERI1
 70
     0
  9
$USERI2
 70
     0
  9
$USERI3
 70
     0
  9
$USERI4
 70
     0
  9
$USERI5
 70
     0
  9
$USERR1
 40
0.0
  9
$USERR2
 40
0.0
  9
$USERR3
 40
0.0
  9
$USERR4
 40
0.0
  9
$USERR5
 40
0.0
  9
$WORLDVIEW
 70
     1
  9
$SHADEDGE
 70
     3
  9
$SHADEDIF
 70
    70
  9
$TILEMODE
 70
     1
  9
$MAXACTVP
 70
    16
  9
$PINSBASE
 10
-17.076647
 20
50.0
 30
15.761664
  9
$PLIMCHECK
 70
     0
  9
$PEXTMIN
 10
1.000000E+20
 20
1.000000E+20
 30
1.000000E+20
  9
$PEXTMAX
 10
-1.000000E+20
 20
-1.000000E+20
 30
-1.000000E+20
  9
$PLIMMIN
 10
0.0
 20
0.0
  9
$PLIMMAX
 10
12.0
 20
9.0
  9
$UNITMODE
 70
     0
  9
$VISRETAIN
 70
     0
  9
$PLINEGEN
 70
     0
  9
$PSLTSCALE
 70
     1
  9
$TREEDEPTH
 70
  3020
  9
$DWGCODEPAGE
  3
ascii
  0
ENDSEC
  0
SECTION
  2
TABLES
  0
TABLE
  2
VPORT
 70
     1
  0
VPORT
  2
*ACTIVE
 70
     0
 10
0.0
 20
0.0
 11
1.0
 21
1.0
 12
4.647093
 22
-3.388667
 13
0.0
 23
0.0
 14
1.0
 24
1.0
 15
0.0
 25
0.0
 16
0.0
 26
0.0
 36
1.0
 17
0.0
 27
0.0
 37
0.0
 40
6.740606
 41
1.369606
 42
50.0
 43
0.0
 44
0.0
 50
0.0
 51
0.0
 71
     0
 72
 20000
 73
     1
 74
     1
 75
     0
 76
     0
 77
     0
 78
     0
  0
ENDTAB
  0
TABLE
  2
LTYPE
 70
     1
  0
LTYPE
  2
CONTINUOUS
 70
    64
  3
Solid line
 72
    65
 73
     0
 40
0.0
  0
ENDTAB
  0
TABLE
  2
LAYER
 70
     1
  0
LAYER
  2
0
 70
    64
 62
     7
  6
CONTINUOUS
  0
ENDTAB
  0
TABLE
  2
STYLE
 70
     2
  0
STYLE
  2
STANDARD
 70
     0
 40
0.0
 41
1.0
 50
0.0
 71
     0
 42
0.5
  3
txt
  4

  0
STYLE
  2
ROMAND
 70
    64
 40
0.0
 41
1.2
 50
0.0
 71
     0
 42
0.05
  3
romand
  4

  0
ENDTAB
  0
TABLE
  2
VIEW
 70
     0
  0
ENDTAB
  0
TABLE
  2
UCS
 70
     0
  0
ENDTAB
  0
TABLE
  2
APPID
 70
     1
  0
APPID
  2
ACAD
 70
    64
  0
ENDTAB
  0
TABLE
  2
DIMSTYLE
 70
     0
  0
ENDTAB
  0
ENDSEC
  0
SECTION
  2
BLOCKS
  0
BLOCK
  8
0
  2
UCC232A
 70
    64
 10
0.0
 20
0.0
 30
0.0
  3
UCC232A
  0
LINE
  8
0
 10
0.663491
 20
6.25
 30
0.0
 11
4.927236
 21
6.25
 31
0.0
  0
LINE
  8
0
 10
4.927236
 20
6.25
 30
0.0
 11
4.927236
 21
4.967391
 31
0.0
  0
LINE
  8
0
 10
4.927236
 20
4.967391
 30
0.0
 11
0.663491
 21
4.967391
 31
0.0
  0
LINE
  8
0
 10
0.663491
 20
4.967391
 30
0.0
 11
0.663491
 21
6.25
 31
0.0
  0
CIRCLE
  8
0
 10
3.125915
 20
6.025186
 30
0.0
 40
0.025
  0
CIRCLE
  8
0
 10
3.385604
 20
6.024675
 30
0.0
 40
0.025
  0
CIRCLE
  8
0
 10
3.766053
 20
6.029677
 30
0.0
 40
0.02
  0
CIRCLE
  8
0
 10
3.766053
 20
5.769545
 30
0.0
 40
0.02
  0
CIRCLE
  8
0
 10
3.766053
 20
5.549434
 30
0.0
 40
0.02
  0
CIRCLE
  8
0
 10
3.385604
 20
5.549434
 30
0.0
 40
0.05
  0
CIRCLE
  8
0
 10
4.306988
 20
5.616914
 30
0.0
 40
0.025
  0
POLYLINE
  8
0
 66
     1
 10
0.0
 20
0.0
 30
0.0
 40
0.04
 41
0.04
  0
VERTEX
  8
0
 10
3.483174
 20
5.960825
 30
0.0
  0
VERTEX
  8
0
 10
3.623968
 20
5.960825
 30
0.0
  0
SEQEND
  8
0
  0
POLYLINE
  8
0
 66
     1
 10
0.0
 20
0.0
 30
0.0
 40
0.003
 41
0.003
  0
VERTEX
  8
0
 10
4.307195
 20
5.617224
 30
0.0
  0
VERTEX
  8
0
 10
4.778247
 20
5.617224
 30
0.0
  0
SEQEND
  8
0
  0
POLYLINE
  8
0
 66
     1
 10
0.0
 20
0.0
 30
0.0
 40
0.003
 41
0.003
  0
VERTEX
  8
0
 10
1.307268
 20
5.180551
 30
0.0
  0
VERTEX
  8
0
 10
1.709802
 20
5.180551
 30
0.0
  0
VERTEX
  8
0
 10
1.709802
 20
5.835044
 30
0.0
  0
VERTEX
  8
0
 10
1.307268
 20
5.835044
 30
0.0
  0
SEQEND
  8
0
  0
POLYLINE
  8
0
 66
     1
 10
0.0
 20
0.0
 30
0.0
 70
     1
 40
0.003
 41
0.003
  0
VERTEX
  8
0
 10
0.915613
 20
5.835044
 30
0.0
  0
VERTEX
  8
0
 10
0.915613
 20
5.180551
 30
0.0
  0
VERTEX
  8
0
 10
1.307268
 20
5.180551
 30
0.0
  0
VERTEX
  8
0
 10
1.307268
 20
5.835044
 30
0.0
  0
VERTEX
  8
0
 10
1.113616
 20
5.835044
 30
0.0
  0
SEQEND
  8
0
  0
LINE
  8
0
 10
1.046164
 20
5.300143
 30
0.0
 11
1.046164
 21
5.461048
 31
0.0
  0
LINE
  8
0
 10
1.176716
 20
5.461048
 30
0.0
 11
1.176716
 21
5.300143
 31
0.0
  0
LINE
  8
0
 10
1.176716
 20
5.300143
 30
0.0
 11
1.046164
 21
5.300143
 31
0.0
  0
CIRCLE
  8
0
 10
1.40083
 20
5.267527
 30
0.0
 40
0.025006
  0
TEXT
  8
0
 10
1.516462
 20
5.268054
 30
0.0
 40
0.020004
  1
C.A.G.
 41
1.2
  7
ROMAND
  0
LINE
  8
0
 10
1.046164
 20
5.461048
 30
0.0
 11
1.176716
 21
5.461048
 31
0.0
  0
TEXT
  8
0
 10
1.07177
 20
5.575673
 30
0.0
 40
0.020004
  1
ALIM.
 41
1.2
  7
ROMAND
  0
CIRCLE
  8
0
 10
1.11144
 20
5.691534
 30
0.0
 40
0.025006
  0
CIRCLE
  8
0
 10
1.40083
 20
5.408863
 30
0.0
 40
0.025006
  0
CIRCLE
  8
0
 10
1.40083
 20
5.552373
 30
0.0
 40
0.025006
  0
POLYLINE
  8
0
 66
     1
 10
0.0
 20
0.0
 30
0.0
 40
0.002501
 41
0.002501
  0
VERTEX
  8
0
 10
1.576157
 20
5.40015
 30
0.0
  0
VERTEX
  8
0
 10
1.582143
 20
5.414875
 30
0.0
  0
SEQEND
  8
0
  0
POLYLINE
  8
0
 66
     1
 10
0.0
 20
0.0
 30
0.0
 40
0.002501
 41
0.002501
  0
VERTEX
  8
0
 10
1.545476
 20
5.414875
 30
0.0
  0
VERTEX
  8
0
 10
1.582143
 20
5.414875
 30
0.0
  0
SEQEND
  8
0
  0
POLYLINE
  8
0
 66
     1
 10
0.0
 20
0.0
 30
0.0
 40
0.002501
 41
0.002501
  0
VERTEX
  8
0
 10
1.564037
 20
5.414875
 30
0.0
  0
VERTEX
  8
0
 10
1.564037
 20
5.441563
 30
0.0
  0
SEQEND
  8
0
  0
POLYLINE
  8
0
 66
     1
 10
0.0
 20
0.0
 30
0.0
 40
0.002501
 41
0.002501
  0
VERTEX
  8
0
 10
1.53958
 20
5.40015
 30
0.0
  0
VERTEX
  8
0
 10
1.545566
 20
5.414875
 30
0.0
  0
SEQEND
  8
0
  0
POLYLINE
  8
0
 66
     1
 10
0.0
 20
0.0
 30
0.0
 40
0.002501
 41
0.002501
  0
VERTEX
  8
0
 10
1.558151
 20
5.40015
 30
0.0
  0
VERTEX
  8
0
 10
1.564137
 20
5.414875
 30
0.0
  0
SEQEND
  8
0
  0
TEXT
  8
0
 10
1.474809
 20
5.543675
 30
0.0
 40
0.020004
  1
12.8-13.8v
 41
1.2
  7
ROMAND
  0
CIRCLE
  8
0
 10
1.40083
 20
5.691534
 30
0.0
 40
0.025006
  0
TEXT
  8
0
 10
1.480532
 20
5.802428
 30
0.0
 40
0.020004
  1
CONTROL
 41
1.2
  7
ROMAND
  0
POLYLINE
  8
0
 66
     1
 10
0.0
 20
0.0
 30
0.0
 40
0.005001
 41
0.005001
  0
VERTEX
  8
0
 10
1.481266
 20
5.789481
 30
0.0
  0
VERTEX
  8
0
 10
1.640444
 20
5.789481
 30
0.0
  0
SEQEND
  8
0
  0
TEXT
  8
0
 10
1.484955
 20
5.687185
 30
0.0
 40
0.020004
  1
  24v.
 41
1.2
  7
ROMAND
  0
POINT
  8
0
 10
1.566674
 20
5.734797
 30
0.0
  0
POLYLINE
  8
0
 66
     1
 10
0.0
 20
0.0
 30
0.0
 70
     1
 40
0.003
 41
0.003
  0
VERTEX
  8
0
 10
3.021922
 20
6.121686
 30
0.0
  0
VERTEX
  8
0
 10
3.021922
 20
5.817571
 30
0.0
  0
VERTEX
  8
0
 10
3.482376
 20
5.817571
 30
0.0
  0
VERTEX
  8
0
 10
3.482376
 20
6.12131
 30
0.0
  0
VERTEX
  8
0
 10
3.125296
 20
6.120745
 30
0.0
  0
SEQEND
  8
0
  0
POLYLINE
  8
0
 66
     1
 10
0.0
 20
0.0
 30
0.0
 70
     1
 40
0.003
 41
0.003
  0
VERTEX
  8
0
 10
3.623968
 20
6.120601
 30
0.0
  0
VERTEX
  8
0
 10
3.924645
 20
6.120601
 30
0.0
  0
VERTEX
  8
0
 10
3.924645
 20
5.378953
 30
0.0
  0
VERTEX
  8
0
 10
3.623968
 20
5.378953
 30
0.0
  0
SEQEND
  8
0
  0
TEXT
  8
0
 10
3.106174
 20
6.079804
 30
0.0
 40
0.02
  1
TX
 41
1.2
  7
ROMAND
  0
TEXT
  8
0
 10
3.361751
 20
6.079349
 30
0.0
 40
0.02
  1
RX
 41
1.2
  7
ROMAND
  0
TEXT
  8
0
 10
3.183912
 20
5.844619
 30
0.0
 40
0.02
  1
MODEM
 41
1.2
  7
ROMAND
  0
TEXT
  8
0
 10
3.688292
 20
5.953993
 30
0.0
 40
0.02
  1
SINTONIA
 41
1.2
  7
ROMAND
  0
TEXT
  8
0
 10
3.711689
 20
5.694946
 30
0.0
 40
0.02
  1
NIVEL
 41
1.2
  7
ROMAND
  0
TEXT
  8
0
 10
3.711689
 20
5.662565
 30
0.0
 40
0.02
  1
AUDIO
 41
1.2
  7
ROMAND
  0
TEXT
  8
0
 10
3.711689
 20
5.468279
 30
0.0
 40
0.02
  1
NIVEL
 41
1.2
  7
ROMAND
  0
TEXT
  8
0
 10
3.711689
 20
5.435898
 30
0.0
 40
0.02
  1
VIDEO
 41
1.2
  7
ROMAND
  0
TEXT
  8
0
 10
3.334408
 20
5.4396
 30
0.0
 40
0.02
  1
VIDEO
 41
1.2
  7
ROMAND
  0
TEXT
  8
0
 10
3.31402
 20
5.404296
 30
0.0
 40
0.02
  1
MONITOR
 41
1.2
  7
ROMAND
  0
TEXT
  8
0
 10
4.514987
 20
5.643724
 30
0.0
 40
0.02
  1
COMUNICACION
 41
1.2
  7
ROMAND
  0
TEXT
  8
0
 10
4.606849
 20
6.135089
 30
0.0
 40
0.05
  1
Ebsl
 41
1.2
  7
ROMAND
  0
TEXT
  8
0
 10
0.897807
 20
6.13725
 30
0.0
 40
0.05
  1
UCC-23.2-2A
 41
1.2
  7
ROMAND
  0
ENDBLK
  8
0
  0
ENDSEC
  0
SECTION
  2
ENTITIES
  0
INSERT
  8
0
  2
UCC232A
 10
-0.845888
 20
-13.324803
 30
0.0
 41
1.321787
 42
1.321787
 43
1.321787
  0
INSERT
  8
0
  2
UCC232A
 10
-0.845888
 20
-11.658062
 30
0.0
 41
1.321787
 42
1.321787
 43
1.321787
  0
INSERT
  8
0
  2
UCC232A
 10
-0.845888
 20
-9.946274
 30
0.0
 41
1.321787
 42
1.321787
 43
1.321787
  0
INSERT
  8
0
  2
UCC232A
 10
-0.845888
 20
-8.279533
 30
0.0
 41
1.321787
 42
1.321787
 43
1.321787
  0
ENDSEC
  0
EOF
