*%FSLAX53Y53*
SFA1.0B1.0*%
G71*
G90*
G01*
D02*
G54D11*
X240665Y205105D02*
X240665Y215265D01*
X214630Y205740D02*
X214630Y205740D01*
X214630Y240030D01*
X213995Y205105D01*
X213995Y240665D01*
X215265Y240665D01*
X215265Y205105D01*
X213995Y205105D01*
X214630Y222885D01*
D02*
G54D11*
X231140Y247650D02*
X283210Y247650D01*
X283210Y247650D02*
X284480Y247650D01*
X229870Y240030D02*
X231140Y238760D01*
X229870Y240030D02*
X229870Y246380D01*
X229870Y246380D02*
X283210Y246380D01*
X232410Y240030D02*
X233680Y238760D01*
X232410Y240030D02*
X232410Y245110D01*
X232410Y245110D02*
X280670Y245110D01*
X233680Y241300D02*
X233680Y243840D01*
X233680Y243840D02*
X281940Y243840D01*
X281940Y241300D02*
X281940Y243840D01*
X217170Y222250D02*
X218440Y223520D01*
X217170Y218440D02*
X217170Y222250D01*
X243840Y203200D02*
X243840Y213360D01*
X219710Y222250D02*
X220980Y223520D01*
X245110Y214630D02*
X246380Y215900D01*
X245110Y204470D02*
X245110Y214630D01*
X246380Y205740D02*
X246380Y213360D01*
X222250Y222250D02*
X223520Y223520D01*
X222250Y207010D02*
X222250Y222250D01*
X247650Y214630D02*
X248920Y215900D01*
X247650Y207010D02*
X247650Y214630D01*
X223520Y208280D02*
X223520Y220980D01*
X248920Y208280D02*
X248920Y213360D01*
X224790Y222250D02*
X226060Y223520D01*
X224790Y209550D02*
X224790Y222250D01*
X250190Y214630D02*
X251460Y215900D01*
X250190Y209550D02*
X250190Y214630D01*
X226060Y210820D02*
X226060Y220980D01*
X251460Y210820D02*
X251460Y213360D01*
X227330Y222250D02*
X228600Y223520D01*
X227330Y212090D02*
X227330Y222250D01*
X252730Y214630D02*
X254000Y215900D01*
X252730Y212090D02*
X252730Y214630D01*
X229870Y226060D02*
X308610Y226060D01*
X229870Y222250D02*
X231140Y223520D01*
X229870Y215900D02*
X229870Y222250D01*
X231140Y214630D02*
X231140Y220980D01*
X208280Y246380D02*
X229870Y246380D01*
X231140Y241300D02*
X231140Y245110D01*
X233680Y223520D02*
X234950Y222250D01*
X234950Y213360D02*
X234950Y222250D01*
X232410Y213360D02*
X234950Y213360D01*
X210820Y213360D02*
X210820Y217170D01*
X236220Y217170D02*
X236220Y220980D01*
X236220Y217170D02*
X260349Y217170D01*
X260349Y214630D02*
X260349Y217170D01*
X260349Y214630D02*
X261619Y213360D01*
X236220Y223520D02*
X237490Y220980D01*
X237490Y218440D02*
X237490Y220980D01*
X237490Y218440D02*
X261619Y218440D01*
X261619Y215900D02*
X261619Y218440D01*
X264160Y215900D02*
X265430Y213360D01*
X265430Y203200D02*
X265430Y213360D01*
X265430Y203200D02*
X292100Y203200D01*
X292100Y203200D02*
X292100Y224790D01*
X266700Y204470D02*
X266700Y213360D01*
X266700Y204470D02*
X290830Y204470D01*
X290830Y204470D02*
X290830Y223520D01*
X266700Y215900D02*
X267970Y214630D01*
X267970Y205740D02*
X267970Y214630D01*
X267970Y205740D02*
X289560Y205740D01*
X289560Y205740D02*
X289560Y222250D01*
X269240Y207010D02*
X269240Y213360D01*
X269240Y207010D02*
X288290Y207010D01*
X288290Y207010D02*
X288290Y220980D01*
X269240Y215900D02*
X270510Y214630D01*
X270510Y208280D02*
X270510Y214630D01*
X270510Y208280D02*
X287020Y208280D01*
X287020Y208280D02*
X287020Y219710D01*
X278130Y224790D02*
X292100Y224790D01*
X284480Y241300D02*
X284480Y247650D01*
X283210Y240030D02*
X283210Y246380D01*
X283210Y240030D02*
X284480Y238760D01*
X287020Y241300D02*
X287020Y247650D01*
X287020Y247650D02*
X308610Y247650D01*
X308610Y226060D02*
X308610Y247650D01*
X237490Y240030D02*
X237490Y242570D01*
X237490Y240030D02*
X238760Y238760D01*
X278130Y240030D02*
X278130Y242570D01*
X276860Y238760D02*
X278130Y240030D01*
X275590Y240030D02*
X275590Y242570D01*
X274320Y238760D02*
X275590Y240030D01*
X240030Y240030D02*
X240030Y242570D01*
X240030Y240030D02*
X241300Y238760D01*
X254000Y237490D02*
X254000Y243840D01*
X242570Y240030D02*
X242570Y242570D01*
X242570Y240030D02*
X243840Y238760D01*
X273050Y240030D02*
X273050Y242570D01*
X271780Y238760D02*
X273050Y240030D01*
X273050Y219710D02*
X273050Y224790D01*
X273050Y219710D02*
X287020Y219710D01*
X274320Y220980D02*
X274320Y224790D01*
X274320Y220980D02*
X288290Y220980D01*
X275590Y222250D02*
X275590Y224790D01*
X275590Y222250D02*
X289560Y222250D01*
X276860Y223520D02*
X276860Y224790D01*
X276860Y223520D02*
X290830Y223520D01*
X248920Y241300D02*
X250190Y240030D01*
X250190Y240030D02*
X252730Y240030D01*
X248920Y220980D02*
X250190Y219710D01*
X273050Y214630D02*
X273050Y217170D01*
X273050Y214630D02*
X274320Y213360D01*
X255270Y240030D02*
X265430Y240030D01*
X265430Y240030D02*
X266700Y241300D01*
X250190Y219710D02*
X266700Y219710D01*
X266700Y217170D02*
X273050Y217170D01*
X266700Y217170D02*
X266700Y219710D01*
X248920Y223520D02*
X248920Y224790D01*
X248920Y224790D02*
X267970Y224790D01*
X274320Y215900D02*
X274320Y218440D01*
X274320Y218440D02*
X278130Y218440D01*
X266700Y224790D02*
X271780Y224790D01*
X251460Y223520D02*
X270510Y223520D01*
X218440Y207010D02*
X218440Y220980D01*
X219710Y207010D02*
X219710Y222250D01*
X220980Y207010D02*
X220980Y220980D01*
X213360Y241300D02*
X215900Y241300D01*
X213360Y220980D02*
X213360Y241300D01*
X213360Y220980D02*
X215900Y220980D01*
X213360Y223520D02*
X215900Y223520D01*
X213360Y238760D02*
X215900Y238760D01*
X213360Y204470D02*
X213360Y220980D01*
X213360Y204470D02*
X240030Y204470D01*
X240030Y204470D02*
X240030Y215900D01*
X240030Y215900D02*
X241300Y215900D01*
X240030Y213360D02*
X241300Y213360D01*
X241300Y213360D02*
X241300Y215900D01*
X215900Y220980D02*
X215900Y223520D01*
X215900Y238760D02*
X215900Y241300D01*
X251460Y220980D02*
X270510Y220980D01*
X243840Y241300D02*
X245110Y242570D01*
X245110Y242570D02*
X252730Y242570D01*
X255270Y242570D02*
X270510Y242570D01*
X270510Y242570D02*
X271780Y241300D01*
X227330Y227330D02*
X232562Y226974D01*
X232562Y226974D02*
X266700Y226974D01*
X232765Y227990D02*
X266700Y227990D01*
X226060Y228600D02*
X232765Y227990D01*
X284175Y226974D02*
X288290Y227330D01*
X266700Y226974D02*
X284175Y226974D01*
X285394Y227990D02*
X289560Y228600D01*
X266700Y227990D02*
X285394Y227990D01*
X224790Y229870D02*
X231952Y229006D01*
X231952Y229006D02*
X285394Y229006D01*
X285394Y229006D02*
X290830Y229870D01*
X223520Y231140D02*
X231952Y230225D01*
X231952Y230225D02*
X285394Y230225D01*
X285394Y230225D02*
X292100Y231140D01*
X222250Y232410D02*
X231546Y231241D01*
X231546Y231241D02*
X285800Y231241D01*
X285800Y231241D02*
X293370Y232410D01*
X231546Y232257D02*
X285597Y232257D01*
X285597Y232257D02*
X294640Y233680D01*
X230733Y233273D02*
X285800Y233273D01*
X285800Y233273D02*
X295910Y234950D01*
X230733Y234289D02*
X286410Y234289D01*
X286410Y234289D02*
X297180Y236220D01*
X217170Y236220D02*
X220167Y236321D01*
X220167Y236321D02*
X230733Y234289D01*
X219710Y234950D02*
X221792Y234899D01*
X221792Y234899D02*
X230733Y233273D01*
X220980Y233680D02*
X222402Y233680D01*
X222402Y233680D02*
X231546Y232257D01*
X246380Y235915D02*
X268122Y235915D01*
X301269Y245110D02*
X301269Y246634D01*
X302234Y246634D01*
X301269Y245897D02*
X301853Y245897D01*
X301269Y245110D02*
X302234Y245110D01*
X302641Y245110D02*
X302641Y246634D01*
X303301Y246634D01*
X303530Y246557D01*
X303606Y246481D01*
X303657Y246354D01*
X303657Y246202D01*
X303606Y246049D01*
X303530Y245973D01*
X303301Y245897D01*
X302641Y245897D02*
X303301Y245897D01*
X303530Y245846D01*
X303606Y245770D01*
X303657Y245618D01*
X303657Y245389D01*
X303606Y245262D01*
X303530Y245186D01*
X303301Y245110D01*
X302641Y245110D01*
X305130Y246405D02*
X304977Y246557D01*
X304749Y246634D01*
X304469Y246634D01*
X304241Y246557D01*
X304114Y246405D01*
X304114Y246278D01*
X304165Y246126D01*
X304241Y246049D01*
X304393Y245973D01*
X304825Y245846D01*
X304977Y245770D01*
X305054Y245694D01*
X305130Y245541D01*
X305130Y245338D01*
X304977Y245186D01*
X304749Y245110D01*
X304469Y245110D01*
X304241Y245186D01*
X304114Y245338D01*
X305612Y246634D02*
X305612Y245110D01*
X306501Y245110D01*
X289839Y245110D02*
X289839Y246634D01*
X290499Y246634D01*
X290728Y246557D01*
X290804Y246481D01*
X290855Y246354D01*
X290855Y246202D01*
X290804Y246049D01*
X290728Y245973D01*
X290499Y245897D01*
X289839Y245897D01*
X290347Y245897D02*
X290855Y245110D01*
X291668Y246634D02*
X291668Y245110D01*
X291160Y246634D02*
X292176Y246634D01*
X293497Y246405D02*
X293344Y246557D01*
X293116Y246634D01*
X292836Y246634D01*
X292608Y246557D01*
X292481Y246405D01*
X292481Y246278D01*
X292531Y246126D01*
X292608Y246049D01*
X292760Y245973D01*
X293192Y245846D01*
X293344Y245770D01*
X293420Y245694D01*
X293497Y245541D01*
X293497Y245338D01*
X293344Y245186D01*
X293116Y245110D01*
X292836Y245110D01*
X292608Y245186D01*
X292481Y245338D01*
X293979Y246634D02*
X293979Y245110D01*
X294868Y245110D01*
X295605Y246634D02*
X295452Y246557D01*
X295300Y246405D01*
X295224Y246278D01*
X295173Y246049D01*
X295173Y245694D01*
X295224Y245465D01*
X295300Y245338D01*
X295452Y245186D01*
X295605Y245110D01*
X295884Y245110D01*
X296037Y245186D01*
X296189Y245338D01*
X296240Y245465D01*
X296316Y245694D01*
X296316Y246049D01*
X296240Y246278D01*
X296189Y246405D01*
X296037Y246557D01*
X295884Y246634D01*
X295605Y246634D01*
X297129Y246634D02*
X297129Y245110D01*
X296621Y246634D02*
X297637Y246634D01*
X296189Y209550D02*
X296189Y211074D01*
X297154Y211074D01*
X296189Y210337D02*
X296773Y210337D01*
X296189Y209550D02*
X297154Y209550D01*
X297561Y209550D02*
X297561Y211074D01*
X298221Y211074D01*
X298450Y210997D01*
X298526Y210921D01*
X298577Y210794D01*
X298577Y210642D01*
X298526Y210489D01*
X298450Y210413D01*
X298221Y210337D01*
X297561Y210337D02*
X298221Y210337D01*
X298450Y210286D01*
X298526Y210210D01*
X298577Y210058D01*
X298577Y209829D01*
X298526Y209702D01*
X298450Y209626D01*
X298221Y209550D01*
X297561Y209550D01*
X300050Y210845D02*
X299897Y210997D01*
X299669Y211074D01*
X299389Y211074D01*
X299161Y210997D01*
X299034Y210845D01*
X299034Y210718D01*
X299085Y210566D01*
X299161Y210489D01*
X299313Y210413D01*
X299745Y210286D01*
X299897Y210210D01*
X299974Y210134D01*
X300050Y209981D01*
X300050Y209778D01*
X299897Y209626D01*
X299669Y209550D01*
X299389Y209550D01*
X299161Y209626D01*
X299034Y209778D01*
X300532Y211074D02*
X300532Y209550D01*
X301421Y209550D01*
X204673Y249555D02*
X311505Y249529D01*
X302488Y201879D02*
X311277Y201879D01*
X302564Y201879D02*
X302564Y208483D01*
X292785Y201955D02*
X292811Y208483D01*
X204927Y201930D02*
X292862Y201955D01*
X204622Y249555D02*
X204901Y201980D01*
X311226Y201904D02*
X311607Y249478D01*
X292811Y208483D02*
X302564Y208483D01*
X246507Y215900D02*
X246507Y215900D01*
X246456Y215976D01*
X246354Y216027D01*
X246278Y215976D01*
X246253Y215874D01*
X246278Y215798D01*
X246380Y215773D01*
X246456Y215798D01*
X246507Y215900D01*
X246380Y215900D01*
X249047Y215900D02*
X249047Y215900D01*
X248996Y215976D01*
X248894Y216027D01*
X248818Y215976D01*
X248793Y215874D01*
X248818Y215798D01*
X248920Y215773D01*
X248996Y215798D01*
X249047Y215900D01*
X248920Y215900D01*
X251587Y215900D02*
X251587Y215900D01*
X251536Y215976D01*
X251434Y216027D01*
X251358Y215976D01*
X251333Y215874D01*
X251358Y215798D01*
X251460Y215773D01*
X251536Y215798D01*
X251587Y215900D01*
X251460Y215900D01*
X254127Y215900D02*
X254127Y215900D01*
X254076Y215976D01*
X253974Y216027D01*
X253898Y215976D01*
X253873Y215874D01*
X253898Y215798D01*
X254000Y215773D01*
X254076Y215798D01*
X254127Y215900D01*
X254000Y215900D01*
X256667Y215900D02*
X256667Y215900D01*
X256616Y215976D01*
X256514Y216027D01*
X256438Y215976D01*
X256413Y215874D01*
X256438Y215798D01*
X256540Y215773D01*
X256616Y215798D01*
X256667Y215900D01*
X256540Y215900D01*
X259207Y215900D02*
X259207Y215900D01*
X259156Y215976D01*
X259054Y216027D01*
X258978Y215976D01*
X258953Y215874D01*
X258978Y215798D01*
X259080Y215773D01*
X259156Y215798D01*
X259207Y215900D01*
X259080Y215900D01*
X261746Y215900D02*
X261746Y215900D01*
X261696Y215976D01*
X261594Y216027D01*
X261518Y215976D01*
X261492Y215874D01*
X261518Y215798D01*
X261619Y215773D01*
X261696Y215798D01*
X261746Y215900D01*
X261619Y215900D01*
X264287Y215900D02*
X264287Y215900D01*
X264236Y215976D01*
X264134Y216027D01*
X264058Y215976D01*
X264033Y215874D01*
X264058Y215798D01*
X264160Y215773D01*
X264236Y215798D01*
X264287Y215900D01*
X264160Y215900D01*
X266827Y215900D02*
X266827Y215900D01*
X266776Y215976D01*
X266674Y216027D01*
X266598Y215976D01*
X266573Y215874D01*
X266598Y215798D01*
X266700Y215773D01*
X266776Y215798D01*
X266827Y215900D01*
X266700Y215900D01*
X269367Y215900D02*
X269367Y215900D01*
X269316Y215976D01*
X269214Y216027D01*
X269138Y215976D01*
X269113Y215874D01*
X269138Y215798D01*
X269240Y215773D01*
X269316Y215798D01*
X269367Y215900D01*
X269240Y215900D01*
X271907Y215900D02*
X271907Y215900D01*
X271856Y215976D01*
X271754Y216027D01*
X271678Y215976D01*
X271653Y215874D01*
X271678Y215798D01*
X271780Y215773D01*
X271856Y215798D01*
X271907Y215900D01*
X271780Y215900D01*
X274447Y215900D02*
X274447Y215900D01*
X274396Y215976D01*
X274294Y216027D01*
X274218Y215976D01*
X274193Y215874D01*
X274218Y215798D01*
X274320Y215773D01*
X274396Y215798D01*
X274447Y215900D01*
X274320Y215900D01*
X276987Y215900D02*
X276987Y215900D01*
X276936Y215976D01*
X276834Y216027D01*
X276758Y215976D01*
X276733Y215874D01*
X276758Y215798D01*
X276860Y215773D01*
X276936Y215798D01*
X276987Y215900D01*
X276860Y215900D01*
X276987Y213360D02*
X276987Y213360D01*
X276936Y213436D01*
X276834Y213487D01*
X276758Y213436D01*
X276733Y213334D01*
X276758Y213258D01*
X276860Y213233D01*
X276936Y213258D01*
X276987Y213360D01*
X276860Y213360D01*
X274447Y213360D02*
X274447Y213360D01*
X274396Y213436D01*
X274294Y213487D01*
X274218Y213436D01*
X274193Y213334D01*
X274218Y213258D01*
X274320Y213233D01*
X274396Y213258D01*
X274447Y213360D01*
X274320Y213360D01*
X271907Y213360D02*
X271907Y213360D01*
X271856Y213436D01*
X271754Y213487D01*
X271678Y213436D01*
X271653Y213334D01*
X271678Y213258D01*
X271780Y213233D01*
X271856Y213258D01*
X271907Y213360D01*
X271780Y213360D01*
X269367Y213360D02*
X269367Y213360D01*
X269316Y213436D01*
X269214Y213487D01*
X269138Y213436D01*
X269113Y213334D01*
X269138Y213258D01*
X269240Y213233D01*
X269316Y213258D01*
X269367Y213360D01*
X269240Y213360D01*
X266827Y213360D02*
X266827Y213360D01*
X266776Y213436D01*
X266674Y213487D01*
X266598Y213436D01*
X266573Y213334D01*
X266598Y213258D01*
X266700Y213233D01*
X266776Y213258D01*
X266827Y213360D01*
X266700Y213360D01*
X264287Y213360D02*
X264287Y213360D01*
X264236Y213436D01*
X264134Y213487D01*
X264058Y213436D01*
X264033Y213334D01*
X264058Y213258D01*
X264160Y213233D01*
X264236Y213258D01*
X264287Y213360D01*
X264160Y213360D01*
X261746Y213360D02*
X261746Y213360D01*
X261696Y213436D01*
X261594Y213487D01*
X261518Y213436D01*
X261492Y213334D01*
X261518Y213258D01*
X261619Y213233D01*
X261696Y213258D01*
X261746Y213360D01*
X261619Y213360D01*
X259207Y213360D02*
X259207Y213360D01*
X259156Y213436D01*
X259054Y213487D01*
X258978Y213436D01*
X258953Y213334D01*
X258978Y213258D01*
X259080Y213233D01*
X259156Y213258D01*
X259207Y213360D01*
X259080Y213360D01*
X256667Y213360D02*
X256667Y213360D01*
X256616Y213436D01*
X256514Y213487D01*
X256438Y213436D01*
X256413Y213334D01*
X256438Y213258D01*
X256540Y213233D01*
X256616Y213258D01*
X256667Y213360D01*
X256540Y213360D01*
X254127Y213360D02*
X254127Y213360D01*
X254076Y213436D01*
X253974Y213487D01*
X253898Y213436D01*
X253873Y213334D01*
X253898Y213258D01*
X254000Y213233D01*
X254076Y213258D01*
X254127Y213360D01*
X254000Y213360D01*
X251587Y213360D02*
X251587Y213360D01*
X251536Y213436D01*
X251434Y213487D01*
X251358Y213436D01*
X251333Y213334D01*
X251358Y213258D01*
X251460Y213233D01*
X251536Y213258D01*
X251587Y213360D01*
X251460Y213360D01*
X249047Y213360D02*
X249047Y213360D01*
X248996Y213436D01*
X248894Y213487D01*
X248818Y213436D01*
X248793Y213334D01*
X248818Y213258D01*
X248920Y213233D01*
X248996Y213258D01*
X249047Y213360D01*
X248920Y213360D01*
X246507Y213360D02*
X246507Y213360D01*
X246456Y213436D01*
X246354Y213487D01*
X246278Y213436D01*
X246253Y213334D01*
X246278Y213258D01*
X246380Y213233D01*
X246456Y213258D01*
X246507Y213360D01*
X246380Y213360D01*
X243967Y213360D02*
X243967Y213360D01*
X243916Y213436D01*
X243814Y213487D01*
X243738Y213436D01*
X243713Y213334D01*
X243738Y213258D01*
X243840Y213233D01*
X243916Y213258D01*
X243967Y213360D01*
X243840Y213360D01*
X243967Y215900D02*
X243967Y215900D01*
X243916Y215976D01*
X243814Y216027D01*
X243738Y215976D01*
X243713Y215874D01*
X243738Y215798D01*
X243840Y215773D01*
X243916Y215798D01*
X243967Y215900D01*
X243840Y215900D01*
X241427Y215900D02*
X241427Y215900D01*
X241376Y215976D01*
X241274Y216027D01*
X241198Y215976D01*
X241173Y215874D01*
X241198Y215798D01*
X241300Y215773D01*
X241376Y215798D01*
X241427Y215900D01*
X241300Y215900D01*
X241427Y213487D02*
X241173Y213487D01*
X241173Y213233D01*
X241427Y213233D01*
X241427Y213487D01*
X241300Y213360D01*
X216027Y221107D02*
X215773Y221107D01*
X215773Y220853D01*
X216027Y220853D01*
X216027Y221107D01*
X215900Y220980D01*
X216027Y223520D02*
X216027Y223520D01*
X215976Y223596D01*
X215874Y223647D01*
X215798Y223596D01*
X215773Y223494D01*
X215798Y223418D01*
X215900Y223393D01*
X215976Y223418D01*
X216027Y223520D01*
X215900Y223520D01*
X218567Y223520D02*
X218567Y223520D01*
X218516Y223596D01*
X218414Y223647D01*
X218338Y223596D01*
X218313Y223494D01*
X218338Y223418D01*
X218440Y223393D01*
X218516Y223418D01*
X218567Y223520D01*
X218440Y223520D01*
X218567Y220980D02*
X218567Y220980D01*
X218516Y221056D01*
X218414Y221107D01*
X218338Y221056D01*
X218313Y220954D01*
X218338Y220878D01*
X218440Y220853D01*
X218516Y220878D01*
X218567Y220980D01*
X218440Y220980D01*
X221107Y220980D02*
X221107Y220980D01*
X221056Y221056D01*
X220954Y221107D01*
X220878Y221056D01*
X220853Y220954D01*
X220878Y220878D01*
X220980Y220853D01*
X221056Y220878D01*
X221107Y220980D01*
X220980Y220980D01*
X223647Y220980D02*
X223647Y220980D01*
X223596Y221056D01*
X223494Y221107D01*
X223418Y221056D01*
X223393Y220954D01*
X223418Y220878D01*
X223520Y220853D01*
X223596Y220878D01*
X223647Y220980D01*
X223520Y220980D01*
X226187Y220980D02*
X226187Y220980D01*
X226136Y221056D01*
X226034Y221107D01*
X225958Y221056D01*
X225933Y220954D01*
X225958Y220878D01*
X226060Y220853D01*
X226136Y220878D01*
X226187Y220980D01*
X226060Y220980D01*
X228727Y220980D02*
X228727Y220980D01*
X228676Y221056D01*
X228574Y221107D01*
X228498Y221056D01*
X228473Y220954D01*
X228498Y220878D01*
X228600Y220853D01*
X228676Y220878D01*
X228727Y220980D01*
X228600Y220980D01*
X231267Y220980D02*
X231267Y220980D01*
X231216Y221056D01*
X231114Y221107D01*
X231038Y221056D01*
X231013Y220954D01*
X231038Y220878D01*
X231140Y220853D01*
X231216Y220878D01*
X231267Y220980D01*
X231140Y220980D01*
X233807Y220980D02*
X233807Y220980D01*
X233756Y221056D01*
X233654Y221107D01*
X233578Y221056D01*
X233553Y220954D01*
X233578Y220878D01*
X233680Y220853D01*
X233756Y220878D01*
X233807Y220980D01*
X233680Y220980D01*
X236347Y220980D02*
X236347Y220980D01*
X236296Y221056D01*
X236194Y221107D01*
X236118Y221056D01*
X236093Y220954D01*
X236118Y220878D01*
X236220Y220853D01*
X236296Y220878D01*
X236347Y220980D01*
X236220Y220980D01*
X238887Y220980D02*
X238887Y220980D01*
X238836Y221056D01*
X238734Y221107D01*
X238658Y221056D01*
X238633Y220954D01*
X238658Y220878D01*
X238760Y220853D01*
X238836Y220878D01*
X238887Y220980D01*
X238760Y220980D01*
X241427Y220980D02*
X241427Y220980D01*
X241376Y221056D01*
X241274Y221107D01*
X241198Y221056D01*
X241173Y220954D01*
X241198Y220878D01*
X241300Y220853D01*
X241376Y220878D01*
X241427Y220980D01*
X241300Y220980D01*
X243967Y220980D02*
X243967Y220980D01*
X243916Y221056D01*
X243814Y221107D01*
X243738Y221056D01*
X243713Y220954D01*
X243738Y220878D01*
X243840Y220853D01*
X243916Y220878D01*
X243967Y220980D01*
X243840Y220980D01*
X246507Y220980D02*
X246507Y220980D01*
X246456Y221056D01*
X246354Y221107D01*
X246278Y221056D01*
X246253Y220954D01*
X246278Y220878D01*
X246380Y220853D01*
X246456Y220878D01*
X246507Y220980D01*
X246380Y220980D01*
X249047Y220980D02*
X249047Y220980D01*
X248996Y221056D01*
X248894Y221107D01*
X248818Y221056D01*
X248793Y220954D01*
X248818Y220878D01*
X248920Y220853D01*
X248996Y220878D01*
X249047Y220980D01*
X248920Y220980D01*
X251587Y220980D02*
X251587Y220980D01*
X251536Y221056D01*
X251434Y221107D01*
X251358Y221056D01*
X251333Y220954D01*
X251358Y220878D01*
X251460Y220853D01*
X251536Y220878D01*
X251587Y220980D01*
X251460Y220980D01*
X251587Y223520D02*
X251587Y223520D01*
X251536Y223596D01*
X251434Y223647D01*
X251358Y223596D01*
X251333Y223494D01*
X251358Y223418D01*
X251460Y223393D01*
X251536Y223418D01*
X251587Y223520D01*
X251460Y223520D01*
X249047Y223520D02*
X249047Y223520D01*
X248996Y223596D01*
X248894Y223647D01*
X248818Y223596D01*
X248793Y223494D01*
X248818Y223418D01*
X248920Y223393D01*
X248996Y223418D01*
X249047Y223520D01*
X248920Y223520D01*
X246507Y223520D02*
X246507Y223520D01*
X246456Y223596D01*
X246354Y223647D01*
X246278Y223596D01*
X246253Y223494D01*
X246278Y223418D01*
X246380Y223393D01*
X246456Y223418D01*
X246507Y223520D01*
X246380Y223520D01*
X243967Y223520D02*
X243967Y223520D01*
X243916Y223596D01*
X243814Y223647D01*
X243738Y223596D01*
X243713Y223494D01*
X243738Y223418D01*
X243840Y223393D01*
X243916Y223418D01*
X243967Y223520D01*
X243840Y223520D01*
X241427Y223520D02*
X241427Y223520D01*
X241376Y223596D01*
X241274Y223647D01*
X241198Y223596D01*
X241173Y223494D01*
X241198Y223418D01*
X241300Y223393D01*
X241376Y223418D01*
X241427Y223520D01*
X241300Y223520D01*
X238887Y223520D02*
X238887Y223520D01*
X238836Y223596D01*
X238734Y223647D01*
X238658Y223596D01*
X238633Y223494D01*
X238658Y223418D01*
X238760Y223393D01*
X238836Y223418D01*
X238887Y223520D01*
X238760Y223520D01*
X236347Y223520D02*
X236347Y223520D01*
X236296Y223596D01*
X236194Y223647D01*
X236118Y223596D01*
X236093Y223494D01*
X236118Y223418D01*
X236220Y223393D01*
X236296Y223418D01*
X236347Y223520D01*
X236220Y223520D01*
X233807Y223520D02*
X233807Y223520D01*
X233756Y223596D01*
X233654Y223647D01*
X233578Y223596D01*
X233553Y223494D01*
X233578Y223418D01*
X233680Y223393D01*
X233756Y223418D01*
X233807Y223520D01*
X233680Y223520D01*
X231267Y223520D02*
X231267Y223520D01*
X231216Y223596D01*
X231114Y223647D01*
X231038Y223596D01*
X231013Y223494D01*
X231038Y223418D01*
X231140Y223393D01*
X231216Y223418D01*
X231267Y223520D01*
X231140Y223520D01*
X228727Y223520D02*
X228727Y223520D01*
X228676Y223596D01*
X228574Y223647D01*
X228498Y223596D01*
X228473Y223494D01*
X228498Y223418D01*
X228600Y223393D01*
X228676Y223418D01*
X228727Y223520D01*
X228600Y223520D01*
X226187Y223520D02*
X226187Y223520D01*
X226136Y223596D01*
X226034Y223647D01*
X225958Y223596D01*
X225933Y223494D01*
X225958Y223418D01*
X226060Y223393D01*
X226136Y223418D01*
X226187Y223520D01*
X226060Y223520D01*
X223647Y223520D02*
X223647Y223520D01*
X223596Y223596D01*
X223494Y223647D01*
X223418Y223596D01*
X223393Y223494D01*
X223418Y223418D01*
X223520Y223393D01*
X223596Y223418D01*
X223647Y223520D01*
X223520Y223520D01*
X221107Y223520D02*
X221107Y223520D01*
X221056Y223596D01*
X220954Y223647D01*
X220878Y223596D01*
X220853Y223494D01*
X220878Y223418D01*
X220980Y223393D01*
X221056Y223418D01*
X221107Y223520D01*
X220980Y223520D01*
X216027Y238887D02*
X215773Y238887D01*
X215773Y238633D01*
X216027Y238633D01*
X216027Y238887D01*
X215900Y238760D01*
X216027Y241300D02*
X216027Y241300D01*
X215976Y241376D01*
X215874Y241427D01*
X215798Y241376D01*
X215773Y241274D01*
X215798Y241198D01*
X215900Y241173D01*
X215976Y241198D01*
X216027Y241300D01*
X215900Y241300D01*
X218567Y241300D02*
X218567Y241300D01*
X218516Y241376D01*
X218414Y241427D01*
X218338Y241376D01*
X218313Y241274D01*
X218338Y241198D01*
X218440Y241173D01*
X218516Y241198D01*
X218567Y241300D01*
X218440Y241300D01*
X218567Y238760D02*
X218567Y238760D01*
X218516Y238836D01*
X218414Y238887D01*
X218338Y238836D01*
X218313Y238734D01*
X218338Y238658D01*
X218440Y238633D01*
X218516Y238658D01*
X218567Y238760D01*
X218440Y238760D01*
X221107Y238760D02*
X221107Y238760D01*
X221056Y238836D01*
X220954Y238887D01*
X220878Y238836D01*
X220853Y238734D01*
X220878Y238658D01*
X220980Y238633D01*
X221056Y238658D01*
X221107Y238760D01*
X220980Y238760D01*
X223647Y238760D02*
X223647Y238760D01*
X223596Y238836D01*
X223494Y238887D01*
X223418Y238836D01*
X223393Y238734D01*
X223418Y238658D01*
X223520Y238633D01*
X223596Y238658D01*
X223647Y238760D01*
X223520Y238760D01*
X226187Y238760D02*
X226187Y238760D01*
X226136Y238836D01*
X226034Y238887D01*
X225958Y238836D01*
X225933Y238734D01*
X225958Y238658D01*
X226060Y238633D01*
X226136Y238658D01*
X226187Y238760D01*
X226060Y238760D01*
X228727Y238760D02*
X228727Y238760D01*
X228676Y238836D01*
X228574Y238887D01*
X228498Y238836D01*
X228473Y238734D01*
X228498Y238658D01*
X228600Y238633D01*
X228676Y238658D01*
X228727Y238760D01*
X228600Y238760D01*
X231267Y238760D02*
X231267Y238760D01*
X231216Y238836D01*
X231114Y238887D01*
X231038Y238836D01*
X231013Y238734D01*
X231038Y238658D01*
X231140Y238633D01*
X231216Y238658D01*
X231267Y238760D01*
X231140Y238760D01*
X233807Y238760D02*
X233807Y238760D01*
X233756Y238836D01*
X233654Y238887D01*
X233578Y238836D01*
X233553Y238734D01*
X233578Y238658D01*
X233680Y238633D01*
X233756Y238658D01*
X233807Y238760D01*
X233680Y238760D01*
X236347Y238760D02*
X236347Y238760D01*
X236296Y238836D01*
X236194Y238887D01*
X236118Y238836D01*
X236093Y238734D01*
X236118Y238658D01*
X236220Y238633D01*
X236296Y238658D01*
X236347Y238760D01*
X236220Y238760D01*
X238887Y238760D02*
X238887Y238760D01*
X238836Y238836D01*
X238734Y238887D01*
X238658Y238836D01*
X238633Y238734D01*
X238658Y238658D01*
X238760Y238633D01*
X238836Y238658D01*
X238887Y238760D01*
X238760Y238760D01*
X241427Y238760D02*
X241427Y238760D01*
X241376Y238836D01*
X241274Y238887D01*
X241198Y238836D01*
X241173Y238734D01*
X241198Y238658D01*
X241300Y238633D01*
X241376Y238658D01*
X241427Y238760D01*
X241300Y238760D01*
X243967Y238760D02*
X243967Y238760D01*
X243916Y238836D01*
X243814Y238887D01*
X243738Y238836D01*
X243713Y238734D01*
X243738Y238658D01*
X243840Y238633D01*
X243916Y238658D01*
X243967Y238760D01*
X243840Y238760D01*
X246507Y238760D02*
X246507Y238760D01*
X246456Y238836D01*
X246354Y238887D01*
X246278Y238836D01*
X246253Y238734D01*
X246278Y238658D01*
X246380Y238633D01*
X246456Y238658D01*
X246507Y238760D01*
X246380Y238760D01*
X249047Y238760D02*
X249047Y238760D01*
X248996Y238836D01*
X248894Y238887D01*
X248818Y238836D01*
X248793Y238734D01*
X248818Y238658D01*
X248920Y238633D01*
X248996Y238658D01*
X249047Y238760D01*
X248920Y238760D01*
X251587Y238760D02*
X251587Y238760D01*
X251536Y238836D01*
X251434Y238887D01*
X251358Y238836D01*
X251333Y238734D01*
X251358Y238658D01*
X251460Y238633D01*
X251536Y238658D01*
X251587Y238760D01*
X251460Y238760D01*
X251587Y241300D02*
X251587Y241300D01*
X251536Y241376D01*
X251434Y241427D01*
X251358Y241376D01*
X251333Y241274D01*
X251358Y241198D01*
X251460Y241173D01*
X251536Y241198D01*
X251587Y241300D01*
X251460Y241300D01*
X249047Y241300D02*
X249047Y241300D01*
X248996Y241376D01*
X248894Y241427D01*
X248818Y241376D01*
X248793Y241274D01*
X248818Y241198D01*
X248920Y241173D01*
X248996Y241198D01*
X249047Y241300D01*
X248920Y241300D01*
X246507Y241300D02*
X246507Y241300D01*
X246456Y241376D01*
X246354Y241427D01*
X246278Y241376D01*
X246253Y241274D01*
X246278Y241198D01*
X246380Y241173D01*
X246456Y241198D01*
X246507Y241300D01*
X246380Y241300D01*
X243967Y241300D02*
X243967Y241300D01*
X243916Y241376D01*
X243814Y241427D01*
X243738Y241376D01*
X243713Y241274D01*
X243738Y241198D01*
X243840Y241173D01*
X243916Y241198D01*
X243967Y241300D01*
X243840Y241300D01*
X241427Y241300D02*
X241427Y241300D01*
X241376Y241376D01*
X241274Y241427D01*
X241198Y241376D01*
X241173Y241274D01*
X241198Y241198D01*
X241300Y241173D01*
X241376Y241198D01*
X241427Y241300D01*
X241300Y241300D01*
X238887Y241300D02*
X238887Y241300D01*
X238836Y241376D01*
X238734Y241427D01*
X238658Y241376D01*
X238633Y241274D01*
X238658Y241198D01*
X238760Y241173D01*
X238836Y241198D01*
X238887Y241300D01*
X238760Y241300D01*
X236347Y241300D02*
X236347Y241300D01*
X236296Y241376D01*
X236194Y241427D01*
X236118Y241376D01*
X236093Y241274D01*
X236118Y241198D01*
X236220Y241173D01*
X236296Y241198D01*
X236347Y241300D01*
X236220Y241300D01*
X233807Y241300D02*
X233807Y241300D01*
X233756Y241376D01*
X233654Y241427D01*
X233578Y241376D01*
X233553Y241274D01*
X233578Y241198D01*
X233680Y241173D01*
X233756Y241198D01*
X233807Y241300D01*
X233680Y241300D01*
X231267Y241300D02*
X231267Y241300D01*
X231216Y241376D01*
X231114Y241427D01*
X231038Y241376D01*
X231013Y241274D01*
X231038Y241198D01*
X231140Y241173D01*
X231216Y241198D01*
X231267Y241300D01*
X231140Y241300D01*
X228727Y241300D02*
X228727Y241300D01*
X228676Y241376D01*
X228574Y241427D01*
X228498Y241376D01*
X228473Y241274D01*
X228498Y241198D01*
X228600Y241173D01*
X228676Y241198D01*
X228727Y241300D01*
X228600Y241300D01*
X226187Y241300D02*
X226187Y241300D01*
X226136Y241376D01*
X226034Y241427D01*
X225958Y241376D01*
X225933Y241274D01*
X225958Y241198D01*
X226060Y241173D01*
X226136Y241198D01*
X226187Y241300D01*
X226060Y241300D01*
X223647Y241300D02*
X223647Y241300D01*
X223596Y241376D01*
X223494Y241427D01*
X223418Y241376D01*
X223393Y241274D01*
X223418Y241198D01*
X223520Y241173D01*
X223596Y241198D01*
X223647Y241300D01*
X223520Y241300D01*
X221107Y241300D02*
X221107Y241300D01*
X221056Y241376D01*
X220954Y241427D01*
X220878Y241376D01*
X220853Y241274D01*
X220878Y241198D01*
X220980Y241173D01*
X221056Y241198D01*
X221107Y241300D01*
X220980Y241300D01*
X294767Y241300D02*
X294767Y241300D01*
X294716Y241376D01*
X294614Y241427D01*
X294538Y241376D01*
X294513Y241274D01*
X294538Y241198D01*
X294640Y241173D01*
X294716Y241198D01*
X294767Y241300D01*
X294640Y241300D01*
X292227Y241300D02*
X292227Y241300D01*
X292176Y241376D01*
X292074Y241427D01*
X291998Y241376D01*
X291973Y241274D01*
X291998Y241198D01*
X292100Y241173D01*
X292176Y241198D01*
X292227Y241300D01*
X292100Y241300D01*
X289687Y241300D02*
X289687Y241300D01*
X289636Y241376D01*
X289534Y241427D01*
X289458Y241376D01*
X289433Y241274D01*
X289458Y241198D01*
X289560Y241173D01*
X289636Y241198D01*
X289687Y241300D01*
X289560Y241300D01*
X287147Y241300D02*
X287147Y241300D01*
X287096Y241376D01*
X286994Y241427D01*
X286918Y241376D01*
X286893Y241274D01*
X286918Y241198D01*
X287020Y241173D01*
X287096Y241198D01*
X287147Y241300D01*
X287020Y241300D01*
X284607Y241300D02*
X284607Y241300D01*
X284556Y241376D01*
X284454Y241427D01*
X284378Y241376D01*
X284353Y241274D01*
X284378Y241198D01*
X284480Y241173D01*
X284556Y241198D01*
X284607Y241300D01*
X284480Y241300D01*
X282067Y241300D02*
X282067Y241300D01*
X282016Y241376D01*
X281914Y241427D01*
X281838Y241376D01*
X281813Y241274D01*
X281838Y241198D01*
X281940Y241173D01*
X282016Y241198D01*
X282067Y241300D01*
X281940Y241300D01*
X279527Y241300D02*
X279527Y241300D01*
X279476Y241376D01*
X279374Y241427D01*
X279298Y241376D01*
X279273Y241274D01*
X279298Y241198D01*
X279400Y241173D01*
X279476Y241198D01*
X279527Y241300D01*
X279400Y241300D01*
X276987Y241300D02*
X276987Y241300D01*
X276936Y241376D01*
X276834Y241427D01*
X276758Y241376D01*
X276733Y241274D01*
X276758Y241198D01*
X276860Y241173D01*
X276936Y241198D01*
X276987Y241300D01*
X276860Y241300D01*
X274447Y241300D02*
X274447Y241300D01*
X274396Y241376D01*
X274294Y241427D01*
X274218Y241376D01*
X274193Y241274D01*
X274218Y241198D01*
X274320Y241173D01*
X274396Y241198D01*
X274447Y241300D01*
X274320Y241300D01*
X271907Y241300D02*
X271907Y241300D01*
X271856Y241376D01*
X271754Y241427D01*
X271678Y241376D01*
X271653Y241274D01*
X271678Y241198D01*
X271780Y241173D01*
X271856Y241198D01*
X271907Y241300D01*
X271780Y241300D01*
X269367Y241300D02*
X269367Y241300D01*
X269316Y241376D01*
X269214Y241427D01*
X269138Y241376D01*
X269113Y241274D01*
X269138Y241198D01*
X269240Y241173D01*
X269316Y241198D01*
X269367Y241300D01*
X269240Y241300D01*
X266827Y241300D02*
X266827Y241300D01*
X266776Y241376D01*
X266674Y241427D01*
X266598Y241376D01*
X266573Y241274D01*
X266598Y241198D01*
X266700Y241173D01*
X266776Y241198D01*
X266827Y241300D01*
X266700Y241300D01*
X264287Y241300D02*
X264287Y241300D01*
X264236Y241376D01*
X264134Y241427D01*
X264058Y241376D01*
X264033Y241274D01*
X264058Y241198D01*
X264160Y241173D01*
X264236Y241198D01*
X264287Y241300D01*
X264160Y241300D01*
X264287Y238760D02*
X264287Y238760D01*
X264236Y238836D01*
X264134Y238887D01*
X264058Y238836D01*
X264033Y238734D01*
X264058Y238658D01*
X264160Y238633D01*
X264236Y238658D01*
X264287Y238760D01*
X264160Y238760D01*
X266827Y238760D02*
X266827Y238760D01*
X266776Y238836D01*
X266674Y238887D01*
X266598Y238836D01*
X266573Y238734D01*
X266598Y238658D01*
X266700Y238633D01*
X266776Y238658D01*
X266827Y238760D01*
X266700Y238760D01*
X269367Y238760D02*
X269367Y238760D01*
X269316Y238836D01*
X269214Y238887D01*
X269138Y238836D01*
X269113Y238734D01*
X269138Y238658D01*
X269240Y238633D01*
X269316Y238658D01*
X269367Y238760D01*
X269240Y238760D01*
X271907Y238760D02*
X271907Y238760D01*
X271856Y238836D01*
X271754Y238887D01*
X271678Y238836D01*
X271653Y238734D01*
X271678Y238658D01*
X271780Y238633D01*
X271856Y238658D01*
X271907Y238760D01*
X271780Y238760D01*
X274447Y238760D02*
X274447Y238760D01*
X274396Y238836D01*
X274294Y238887D01*
X274218Y238836D01*
X274193Y238734D01*
X274218Y238658D01*
X274320Y238633D01*
X274396Y238658D01*
X274447Y238760D01*
X274320Y238760D01*
X276987Y238760D02*
X276987Y238760D01*
X276936Y238836D01*
X276834Y238887D01*
X276758Y238836D01*
X276733Y238734D01*
X276758Y238658D01*
X276860Y238633D01*
X276936Y238658D01*
X276987Y238760D01*
X276860Y238760D01*
X279527Y238760D02*
X279527Y238760D01*
X279476Y238836D01*
X279374Y238887D01*
X279298Y238836D01*
X279273Y238734D01*
X279298Y238658D01*
X279400Y238633D01*
X279476Y238658D01*
X279527Y238760D01*
X279400Y238760D01*
X282067Y238760D02*
X282067Y238760D01*
X282016Y238836D01*
X281914Y238887D01*
X281838Y238836D01*
X281813Y238734D01*
X281838Y238658D01*
X281940Y238633D01*
X282016Y238658D01*
X282067Y238760D01*
X281940Y238760D01*
X284607Y238760D02*
X284607Y238760D01*
X284556Y238836D01*
X284454Y238887D01*
X284378Y238836D01*
X284353Y238734D01*
X284378Y238658D01*
X284480Y238633D01*
X284556Y238658D01*
X284607Y238760D01*
X284480Y238760D01*
X287147Y238760D02*
X287147Y238760D01*
X287096Y238836D01*
X286994Y238887D01*
X286918Y238836D01*
X286893Y238734D01*
X286918Y238658D01*
X287020Y238633D01*
X287096Y238658D01*
X287147Y238760D01*
X287020Y238760D01*
X289687Y238760D02*
X289687Y238760D01*
X289636Y238836D01*
X289534Y238887D01*
X289458Y238836D01*
X289433Y238734D01*
X289458Y238658D01*
X289560Y238633D01*
X289636Y238658D01*
X289687Y238760D01*
X289560Y238760D01*
X292227Y238760D02*
X292227Y238760D01*
X292176Y238836D01*
X292074Y238887D01*
X291998Y238836D01*
X291973Y238734D01*
X291998Y238658D01*
X292100Y238633D01*
X292176Y238658D01*
X292227Y238760D01*
X292100Y238760D01*
X294767Y238760D02*
X294767Y238760D01*
X294716Y238836D01*
X294614Y238887D01*
X294538Y238836D01*
X294513Y238734D01*
X294538Y238658D01*
X294640Y238633D01*
X294716Y238658D01*
X294767Y238760D01*
X294640Y238760D01*
X297307Y238760D02*
X297307Y238760D01*
X297256Y238836D01*
X297154Y238887D01*
X297078Y238836D01*
X297053Y238734D01*
X297078Y238658D01*
X297180Y238633D01*
X297256Y238658D01*
X297307Y238760D01*
X297180Y238760D01*
X297307Y241300D02*
X297307Y241300D01*
X297256Y241376D01*
X297154Y241427D01*
X297078Y241376D01*
X297053Y241274D01*
X297078Y241198D01*
X297180Y241173D01*
X297256Y241198D01*
X297307Y241300D01*
X297180Y241300D01*
X299847Y241300D02*
X299847Y241300D01*
X299796Y241376D01*
X299694Y241427D01*
X299618Y241376D01*
X299593Y241274D01*
X299618Y241198D01*
X299720Y241173D01*
X299796Y241198D01*
X299847Y241300D01*
X299720Y241300D01*
X299847Y238887D02*
X299593Y238887D01*
X299593Y238633D01*
X299847Y238633D01*
X299847Y238887D01*
X299720Y238760D01*
X301244Y230759D02*
X300736Y230759D01*
X300736Y230251D01*
X301244Y230251D01*
X301244Y230759D01*
X300990Y230505D01*
X301244Y233299D02*
X300736Y233299D01*
X300736Y232791D01*
X301244Y232791D01*
X301244Y233299D01*
X300990Y233045D01*
X214249Y230759D02*
X213741Y230759D01*
X213741Y230251D01*
X214249Y230251D01*
X214249Y230759D01*
X213995Y230505D01*
X214249Y233299D02*
X213741Y233299D01*
X213741Y232791D01*
X214249Y232791D01*
X214249Y233299D01*
X213995Y233045D01*
X231140Y247650D02*
X231140Y247650D01*
X280670Y245110D02*
X280670Y245110D01*
X217170Y218440D02*
X217170Y218440D01*
X243840Y203200D02*
X243840Y203200D01*
X222250Y207010D02*
X222250Y207010D01*
X223520Y208280D02*
X223520Y208280D01*
X224790Y209550D02*
X224790Y209550D01*
X226060Y210820D02*
X226060Y210820D01*
X227330Y212090D02*
X227330Y212090D01*
X245110Y204470D02*
X245110Y204470D01*
X246380Y205740D02*
X246380Y205740D01*
X247650Y207010D02*
X247650Y207010D01*
X248920Y208280D02*
X248920Y208280D01*
X250190Y209550D02*
X250190Y209550D01*
X251460Y210820D02*
X251460Y210820D01*
X252730Y212090D02*
X252730Y212090D01*
X217170Y236220D02*
X217170Y236220D01*
X219710Y234950D02*
X219710Y234950D01*
X220980Y233680D02*
X220980Y233680D01*
X222250Y232410D02*
X222250Y232410D01*
X223520Y231140D02*
X223520Y231140D01*
X224790Y229870D02*
X224790Y229870D01*
X226060Y228600D02*
X226060Y228600D01*
X227330Y227330D02*
X227330Y227330D01*
X297180Y236220D02*
X297180Y236220D01*
X295910Y234950D02*
X295910Y234950D01*
X294640Y233680D02*
X294640Y233680D01*
X293370Y232410D02*
X293370Y232410D01*
X292100Y231140D02*
X292100Y231140D01*
X290830Y229870D02*
X290830Y229870D01*
X289560Y228600D02*
X289560Y228600D01*
X288290Y227330D02*
X288290Y227330D01*
X229870Y226060D02*
X229870Y226060D01*
X229870Y215900D02*
X229870Y215900D01*
X231140Y214630D02*
X231140Y214630D01*
X208280Y246380D02*
X208280Y246380D01*
X231140Y245110D02*
X231140Y245110D01*
X233680Y243840D02*
X233680Y243840D01*
X210820Y217170D02*
X210820Y217170D01*
X210820Y213360D02*
X210820Y213360D01*
X232410Y213360D02*
X232410Y213360D01*
X278130Y224790D02*
X278130Y224790D01*
X237490Y242570D02*
X237490Y242570D01*
X278130Y242570D02*
X278130Y242570D01*
X275590Y242570D02*
X275590Y242570D01*
X240030Y242570D02*
X240030Y242570D01*
X273050Y242570D02*
X273050Y242570D01*
X242570Y242570D02*
X242570Y242570D01*
X254000Y237490D02*
X254000Y237490D01*
X276860Y224790D02*
X276860Y224790D01*
X275590Y224790D02*
X275590Y224790D01*
X274320Y224790D02*
X274320Y224790D01*
X273050Y224790D02*
X273050Y224790D01*
X252730Y240030D02*
X252730Y240030D01*
X255270Y240030D02*
X255270Y240030D01*
X266700Y219710D02*
X266700Y219710D01*
X271780Y224790D02*
X271780Y224790D01*
X278130Y218440D02*
X278130Y218440D01*
X270510Y223520D02*
X270510Y223520D01*
X218440Y207010D02*
X218440Y207010D01*
X219710Y207010D02*
X219710Y207010D01*
X220980Y207010D02*
X220980Y207010D01*
X270510Y220980D02*
X270510Y220980D01*
X252730Y242570D02*
X252730Y242570D01*
X255270Y242570D02*
X255270Y242570D01*
X246380Y236321D02*
X246380Y236321D01*
X246380Y235508D02*
X246380Y235508D01*
X268122Y236321D02*
X268122Y236321D01*
X268122Y235508D02*
X268122Y235508D01*
D02M02*
