M48
METRIC,0000.00
T01F00S00C0.020
T03F00S00C0.038
T04F00S00C0.046
%
T01
X+208279Y+246379
X+210819Y+217169
Y+213359
X+217169Y+218439
Y+236219
X+218439Y+207009
X+219709Y+234949
Y+207009
X+220979Y+233679
Y+207009
X+222249
Y+232409
X+223519Y+208279
Y+231139
X+224789Y+209549
Y+229869
X+226059Y+210819
Y+228599
X+227329Y+212089
Y+227329
X+229869Y+226059
Y+215899
X+231139Y+247649
Y+214629
Y+245109
X+232409Y+213359
X+233679Y+243839
X+237489Y+242569
X+240029
X+242569
X+243839Y+203199
X+245109Y+204469
X+246379Y+205739
Y+236321
Y+235508
X+247649Y+207009
X+248919Y+208279
X+250189Y+209549
X+251459Y+210819
X+252729Y+212089
Y+240029
Y+242569
X+253999Y+237489
X+255269Y+240029
Y+242569
X+266699Y+219709
X+268122Y+236321
Y+235508
X+270509Y+223519
Y+220979
X+271779Y+224789
X+273049Y+242569
Y+224789
X+274319
X+275589Y+242569
Y+224789
X+276859
X+278129
Y+242569
Y+218439
X+280669Y+245109
X+288289Y+227329
X+289559Y+228599
X+290829Y+229869
X+292099Y+231139
X+293369Y+232409
X+294639Y+233679
X+295909Y+234949
X+297179Y+236219
T03
X+215899Y+220979
Y+223519
Y+238759
Y+241299
X+218439Y+223519
Y+220979
Y+241299
Y+238759
X+220979Y+220979
Y+223519
Y+238759
Y+241299
X+223519Y+220979
Y+223519
Y+238759
Y+241299
X+226059Y+220979
Y+223519
Y+238759
Y+241299
X+228599Y+220979
Y+223519
Y+238759
Y+241299
X+231139Y+220979
Y+223519
Y+238759
Y+241299
X+233679Y+220979
Y+223519
Y+238759
Y+241299
X+236219Y+220979
Y+223519
Y+238759
Y+241299
X+238759Y+220979
Y+223519
Y+238759
Y+241299
X+241299Y+215899
Y+213359
Y+220979
Y+223519
Y+238759
Y+241299
X+243839Y+213359
Y+215899
Y+220979
Y+223519
Y+238759
Y+241299
X+246379Y+215899
Y+213359
Y+220979
Y+223519
Y+238759
Y+241299
X+248919Y+215899
Y+213359
Y+220979
Y+223519
Y+238759
Y+241299
X+251459Y+215899
Y+213359
Y+220979
Y+223519
Y+238759
Y+241299
X+253999Y+215899
Y+213359
X+256539Y+215899
Y+213359
X+259079Y+215899
Y+213359
X+261619Y+215899
Y+213359
X+264159Y+215899
Y+213359
Y+241299
Y+238759
X+266699Y+215899
Y+213359
Y+241299
Y+238759
X+269239Y+215899
Y+213359
Y+241299
Y+238759
X+271779Y+215899
Y+213359
Y+241299
Y+238759
X+274319Y+215899
Y+213359
Y+241299
Y+238759
X+276859Y+215899
Y+213359
Y+241299
Y+238759
X+279399Y+241299
Y+238759
X+281939Y+241299
Y+238759
X+284479Y+241299
Y+238759
X+287019Y+241299
Y+238759
X+289559Y+241299
Y+238759
X+292099Y+241299
Y+238759
X+294639Y+241299
Y+238759
X+297179
Y+241299
X+299719
Y+238759
T04
X+213994Y+230504
Y+233044
X+300989Y+230504
Y+233044
T00
M30
